<svg width="17" height="13" viewBox="0 0 17 13" fill="none" xmlns="http://www.w3.org/2000/svg">
<path d="M13.9276 0.499512C15.0724 0.499512 16 1.42714 16 2.57188V10.2692C16 11.414 15.0724 12.3416 13.9276 12.3416H3.07237C2.52274 12.3416 1.99563 12.1233 1.60698 11.7346C1.21834 11.346 1 10.8189 1 10.2692V2.57188C1 1.42714 1.92763 0.499512 3.07237 0.499512H13.9276ZM15.0132 4.1907L8.73763 7.64227C8.67306 7.67778 8.60136 7.69837 8.5278 7.70253C8.45423 7.7067 8.38066 7.69434 8.3125 7.66635L8.26237 7.64267L1.98684 4.1903V10.2692C1.98684 10.5571 2.10121 10.8333 2.30479 11.0368C2.50836 11.2404 2.78447 11.3548 3.07237 11.3548H13.9276C14.2155 11.3548 14.4916 11.2404 14.6952 11.0368C14.8988 10.8333 15.0132 10.5571 15.0132 10.2692V4.1907ZM13.9276 1.48635H3.07237C2.78447 1.48635 2.50836 1.60072 2.30479 1.8043C2.10121 2.00787 1.98684 2.28398 1.98684 2.57188V3.06491L8.5 6.64675L15.0132 3.06451V2.57188C15.0132 2.28398 14.8988 2.00787 14.6952 1.8043C14.4916 1.60072 14.2155 1.48635 13.9276 1.48635Z" fill="white" stroke="white" stroke-width="0.4"/>
</svg>
