<svg width="22" height="21" viewBox="0 0 22 21" fill="none" xmlns="http://www.w3.org/2000/svg">
<path d="M20.8776 3.5587C20.8612 3.50221 20.83 3.45117 20.7871 3.41092C20.7442 3.37067 20.6913 3.3427 20.6338 3.32995L18.6229 2.87564L18.1686 0.864704C18.1557 0.807438 18.1276 0.754686 18.0874 0.711957C18.0471 0.669227 17.9961 0.638086 17.9398 0.621785C17.8834 0.605483 17.8236 0.604618 17.7668 0.619281C17.7099 0.633943 17.6581 0.663595 17.6166 0.705142L15.3038 3.01833C13.3466 1.83734 11.0249 1.41356 8.77677 1.82694C6.52861 2.24033 4.50951 3.4623 3.10051 5.26225C1.6915 7.0622 0.990051 9.31563 1.12852 11.5973C1.267 13.8789 2.23582 16.031 3.85216 17.6473C5.4685 19.2637 7.62056 20.2325 9.90221 20.371C12.1839 20.5094 14.4373 19.808 16.2372 18.399C18.0372 16.99 19.2592 14.9709 19.6725 12.7227C20.0859 10.4746 19.6621 8.15284 18.4812 6.1957L20.7949 3.88195C20.8363 3.84038 20.8658 3.78847 20.8804 3.73162C20.8949 3.67477 20.894 3.61506 20.8776 3.5587ZM19.1702 11.0315C19.17 12.9471 18.5375 14.8091 17.3711 16.3287C16.2046 17.8482 14.5693 18.9403 12.7188 19.4356C10.8683 19.9309 8.90608 19.8016 7.13652 19.0679C5.36697 18.3343 3.889 17.0371 2.93188 15.3777C1.97476 13.7184 1.592 11.7895 1.84296 9.89039C2.09393 7.99128 2.96459 6.22806 4.3199 4.87426C5.6752 3.52047 7.43939 2.65177 9.33878 2.40292C11.2382 2.15407 13.1666 2.53899 14.8249 3.49795L13.7627 4.56014C13.7536 4.57053 13.7451 4.58149 13.7374 4.59295C12.2037 3.81213 10.4418 3.60395 8.76831 4.00585C7.09486 4.40775 5.61963 5.39336 4.60779 6.78553C3.59594 8.1777 3.11384 9.88513 3.24814 11.6009C3.38244 13.3167 4.12433 14.9283 5.34045 16.1461C6.55658 17.3639 8.1672 18.108 9.8828 18.2446C11.5984 18.3812 13.3065 17.9015 14.7 16.8915C16.0936 15.8816 17.0812 14.4077 17.4854 12.7348C17.8895 11.0619 17.6838 9.29967 16.905 7.76489C16.9171 7.75637 16.9286 7.74704 16.9393 7.73695L18.0015 6.67477C18.7686 7.9985 19.1718 9.5016 19.1702 11.0315ZM16.1263 7.71014C16.9322 9.08576 17.2091 10.7079 16.9053 12.2729C16.6014 13.838 15.7377 15.2387 14.4757 16.2129C13.2138 17.1871 11.64 17.668 10.049 17.5657C8.45806 17.4634 6.9589 16.7848 5.83212 15.6569C4.70535 14.529 4.0282 13.0292 3.92739 11.4382C3.82659 9.84708 4.30904 8.2738 5.28446 7.01276C6.25987 5.75171 7.6614 4.88934 9.22674 4.58702C10.7921 4.28471 12.4139 4.56319 13.7888 5.37033L14.1343 6.90108L13.8028 7.23258C12.8143 6.36448 11.5268 5.91485 10.2128 5.97876C8.8987 6.04267 7.66098 6.61511 6.76132 7.57505C5.86165 8.53498 5.37056 9.80717 5.39187 11.1226C5.41318 12.4381 5.94523 13.6937 6.87551 14.624C7.8058 15.5543 9.06141 16.0863 10.3769 16.1076C11.6923 16.1289 12.9645 15.6378 13.9244 14.7382C14.8844 13.8385 15.4568 12.6008 15.5207 11.2867C15.5846 9.97264 15.135 8.68521 14.2669 7.69664L14.5984 7.36514L16.1263 7.71014ZM11.8789 11.0315C11.8801 11.3452 11.7771 11.6504 11.586 11.8992C11.395 12.148 11.1268 12.3263 10.8235 12.4062C10.5202 12.4861 10.1989 12.4631 9.9101 12.3407C9.62129 12.2183 9.3813 12.0034 9.22777 11.7299C9.07424 11.4564 9.01587 11.1396 9.06181 10.8293C9.10776 10.519 9.25541 10.2328 9.48161 10.0155C9.70782 9.79817 9.99976 9.66211 10.3116 9.62865C10.6235 9.59518 10.9377 9.66621 11.2048 9.83058L10.2358 10.7996C10.2045 10.8299 10.1795 10.8661 10.1623 10.9061C10.1451 10.9461 10.1361 10.9892 10.1357 11.0328C10.1354 11.0763 10.1437 11.1195 10.1602 11.1599C10.1767 11.2002 10.2011 11.2368 10.2319 11.2676C10.2627 11.2984 10.2993 11.3228 10.3397 11.3393C10.38 11.3558 10.4232 11.364 10.4668 11.3637C10.5103 11.3633 10.5534 11.3542 10.5934 11.337C10.6334 11.3198 10.6696 11.2948 10.6999 11.2635L11.6689 10.2945C11.8061 10.5158 11.8788 10.7711 11.8789 11.0315ZM11.6772 9.35827C11.2544 9.05205 10.7318 8.91637 10.2135 8.97826C9.69515 9.04015 9.21918 9.29507 8.88041 9.69221C8.54164 10.0894 8.36495 10.5996 8.38555 11.1212C8.40616 11.6428 8.62254 12.1374 8.99158 12.5066C9.36062 12.8758 9.85521 13.0924 10.3768 13.1132C10.8984 13.134 11.4087 12.9576 11.806 12.6189C12.2032 12.2803 12.4583 11.8045 12.5204 11.2862C12.5825 10.7679 12.4471 10.2452 12.141 9.82233L13.8019 8.16145C14.5461 9.02602 14.9261 10.1454 14.8622 11.2843C14.7983 12.4233 14.2954 13.4931 13.4591 14.269C12.6228 15.0448 11.5184 15.4663 10.3779 15.4448C9.23732 15.4234 8.14952 14.9606 7.34306 14.1538C6.5366 13.347 6.07428 12.259 6.05327 11.1185C6.03226 9.97796 6.45419 8.87367 7.23039 8.03773C8.00658 7.20179 9.0766 6.69928 10.2156 6.63581C11.3545 6.57235 12.4738 6.95286 13.338 7.69739L11.6772 9.35827ZM17.8354 5.91277L16.6039 7.14408L16.4192 7.10245L16.4121 7.10077L14.7687 6.73083L14.3545 4.89652L17.6605 1.58995L18.0293 3.22233C18.043 3.28285 18.0735 3.33825 18.1174 3.38212C18.1612 3.42599 18.2166 3.45653 18.2772 3.4702L19.9095 3.83902L17.8354 5.91277Z" fill="white" stroke="white" stroke-width="0.4"/>
</svg>
