<svg width="14" height="16" viewBox="0 0 14 16" fill="none" xmlns="http://www.w3.org/2000/svg">
<path d="M13.344 12.7407C12.9956 11.8987 12.49 11.1339 11.8554 10.4888C11.2227 9.84193 10.4732 9.32615 9.64833 8.96999C9.64094 8.96622 9.63355 8.96434 9.62616 8.96057C10.7768 8.11258 11.5248 6.7313 11.5248 5.17288C11.5248 2.59122 9.47472 0.499512 6.94444 0.499512C4.41417 0.499512 2.3641 2.59122 2.3641 5.17288C2.3641 6.7313 3.1121 8.11258 4.26272 8.96245C4.25534 8.96622 4.24795 8.9681 4.24056 8.97187C3.41314 9.32803 2.67068 9.83871 2.0335 10.4907C1.39947 11.1363 0.893961 11.901 0.544886 12.7426C0.201955 13.5666 0.0170044 14.45 4.61839e-05 15.345C-0.000446767 15.3651 0.00301071 15.3851 0.010215 15.4038C0.0174192 15.4226 0.0282245 15.4396 0.041994 15.454C0.0557636 15.4684 0.0722188 15.4799 0.0903902 15.4877C0.108561 15.4955 0.128081 15.4995 0.147799 15.4995H1.25595C1.33721 15.4995 1.40185 15.4336 1.4037 15.3525C1.44064 13.8978 2.01318 12.5353 3.02529 11.5027C4.07249 10.4342 5.46322 9.84624 6.94444 9.84624C8.42567 9.84624 9.8164 10.4342 10.8636 11.5027C11.8757 12.5353 12.4482 13.8978 12.4852 15.3525C12.487 15.4354 12.5517 15.4995 12.6329 15.4995H13.7411C13.7608 15.4995 13.7803 15.4955 13.7985 15.4877C13.8167 15.4799 13.8331 15.4684 13.8469 15.454C13.8607 15.4396 13.8715 15.4226 13.8787 15.4038C13.8859 15.3851 13.8893 15.3651 13.8888 15.345C13.8704 14.4442 13.6875 13.568 13.344 12.7407ZM6.94444 8.41408C6.09671 8.41408 5.29884 8.07677 4.6986 7.46434C4.09835 6.8519 3.76775 6.03783 3.76775 5.17288C3.76775 4.30793 4.09835 3.49386 4.6986 2.88142C5.29884 2.26898 6.09671 1.93167 6.94444 1.93167C7.79218 1.93167 8.59004 2.26898 9.19029 2.88142C9.79054 3.49386 10.1211 4.30793 10.1211 5.17288C10.1211 6.03783 9.79054 6.8519 9.19029 7.46434C8.59004 8.07677 7.79218 8.41408 6.94444 8.41408Z" fill="white"/>
</svg>
