<svg id="SvgjsSvg1001" width="288" height="288" xmlns="http://www.w3.org/2000/svg" version="1.1" xmlns:xlink="http://www.w3.org/1999/xlink" xmlns:svgjs="http://svgjs.com/svgjs"><defs id="SvgjsDefs1002"></defs><g id="SvgjsG1008"><svg xmlns="http://www.w3.org/2000/svg" width="288" height="288" version="1.0" viewBox="0 0 512 512"><g transform="matrix(.1 0 0 -.1 0 512)" fill="#666666" class="color000 svgShape"><path d="M1242 3660 c-40 -11 -101 -34 -135 -52 -74 -39 -192 -154 -226 -219l-25 -47 -160 -31 c-243 -48 -329 -101 -394 -239 l-27 -57 0 -455 0 -455 27
-57 c65 -138 151 -191 394 -239 l160 -31 25 -47 c38 -73 153 -182 237 -223
121 -61 184 -70 468 -66 245 3 250 3 304 29 30 15 133 86 229 158 l174 131
267 0 267 0 174 -131 c96 -72 199 -143 229 -158 54 -26 59 -26 304 -29 284 -4
346 5 469 65 83 42 197 150 236 224 l25 47 160 32 c89 17 184 42 213 55 74 33
137 96 176 174 l32 66 0 455 0 455 -32 66 c-39 78 -102 141 -176 174 -29 13
-124 38 -213 55 l-160 32 -25 47 c-35 66 -153 181 -226 219 -34 18 -96 41
-139 52 -75 19 -114 20 -1318 19 -1189 0 -1244 -1 -1314 -19z m2613 -331 c64
-33 121 -107 135 -174 8 -34 10 -238 8 -625 -3 -644 0 -612 -78 -690 -70 -70
-89 -75 -336 -78 l-221 -3 -189 141 c-252 187 -227 180 -614 180 -387 0 -362
7 -613 -180 l-189 -140 -199 0 c-110 0 -219 5 -243 11 -61 15 -134 75 -165
134 l-26 50 -3 580 c-2 390 1 594 8 623 22 89 84 154 177 188 31 11 251 13
1268 11 l1230 -2 50 -26z m-3055 -769 c0 -369 -2 -440 -14 -440 -30 0 -172 33
-183 42 -10 8 -13 100 -13 398 0 298 3 390 13 398 12 10 135 39 175 41 l22 1
0 -440z m3626 424 c44 -9 85 -21 92 -26 9 -8 12 -100 12 -398 0 -298 -3 -390
-12 -398 -12 -9 -154 -42 -184 -42 -12 0 -14 71 -14 440 0 369 2 440 14 440 8
0 49 -7 92 -16z" fill="#666666" class="color000 svgShape"></path><path d="M2175 3026 c-67 -29 -105 -106 -91 -181 9 -47 59 -102 104 -115 24
-7 160 -10 394 -8 342 3 358 4 384 24 53 39 69 71 69 134 0 63 -16 95 -69 134
-26 20 -41 21 -394 23 -290 2 -373 0 -397 -11z" fill="#666666" class="color000 svgShape"></path></g></svg></g></svg>