<?xml version="1.0" encoding="utf-8"?>
<!-- Generator: Adobe Illustrator 24.2.3, SVG Export Plug-In . SVG Version: 6.00 Build 0)  -->
<svg version="1.1" id="Layer_1" xmlns="http://www.w3.org/2000/svg" xmlns:xlink="http://www.w3.org/1999/xlink" x="0px" y="0px"
	 viewBox="0 0 400 400" style="enable-background:new 0 0 400 400;" xml:space="preserve">
<style type="text/css">
	.st0{fill-rule:evenodd;clip-rule:evenodd;fill:#DFE8F5;}
	.st1{fill-rule:evenodd;clip-rule:evenodd;fill:#BACCE9;}
	.st2{fill-rule:evenodd;clip-rule:evenodd;fill:#85AAD7;}
	.st3{fill-rule:evenodd;clip-rule:evenodd;fill:#AFC7E7;}
	.st4{fill-rule:evenodd;clip-rule:evenodd;fill:#E6E4EB;}
	.st5{fill-rule:evenodd;clip-rule:evenodd;fill:#030E2D;stroke:#020E2F;stroke-width:0.1343;stroke-miterlimit:22.9256;}
	.st6{fill-rule:evenodd;clip-rule:evenodd;fill:#D0C9D0;}
	.st7{fill-rule:evenodd;clip-rule:evenodd;fill:#FFFFFF;}
	.st8{fill-rule:evenodd;clip-rule:evenodd;fill:#FF685A;}
	.st9{fill-rule:evenodd;clip-rule:evenodd;fill:#030E2D;}
	.st10{fill-rule:evenodd;clip-rule:evenodd;fill:#393F55;}
	.st11{fill-rule:evenodd;clip-rule:evenodd;fill:#515A6D;}
	.st12{fill-rule:evenodd;clip-rule:evenodd;fill:#FFAE83;}
	.st13{fill-rule:evenodd;clip-rule:evenodd;fill:#FF9071;}
	.st14{fill-rule:evenodd;clip-rule:evenodd;fill:#020E2F;}
	.st15{fill-rule:evenodd;clip-rule:evenodd;fill:#000111;}
	.st16{fill-rule:evenodd;clip-rule:evenodd;fill:#002C4B;}
	.st17{fill-rule:evenodd;clip-rule:evenodd;fill:#0077C0;}
	.st18{fill-rule:evenodd;clip-rule:evenodd;fill:#0D1638;}
	.st19{fill-rule:evenodd;clip-rule:evenodd;fill:#CBC4D2;}
	.st20{fill-rule:evenodd;clip-rule:evenodd;fill:#111E43;}
	.st21{fill-rule:evenodd;clip-rule:evenodd;fill:#021235;}
	.st22{fill-rule:evenodd;clip-rule:evenodd;fill:#333B5E;}
	.st23{fill-rule:evenodd;clip-rule:evenodd;fill:#000006;}
	.st24{fill-rule:evenodd;clip-rule:evenodd;fill:#E2E1E7;}
	.st25{fill-rule:evenodd;clip-rule:evenodd;fill:#D62B6F;}
	.st26{fill-rule:evenodd;clip-rule:evenodd;fill:#FF4C93;}
	.st27{fill-rule:evenodd;clip-rule:evenodd;fill:#ADACBC;}
	.st28{fill-rule:evenodd;clip-rule:evenodd;fill:#D8EFF1;}
	.st29{fill:#020E2F;}
	.st30{font-family:'OpenSans-Extrabold';}
	.st31{font-size:15.2466px;}
	.st32{fill-rule:evenodd;clip-rule:evenodd;fill:#004984;}
	.st33{fill-rule:evenodd;clip-rule:evenodd;fill:#A9A7B6;}
	.st34{fill-rule:evenodd;clip-rule:evenodd;fill:#9892A0;}
	.st35{fill-rule:evenodd;clip-rule:evenodd;fill:#F0EEF0;}
	.st36{fill-rule:evenodd;clip-rule:evenodd;fill:#D4CED6;}
	.st37{fill-rule:evenodd;clip-rule:evenodd;fill:#444D6B;}
	.st38{fill-rule:evenodd;clip-rule:evenodd;fill:#07243B;}
</style>
<g>
	<g>
		<g>
			<path class="st0" d="M81.7,242.2H48.9h-0.9c-18.1,0-32.9,14.8-32.9,32.9l0,0c0,18.1,14.8,32.9,32.9,32.9h96.1h16.6h171.8
				c29.3,0,53.3-24,53.3-53.3l0,0c0-29.3-24-53.3-53.3-53.3h0c-12.4,0-22.5-10.1-22.5-22.5l0,0c0-12.4,10.1-22.5,22.5-22.5h27.1
				c12.9,0,23.4-10.5,23.4-23.4l0,0c0-12.9-10.5-23.4-23.4-23.4h-34.3c-5,0-9.1-4.1-9.1-9.1l0,0c0-5,4.1-9.1,9.1-9.1h6
				c3.5,0,6.3-2.8,6.3-6.3v0c0-3.5-2.8-6.3-6.3-6.3h-22.7c0,0-8.7,0-17,0c-8.4,0-9.3,9.9-30.4,9.9c-32.6,0-28.2,0-60.8,0
				c-4.5,0-8.2,3.7-8.2,8.2v0c0,4.5,3.7,8.2,8.2,8.2h7.9c6.5,0,11.9,5.4,11.9,11.9v0c0,6.5-5.4,11.9-11.9,11.9h-11.9
				c-32.1,0-36.6,8.4-42.2,25.1c-5.6,16.7-34.8,18-34.8,18H79.7c-9.9,0-17.9,8.1-17.9,17.9v0c0,9.9,8.1,17.9,17.9,17.9h2.1
				c9.5,0,17.3,7.8,17.3,17.3l0,0C99,234.5,91.2,242.2,81.7,242.2L81.7,242.2z M349.2,91.2c-3.5,0-6.3-2.8-6.3-6.3
				c0-3.5,2.8-6.3,6.3-6.3c3.5,0,6.3,2.8,6.3,6.3C355.5,88.4,352.7,91.2,349.2,91.2z"/>
			<g>
				<path class="st1" d="M84.6,308.1h2.9v-17.5l10.9,10.9l-6.6,6.6h2.7l5.2-5.2l5.2,5.2h2.7l-6.6-6.6l10.9-10.9v17.5h2.9V171.8H112
					v3.3l-3.3-3.3H106l6,6v0.2l-12.3,12.3L87.5,178v-0.2l6-6h-2.7l-3.3,3.3v-3.3h-2.9v36.1c1,0.2,2,0.4,2.9,0.7v-0.5l0.8,0.8
					c4.3,1.8,7.7,5.2,9.5,9.5l0.7,0.7l-0.3,0.3c0.2,0.7,0.4,1.4,0.6,2.1l1.1-1.1l12.3,12.3v0.2l-12.3,12.3l-7-7
					c-0.5,0.4-1,0.8-1.6,1.2l7.2,7.2l-10.9,10.9v-16.3c-0.9,0.3-1.9,0.6-2.9,0.7V308.1L84.6,308.1z M87.5,285v-21.9l10.9,10.9
					L87.5,285L87.5,285z M87.5,202.6v-21.9l10.9,10.9L87.5,202.6L87.5,202.6z M112,180.7v21.9l-10.9-10.9L112,180.7L112,180.7z
					 M112,208.2v21.9l-10.9-10.9L112,208.2L112,208.2z M112,235.7v21.9l-10.9-10.9L112,235.7L112,235.7z M112,263.1V285l-10.9-10.9
					L112,263.1L112,263.1z M87.5,205.3L99.8,193l12.3,12.3v0.2l-12.3,12.3l-12.3-12.3V205.3L87.5,205.3z M87.5,260.2l12.3-12.3
					l12.3,12.3v0.2l-12.3,12.3l-12.3-12.3V260.2L87.5,260.2z M87.5,287.7l12.3-12.3l12.3,12.3v0.2l-12.3,12.3l-12.3-12.3V287.7z"/>
				<path class="st1" d="M286.2,308.1h2.9v-17.5l10.9,10.9l-6.6,6.6h2.7l5.2-5.2l5.2,5.2h2.7l-6.6-6.6l10.9-10.9v17.5h2.9V194.7
					c-1.1-1.1-2-2.3-2.9-3.6v11.6l-10.9-10.9l7.9-7.9c-0.2-0.8-0.3-1.5-0.4-2.3l-8.9,8.9L289.1,178v-0.2l12.3-12.3l9.1,9.1
					c0.1-0.7,0.3-1.5,0.5-2.2l-8.3-8.3l10.9-10.9v13.5c0.8-1.3,1.8-2.5,2.9-3.6v-60.9c-0.1-0.6-0.2-1.3-0.2-1.9l0,0
					c0-0.7,0.1-1.3,0.2-1.9V78.6h-2.9v14.1l-10.9-10.9l3.2-3.2h-2.7l-1.8,1.8l-1.8-1.8h-2.7l3.2,3.2l-10.9,10.9V79
					c-1,0.3-2,0.8-2.9,1.3V308.1L286.2,308.1z M289.1,285v-21.9l10.9,10.9L289.1,285L289.1,285z M289.1,257.5v-21.9l10.9,10.9
					L289.1,257.5L289.1,257.5z M289.1,230.1v-21.9l10.9,10.9L289.1,230.1L289.1,230.1z M289.1,202.6v-21.9l10.9,10.9L289.1,202.6
					L289.1,202.6z M289.1,175.1v-21.9l10.9,10.9L289.1,175.1L289.1,175.1z M289.1,147.7v-21.9l10.9,10.9L289.1,147.7L289.1,147.7z
					 M289.1,120.2V98.4l10.9,10.9L289.1,120.2L289.1,120.2z M313.7,98.4v21.9l-10.9-10.9L313.7,98.4L313.7,98.4z M313.7,125.8v21.9
					l-10.9-10.9L313.7,125.8L313.7,125.8z M313.7,208.2v21.9l-10.9-10.9L313.7,208.2L313.7,208.2z M313.7,235.7v21.9l-10.9-10.9
					L313.7,235.7L313.7,235.7z M313.7,263.1V285l-10.9-10.9L313.7,263.1L313.7,263.1z M289.1,95.5l12.3-12.3l12.3,12.3v0.2
					l-12.3,12.3l-12.3-12.3V95.5L289.1,95.5z M289.1,122.9l12.3-12.3l12.3,12.3v0.2l-12.3,12.3l-12.3-12.3V122.9L289.1,122.9z
					 M289.1,150.4l12.3-12.3l12.3,12.3v0.2l-12.3,12.3l-12.3-12.3V150.4L289.1,150.4z M289.1,205.3l12.3-12.3l12.3,12.3v0.2
					l-12.3,12.3l-12.3-12.3V205.3L289.1,205.3z M289.1,232.8l12.3-12.3l12.3,12.3v0.2l-12.3,12.3l-12.3-12.3V232.8L289.1,232.8z
					 M289.1,260.2l12.3-12.3l12.3,12.3v0.2l-12.3,12.3l-12.3-12.3V260.2L289.1,260.2z M289.1,287.7l12.3-12.3l12.3,12.3v0.2
					l-12.3,12.3l-12.3-12.3V287.7z"/>
				<path class="st1" d="M74.4,242.2h-4.2v5.2l-5.2-5.2h-4l9.2,9.2v0.2L52,269.8l-18.1-18.1v-0.2l8.8-8.8c-1.9,0.3-3.7,0.8-5.4,1.4
					l-3.4,3.4v-2c-1.5,0.7-2.9,1.5-4.2,2.4v54.5c1.3,0.9,2.8,1.7,4.2,2.4v-8.7L45.8,308c0.8,0.1,1.5,0.1,2.3,0.1h1.8l-15.9-15.9
					v-0.2L52,273.8l18.1,18.1v0.2l-15.9,15.9h4l11.9-11.9v11.9h4.2V242.2L74.4,242.2z M74.4,172.6c-4.3,1.3-7.9,4.2-10.1,8l5.9-5.9
					v30.2c1.3,0.8,2.7,1.5,4.2,2V172.6L74.4,172.6z M33.9,287.9v-32.2L50,271.8L33.9,287.9L33.9,287.9z M70.1,255.7v32.2L54,271.8
					L70.1,255.7z"/>
				<path class="st1" d="M326.7,308.1h4.2v-11.9l11.1,11.1c1.1-0.2,2.2-0.4,3.3-0.7L331,292.1v-0.2l18.1-18.1l18.1,18.1v0.2
					l-9.8,9.8c5.3-2.8,10-6.4,14-10.7v-72.9c-1.8-1.9-3.8-3.8-5.9-5.4l-16.4,16.4L331,211.2V211l9-9c-1.2-0.2-2.4-0.3-3.6-0.4
					L331,207v-5.6c-1.5-0.1-2.9-0.4-4.2-0.7V308.1L326.7,308.1z M326.7,157.1c1.4-0.4,2.8-0.6,4.2-0.7v-22.1l16.1,16.1l-5.9,5.9h4
					l3.9-3.9l3.9,3.9h4l-5.9-5.9l16.1-16.1v20.8c1.5-0.5,2.9-1.1,4.2-1.9v-40.6c-1.3-0.8-2.8-1.4-4.2-1.9v15.4L351.1,110l0.5-0.5h-5
					l0.5,0.5L331,126.1v-16.6h-4.2V157.1L326.7,157.1z M326.7,91.2h4.8c0.3,0,0.6,0,0.8-0.1l-1.3-1.3v-0.2l6.5-6.5
					c-0.3-1-0.8-1.8-1.5-2.5l-5,5v-7h-4.2V91.2L326.7,91.2z M331,287.9v-32.2l16.1,16.1L331,287.9L331,287.9z M331,247.4v-32.2
					l16.1,16.1L331,247.4L331,247.4z M367.2,215.2v32.2l-16.1-16.1L367.2,215.2L367.2,215.2z M367.2,255.7v32.2l-16.1-16.1
					L367.2,255.7L367.2,255.7z M331,130.1l18.1-18.1l18.1,18.1v0.2l-18.1,18.1L331,130.3V130.1L331,130.1z M331,251.4l18.1-18.1
					l18.1,18.1v0.2l-18.1,18.1L331,251.7V251.4z"/>
			</g>
			<g>
				<g>
					<path class="st2" d="M97.1,255.7h-29c-1.2,0-2.1,1-2.1,2.1v20.4c0,1.2,1,2.1,2.1,2.1h29c1.2,0,2.1-1,2.1-2.1v-20.4
						C99.2,256.6,98.3,255.7,97.1,255.7z"/>
					<path class="st3" d="M116.1,255.7h-29c-1.2,0-2.1,1-2.1,2.1v20.4c0,1.2,1,2.1,2.1,2.1h29c1.2,0,2.1-1,2.1-2.1v-20.4
						C118.2,256.6,117.3,255.7,116.1,255.7z"/>
					<path class="st2" d="M112.3,263.8H90.9c-0.7,0-1.2,0.5-1.2,1.2v5.9c0,0.7,0.5,1.2,1.2,1.2h21.4c0.7,0,1.2-0.5,1.2-1.2V265
						C113.6,264.4,113,263.8,112.3,263.8z"/>
					<path class="st4" d="M103,265.3H92.4c-0.1,0-0.3,0.1-0.3,0.3v1.3c0,0.1,0.1,0.3,0.3,0.3H103c0.1,0,0.3-0.1,0.3-0.3v-1.3
						C103.2,265.4,103.1,265.3,103,265.3z"/>
					<path class="st4" d="M97.6,268.2h-5.2c-0.1,0-0.3,0.1-0.3,0.3v1.3c0,0.1,0.1,0.3,0.3,0.3h5.2c0.1,0,0.3-0.1,0.3-0.3v-1.3
						C97.9,268.3,97.8,268.2,97.6,268.2z"/>
				</g>
				<g>
					<path class="st2" d="M87.1,280.4h34.7c1.4,0,2.6,1.2,2.6,2.6v24.5c0,1.4-1.2,2.6-2.6,2.6H87.1c-1.4,0-2.6-1.2-2.6-2.6v-24.5
						C84.5,281.5,85.7,280.4,87.1,280.4z"/>
					<path class="st3" d="M64.3,280.4H99c1.4,0,2.6,1.2,2.6,2.6v24.5c0,1.4-1.2,2.6-2.6,2.6H64.3c-1.4,0-2.6-1.2-2.6-2.6v-24.5
						C61.8,281.5,62.9,280.4,64.3,280.4z"/>
					<path class="st2" d="M68.8,290.1h25.7c0.8,0,1.5,0.7,1.5,1.5v7.1c0,0.8-0.7,1.5-1.5,1.5H68.8c-0.8,0-1.5-0.7-1.5-1.5v-7.1
						C67.4,290.8,68,290.1,68.8,290.1z"/>
					<path class="st4" d="M80.1,291.8h12.6c0.2,0,0.3,0.1,0.3,0.3v1.6c0,0.2-0.1,0.3-0.3,0.3H80.1c-0.2,0-0.3-0.1-0.3-0.3v-1.6
						C79.7,292,79.9,291.8,80.1,291.8z"/>
					<path class="st4" d="M86.4,295.3h6.2c0.2,0,0.3,0.1,0.3,0.3v1.6c0,0.2-0.1,0.3-0.3,0.3h-6.2c-0.2,0-0.3-0.1-0.3-0.3v-1.6
						C86.1,295.5,86.3,295.3,86.4,295.3z"/>
				</g>
			</g>
			<path class="st1" d="M245.9,147.6c0.9-0.9,1.9-1.6,3-2c1.1-0.5,2.3-0.7,3.6-0.7c1.3,0,2.5,0.3,3.6,0.7c1.1,0.5,2.2,1.2,3,2
				c0.9,0.9,1.6,1.9,2,3c0.5,1.1,0.7,2.3,0.7,3.6c0,1.3-0.3,2.5-0.7,3.6c-0.5,1.1-1.2,2.2-2,3c-0.9,0.9-1.9,1.6-3,2
				c-1.1,0.5-2.3,0.7-3.6,0.7c-1.3,0-2.5-0.3-3.6-0.7c-1.1-0.5-2.2-1.2-3-2c-0.9-0.9-1.6-1.9-2-3c-0.5-1.1-0.7-2.3-0.7-3.6
				c0-1.3,0.3-2.5,0.7-3.6C244.3,149.5,245,148.4,245.9,147.6L245.9,147.6z M249.3,146.3c-1,0.4-2,1.1-2.8,1.8
				c-0.8,0.8-1.4,1.7-1.8,2.8c-0.4,1-0.6,2.1-0.6,3.2c0,1.2,0.2,2.3,0.6,3.2c0.4,1,1.1,2,1.8,2.8c0.8,0.8,1.7,1.4,2.8,1.8
				c1,0.4,2.1,0.6,3.2,0.6c1.2,0,2.2-0.2,3.2-0.6c1-0.4,2-1.1,2.8-1.8c0.8-0.8,1.4-1.7,1.8-2.8c0.4-1,0.6-2.1,0.6-3.2
				c0-1.2-0.2-2.2-0.6-3.2c-0.4-1-1.1-2-1.8-2.8c-0.8-0.8-1.7-1.4-2.8-1.8c-1-0.4-2.1-0.6-3.2-0.6
				C251.4,145.7,250.3,145.9,249.3,146.3L249.3,146.3z M248.2,139.5c-0.6,0.2-1.2,0.4-1.7,0.6c-0.6,0.2-1.1,0.5-1.7,0.8
				c-0.5,0.3-1.1,0.7-1.6,1c-0.5,0.4-1,0.8-1.4,1.2c-0.2,0.2-0.4,0.2-0.6,0.3c-0.2,0-0.4,0-0.6-0.1c-1.4-0.8-2.8-1.6-4.2-2.4
				c-0.1,0-0.1-0.1-0.2-0.1c-0.1,0-0.2,0-0.2,0c-0.1,0-0.1,0.1-0.2,0.1c-0.1,0-0.1,0.1-0.2,0.2c-1,1.5-2,3.5-2.9,5.1
				c0,0.1-0.1,0.1-0.1,0.2c0,0.1,0,0.2,0,0.2c0,0.1,0.1,0.1,0.1,0.2c0,0.1,0.1,0.1,0.2,0.2c1.2,0.8,2.8,1.6,4.1,2.4
				c0.2,0.1,0.3,0.3,0.4,0.5c0,0.1,0,0.1,0.1,0.2l0.1,0l-0.1,0.4c-0.1,0.3-0.1,0.6-0.2,0.9c-0.1,0.3-0.1,0.6-0.1,0.9
				c0,0.3-0.1,0.6-0.1,0.9c0,0.3,0,0.6,0,0.9c0,0.3,0,0.6,0,0.9c0,0.3,0,0.6,0.1,0.9c0,0.3,0.1,0.6,0.1,0.9c0.1,0.3,0.1,0.6,0.2,0.9
				c0.1,0.2,0,0.5-0.1,0.6c-0.1,0.2-0.2,0.4-0.4,0.5l-3.7,2.1l0,0l-0.4,0.3c-0.1,0-0.1,0.1-0.2,0.2c0,0.1-0.1,0.1-0.1,0.2
				c0,0.1,0,0.2,0,0.2c0,0.1,0,0.1,0.1,0.2l2.7,4.7l0,0l0.2,0.4c0,0.1,0.1,0.1,0.2,0.2c0.1,0,0.1,0.1,0.2,0.1c0.1,0,0.2,0,0.2,0
				c0.1,0,0.1,0,0.2-0.1c1.3-0.8,2.8-1.6,4.1-2.4c0.2-0.1,0.4-0.1,0.6-0.1c0.2,0,0.4,0.1,0.6,0.3l0,0c0.4,0.4,0.9,0.8,1.4,1.2
				c0.5,0.4,1,0.7,1.6,1c0.5,0.3,1.1,0.6,1.7,0.8c0.6,0.2,1.2,0.4,1.8,0.6c0.2,0.1,0.4,0.2,0.5,0.4c0.1,0.2,0.2,0.4,0.2,0.6l0,4.8
				c0,0.1,0,0.2,0,0.2c0,0.1,0.1,0.1,0.1,0.2c0.1,0.1,0.1,0.1,0.2,0.1c0.1,0,0.1,0,0.2,0h5.9c0.1,0,0.2,0,0.2,0
				c0.1,0,0.1-0.1,0.2-0.1c0.1-0.1,0.1-0.1,0.1-0.2c0-0.1,0-0.1,0-0.2v-4.8c0-0.2,0.1-0.4,0.2-0.6c0.1-0.2,0.3-0.3,0.5-0.3
				c0.6-0.2,1.2-0.4,1.7-0.6c0.6-0.2,1.1-0.5,1.7-0.8c0.5-0.3,1.1-0.7,1.6-1c0.5-0.4,1-0.8,1.4-1.2c0.2-0.2,0.4-0.2,0.6-0.3
				c0.2,0,0.4,0,0.6,0.2l4.1,2.4c0.1,0,0.1,0.1,0.2,0.1c0.1,0,0.2,0,0.2,0c0.1,0,0.1-0.1,0.2-0.1c0.1,0,0.1-0.1,0.2-0.2
				c1-1.7,2-3.4,2.9-5.1c0-0.1,0.1-0.1,0.1-0.2c0-0.1,0-0.2,0-0.2c0-0.1-0.1-0.1-0.1-0.2c0-0.1-0.1-0.1-0.2-0.2l-4.1-2.4
				c-0.2-0.1-0.3-0.3-0.4-0.5c0-0.1,0-0.1-0.1-0.2l-0.1,0l0.1-0.4c0.1-0.3,0.1-0.6,0.2-0.9c0.1-0.3,0.1-0.6,0.1-0.9
				c0-0.3,0.1-0.6,0.1-0.9c0-0.3,0-0.6,0-0.9c0-0.3,0-0.6,0-0.9c0-0.3,0-0.6-0.1-0.9c0-0.3-0.1-0.6-0.1-0.9
				c-0.1-0.3-0.1-0.6-0.2-0.9c-0.1-0.2,0-0.5,0.1-0.6c0.1-0.2,0.2-0.4,0.4-0.5l4.1-2.4c0.1,0,0.1-0.1,0.2-0.2c0-0.1,0.1-0.1,0.1-0.2
				c0-0.1,0-0.2,0-0.2c0-0.1,0-0.1-0.1-0.2c-1-1.5-2-3.5-2.9-5.1c0-0.1-0.1-0.1-0.2-0.2c-0.1,0-0.1-0.1-0.2-0.1c-0.1,0-0.2,0-0.2,0
				c-0.1,0-0.1,0-0.2,0.1l-4.1,2.4c-0.2,0.1-0.4,0.2-0.6,0.1c-0.2,0-0.4-0.1-0.6-0.3c-0.5-0.4-0.9-0.8-1.4-1.2c-0.5-0.4-1-0.7-1.6-1
				c-0.5-0.3-1.1-0.6-1.7-0.8c-0.6-0.2-1.2-0.4-1.8-0.6c-0.2-0.1-0.4-0.2-0.5-0.4c-0.1-0.2-0.2-0.4-0.2-0.6l0-4.8c0-0.1,0-0.2,0-0.2
				c0-0.1-0.1-0.1-0.1-0.2c-0.1-0.1-0.1-0.1-0.2-0.1c-0.1,0-0.1,0-0.2,0h-5.9c-0.1,0-0.2,0-0.2,0c-0.1,0-0.1,0.1-0.2,0.1
				c-0.1,0.1-0.2,0.3-0.2,0.4v4.8c0,0.2-0.1,0.4-0.2,0.6C248.6,139.3,248.4,139.4,248.2,139.5L248.2,139.5z M246.2,139.3
				c-0.6,0.3-1.2,0.5-1.8,0.9c-0.6,0.3-1.1,0.7-1.6,1.1c-0.5,0.4-1,0.8-1.5,1.3c0,0,0,0-0.1,0c0,0-0.1,0-0.1,0
				c-1.4-0.8-2.8-1.6-4.2-2.4c-0.2-0.1-0.3-0.1-0.5-0.2c-0.2,0-0.4,0-0.6,0c-0.2,0-0.4,0.1-0.5,0.3c-0.1,0.1-0.3,0.3-0.4,0.4
				c-1,1.6-2,3.4-2.9,5.1c-0.1,0.2-0.2,0.4-0.2,0.5c0,0.2,0,0.4,0,0.6c0,0.2,0.1,0.4,0.3,0.5c0.1,0.1,0.3,0.3,0.4,0.4
				c1.3,0.8,2.8,1.6,4.1,2.4c0,0,0,0,0,0.1c0,0,0,0,0,0.1l-0.1,0.4l0,0c0,0.2-0.1,0.4-0.1,0.6c-0.1,0.3-0.1,0.7-0.1,1
				c0,0.3-0.1,0.6-0.1,1c0,0.3,0,0.7,0,1c0,0.3,0,0.7,0,1c0,0.3,0.1,0.7,0.1,1c0,0.3,0.1,0.6,0.1,1c0.1,0.3,0.1,0.7,0.2,1
				c0,0,0,0.1,0,0.1c0,0,0,0-0.1,0.1c-1.5,0.8-3.1,1.8-4.6,2.6l0.1,0.1l0,0.1c-0.1,0.2-0.2,0.3-0.3,0.5c0,0.2-0.1,0.4,0,0.6
				c0,0.2,0.1,0.4,0.2,0.5l3.2,5.5l0.1,0c0,0,0.1,0.1,0.1,0.1c0.2,0.1,0.3,0.2,0.5,0.3c0.2,0,0.4,0.1,0.6,0c0.2,0,0.4-0.1,0.5-0.2
				c1.4-0.7,2.8-1.6,4.2-2.4c0,0,0,0,0.1,0c0,0,0,0,0.1,0c0.5,0.5,1,0.9,1.5,1.3c0.5,0.4,1.1,0.8,1.6,1.1c0.6,0.3,1.2,0.6,1.8,0.9
				c0.6,0.3,1.2,0.5,1.9,0.7c0,0,0,0,0.1,0c0,0,0,0,0,0.1v4.8c0,0.2,0,0.4,0.1,0.6c0.1,0.2,0.2,0.3,0.3,0.5c0.1,0.1,0.3,0.2,0.5,0.3
				c0.2,0.1,0.4,0.1,0.6,0.1h5.9c0.2,0,0.4,0,0.6-0.1c0.2-0.1,0.3-0.2,0.5-0.3c0.1-0.1,0.2-0.3,0.3-0.5c0.1-0.2,0.1-0.4,0.1-0.6
				v-4.8c0,0,0-0.1,0-0.1c0,0,0,0,0.1,0l0,0c0.6-0.2,1.3-0.4,1.8-0.7c0.6-0.3,1.2-0.5,1.8-0.9c0.6-0.3,1.1-0.7,1.6-1.1
				c0.5-0.4,1-0.8,1.5-1.3c0,0,0,0,0.1,0c0,0,0.1,0,0.1,0l4.1,2.4c0.2,0.1,0.4,0.2,0.5,0.2c0.2,0,0.4,0,0.6,0c0.2,0,0.4-0.1,0.5-0.3
				c0.1-0.1,0.3-0.2,0.4-0.4c1.1-1.8,2.1-3.7,3.2-5.5l-0.1,0c0,0,0-0.1,0-0.1c0-0.2,0-0.4,0-0.6c0-0.2-0.1-0.4-0.3-0.5
				c-0.1-0.1-0.3-0.3-0.4-0.4l-4.1-2.4c0,0,0,0,0-0.1c0,0,0-0.1,0-0.1l0.1-0.4l0,0c0-0.2,0.1-0.3,0.1-0.5c0.1-0.3,0.1-0.7,0.1-1
				c0-0.3,0.1-0.6,0.1-1c0-0.3,0-0.7,0-1c0-0.3,0-0.7,0-1c0-0.3,0-0.7-0.1-1c0-0.3-0.1-0.6-0.1-1c-0.1-0.3-0.1-0.6-0.2-1
				c0,0,0-0.1,0-0.1c0,0,0,0,0.1-0.1l4.1-2.4c0.2-0.1,0.3-0.2,0.4-0.4c0.1-0.2,0.2-0.3,0.3-0.5c0-0.2,0.1-0.4,0-0.6
				c0-0.2-0.1-0.4-0.2-0.5c-1-1.8-2.1-3.7-3.2-5.5l-0.1,0c0,0-0.1-0.1-0.1-0.1c-0.2-0.1-0.3-0.2-0.5-0.3c-0.2,0-0.4-0.1-0.6,0
				c-0.2,0-0.4,0.1-0.5,0.2l-0.3,0.2l0,0l-3.8,2.2c0,0,0,0-0.1,0c0,0,0,0-0.1,0l0,0c-0.5-0.5-1-0.9-1.5-1.3
				c-0.5-0.4-1.1-0.8-1.6-1.1c-0.6-0.3-1.2-0.6-1.8-0.9c-0.6-0.3-1.2-0.5-1.9-0.7c0,0,0,0-0.1,0c0,0,0,0,0-0.1v-4.8
				c0-0.2,0-0.4-0.1-0.6c-0.1-0.2-0.2-0.3-0.3-0.5c-0.1-0.1-0.3-0.2-0.5-0.3c-0.2-0.1-0.4-0.1-0.6-0.1h-5.9c-0.2,0-0.4,0-0.6,0.1
				c-0.2,0.1-0.3,0.2-0.5,0.3c-0.3,0.3-0.4,0.6-0.4,1v4.8c0,0,0,0.1,0,0.1c0,0,0,0-0.1,0l0,0C247.4,138.8,246.7,139,246.2,139.3z"/>
			<path class="st1" d="M3.3,194.5c0.9-0.9,1.9-1.6,3-2c1.1-0.5,2.3-0.7,3.6-0.7c1.3,0,2.5,0.3,3.6,0.7c1.1,0.5,2.2,1.2,3,2
				c0.9,0.9,1.6,1.9,2,3c0.5,1.1,0.7,2.3,0.7,3.6c0,1.3-0.3,2.5-0.7,3.6c-0.5,1.1-1.2,2.2-2,3c-0.9,0.9-1.9,1.6-3,2
				c-1.1,0.5-2.3,0.7-3.6,0.7c-1.3,0-2.5-0.3-3.6-0.7c-1.1-0.5-2.2-1.2-3-2c-0.9-0.9-1.6-1.9-2-3c-0.5-1.1-0.7-2.3-0.7-3.6
				c0-1.3,0.3-2.5,0.7-3.6C1.8,196.4,2.5,195.4,3.3,194.5L3.3,194.5z M6.7,193.3c-1,0.4-2,1.1-2.8,1.8c-0.8,0.8-1.4,1.7-1.8,2.8
				c-0.4,1-0.6,2.1-0.6,3.2c0,1.2,0.2,2.3,0.6,3.2c0.4,1,1.1,2,1.8,2.8s1.7,1.4,2.8,1.8c1,0.4,2.1,0.6,3.2,0.6
				c1.2,0,2.2-0.2,3.2-0.6c1-0.4,2-1.1,2.8-1.8c0.8-0.8,1.4-1.7,1.8-2.8c0.4-1,0.6-2.1,0.6-3.2c0-1.2-0.2-2.3-0.6-3.2
				c-0.4-1-1.1-2-1.8-2.8c-0.8-0.8-1.7-1.4-2.8-1.8c-1-0.4-2.1-0.6-3.2-0.6S7.7,192.9,6.7,193.3L6.7,193.3z M5.7,186.4
				c-0.6,0.2-1.2,0.4-1.7,0.6c-0.6,0.2-1.1,0.5-1.7,0.8c-0.5,0.3-1.1,0.7-1.6,1c-0.5,0.4-1,0.8-1.4,1.2c-0.2,0.2-0.4,0.2-0.6,0.3
				c-0.2,0-0.4,0-0.6-0.1c-1.4-0.8-2.8-1.6-4.2-2.4c-0.1,0-0.1-0.1-0.2-0.1c-0.1,0-0.2,0-0.2,0c-0.1,0-0.1,0.1-0.2,0.1
				c-0.1,0-0.1,0.1-0.2,0.2c-1,1.5-2,3.5-2.9,5.1c0,0.1-0.1,0.1-0.1,0.2c0,0.1,0,0.2,0,0.2c0,0.1,0.1,0.1,0.1,0.2
				c0,0.1,0.1,0.1,0.2,0.2c1.2,0.8,2.8,1.6,4.1,2.4c0.2,0.1,0.3,0.3,0.4,0.5c0,0.1,0,0.1,0.1,0.2l0.1,0l-0.1,0.4
				c-0.1,0.3-0.1,0.6-0.2,0.9c-0.1,0.3-0.1,0.6-0.1,0.9c0,0.3-0.1,0.6-0.1,0.9c0,0.3,0,0.6,0,0.9s0,0.6,0,0.9c0,0.3,0,0.6,0.1,0.9
				c0,0.3,0.1,0.6,0.1,0.9c0.1,0.3,0.1,0.6,0.2,0.9c0.1,0.2,0,0.5-0.1,0.6c-0.1,0.2-0.2,0.4-0.4,0.5l-3.7,2.1l0,0l-0.4,0.3
				c-0.1,0-0.1,0.1-0.2,0.2c0,0.1-0.1,0.1-0.1,0.2c0,0.1,0,0.2,0,0.2c0,0.1,0,0.1,0.1,0.2l2.7,4.7l0,0l0.2,0.4
				c0,0.1,0.1,0.1,0.2,0.2c0.1,0,0.1,0.1,0.2,0.1c0.1,0,0.2,0,0.2,0c0.1,0,0.1,0,0.2-0.1c1.3-0.8,2.8-1.6,4.1-2.4
				c0.2-0.1,0.4-0.1,0.6-0.1c0.2,0,0.4,0.1,0.6,0.3l0,0c0.4,0.4,0.9,0.8,1.4,1.2c0.5,0.4,1,0.7,1.6,1c0.5,0.3,1.1,0.6,1.7,0.8
				c0.6,0.2,1.2,0.4,1.8,0.6c0.2,0.1,0.4,0.2,0.5,0.4c0.1,0.2,0.2,0.4,0.2,0.6l0,4.8c0,0.1,0,0.2,0,0.2c0,0.1,0.1,0.1,0.1,0.2
				c0.1,0.1,0.1,0.1,0.2,0.1c0.1,0,0.1,0,0.2,0h5.9c0.1,0,0.2,0,0.2,0c0.1,0,0.1-0.1,0.2-0.1c0.1-0.1,0.1-0.1,0.1-0.2
				c0-0.1,0-0.1,0-0.2v-4.8c0-0.2,0.1-0.4,0.2-0.6c0.1-0.2,0.3-0.3,0.5-0.3c0.6-0.2,1.2-0.4,1.7-0.6c0.6-0.2,1.1-0.5,1.7-0.8
				c0.5-0.3,1.1-0.7,1.6-1c0.5-0.4,1-0.8,1.4-1.2c0.2-0.2,0.4-0.2,0.6-0.3c0.2,0,0.4,0,0.6,0.2l4.1,2.4c0.1,0,0.1,0.1,0.2,0.1
				c0.1,0,0.2,0,0.2,0c0.1,0,0.1-0.1,0.2-0.1c0.1,0,0.1-0.1,0.2-0.2c1-1.7,2-3.4,2.9-5.1c0-0.1,0.1-0.1,0.1-0.2c0-0.1,0-0.2,0-0.2
				c0-0.1-0.1-0.1-0.1-0.2c0-0.1-0.1-0.1-0.2-0.2l-4.1-2.4c-0.2-0.1-0.3-0.3-0.4-0.5c0-0.1,0-0.1-0.1-0.2l-0.1,0l0.1-0.4
				c0.1-0.3,0.1-0.6,0.2-0.9c0.1-0.3,0.1-0.6,0.1-0.9c0-0.3,0.1-0.6,0.1-0.9c0-0.3,0-0.6,0-0.9c0-0.3,0-0.6,0-0.9
				c0-0.3,0-0.6-0.1-0.9c0-0.3-0.1-0.6-0.1-0.9c-0.1-0.3-0.1-0.6-0.2-0.9c-0.1-0.2,0-0.5,0.1-0.6c0.1-0.2,0.2-0.4,0.4-0.5l4.1-2.4
				c0.1,0,0.1-0.1,0.2-0.2c0-0.1,0.1-0.1,0.1-0.2c0-0.1,0-0.2,0-0.2c0-0.1,0-0.1-0.1-0.2c-1-1.5-2-3.5-2.9-5.1
				c0-0.1-0.1-0.1-0.2-0.2c-0.1,0-0.1-0.1-0.2-0.1c-0.1,0-0.2,0-0.2,0c-0.1,0-0.1,0-0.2,0.1l-4.1,2.4c-0.2,0.1-0.4,0.2-0.6,0.1
				c-0.2,0-0.4-0.1-0.6-0.3c-0.5-0.4-0.9-0.8-1.4-1.2c-0.5-0.4-1-0.7-1.6-1c-0.5-0.3-1.1-0.6-1.7-0.8c-0.6-0.2-1.2-0.4-1.8-0.6
				c-0.2-0.1-0.4-0.2-0.5-0.4c-0.1-0.2-0.2-0.4-0.2-0.6l0-4.8c0-0.1,0-0.2,0-0.2c0-0.1-0.1-0.1-0.1-0.2c-0.1-0.1-0.1-0.1-0.2-0.1
				c-0.1,0-0.1,0-0.2,0H7c-0.1,0-0.2,0-0.2,0c-0.1,0-0.1,0.1-0.2,0.1c-0.1,0.1-0.2,0.3-0.2,0.4v4.8c0,0.2-0.1,0.4-0.2,0.6
				C6.1,186.2,5.9,186.3,5.7,186.4L5.7,186.4z M3.6,186.2c-0.6,0.3-1.2,0.5-1.8,0.9c-0.6,0.3-1.1,0.7-1.6,1.1
				c-0.5,0.4-1,0.8-1.5,1.3c0,0,0,0-0.1,0c0,0-0.1,0-0.1,0c-1.4-0.8-2.8-1.6-4.2-2.4c-0.2-0.1-0.3-0.1-0.5-0.2c-0.2,0-0.4,0-0.6,0
				c-0.2,0-0.4,0.1-0.5,0.3c-0.1,0.1-0.3,0.3-0.4,0.4c-1,1.6-2,3.4-2.9,5.1c-0.1,0.2-0.2,0.4-0.2,0.5c0,0.2,0,0.4,0,0.6
				c0,0.2,0.1,0.4,0.3,0.5c0.1,0.1,0.3,0.3,0.4,0.4c1.3,0.8,2.8,1.6,4.1,2.4c0,0,0,0,0,0.1c0,0,0,0,0,0.1l-0.1,0.4l0,0
				c0,0.2-0.1,0.4-0.1,0.6c-0.1,0.3-0.1,0.7-0.1,1c0,0.3-0.1,0.6-0.1,1c0,0.3,0,0.7,0,1c0,0.3,0,0.7,0,1c0,0.3,0.1,0.7,0.1,1
				c0,0.3,0.1,0.6,0.1,1c0.1,0.3,0.1,0.6,0.2,1c0,0,0,0.1,0,0.1c0,0,0,0-0.1,0.1c-1.5,0.8-3.1,1.8-4.6,2.6l0.1,0.1l0,0.1
				c-0.1,0.2-0.2,0.3-0.3,0.5c0,0.2-0.1,0.4,0,0.6c0,0.2,0.1,0.4,0.2,0.5l3.2,5.5l0.1,0c0,0,0.1,0.1,0.1,0.1
				c0.2,0.1,0.3,0.2,0.5,0.3c0.2,0,0.4,0.1,0.6,0c0.2,0,0.4-0.1,0.5-0.2c1.4-0.7,2.8-1.6,4.2-2.4c0,0,0,0,0.1,0c0,0,0,0,0.1,0
				c0.5,0.5,1,0.9,1.5,1.3c0.5,0.4,1.1,0.8,1.6,1.1c0.6,0.3,1.2,0.6,1.8,0.9c0.6,0.3,1.2,0.5,1.9,0.7c0,0,0,0,0.1,0c0,0,0,0,0,0.1
				v4.8c0,0.2,0,0.4,0.1,0.6c0.1,0.2,0.2,0.3,0.3,0.5c0.1,0.1,0.3,0.2,0.5,0.3c0.2,0.1,0.4,0.1,0.6,0.1h5.9c0.2,0,0.4,0,0.6-0.1
				c0.2-0.1,0.3-0.2,0.5-0.3c0.1-0.1,0.2-0.3,0.3-0.5c0.1-0.2,0.1-0.4,0.1-0.6v-4.8c0,0,0-0.1,0-0.1c0,0,0,0,0.1,0l0,0
				c0.6-0.2,1.3-0.4,1.8-0.7c0.6-0.3,1.2-0.5,1.8-0.9c0.6-0.3,1.1-0.7,1.6-1.1c0.5-0.4,1-0.8,1.5-1.3c0,0,0,0,0.1,0c0,0,0.1,0,0.1,0
				l4.1,2.4c0.2,0.1,0.4,0.2,0.5,0.2c0.2,0,0.4,0,0.6,0c0.2,0,0.4-0.1,0.5-0.3c0.1-0.1,0.3-0.3,0.4-0.4c1.1-1.8,2.1-3.7,3.2-5.5
				l-0.1,0c0,0,0-0.1,0-0.1c0-0.2,0-0.4,0-0.6c0-0.2-0.1-0.4-0.3-0.5c-0.1-0.1-0.3-0.3-0.4-0.4l-4.1-2.4c0,0,0,0,0-0.1
				c0,0,0-0.1,0-0.1l0.1-0.4l0,0c0-0.2,0.1-0.3,0.1-0.5c0.1-0.3,0.1-0.7,0.1-1c0-0.3,0.1-0.6,0.1-1c0-0.3,0-0.7,0-1c0-0.3,0-0.7,0-1
				c0-0.3-0.1-0.7-0.1-1c0-0.3-0.1-0.6-0.1-1c-0.1-0.3-0.1-0.6-0.2-1c0,0,0-0.1,0-0.1c0,0,0,0,0.1-0.1l4.1-2.4
				c0.2-0.1,0.3-0.2,0.4-0.4c0.1-0.2,0.2-0.3,0.3-0.5c0-0.2,0.1-0.4,0-0.6c0-0.2-0.1-0.4-0.2-0.5c-1-1.8-2.1-3.7-3.2-5.5l-0.1,0
				c0,0-0.1-0.1-0.1-0.1c-0.2-0.1-0.3-0.2-0.5-0.3c-0.2,0-0.4-0.1-0.6,0c-0.2,0-0.4,0.1-0.5,0.2l-0.3,0.2l0,0l-3.8,2.2
				c0,0,0,0-0.1,0c0,0,0,0-0.1,0l0,0c-0.5-0.5-1-0.9-1.5-1.3c-0.5-0.4-1.1-0.8-1.6-1.1c-0.6-0.3-1.2-0.6-1.8-0.9
				c-0.6-0.3-1.2-0.5-1.9-0.7c0,0,0,0-0.1,0c0,0,0,0,0-0.1v-4.8c0-0.2,0-0.4-0.1-0.6c-0.1-0.2-0.2-0.3-0.3-0.5
				c-0.1-0.1-0.3-0.2-0.5-0.3c-0.2-0.1-0.4-0.1-0.6-0.1H7c-0.2,0-0.4,0-0.6,0.1c-0.2,0.1-0.3,0.2-0.5,0.3c-0.3,0.3-0.4,0.6-0.4,1
				v4.8c0,0,0,0.1,0,0.1c0,0,0,0-0.1,0l0,0C4.8,185.7,4.2,186,3.6,186.2z"/>
			<path class="st1" d="M39.8,222.2L39.8,222.2L39.8,222.2z M41.8,214.3c0.7-0.7,1.7-1.2,2.8-1.2c1.1,0,2.1,0.4,2.8,1.2
				c0.7,0.7,1.2,1.7,1.2,2.8c0,1.1-0.4,2.1-1.2,2.8c-0.7,0.7-1.7,1.2-2.8,1.2c-1.1,0-2.1-0.4-2.8-1.2c-0.7-0.7-1.2-1.7-1.2-2.8
				C40.7,216,41.1,215,41.8,214.3L41.8,214.3z M42.7,210.4c-0.6,0.2-1.1,0.4-1.6,0.7c-0.5,0.3-1,0.6-1.4,1c-0.1,0.1-0.2,0.1-0.3,0
				l-1.8-1.1l0,0c-0.1-0.1-0.2-0.1-0.3,0c-0.1,0-0.2,0.1-0.3,0.2l0,0l-1.3,2.2c-0.1,0.1-0.1,0.2,0,0.3c0,0.1,0.1,0.2,0.2,0.3l0,0
				l1.8,1.1c0.1,0.1,0.1,0.2,0.1,0.3h0c-0.1,0.3-0.1,0.6-0.2,0.8c0,0.3-0.1,0.6-0.1,0.9s0,0.6,0.1,0.9c0,0.3,0.1,0.6,0.2,0.8
				c0,0.1,0,0.2-0.1,0.3l-1.8,1.1v0c-0.1,0.1-0.2,0.2-0.2,0.3c0,0.1,0,0.2,0,0.3L37,223h0c0.1,0.1,0.2,0.2,0.3,0.2
				c0.1,0,0.2,0,0.3,0l0,0l1.8-1.1c0.1-0.1,0.2,0,0.3,0c0.4,0.4,0.9,0.7,1.4,1c0.5,0.3,1,0.5,1.6,0.7c0.1,0,0.2,0.1,0.2,0.2v2.1
				c0,0.1,0.1,0.2,0.1,0.3c0.1,0.1,0.2,0.1,0.3,0.1h2.6c0.1,0,0.2-0.1,0.3-0.1c0.1-0.1,0.1-0.2,0.1-0.3v-2.1c0-0.1,0.1-0.2,0.2-0.2
				c0.6-0.2,1.1-0.4,1.6-0.7c0.5-0.3,1-0.6,1.4-1c0.1-0.1,0.2-0.1,0.3,0l1.8,1.1c0.1,0.1,0.2,0.1,0.3,0c0.1,0,0.2-0.1,0.3-0.2l0,0
				l1.3-2.3h0c0.1-0.1,0.1-0.2,0-0.3c0-0.1-0.1-0.2-0.2-0.3l-1.8-1.1c-0.1-0.1-0.1-0.2-0.1-0.3h0c0.1-0.3,0.1-0.6,0.2-0.8
				c0-0.3,0.1-0.6,0.1-0.9s0-0.6-0.1-0.9c0-0.3-0.1-0.6-0.2-0.8c0-0.1,0-0.2,0.1-0.3l1.8-1.1c0.1-0.1,0.2-0.2,0.2-0.3
				c0-0.1,0-0.2,0-0.3l0,0l-1.3-2.2h0c-0.1-0.1-0.2-0.2-0.3-0.2c-0.1,0-0.2,0-0.3,0l0,0l-1.8,1.1c-0.1,0.1-0.2,0-0.3,0
				c-0.4-0.4-0.9-0.7-1.4-1c-0.5-0.3-1-0.5-1.6-0.7c-0.1,0-0.2-0.1-0.2-0.2V208c0-0.1-0.1-0.2-0.1-0.3c-0.1-0.1-0.2-0.1-0.3-0.1
				h-2.6c-0.1,0-0.2,0.1-0.3,0.1c-0.1,0.1-0.1,0.2-0.1,0.3v2.1C42.9,210.2,42.8,210.3,42.7,210.4z"/>
			<path class="st1" d="M125.2,155.7c0-0.4-0.3-0.7-0.7-0.7c-0.4,0-0.7,0.3-0.7,0.7v1.6h-1.6c-0.4,0-0.7,0.3-0.7,0.7
				c0,0.4,0.3,0.7,0.7,0.7h1.6v1.6c0,0.4,0.3,0.7,0.7,0.7c0.4,0,0.7-0.3,0.7-0.7v-1.6h1.6c0.4,0,0.7-0.3,0.7-0.7
				c0-0.4-0.3-0.7-0.7-0.7h-1.6V155.7z"/>
			<path class="st1" d="M167,111.4L167,111.4L167,111.4z M169.1,103.5c0.7-0.7,1.7-1.2,2.8-1.2c1.1,0,2.1,0.4,2.8,1.2
				c0.7,0.7,1.2,1.7,1.2,2.8c0,1.1-0.4,2.1-1.2,2.8c-0.7,0.7-1.7,1.2-2.8,1.2c-1.1,0-2.1-0.4-2.8-1.2c-0.7-0.7-1.2-1.7-1.2-2.8
				C167.9,105.2,168.3,104.2,169.1,103.5L169.1,103.5z M169.9,99.6c-0.6,0.2-1.1,0.4-1.6,0.7c-0.5,0.3-1,0.6-1.4,1
				c-0.1,0.1-0.2,0.1-0.3,0l-1.8-1.1l0,0c-0.1-0.1-0.2-0.1-0.3,0c-0.1,0-0.2,0.1-0.3,0.2l0,0l-1.3,2.2c-0.1,0.1-0.1,0.2,0,0.3
				c0,0.1,0.1,0.2,0.2,0.3l0,0l1.8,1.1c0.1,0.1,0.1,0.2,0.1,0.3h0c-0.1,0.3-0.1,0.6-0.2,0.8c0,0.3-0.1,0.6-0.1,0.9
				c0,0.3,0,0.6,0.1,0.9c0,0.3,0.1,0.6,0.2,0.8c0,0.1,0,0.2-0.1,0.3l-1.8,1.1l0,0c-0.1,0.1-0.2,0.2-0.2,0.3c0,0.1,0,0.2,0,0.3
				l1.3,2.3l0,0c0.1,0.1,0.2,0.2,0.3,0.2c0.1,0,0.2,0,0.3,0l0,0l1.8-1.1c0.1-0.1,0.2,0,0.3,0c0.4,0.4,0.9,0.7,1.4,1
				c0.5,0.3,1,0.5,1.6,0.7c0.1,0,0.2,0.1,0.2,0.2v2.1c0,0.1,0.1,0.2,0.1,0.3c0.1,0.1,0.2,0.1,0.3,0.1h2.6c0.1,0,0.2-0.1,0.3-0.1
				c0.1-0.1,0.1-0.2,0.1-0.3v-2.1c0-0.1,0.1-0.2,0.2-0.2c0.6-0.2,1.1-0.4,1.6-0.7c0.5-0.3,1-0.6,1.4-1c0.1-0.1,0.2-0.1,0.3,0
				l1.8,1.1c0.1,0.1,0.2,0.1,0.3,0c0.1,0,0.2-0.1,0.3-0.2l0,0l1.3-2.3h0c0.1-0.1,0.1-0.2,0-0.3c0-0.1-0.1-0.2-0.2-0.3l-1.8-1.1
				c-0.1-0.1-0.1-0.2-0.1-0.3h0c0.1-0.3,0.1-0.6,0.2-0.8c0-0.3,0.1-0.6,0.1-0.9c0-0.3,0-0.6-0.1-0.9c0-0.3-0.1-0.6-0.2-0.8
				c0-0.1,0-0.2,0.1-0.3l1.8-1.1c0.1-0.1,0.2-0.2,0.2-0.3c0-0.1,0-0.2,0-0.3l0,0l-1.3-2.2h0c-0.1-0.1-0.2-0.2-0.3-0.2
				c-0.1,0-0.2,0-0.3,0l0,0l-1.8,1.1c-0.1,0.1-0.2,0-0.3,0c-0.4-0.4-0.9-0.7-1.4-1c-0.5-0.3-1-0.5-1.6-0.7c-0.1,0-0.2-0.1-0.2-0.2
				v-2.1c0-0.1-0.1-0.2-0.1-0.3c-0.1-0.1-0.2-0.1-0.3-0.1h-2.6c-0.1,0-0.2,0.1-0.3,0.1c-0.1,0.1-0.1,0.2-0.1,0.3v2.1
				C170.1,99.5,170,99.6,169.9,99.6z"/>
			<path class="st1" d="M390.4,93.4c0-0.4-0.3-0.7-0.7-0.7c-0.4,0-0.7,0.3-0.7,0.7V95h-1.6c-0.4,0-0.7,0.3-0.7,0.7
				c0,0.4,0.3,0.7,0.7,0.7h1.6V98c0,0.4,0.3,0.7,0.7,0.7c0.4,0,0.7-0.3,0.7-0.7v-1.6h1.6c0.4,0,0.7-0.3,0.7-0.7
				c0-0.4-0.3-0.7-0.7-0.7h-1.6V93.4z"/>
			<path class="st1" d="M210.5,147.4L210.5,147.4L210.5,147.4z M212.6,139.6c0.7-0.7,1.7-1.2,2.8-1.2c1.1,0,2.1,0.4,2.8,1.2
				c0.7,0.7,1.2,1.7,1.2,2.8c0,1.1-0.4,2.1-1.2,2.8c-0.7,0.7-1.7,1.2-2.8,1.2c-1.1,0-2.1-0.4-2.8-1.2c-0.7-0.7-1.2-1.7-1.2-2.8
				C211.4,141.3,211.8,140.3,212.6,139.6L212.6,139.6z M213.4,135.6c-0.6,0.2-1.1,0.4-1.6,0.7c-0.5,0.3-1,0.6-1.4,1
				c-0.1,0.1-0.2,0.1-0.3,0l-1.8-1.1l0,0c-0.1-0.1-0.2-0.1-0.3,0c-0.1,0-0.2,0.1-0.3,0.2l0,0l-1.3,2.2c-0.1,0.1-0.1,0.2,0,0.3
				c0,0.1,0.1,0.2,0.2,0.3l0,0l1.8,1.1c0.1,0.1,0.1,0.2,0.1,0.3h0c-0.1,0.3-0.1,0.6-0.2,0.8c0,0.3-0.1,0.6-0.1,0.9
				c0,0.3,0,0.6,0.1,0.9c0,0.3,0.1,0.6,0.2,0.8c0,0.1,0,0.2-0.1,0.3l-1.8,1.1l0,0c-0.1,0.1-0.2,0.2-0.2,0.3c0,0.1,0,0.2,0,0.3
				l1.3,2.3v0c0.1,0.1,0.2,0.2,0.3,0.2c0.1,0,0.2,0,0.3,0l0,0l1.8-1.1c0.1-0.1,0.2,0,0.3,0c0.4,0.4,0.9,0.7,1.4,1
				c0.5,0.3,1,0.5,1.6,0.7c0.1,0,0.2,0.1,0.2,0.2v2.1c0,0.1,0.1,0.2,0.1,0.3c0.1,0.1,0.2,0.1,0.3,0.1h2.6c0.1,0,0.2-0.1,0.3-0.1
				c0.1-0.1,0.1-0.2,0.1-0.3v-2.1c0-0.1,0.1-0.2,0.2-0.2c0.6-0.2,1.1-0.4,1.6-0.7c0.5-0.3,1-0.6,1.4-1c0.1-0.1,0.2-0.1,0.3,0
				l1.8,1.1c0.1,0.1,0.2,0.1,0.3,0c0.1,0,0.2-0.1,0.3-0.2l0,0l1.3-2.3l0,0c0.1-0.1,0.1-0.2,0-0.3c0-0.1-0.1-0.2-0.2-0.3l-1.8-1.1
				c-0.1-0.1-0.1-0.2-0.1-0.3l0,0c0.1-0.3,0.1-0.6,0.2-0.8c0-0.3,0.1-0.6,0.1-0.9c0-0.3,0-0.6-0.1-0.9c0-0.3-0.1-0.6-0.2-0.8
				c0-0.1,0-0.2,0.1-0.3l1.8-1.1c0.1-0.1,0.2-0.2,0.2-0.3c0-0.1,0-0.2,0-0.3l0,0l-1.3-2.2l0,0c-0.1-0.1-0.2-0.2-0.3-0.2
				c-0.1,0-0.2,0-0.3,0l0,0l-1.8,1.1c-0.1,0.1-0.2,0-0.3,0c-0.4-0.4-0.9-0.7-1.4-1c-0.5-0.3-1-0.5-1.6-0.7c-0.1,0-0.2-0.1-0.2-0.2
				v-2.1c0-0.1-0.1-0.2-0.1-0.3c-0.1-0.1-0.2-0.1-0.3-0.1h-2.6c-0.1,0-0.2,0.1-0.3,0.1c-0.1,0.1-0.1,0.2-0.1,0.3v2.1
				C213.6,135.5,213.5,135.6,213.4,135.6z"/>
			<path class="st1" d="M185.7,137.3c0-0.4-0.3-0.7-0.7-0.7c-0.4,0-0.7,0.3-0.7,0.7v1.6h-1.6c-0.4,0-0.7,0.3-0.7,0.7
				c0,0.4,0.3,0.7,0.7,0.7h1.6v1.6c0,0.4,0.3,0.7,0.7,0.7c0.4,0,0.7-0.3,0.7-0.7v-1.6h1.6c0.4,0,0.7-0.3,0.7-0.7
				c0-0.4-0.3-0.7-0.7-0.7h-1.6V137.3z"/>
			<path class="st1" d="M188.5,212.7c0-0.4-0.3-0.7-0.7-0.7c-0.4,0-0.7,0.3-0.7,0.7v1.6h-1.6c-0.4,0-0.7,0.3-0.7,0.7
				c0,0.4,0.3,0.7,0.7,0.7h1.6v1.6c0,0.4,0.3,0.7,0.7,0.7c0.4,0,0.7-0.3,0.7-0.7v-1.6h1.6c0.4,0,0.7-0.3,0.7-0.7
				c0-0.4-0.3-0.7-0.7-0.7h-1.6V212.7z"/>
			<path class="st1" d="M128.8,178.9c0-0.4-0.3-0.7-0.7-0.7c-0.4,0-0.7,0.3-0.7,0.7v1.6h-1.6c-0.4,0-0.7,0.3-0.7,0.7
				c0,0.4,0.3,0.7,0.7,0.7h1.6v1.6c0,0.4,0.3,0.7,0.7,0.7c0.4,0,0.7-0.3,0.7-0.7v-1.6h1.6c0.4,0,0.7-0.3,0.7-0.7
				c0-0.4-0.3-0.7-0.7-0.7h-1.6V178.9z"/>
		</g>
		<path class="st1" d="M355.3,174.9c0-0.4-0.3-0.7-0.7-0.7c-0.4,0-0.7,0.3-0.7,0.7v1.6h-1.6c-0.4,0-0.7,0.3-0.7,0.7
			c0,0.4,0.3,0.7,0.7,0.7h1.6v1.6c0,0.4,0.3,0.7,0.7,0.7c0.4,0,0.7-0.3,0.7-0.7v-1.6h1.6c0.4,0,0.7-0.3,0.7-0.7
			c0-0.4-0.3-0.7-0.7-0.7h-1.6V174.9z"/>
	</g>
	<g>
		<g>
			<path class="st5" d="M255.3,225.2c0,0,4.1,1.3,7.3,5.2c1.8,2.2,24,44.6,25.4,47.4c1.4,2.8,1.4,9.7-1.9,14
				c-1.3,1.7-5,6.3-9.1,11.4h-13.3c4.8-7.2,11.1-16.7,11.6-17.4c0.7-1.2,1.1-2.4-0.2-4.5c-1.3-2.1-19.1-23.7-19.1-23.7
				S247.1,233.2,255.3,225.2z"/>
			<path class="st6" d="M232,221.8c0,0,22.3,3.2,23.3,3.4c1,0.2,2.6,2.5,3.5,4c0.9,1.5,1.9,23.3,2.4,29.4c0.5,6.1-1.5,32.7-0.9,39.9
				c0.1,1.2,0.3,2.9,0.5,4.8H194c-0.9-7.9-6.8-32.6-7.3-38.6c-0.5-6.1-3-27.8-2.4-29.4c0.6-1.6,1.9-4.1,2.8-4.5
				c0.9-0.4,22.7-7.2,22.7-7.2l11.2,1.2L232,221.8z"/>
			<path class="st7" d="M232,221.8c0,0,1.5,0.2,3.7,0.5c-0.1,0.5-0.4,1-0.8,1.5c-8.7,9.9-17.5,10.7-27.7,2.3c-0.5-0.4-0.8-0.9-1-1.4
				c2.1-0.7,3.6-1.1,3.6-1.1l11.2,1.2L232,221.8z"/>
			<path class="st8" d="M228.1,200.2l0.2,5.6c0,0,0.9,11.3,1.1,13.1c0.1,0.8,1,2,2.6,2.9c-7.3,8.4-13.7,8.9-22.2,1.8
				c1.4-1.2,2.2-2.4,2.1-3.3c-0.1-1.7-1.1-13.1-1.1-13.1l-0.7-5.5c0,0,4.5,0.4,9.1,1C223.7,201.3,228.1,200.2,228.1,200.2z"/>
			<path class="st9" d="M233.9,222c0,0-2.6,11.2-2.8,13.4c-0.2,2.3-3.2,25.1-2.9,29c0.1,1.8,3.6,19.6,7.4,38.8h30.4
				c-0.7-4.7-1.4-8.7-1.7-11c-1.2-8.2-2.1-25.2-1.8-35.7c0.3-10.5-2.3-26.3-2.7-27.8c-0.3-1.5-3.3-3.4-4.2-3.7L233.9,222z"/>
			<path class="st10" d="M230.5,240.2c-0.9,7.5-2.6,21.3-2.4,24.2c0,0,14.8-16.1,14.6-17.7c-0.2-1.6-6.2-13.4-6.2-13.4
				S233.9,236.3,230.5,240.2z"/>
			<path class="st11" d="M233.1,221.9c0,0,0.7-0.6,0.9-0.6c0.2,0,4.3,1.3,4.3,1.3s5.9,9.2,6,10.4c0.1,1.2-14.4,13-14.4,13l1.3-10.8
				c0,0,2.1-10.6,2.8-13.2L233.1,221.9z"/>
			<path class="st9" d="M187.3,230.7c0,0-3.8,2-6.3,6.3c-1.4,2.5-16.4,47.9-17.3,50.9c-1,3,0.2,9.8,4.2,13.5c0.4,0.4,1.1,1,1.9,1.8
				h16.6c-4.4-4.7-8.4-9-8.8-9.5c-0.9-1.1-1.5-2.2-0.5-4.5c1-2.3,15-26.5,15-26.5S196.7,237.3,187.3,230.7z"/>
			<path class="st9" d="M208,224.1c0,0,4.4,10.6,4.9,12.8c0.6,2.2,7.3,24.3,7.6,28.1c0.1,1.7-0.4,19.1-1,38.2h-30.1c0-2,0-3.7,0-4.8
				c-0.1-8.3-2.1-25.2-4-35.5c-2-10.3-2-26.3-1.9-27.8c0.1-1.5,2.7-3.9,3.6-4.4L208,224.1z"/>
			<path class="st10" d="M214.2,241.6c2.1,7.3,6,20.6,6.3,23.5c0,0-17.2-13.5-17.3-15.1c0-1.6,4-14.3,4-14.3
				S210.3,238.2,214.2,241.6z"/>
			<path class="st11" d="M208.7,223.9c0,0-0.7-0.5-1-0.5c-0.2,0-4,2-4,2s-4.3,10-4.2,11.2c0.1,1.2,16.3,10.5,16.3,10.5l-3-10.5
				c0,0-3.8-10.1-4.9-12.6L208.7,223.9z"/>
		</g>
		<g>
			<path class="st8" d="M200.5,203.6c-0.1,0-0.2,0.1-0.3,0.1l0,0v0c-2,0.6-3.4,2.5-3.2,4.7c0.2,2.5,2.4,4.4,4.9,4.3
				c2.5-0.2,4.4-2.4,4.3-4.9c-0.1-1.5-0.9-2.7-2-3.5c0.2,1.3,0.2,3-1.5,3.4l-0.2-2.6C202.3,203.9,201.2,203.5,200.5,203.6z"/>
			<path class="st8" d="M233.5,200.6c0.1,0,0.2,0,0.3,0l0,0v0c2.1,0.2,3.8,1.9,4,4.1c0.3,2.5-1.5,4.8-4.1,5.1
				c-2.5,0.3-4.8-1.5-5.1-4.1c-0.2-1.5,0.4-2.8,1.4-3.8c0,1.4,0.4,3,2.1,3l-0.3-2.6C231.8,201.2,232.8,200.6,233.5,200.6z"/>
		</g>
		<path class="st12" d="M214.9,179.3L214.9,179.3c-8.6,0.8-15,8.5-14.2,17.1l1.3,14.3c0.8,8.6,8.5,15,17.1,14.2l0,0
			c8.6-0.8,15-8.5,14.2-17.1l-1.3-14.2C231.2,184.9,223.5,178.5,214.9,179.3z"/>
		<path class="st13" d="M201.7,189.3c-0.8,2.2-1.2,4.6-1,7l1.3,14.2c0.7,8.1,7.6,14.3,15.6,14.3c-9.1-0.7-10.8-11.5-11.5-17.1
			c-0.7-5.7,1.4-6.9,2.3-7.2c0.8-0.3,14.1-2.5,17-2.8c2.9-0.3,4.4,1.3,4.4,1.3l1.2-1.8l-1.2-3.8c0,0,1,0,2.2,0c-0.1-1-0.3-2-0.6-3
			c-1.7-0.6-3.6-1.3-5.2-2.3c-3.5-2.3-20.1,0.6-22.8,0.6C203,188.7,202.4,188.9,201.7,189.3z"/>
		<path class="st14" d="M231,201.1c0,0,0.1,1,0.2,2c0.1,1,1.1,2,1.8,1.9l-0.2-2.2c0,0,0.2-1.7,2.2-1.8c5.5-7.7,3.7-18.8-3.4-24.1
			c-7.1-5.2-21.3-4.3-23.7-3.3c-2.4,1-4.6,5.5-4.6,5.5s-2.3-1.7-4.1-0.5c-1.9,1.1-7.2,14-7,17.1c0.3,3.1,6.8,8.6,6.8,8.6
			c2-0.2,2.5,1.4,2.5,1.4l0.2,2.2c0.7-0.1,1.5-1.2,1.5-2.2c-0.1-1-0.2-2-0.2-2c0.1,0,0.1-0.1,0.2-0.1c1.9-1.2,1.5-5,1.5-5L203,196
			l3.5-4.6l4-1.3l9.1,0.3c0,0,10.7,1.3,9.8,4.4C228.4,198.1,231,201.1,231,201.1z"/>
		<path class="st15" d="M231,201.1c0.1,1.2,0.9,6.6,2.3,6.4c4.2-8.8,8-17.9,1.8-26.9c-0.7,5.8-6.5,9.3-12.3,10.5
			c3.1,0.7,7,1.9,6.4,3.9C228.4,198.1,231,201.1,231,201.1L231,201.1z M192.7,192.9c-0.3,1.2-0.5,2.1-0.4,2.7
			c0.2,2.4,8.1,13.8,9.8,16.4c0.9-0.1,1-6.8,0.9-8.4c0.1,0,0.1-0.1,0.2-0.1c1.9-1.2,1.5-5,1.5-5L203,196l3.5-4.6l3.8-1.3
			c-1.9-0.8-2.5-1.6-2.5-1.6C199.9,196.6,195.3,196.2,192.7,192.9z"/>
		<path class="st14" d="M199.2,201.3c0,0-6.6-14.3,6.7-16.7c0,0,3.5-6.9,10.5-5.2c7,1.7,11.4,1.7,14.6-1.4c0,0,1.8,3.4-0.4,6.4
			c6.7,5.2,4.3,11.8,1.6,15.4c-1.1-7.4-20.6,0.8-23.1-6.3C208.8,200.2,201.7,198.5,199.2,201.3z"/>
		<path class="st15" d="M199.2,201.3c0,0-1.3-2.9-1.6-6.2c2.6-0.2,5.9-2.1,10.2-6.5c0,0,1.8,2.6,9.9,2.9c4.9,0.2,11.2-1.6,14.8-5.4
			c4.2,4.8,2.1,10.4-0.3,13.6c-1.1-7.4-20.6,0.8-23.2-6.3C208.8,200.2,201.7,198.5,199.2,201.3z"/>
	</g>
	<g>
		<g>
			<path class="st16" d="M390.8,202.8c-2.8-10.5-12.5-4.7-16.7,4.2c-4.2,8.9-13.7,43.8-22,52.9c-3.2,3.5-2.2,3.8,0.7,2.1
				C367.5,253.6,394.6,217.2,390.8,202.8z"/>
			<path class="st17" d="M350.1,262.7c-0.1,0.5,0.3,0.5,1.2,0.1c22.2-18.8,34.1-60.9,34.1-61c0.1-0.2-0.1-0.5-0.3-0.5
				c-0.2-0.1-0.5,0.1-0.5,0.3C384.5,201.7,372.6,244.4,350.1,262.7z"/>
		</g>
		<g>
			<path class="st17" d="M366.1,208.4c-4.9-7.6-11.2-0.6-12.2,7.6c-1.1,8.2,0.2,38.4-4.1,47.7c-1.7,3.6-0.8,3.6,1.1,1.5
				C360.4,254.7,372.8,218.9,366.1,208.4z"/>
			<path class="st16" d="M348.9,266.4c0,0.4,0.4,0.3,1-0.2c13-20.6,11.7-57.1,11.7-57.2c0-0.2-0.2-0.4-0.4-0.4
				c-0.2,0-0.4,0.2-0.4,0.4C360.9,209.1,362.1,246.1,348.9,266.4z"/>
		</g>
		<g>
			<path class="st17" d="M390.2,234.3c8.4,0.9,5.2,9.1-1.2,13.4c-6.4,4.3-32.2,15.9-38.1,23.4c-2.3,2.9-2.7,2.2-1.7-0.3
				C353.9,258.5,378.7,233.1,390.2,234.3z"/>
			<path class="st16" d="M349,273c-0.4,0.1-0.4-0.2-0.3-0.9c11.8-19.5,42.8-33.7,42.9-33.7c0.2-0.1,0.4,0,0.5,0.2
				c0.1,0.2,0,0.4-0.2,0.5C391.9,239,360.4,253.5,349,273z"/>
		</g>
	</g>
	<g>
		<path class="st14" d="M270.2,223.8l-2.1,18.3c0,0,3.2,42.9,4.7,61.1h23.4l0.5-73.1L270.2,223.8z"/>
		<path class="st14" d="M282.7,239.7l-1,6.5l2.1,57h28.5c0.5-3.9,0.9-7.3,1.3-9.8c2.1-15,2.9-35.9,2.9-40.8c0-4.9-5.7-12.3-7.7-12.8
			C306.7,239.4,282.7,239.7,282.7,239.7z"/>
		<path class="st18" d="M273.1,151.7c0,0-1-1.8-1.7-1.5c-0.8,0.3-26.6,38.4-27.5,41.6c-0.9,3.3-0.5,9.1,4.5,17.1
			c5,8,15.7,27.8,16.1,28.2c0.4,0.4,6.2-3.5,6.8-4.6c0,0,0.3-0.4-0.1-1.1c-0.4-0.7-13.1-30.9-13.9-33c-0.8-2.2,21.9-29,22.9-31.1
			C281.3,165.1,285.5,153.9,273.1,151.7z"/>
		<path class="st19" d="M293.8,140.8l-11.3,8c0,0-8,31.4-8.1,32.9c0,1.4-3.1,18.8-3.1,18.8s11.3,4.5,12.9,0.2
			c1.6-4.3,19.7-35,20.5-39.8c0.9-4.8-1.3-16.3-2.3-17.5C301.4,142,293.8,140.8,293.8,140.8z"/>
		<path class="st18" d="M282.5,146.1c0,0-10.2,3.6-11.1,4.1c-0.9,0.5-6.4,20.6-6.9,22.5c-0.4,1.9,2.5,36.3,2.5,39.3
			c0,3-3.8,41-3.9,41.6c-0.1,0.6,0.3,1.3,1.2,1.3c0.9,0,10.9-18.8,11.7-21c0.8-2.1-1.8-34.5-1.8-34.5l6.8-46.3L282.5,146.1z"/>
		<path class="st20" d="M312.8,151.2c0,0,14.6,14.7,15.1,15.6c0.5,0.9-14.6,51.2-14.8,53.5c-0.2,2.3,7.5,36.5,7.8,37.4
			c0,0,0,0.4-0.2,0.9c-0.3,0.5-0.9,0.8-1.2,1.1c-0.3,0.2-36-5.5-38.9-7.3c-2.9-1.8-9-29.6-9-33.3s2.2-18.1,2.2-18.1l17.6-29.8
			C291.2,171.1,303.9,152.1,312.8,151.2z"/>
		<path class="st21" d="M310.4,148.8c0,0,16.9,17,17.5,17.9c0.5,0.9-14.6,51.2-14.8,53.5c-0.2,2.3,7.5,36.5,7.8,37.4
			c0,0,0,0.4-0.2,0.9c-0.3,0.5-0.9,0.8-1.2,1.1c-0.2,0.1-9.7-1.3-19.3-3c8.3-12,7.9-31.9,7.2-33.1c-0.8-1.4-5.3-4.4-4.6-4.7
			c0.7-0.2,5.2-0.3,5.6-1.5c0.3-1.1,6.8-36.7,6.8-36.7l4.3-2.9c0,0,1.9-13.8,0.6-15.9c-1.3-2-10.3-9.7-10.3-9.7
			C310.6,151.6,309.4,148.9,310.4,148.8z"/>
		<path class="st22" d="M325.9,164.5c0,0,2.2,1.8,3.7,3.8c1.5,2,20.6,41.8,21,45.6c0.4,3.7-1,10-7.9,18c-6.9,8-22,27.7-22.5,28.1
			c-0.5,0.4-6.2-4.9-6.7-6.3c0,0-0.2-0.4,0.3-1.2c0.5-0.7,19.7-31.6,20.9-33.8c1.3-2.2-18.9-35.5-19.8-38.1
			C314.2,178.1,311.9,164.8,325.9,164.5z"/>
		<path class="st13" d="M304.5,126.8c0.1,5.6-1.3,11.3-1,16.9c0.1,1.1,0.6,1.5,2,2.4c1.9,2.9-3.4,12-6.9,12.6c-0.2,0-5.9-4.4-10-5.5
			c-2.1-0.5-3.8,2.1-3.9,2c-0.8-0.6,1-5.3,0.4-7.1c0.7-0.2,1.3-1.8,1.8-2.2c3.3-3,2.2-10.5-0.5-13.4
			C284.6,130.3,304.5,126.8,304.5,126.8z"/>
		<path class="st7" d="M308.2,148.3C307.8,149.6,297,164,297,164s-0.4,0.5-1-0.1c-0.6-0.7-7.2-9.9-7.2-9.9l14.8-11l-0.3-2.5
			C303.4,140.1,308.7,147,308.2,148.3z"/>
		<path class="st7" d="M288.4,143.6C288.4,143.6,288.4,143.6,288.4,143.6c-5.1-0.4-5.9,13.9-5,16.7c0,0,3.1-4.7,5.2-6.6
			C289.6,152.9,286.6,146.5,288.4,143.6z"/>
		<path class="st22" d="M306.9,144.2c0,0-18.9,23.4-20.2,25.4c-1.3,2-11.6,26.2-13,31.4c0,0,15.8-19.7,18-21.5
			c2.2-1.8,10.5-8.7,10.5-8.7s0.2-0.4,0.1-0.8c-0.1-0.3-2.4-5.5-2.4-5.5s6.9,1,7.5,1c0.6,0,3.7-15.4,3.8-15.8
			C311.3,149.1,306.9,144.2,306.9,144.2z"/>
		<path class="st22" d="M288.4,143.6c0,0-5,1.2-5.8,1.6c-0.8,0.4-7.1,11-7.3,11.9c0,0-0.1,0.4,0.3,0.6c0.4,0.2,1.7,1,1.8,1.1
			c0.1,0.1-2.2,0.4-2.2,0.4s-0.3,0.1-0.2,0.5c0,0.4-0.8,39.7-0.8,39.7s7.8-43.5,8.9-46.4c1.2-2.9,4.3-7.4,4.3-7.4L288.4,143.6z"/>
		<path class="st8" d="M279.9,118.7c2.5,0,4.5,2,4.5,4.4c0,2.5-2,4.5-4.4,4.5c-2.5,0-4.5-2-4.5-4.4
			C275.5,120.7,277.5,118.7,279.9,118.7z"/>
		<path class="st8" d="M309.7,118.5c2.5,0,4.5,2,4.5,4.4c0,2.5-2,4.5-4.4,4.5c-2.5,0-4.5-2-4.5-4.4
			C305.2,120.5,307.2,118.5,309.7,118.5z"/>
		<path class="st12" d="M293.3,95.8L293.3,95.8c8.4-0.1,15.3,7.4,15.3,16.5l0.1,15.1c0,9.2-6.8,16.7-15.2,16.7v0
			c-8.4,0.1-15.3-7.4-15.3-16.5l-0.1-15.1C278.1,103.4,284.9,95.8,293.3,95.8z"/>
		<path class="st13" d="M308,107.8c0.4,1.4,0.6,2.9,0.6,4.5l0.1,15.1c0,8.4-5.7,15.5-13.2,16.6c-0.7,0.1-1.2,0.1-1.3,0.1l0,0
			c8.3-0.8,10.1-11.8,10.1-15.1c0-3.3,0-0.5,0-8.6c0-8.1-4.5-8.9-7.5-8.9c-3.1,0-13.3,0-15.2,0c-2,0-2.7,1.8-2.7,1.8l-0.8-0.6l0-0.3
			c0-4.8,1.9-9.2,4.9-12.3c7.6,1.5,20.3,4,21.2,4.6C304.7,105.1,306.3,106.4,308,107.8z"/>
		<path class="st23" d="M276,108l2.7,2.8c0,0,1.3-5.1,12.4-3.5c11.1,1.6-10.2-10.3-12.6-9C276.1,99.5,274,103.3,276,108z"/>
		<path class="st14" d="M304.7,108.2c0,0-10.9,1.2-16.4-2.3c-5.5-3.5-10.2-5.1-11.6-3.2c-1.3,1.8,4.1,6.7,1.9,15
			c-0.1,0.5-0.4,8.1-0.6,8.6c-0.1-3-1-10.7-2-12.6c-3-5.7-7.6-10.1-1.6-18.7c3.7-5.3,10-7.8,12.9-5.1c9.5,8.7,22.7-2.6,22.8,11.8
			c0,0,7.1,2.4,0.5,16.9c-1.5,0-1.9,1.1-1.9,2.1l0.1,7.7C303.4,128.4,303.3,114.5,304.7,108.2z"/>
	</g>
	<g>
		<g>
			<path class="st24" d="M300,297.5h30.8c1.5,0,2.7-1.2,2.7-2.7v-52.9c0-1.5-1.2-2.7-2.7-2.7H300c-1.5,0-2.7,1.2-2.7,2.7v52.9
				C297.3,296.3,298.6,297.5,300,297.5z"/>
			<path class="st7" d="M331.5,297.5h24.9c1.3,0,2.3-1,2.3-2.3v-53.8c0-1.3-1-2.3-2.3-2.3h-24.9c-1.3,0-2.3,1-2.3,2.3v53.8
				C329.2,296.5,330.2,297.5,331.5,297.5z"/>
			<path class="st7" d="M291.2,261.3h31.9c0-5.7,6.2-6.3,6.2-6.3h-31.9C297.3,255,291.2,255.6,291.2,261.3z"/>
			<path class="st25" d="M297.3,288.1h33c1,0,1.8,0.8,1.8,1.8v11.6c0,1-0.8,1.8-1.8,1.8h-33c-1,0-1.8-0.8-1.8-1.8v-11.6
				C295.6,288.9,296.4,288.1,297.3,288.1z"/>
			<path class="st26" d="M329.3,288.1h7.2h0h0h0c0.2,0,1.9,0.1,2.9,2.2c1,2.3,0.9,4.5,4,4.5c2.9,0-1.3,0,1.3,0c3.1,0,3-2.3,4-4.5
				c1-2.2,2.8-2.2,2.9-2.2h0h0h0h6.9c1,0,1.8,0.8,1.8,1.8v11.6c0,1-0.8,1.8-1.8,1.8h-29.3c-1,0-1.8-0.8-1.8-1.8v-11.6
				C327.5,288.9,328.3,288.1,329.3,288.1z"/>
			<path class="st7" d="M291.2,281.3h31.9c0-5.7,6.2-6.3,6.2-6.3h-31.9C297.3,275,291.2,275.6,291.2,281.3z"/>
			<path class="st27" d="M363.9,271.8h-29c0-5.7-5.6-6.3-5.6-6.3h29C358.2,265.5,363.9,266.1,363.9,271.8z"/>
			<path class="st24" d="M333.8,245.5h22.2c0.5,0,1,0.4,1,1l0,0c0,0.5-0.4,1-1,1h-22.2c-0.5,0-1-0.4-1-1l0,0
				C332.9,246,333.3,245.5,333.8,245.5z"/>
			<path class="st24" d="M333.8,256.3h22.2c0.5,0,1,0.4,1,1l0,0c0,0.5-0.4,1-1,1h-22.2c-0.5,0-1-0.4-1-1l0,0
				C332.9,256.8,333.3,256.3,333.8,256.3z"/>
			<path class="st24" d="M333.8,278.9h22.2c0.5,0,1,0.4,1,1l0,0c0,0.5-0.4,1-1,1h-22.2c-0.5,0-1-0.4-1-1l0,0
				C332.9,279.3,333.3,278.9,333.8,278.9z"/>
			<path class="st27" d="M302,244.7h21.5c0.5,0,1,0.4,1,1l0,0c0,0.5-0.4,1-1,1H302c-0.5,0-1-0.4-1-1l0,0
				C301.1,245.2,301.5,244.7,302,244.7z"/>
			<path class="st27" d="M302,269.1h21.5c0.5,0,1,0.4,1,1v0c0,0.5-0.4,1-1,1H302c-0.5,0-1-0.4-1-1v0
				C301.1,269.5,301.5,269.1,302,269.1z"/>
			<path class="st27" d="M302,284.6h21.5c0.5,0,1,0.4,1,1l0,0c0,0.5-0.4,1-1,1H302c-0.5,0-1-0.4-1-1l0,0
				C301.1,285.1,301.5,284.6,302,284.6z"/>
		</g>
		<g>
			<path class="st24" d="M284.3,299.8h18.6c0.9,0,1.6-0.7,1.6-1.6v-32c0-0.9-0.7-1.6-1.6-1.6h-18.6c-0.9,0-1.6,0.7-1.6,1.6v32
				C282.6,299.1,283.4,299.8,284.3,299.8z"/>
			<path class="st7" d="M303.3,299.8h15.1c0.8,0,1.4-0.6,1.4-1.4v-32.5c0-0.8-0.6-1.4-1.4-1.4h-15.1c-0.8,0-1.4,0.6-1.4,1.4v32.5
				C301.9,299.2,302.5,299.8,303.3,299.8z"/>
			<path class="st7" d="M278.9,277.9h19.3c0-3.5,3.7-3.8,3.7-3.8h-19.3C282.6,274.1,278.9,274.4,278.9,277.9z"/>
			<path class="st25" d="M282.6,294.1h20c0.6,0,1.1,0.5,1.1,1.1v7c0,0.6-0.5,1.1-1.1,1.1h-20c-0.6,0-1.1-0.5-1.1-1.1v-7
				C281.6,294.6,282,294.1,282.6,294.1z"/>
			<path class="st26" d="M302,294.1h4.4h0h0h0c0.1,0,1.2,0,1.8,1.3c0.6,1.4,0.6,2.7,2.4,2.7c1.8,0-0.8,0,0.8,0
				c1.9,0,1.8-1.4,2.4-2.7c0.6-1.3,1.7-1.3,1.8-1.3h0h0h0h4.2c0.6,0,1.1,0.5,1.1,1.1v7c0,0.6-0.5,1.1-1.1,1.1H302
				c-0.6,0-1.1-0.5-1.1-1.1v-7C300.9,294.6,301.4,294.1,302,294.1z"/>
			<path class="st7" d="M278.9,290h19.3c0-3.5,3.7-3.8,3.7-3.8h-19.3C282.6,286.2,278.9,286.5,278.9,290z"/>
			<path class="st27" d="M322.9,284.2h-17.5c0-3.5-3.4-3.8-3.4-3.8h17.5C319.5,280.4,322.9,280.8,322.9,284.2z"/>
			<path class="st24" d="M304.7,268.3h13.5c0.3,0,0.6,0.3,0.6,0.6l0,0c0,0.3-0.3,0.6-0.6,0.6h-13.5c-0.3,0-0.6-0.3-0.6-0.6l0,0
				C304.1,268.6,304.4,268.3,304.7,268.3z"/>
			<path class="st24" d="M304.7,274.9h13.5c0.3,0,0.6,0.3,0.6,0.6l0,0c0,0.3-0.3,0.6-0.6,0.6h-13.5c-0.3,0-0.6-0.3-0.6-0.6l0,0
				C304.1,275.1,304.4,274.9,304.7,274.9z"/>
			<path class="st24" d="M304.7,288.5h13.5c0.3,0,0.6,0.3,0.6,0.6l0,0c0,0.3-0.3,0.6-0.6,0.6h-13.5c-0.3,0-0.6-0.3-0.6-0.6l0,0
				C304.1,288.8,304.4,288.5,304.7,288.5z"/>
			<path class="st27" d="M285.5,267.9h13c0.3,0,0.6,0.3,0.6,0.6v0c0,0.3-0.3,0.6-0.6,0.6h-13c-0.3,0-0.6-0.3-0.6-0.6v0
				C284.9,268.1,285.2,267.9,285.5,267.9z"/>
			<path class="st27" d="M285.5,282.6h13c0.3,0,0.6,0.3,0.6,0.6v0c0,0.3-0.3,0.6-0.6,0.6h-13c-0.3,0-0.6-0.3-0.6-0.6v0
				C284.9,282.8,285.2,282.6,285.5,282.6z"/>
			<path class="st27" d="M285.5,292h13c0.3,0,0.6,0.3,0.6,0.6l0,0c0,0.3-0.3,0.6-0.6,0.6h-13c-0.3,0-0.6-0.3-0.6-0.6l0,0
				C284.9,292.3,285.2,292,285.5,292z"/>
		</g>
	</g>
	<g>
		<path class="st14" d="M75.4,216.5l25.5,0.1c0.3,0,0.6,0.3,0.6,0.6l0,2.7c0,0.3-0.3,0.6-0.6,0.6l-25.5-0.1c-0.3,0-0.6-0.3-0.6-0.6
			l0-2.7C74.8,216.8,75.1,216.5,75.4,216.5L75.4,216.5z M100.3,217.9L76,217.8l0,1.4l24.3,0.1L100.3,217.9z"/>
		<g>
			<path class="st14" d="M41.9,254.6l33.7-38.4c0.2-0.3,0.6-0.3,0.9-0.1l2,1.8c0.3,0.2,0.3,0.6,0.1,0.9l-33.7,38.4
				c-0.2,0.3-0.6,0.3-0.9,0.1l-2-1.8C41.7,255.2,41.7,254.9,41.9,254.6L41.9,254.6z M76.1,217.5l-32.9,37.4l1.1,1l32.9-37.4
				L76.1,217.5z"/>
			<path class="st22" d="M75.8,215.2c1.9-0.2,3.6,1.1,3.8,2.9c0.2,1.9-1.1,3.6-2.9,3.8c-1.9,0.2-3.6-1.1-3.8-2.9
				C72.6,217.1,73.9,215.4,75.8,215.2z"/>
			<path class="st14" d="M41.9,254.8L65.6,300c0.2,0.3,0.5,0.4,0.8,0.3l2.4-1.2c0.3-0.2,0.4-0.5,0.3-0.8L45.4,253
				c-0.2-0.3-0.5-0.4-0.8-0.3l-2.4,1.2C41.9,254.1,41.8,254.5,41.9,254.8L41.9,254.8z M66.4,298.9l-23.1-44.1l1.3-0.7l23.1,44.1
				L66.4,298.9z"/>
			<path class="st22" d="M65.5,301.1c1.8,0.7,3.7-0.2,4.4-2c0.7-1.8-0.2-3.7-2-4.4c-1.8-0.7-3.7,0.2-4.4,2
				C62.9,298.4,63.7,300.4,65.5,301.1z"/>
			<path class="st22" d="M43.9,251.5c1.9-0.2,3.6,1.1,3.8,2.9c0.2,1.9-1.1,3.6-2.9,3.8c-1.9,0.2-3.6-1.1-3.8-2.9
				C40.7,253.4,42,251.7,43.9,251.5z"/>
		</g>
		<path class="st22" d="M36.2,306.8h47.3c2.4,0,4.3-1.9,4.3-4.3v0c0-2.4-1.9-4.3-4.3-4.3H36.2c-2.4,0-4.3,1.9-4.3,4.3v0
			C31.9,304.8,33.9,306.8,36.2,306.8z"/>
		<path class="st14" d="M53.1,306.8h47.3c2.4,0,4.3-1.9,4.3-4.3v0c0-2.4-1.9-4.3-4.3-4.3H53.1c-2.4,0-4.3,1.9-4.3,4.3v0
			C48.8,304.8,50.7,306.8,53.1,306.8z"/>
		<path class="st7" d="M95.4,225.2h12.5c3.6,0,6.6-3,6.6-6.6H88.8C88.8,222.3,91.8,225.2,95.4,225.2z"/>
		<path class="st28" d="M95.6,223.9h7.5c2.2,0,3.9-1.8,3.9-3.9H91.7C91.7,222.1,93.5,223.9,95.6,223.9z"/>
		<path class="st22" d="M91.2,215.6h20.8c2.8,0,5,2.3,5,5H86.2C86.2,217.9,88.5,215.6,91.2,215.6z"/>
		<path class="st23" d="M91.2,215.6h9.5c2.8,0,5,2.3,5,5H86.2C86.2,217.9,88.5,215.6,91.2,215.6z"/>
	</g>
	<g>
		<path class="st14" d="M342.8,122.1c-0.1,0.2-0.4,0.3-0.6,0.1c-0.2-0.1-0.3-0.4-0.1-0.6c1.8-2.5,4.2-4.6,7-6
			c2.7-1.4,5.7-2.2,8.9-2.2c5.4,0,10.3,2.2,13.8,5.7c3.5,3.5,5.7,8.4,5.7,13.8c0,5.4-2.2,10.3-5.7,13.8c-3.5,3.5-8.4,5.7-13.8,5.7
			c-4.5,0-8.7-1.5-12-4.1c-3.4-2.6-5.9-6.4-6.9-10.7c-0.1-0.2,0.1-0.5,0.3-0.6c0.2-0.1,0.5,0.1,0.6,0.3c1,4.1,3.4,7.6,6.6,10.2
			c3.1,2.5,7.1,3.9,11.4,3.9c5.1,0,9.8-2.1,13.1-5.4c3.4-3.4,5.4-8,5.4-13.1c0-5.1-2.1-9.8-5.4-13.1c-3.4-3.4-8-5.4-13.1-5.4
			c-3.1,0-5.9,0.7-8.5,2C346.8,117.8,344.5,119.7,342.8,122.1z"/>
		<path class="st14" d="M366.9,124.4c-0.5,0.4-1.9,1.9-2.8,4.9c0.8,0.5,2.9,2.1,1.9,3.8l-4.1,7.1c-1,1.7-3.4,0.7-4.2,0.3
			c-2.2,2.3-2.7,4.2-2.9,4.9c1.4,0.7,2.7,0.9,3.8,0.8c1.5-0.2,2.6-1,3-1.7l8-13.8c0.4-0.7,0.5-2-0.1-3.4
			C369,126.2,368.2,125.2,366.9,124.4L366.9,124.4z M363.2,129.4c1.1-4.1,3.2-5.6,3.4-5.8c0.1-0.1,0.3-0.1,0.4,0
			c1.7,1,2.6,2.2,3.1,3.4c0.7,1.6,0.5,3.2,0,4.1l-8,13.8c-0.5,0.9-1.8,1.9-3.6,2.1c-1.3,0.2-2.8-0.1-4.5-1c-0.1-0.1-0.2-0.2-0.2-0.4
			c0,0,0.2-2.7,3.3-5.8c0.1-0.1,0.3-0.2,0.5-0.1c0,0,2.6,1.5,3.4,0.2l4.1-7.1c0.8-1.3-1.6-2.8-1.8-2.9
			C363.3,129.7,363.2,129.5,363.2,129.4z"/>
		<text transform="matrix(1 0 0 1 341.9414 135.897)"><tspan x="0" y="0" class="st29 st30 st31">2</tspan><tspan x="7.8" y="0" class="st29 st30 st31">4</tspan></text>
	</g>
	<g>
		<path class="st1" d="M234.4,100.8H261c2.3,0,4.1,1.9,4.1,4.1v11v1.3v10.9c0,0.2-0.1,0.4-0.3,0.4c-0.2,0.1-0.4,0-0.5-0.1l-7-7
			h-22.8c-2.3,0-4.1-1.9-4.1-4.1V105C230.3,102.7,232.1,100.8,234.4,100.8z"/>
		<g>
			<path class="st7" d="M231.3,98.1h26.5c1.3,0,2.5,0.5,3.3,1.4c0.8,0.8,1.4,2,1.4,3.3v23.1c0,0.2-0.1,0.4-0.2,0.6
				c-0.1,0.2-0.3,0.3-0.5,0.4h0c-0.2,0.1-0.4,0.1-0.6,0.1c-0.2,0-0.4-0.1-0.5-0.3l-6.9-6.9h-22.6c-1.3,0-2.5-0.5-3.3-1.4
				c-0.8-0.8-1.4-2-1.4-3.3v-12.3c0-1.3,0.5-2.5,1.4-3.3C228.8,98.7,230,98.1,231.3,98.1L231.3,98.1z M257.8,99.2h-26.5
				c-1,0-1.9,0.4-2.5,1.1c-0.7,0.7-1.1,1.5-1.1,2.5v12.3c0,1,0.4,1.9,1.1,2.5c0.7,0.7,1.5,1.1,2.5,1.1h23.1l7.1,7.1v-22.9
				c0-1-0.4-1.9-1.1-2.5C259.7,99.6,258.8,99.2,257.8,99.2z"/>
			<path class="st7" d="M231.1,102.7c-0.2,0-0.3-0.1-0.3-0.3c0-0.2,0.1-0.3,0.3-0.3h27c0.2,0,0.3,0.1,0.3,0.3c0,0.2-0.1,0.3-0.3,0.3
				H231.1z"/>
			<path class="st7" d="M231.1,105.6c-0.2,0-0.3-0.1-0.3-0.3c0-0.2,0.1-0.3,0.3-0.3h2.9c0.2,0,0.3,0.1,0.3,0.3
				c0,0.2-0.1,0.3-0.3,0.3H231.1L231.1,105.6z M237.7,105.6c-0.2,0-0.3-0.1-0.3-0.3c0-0.2,0.1-0.3,0.3-0.3H258
				c0.2,0,0.3,0.1,0.3,0.3c0,0.2-0.1,0.3-0.3,0.3H237.7z"/>
			<path class="st7" d="M231.1,108.5c-0.2,0-0.3-0.1-0.3-0.3c0-0.2,0.1-0.3,0.3-0.3h27c0.2,0,0.3,0.1,0.3,0.3c0,0.2-0.1,0.3-0.3,0.3
				H231.1z"/>
			<path class="st7" d="M238.6,112.5c-0.2,0-0.3-0.1-0.3-0.3c0-0.2,0.1-0.3,0.3-0.3H258c0.2,0,0.3,0.1,0.3,0.3
				c0,0.2-0.1,0.3-0.3,0.3H238.6z"/>
			<path class="st7" d="M247.3,115.7c-0.2,0-0.3-0.1-0.3-0.3c0-0.2,0.1-0.3,0.3-0.3H258c0.2,0,0.3,0.1,0.3,0.3
				c0,0.2-0.1,0.3-0.3,0.3H247.3z"/>
			<path class="st7" d="M241.1,115.7c-0.2,0-0.3-0.1-0.3-0.3c0-0.2,0.1-0.3,0.3-0.3h3.9c0.2,0,0.3,0.1,0.3,0.3
				c0,0.2-0.1,0.3-0.3,0.3H241.1z"/>
		</g>
	</g>
	<path class="st1" d="M387.7,306.4c0-0.4-0.3-0.7-0.7-0.7c-0.4,0-0.7,0.3-0.7,0.7v1.6h-1.6c-0.4,0-0.7,0.3-0.7,0.7
		c0,0.4,0.3,0.7,0.7,0.7h1.6v1.6c0,0.4,0.3,0.7,0.7,0.7c0.4,0,0.7-0.3,0.7-0.7v-1.6h1.6c0.4,0,0.7-0.3,0.7-0.7
		c0-0.4-0.3-0.7-0.7-0.7h-1.6V306.4z"/>
	<g>
		<g>
			<path class="st17" d="M121.7,295.6H98.6c-0.9,0-1.8,0.4-2.4,1c-0.6,0.6-1,1.5-1,2.4c0,0.9,0.4,1.8,1,2.4c0.6,0.6,1.5,1,2.4,1
				h23.1c0.9,0,1.8-0.4,2.4-1c0.6-0.6,1-1.5,1-2.4c0-0.9-0.4-1.8-1-2.4C123.5,296,122.6,295.6,121.7,295.6z"/>
			<path class="st7" d="M70,296h29.5c1.7,0,3,1.4,3,3l0,0c0,1.7-1.4,3-3,3H70V296z"/>
			<path class="st32" d="M70,295.6c-0.2,0-0.4,0.2-0.4,0.4c0,0.2,0.2,0.4,0.4,0.4h29.5c0.7,0,1.4,0.3,1.9,0.8
				c0.5,0.5,0.8,1.1,0.8,1.9c0,0.7-0.3,1.4-0.8,1.9c-0.5,0.5-1.1,0.8-1.9,0.8H70c-0.2,0-0.4,0.2-0.4,0.4c0,0.2,0.2,0.4,0.4,0.4h29.5
				c0.9,0,1.8-0.4,2.4-1c0.6-0.6,1-1.5,1-2.4c0-0.9-0.4-1.8-1-2.4c-0.6-0.6-1.5-1-2.4-1H70z"/>
			<path class="st32" d="M120.6,299c0-0.9-0.4-1.8-1-2.4c-0.6-0.6-1.5-1-2.4-1h3c0.9,0,1.8,0.4,2.4,1c0.6,0.6,1,1.5,1,2.4
				c0,0.9-0.4,1.8-1,2.4c-0.6,0.6-1.5,1-2.4,1h-3c0.9,0,1.8-0.4,2.4-1C120.2,300.8,120.6,300,120.6,299z"/>
			<path class="st32" d="M116.2,299c0-0.9-0.4-1.8-1-2.4c-0.6-0.6-1.5-1-2.4-1h3c0.9,0,1.8,0.4,2.4,1c0.6,0.6,1,1.5,1,2.4
				c0,0.9-0.4,1.8-1,2.4c-0.6,0.6-1.5,1-2.4,1h-3c0.9,0,1.8-0.4,2.4-1C115.9,300.8,116.2,300,116.2,299z"/>
		</g>
		<g>
			<path class="st26" d="M76.1,289.5h20.2c0.8,0,1.6,0.3,2.1,0.9c0.5,0.5,0.9,1.3,0.9,2.1c0,0.8-0.3,1.6-0.9,2.1
				c-0.5,0.5-1.3,0.9-2.1,0.9H76.1c-0.8,0-1.6-0.3-2.1-0.9c-0.5-0.5-0.9-1.3-0.9-2.1c0-0.8,0.3-1.6,0.9-2.1
				C74.5,289.9,75.3,289.5,76.1,289.5z"/>
			<path class="st7" d="M121.3,289.9H95.5c-1.5,0-2.7,1.2-2.7,2.7l0,0c0,1.5,1.2,2.7,2.7,2.7h25.8V289.9z"/>
			<path class="st25" d="M121.3,289.5c0.2,0,0.4,0.2,0.4,0.4s-0.2,0.4-0.4,0.4H95.5c-0.6,0-1.2,0.3-1.6,0.7c-0.4,0.4-0.7,1-0.7,1.6
				c0,0.6,0.3,1.2,0.7,1.6c0.4,0.4,1,0.7,1.6,0.7h25.8c0.2,0,0.4,0.2,0.4,0.4c0,0.2-0.2,0.4-0.4,0.4H95.5c-0.8,0-1.6-0.3-2.1-0.9
				c-0.5-0.5-0.9-1.3-0.9-2.1c0-0.8,0.3-1.6,0.9-2.1c0.5-0.5,1.3-0.9,2.1-0.9H121.3z"/>
			<path class="st25" d="M77,292.6c0-0.8,0.3-1.6,0.9-2.1c0.5-0.5,1.3-0.9,2.1-0.9h-2.6c-0.8,0-1.6,0.3-2.1,0.9
				c-0.5,0.5-0.9,1.3-0.9,2.1c0,0.8,0.3,1.6,0.9,2.1c0.5,0.5,1.3,0.9,2.1,0.9H80c-0.8,0-1.6-0.3-2.1-0.9
				C77.4,294.2,77,293.4,77,292.6z"/>
			<path class="st25" d="M80.8,292.6c0-0.8,0.3-1.6,0.9-2.1c0.5-0.5,1.3-0.9,2.1-0.9h-2.6c-0.8,0-1.6,0.3-2.1,0.9
				c-0.5,0.5-0.9,1.3-0.9,2.1c0,0.8,0.3,1.6,0.9,2.1c0.5,0.5,1.3,0.9,2.1,0.9h2.6c-0.8,0-1.6-0.3-2.1-0.9
				C81.2,294.2,80.8,293.4,80.8,292.6z"/>
		</g>
	</g>
	<g>
		<path class="st33" d="M258.6,303.3h-99.3c-1.7,0-3.2-1.4-3.3-3.2v0c-0.1-1.7,1.2-3.2,3-3.2h99.3c1.7,0,3.2,1.4,3.3,3.2v0
			C261.7,301.9,260.3,303.3,258.6,303.3z"/>
		<path class="st34" d="M258.6,303.3h-99.3c-1.1,0-2.2-0.6-2.8-1.5c0.5-0.9,1.5-1.5,2.6-1.5h99.3c1.1,0,2.1,0.6,2.8,1.5
			C260.7,302.7,259.7,303.3,258.6,303.3z"/>
		<path class="st34" d="M260.7,297h-79.4c-2.3,0-4-1.9-3.9-4.1l3.3-51.4c0.1-2.3,2.1-4.1,4.4-4.1h79.4c2.3,0,4,1.9,3.9,4.1
			l-3.3,51.4C264.9,295.1,263,297,260.7,297z"/>
		<path class="st7" d="M260.7,297h-77.1c-2.3,0-4-1.9-3.9-4.1l3.3-51.4c0.1-2.3,2.1-4.1,4.4-4.1h77.1c2.3,0,4,1.9,3.9,4.1l-3.3,51.4
			C264.9,295.1,263,297,260.7,297z"/>
		<path class="st35" d="M256.5,297h-7.9l-65.7-52.5l0.2-3c0.1-0.9,0.4-1.7,0.9-2.4L256.5,297L256.5,297z M192.9,237.3l71.7,57.3
			c0.3-0.5,0.5-1.1,0.5-1.8l0.5-8l-59.5-47.6H192.9z"/>
		<path class="st7" d="M177.4,303.3h-18c-1.7,0-3.2-1.4-3.3-3.2v0c-0.1-1.7,1.2-3.2,3-3.2h18c1.7,0,3.2,1.4,3.3,3.2v0
			C180.4,301.9,179.1,303.3,177.4,303.3z"/>
		<path class="st36" d="M259.9,298.5h-82.6c-0.9,0-1.6-0.7-1.7-1.6l0,0c-0.1-0.9,0.6-1.6,1.5-1.6h82.6c0.9,0,1.6,0.7,1.7,1.6v0
			C261.4,297.8,260.8,298.5,259.9,298.5z"/>
	</g>
	<g>
		<path class="st14" d="M165.9,233.2c-0.6-3-0.5-4.7,0.1-7.6l-13-1.1l18.1-7.9c0,0,3.8-4.7,5.7-9.4c1.8-4.6-3.1-16.4-5-19.3
			c-1.8-2.9-5.7-2.5-8.2-0.9c0,0-3.8-5.7-8.3-6.1c-4.5-0.4-18.9,0.9-23.1,11.5c-4.2,10.6,2.5,21.1-4.2,32c0,0-0.6,1.4,0.3,2.5
			c0.9,1.2,11.5,13.5,35.7,8.6C164,235.5,165.9,235.1,165.9,233.2L165.9,233.2z"/>
		<path class="st15" d="M148.8,236.5c1.3-14.6,2.3-27.2,2.3-27.2l-1.2-4.1c0,0-11.1,9-19.1-0.5c0.4,6.5,1.3,13.1-2.8,19.7
			c0,0-0.6,1.4,0.3,2.5l0,0l0,0l0,0l0,0l0,0l0.1,0.1l0,0l0.1,0.1l0,0l0.1,0.1l0,0.1l0,0l0.1,0.1l0,0l0.1,0.1l0,0l0.1,0.1l0.1,0.1
			l0.1,0.1l0,0l0.1,0.1l0.1,0.1l0.1,0.1l0.1,0.1c2.3,2.2,7.7,6.4,16.8,7.8l0,0C147.2,236.3,148,236.4,148.8,236.5L148.8,236.5z"/>
		<path class="st15" d="M165.9,233.2c-0.8-4.1-0.2-5.8,0.9-11.3l-20.7-3.3l-9.1,1.8c0,0-0.8,5.1-3.2,11.2c5.5,3.4,15.2,6.9,30.1,3.8
			C164,235.5,165.9,235.1,165.9,233.2L165.9,233.2z"/>
		<path class="st26" d="M138.4,234.1c5.7,1.8,13.6,3.9,20.3,7.3c0.5,0.2-0.5,2-0.1,2.3c0.7,0.4,1.8,1.2,3,2.4c3.2,3.1,9.6,27.5,9,30
			c-0.9,3.9-9,14.7-9,14.7c-1.6,3.1-3.6,7.6-5.6,12.5h-40.3c2.8-9.1,3.9-15.3,3.9-20.9h0c2.2-18.9-8-23.1-8-23.1l10.5-24.8
			c4.1-1.5,12.3-0.9,12.3-0.9C136.6,233.6,136.5,233.5,138.4,234.1z"/>
		<path class="st25" d="M156,303.3h-5.7c1.1-2.8,6-16.3,7-19.1c-4.8-0.8-11.4-2-12.6-2.3c-1.2-0.3-5.6,2.3-5.6,2.3l0.5-2.9l-4.8,4.8
			l8.2-15.3c0,0,13.3,3,16.2,3.5c2.8,0.5,1.1,0.1,1.6,0.1c1.6-4.4-1-5.7-0.7-7.8c0.3-2.1,0.4-23,0.4-23c1.7,0.9,2.5,2.8,3.5,5.9
			c0.6,2,4,15.3,5.5,23.1c0.3,1.9,0.6,3.3,0.8,4.4C167.2,285.1,160.1,293.2,156,303.3z"/>
		<path class="st8" d="M148.4,211.3l-2,6.1c0,0-3.1,14.3-3.8,16.2c-0.2,0.6-1.1,0.8-2.3,0.8c1.8,2.6,5.3,6.5,10.3,7.4
			c3.2,0.6,5.4,0,7-0.9c-1.1-0.6-2.1-1.2-2.1-1.8c0-4.9,0.9-13.5,3.5-15.1C162,222.1,148.4,211.3,148.4,211.3z"/>
		<path class="st7" d="M141.3,234.2c-0.7,0.1-1.7,0-2.9-0.1c1.2,1.8,3.2,3.8,6.4,5.8c7.9,5,11.7,2.3,12.9,1
			c-0.7-0.4-1.5-0.8-1.9-1.2l0,0C148.4,243.3,141.3,234.2,141.3,234.2L141.3,234.2z"/>
		<path class="st20" d="M158.4,241.3c0,0,3.2,31.7,2.8,34.4c-0.4,2.7-5.4,15.9-9.8,27.6h7.6c1.5-2.9,2.6-5.1,2.8-5.7
			c0.1-0.3,0.7-1.4,1.4-2.7c1.3-2.4,3.2-5.8,4.7-8.2c4.6-7.6,4.6-5.8,3-14.7c-1.4-7.8-5.7-22.3-6.4-24.4
			C163.5,244.6,159.2,241,158.4,241.3z"/>
		<path class="st14" d="M158,285.4c-1,2.9-2.2,6.2-3.5,9.6c2.3,0.2,4.1,0.4,4.8,0.7c2.3,0.9,2.5,1.9,2.5,1.9
			c0.1-0.3,0.7-1.4,1.4-2.7c1.3-2.4,3.2-5.8,4.7-8.2c1.4-2.3,2.4-3.7,3-4.9c-0.9,0.8-2.3,2-3,2.2C167,284.3,160.6,285.1,158,285.4z"
			/>
		<path class="st20" d="M137.2,233.5c0,0,5.8,28,6.6,36.2c0.8,8.1-1.8,14-4.6,20.1c-1,2.1-4.1,7.3-7.9,13.6h-17.8l1.9-44l-5.1-1.2
			c0.3-2.2,0.6-4,0.7-5.3l10.1-17.8C121.1,235,124.9,231.9,137.2,233.5z"/>
		<path class="st14" d="M126.4,246.9c-2.8,11.4-0.9,16.1-0.9,16.1l1.5-7.1c0,0,1.4,10.5,3,11.8c0.8,0.7,10.3,2.5,13.8,3.1
			c0.2,4.4-0.5,8.2-1.7,11.7c-2.5,0.3-17.9-1.9-18.6,3.1c-0.4,2.5-0.3-5.5-0.3-5.5l-0.9,23h-8.9l1.9-44l-5.1-1.2l0-0.1l0-0.1l0-0.1
			l0-0.1l0,0l0-0.1l0-0.1l0-0.1l0-0.1l0-0.1l0-0.1l0-0.1h0l0-0.1l0-0.1l0-0.1v0l0-0.1l0-0.1l0,0l0-0.1l0,0l0-0.1l0,0l0-0.1l0,0
			l0-0.1l0,0l0-0.1h0l0-0.1h0l0-0.1v0l0-0.1l0,0l0-0.1l0,0l0-0.1l0,0l0-0.1v0l0-0.1l0,0l0-0.1l0,0l0-0.1l0,0l0-0.1v0l0-0.1l0,0
			l0-0.1v0l0-0.1l0,0l0-0.1l0,0l0-0.1v0l0-0.1v0l0-0.1v0l0-0.1h0l0-0.1l0,0l0-0.1l0,0l0-0.1l0,0l0-0.1v0l0-0.1l0,0l0-0.1v0l0-0.1
			l0,0l0-0.1v0l0-0.1l0,0l0-0.1l0,0l0-0.1l0,0l0-0.1v0l0-0.1l0,0l0-0.1v0l0-0.1l0,0l0-0.1v0l0-0.1l0,0l0-0.1l0,0l0-0.1v0l0-0.1v0
			l0-0.1v0l0-0.1v0l0-0.1v0l0-0.1v0l0-0.1l5.4-9.6L126.4,246.9z"/>
		<path class="st22" d="M112.3,247.4c-3.3,8.9-4.1,39.5-1.5,55.9h14.3c-5.9-32.6,6.4-55.8,3.7-64.1
			C124.6,226,114.5,241.6,112.3,247.4z"/>
		<path class="st15" d="M169.5,217.3l1.6-0.7c0,0,2.7-3.3,4.6-7.1c-0.4,0.7-2.9,5.1-6.6,2.4c-4-2.9-4.2,1.7-4.2,1.7s2.4,2.7,3.8,3.4
			C169,217.1,169.3,217.2,169.5,217.3L169.5,217.3z M175.8,209.4L175.8,209.4L175.8,209.4L175.8,209.4z"/>
		<path class="st8" d="M167.8,214.6c-2.5-0.3-4.7,1.6-5,4.1c-0.3,2.5,1.6,4.7,4.1,5c2.5,0.3,4.7-1.6,5-4.1
			C172.2,217.1,170.3,214.9,167.8,214.6z"/>
		<path class="st8" d="M136.1,211.4c-0.1,0-0.2,0-0.3,0l0,0h0c-2.1,0.3-3.8,1.9-4,4.1c-0.3,2.5,1.6,4.7,4.1,5c2.5,0.3,4.7-1.6,5-4.1
			c0.2-1.5-0.4-2.8-1.4-3.8c0,1.4-0.4,3-2.1,3l0.3-2.6C137.7,212,136.8,211.4,136.1,211.4z"/>
		<path class="st12" d="M155.7,190.2L155.7,190.2c-8.5-0.9-16.3,5.4-17.1,13.9l-1.5,14.1c-0.9,8.5,5.4,16.3,13.9,17.1l0,0
			c8.5,0.9,16.3-5.4,17.1-13.9l1.5-14.1C170.5,198.8,164.2,191.1,155.7,190.2z"/>
		<path class="st13" d="M138.3,206.6l-1.2,11.6c-0.7,7.2,3.5,13.7,10,16.2c-9.1-3.8-4.4-19.6-4.4-19.6c1.8-0.3,4.7-3.7,6.4-5.7
			c1.7-2,3-4,5.9-4c2.9,0.1,9.1,1.6,9.1,1.6c1.3,3,3.7,5.3,5,6.3l0.6-5.8c0.2-1.7,0.1-3.4-0.3-5c-0.4-0.2-0.8-0.4-1.2-0.7
			C155.7,194.6,145,200.3,138.3,206.6z"/>
		<path class="st15" d="M167.3,202.9l-2.5,1.1c0,0-2.4-1.4-5.1-0.8c0,0-5.5-2-8.5-0.9c-2.9,1.1-1.2-2.9-0.7-3.1
			c0.5-0.2,6.1-0.5,8.5-0.1c2.4,0.5,6.1,1,6.1,1L167.3,202.9z"/>
		<path class="st15" d="M137.8,210.7l1.5,0.3c0,0,1,4.7-1.9,4.8l0.3-2.6c0-0.2,0-0.3,0-0.5L137.8,210.7z"/>
		<path class="st14" d="M159.7,203.2c-2.3-3.1-6-3.7-8.9,0.6c-2.6,4-6.6,10.8-13.2,10.2l0-0.1l0,0l0.4-4.4c0,0-0.6,0.1-1.2,0.3
			c-0.4-2.3-0.6-5.2-0.2-7.9c0.8-5.5,8.5-13.6,17.2-14c8.7-0.3,15,4.9,16.2,7.8c1.2,2.9,2.5,9.6,2.5,9.6l-1.5,2.2l-1.7,4.4
			c-4-3.9-3.6-7.6-5.3-9.4C162.9,201.5,161.5,201.5,159.7,203.2z"/>
		<path class="st15" d="M149.9,205.2c-2.6,4-6.4,9.4-12.3,8.9l0-0.1l0,0l0.4-4.4c0,0-0.6,0.1-1.2,0.3c-0.1-0.4-0.1-0.8-0.2-1.2
			C143.2,210.6,149.8,205.2,149.9,205.2z"/>
		<path class="st37" d="M156.7,240.4c0,0,4.1,33.3,4,34.4c-0.1,1.1-1.2,6.3-1.2,6.3s2-3.3,2.4-6c0.5-2.7,1.8-21.2,1.8-21.2l-2.2-1.2
			l2-0.1l-3.3-10.4c0,0-0.4-0.8-0.9-1.1c-0.5-0.3-2.4-1.3-2.5-1.3c0,0-0.5-0.1-0.7,0.1C156.2,240,156.6,240.3,156.7,240.4z"/>
		<path class="st37" d="M137.2,233.5c0,0,5.8,28,6.6,36.2c0.3,3.3,0.1,6.3-0.5,9c1.1-8.3-10.7-27.9-10.7-27.9l3-1.4l-4.1-1.8
			c0,0,1.9-10.5,2-12.3c0.1-1.7-0.8-2-0.8-2.1C134.1,233.1,135.6,233.3,137.2,233.5z"/>
		<path class="st23" d="M21.5,315.6h5.1c2,0,3.7-1.7,3.7-3.7l0,0c0-2-1.7-3.7-3.7-3.7H13.2c-1.6,0-2.9-1.3-2.9-2.9l0,0
			c0-1.6,1.3-2.9,2.9-2.9h353.4c1.6,0,2.9,1.3,2.9,2.9l0,0c0,1.6-1.3,2.9-2.9,2.9h-18.3c-2,0-3.7,1.7-3.7,3.7l0,0
			c0,2,1.7,3.7,3.7,3.7h4.3c3.2,0,5.8,2.6,5.8,5.8l0,0c0,3.2-2.6,5.8-5.8,5.8h-331c-3.2,0-5.8-2.6-5.8-5.8l0,0
			C15.7,318.3,18.3,315.6,21.5,315.6L21.5,315.6z M5.3,302.5c1.6,0,2.9,1.3,2.9,2.9c0,1.6-1.3,2.9-2.9,2.9c-1.6,0-2.9-1.3-2.9-2.9
			C2.4,303.8,3.7,302.5,5.3,302.5z"/>
	</g>
	<g>
		<path class="st38" d="M202.4,149.8h-26.5c-1.3,0-2.5,0.5-3.3,1.4c-0.8,0.8-1.4,2-1.4,3.3v23.1c0,0.2,0.1,0.4,0.2,0.6
			c0.1,0.2,0.3,0.3,0.5,0.4h0c0.2,0.1,0.4,0.1,0.6,0.1c0.2,0,0.4-0.1,0.5-0.3l6.9-6.9h22.6c1.3,0,2.5-0.5,3.3-1.4
			c0.8-0.8,1.4-2,1.4-3.3v-12.3c0-1.3-0.5-2.5-1.4-3.3C204.8,150.4,203.7,149.8,202.4,149.8L202.4,149.8z M175.8,150.9h26.5
			c1,0,1.9,0.4,2.5,1.1c0.7,0.7,1.1,1.5,1.1,2.5v12.3c0,1-0.4,1.9-1.1,2.5c-0.7,0.7-1.5,1.1-2.5,1.1h-23.1l-7.1,7.1v-22.9
			c0-1,0.4-1.9,1.1-2.5C174,151.3,174.8,150.9,175.8,150.9z"/>
		<path class="st38" d="M202.6,154.4c0.2,0,0.3-0.1,0.3-0.3c0-0.2-0.1-0.3-0.3-0.3h-27c-0.2,0-0.3,0.1-0.3,0.3
			c0,0.2,0.1,0.3,0.3,0.3H202.6z"/>
		<path class="st38" d="M202.6,157.3c0.2,0,0.3-0.1,0.3-0.3c0-0.2-0.1-0.3-0.3-0.3h-2.9c-0.2,0-0.3,0.1-0.3,0.3
			c0,0.2,0.1,0.3,0.3,0.3H202.6L202.6,157.3z M195.9,157.3c0.2,0,0.3-0.1,0.3-0.3c0-0.2-0.1-0.3-0.3-0.3h-20.3
			c-0.2,0-0.3,0.1-0.3,0.3c0,0.2,0.1,0.3,0.3,0.3H195.9z"/>
		<path class="st38" d="M202.6,160.2c0.2,0,0.3-0.1,0.3-0.3c0-0.2-0.1-0.3-0.3-0.3h-27c-0.2,0-0.3,0.1-0.3,0.3
			c0,0.2,0.1,0.3,0.3,0.3H202.6z"/>
		<path class="st38" d="M195.1,164.2c0.2,0,0.3-0.1,0.3-0.3c0-0.2-0.1-0.3-0.3-0.3h-19.5c-0.2,0-0.3,0.1-0.3,0.3
			c0,0.2,0.1,0.3,0.3,0.3H195.1z"/>
		<path class="st38" d="M186.4,167.4c0.2,0,0.3-0.1,0.3-0.3c0-0.2-0.1-0.3-0.3-0.3h-10.8c-0.2,0-0.3,0.1-0.3,0.3
			c0,0.2,0.1,0.3,0.3,0.3H186.4z"/>
		<path class="st38" d="M192.6,167.4c0.2,0,0.3-0.1,0.3-0.3c0-0.2-0.1-0.3-0.3-0.3h-3.9c-0.2,0-0.3,0.1-0.3,0.3
			c0,0.2,0.1,0.3,0.3,0.3H192.6z"/>
	</g>
</g>
</svg>
