<svg width="29" height="24" viewBox="0 0 29 24" fill="none" xmlns="http://www.w3.org/2000/svg">
<path d="M27.8012 15.9107C28.0084 15.6883 28.1211 15.3942 28.1158 15.0904C28.1104 14.7865 27.9873 14.4966 27.7724 14.2817C27.5575 14.0668 27.2676 13.9437 26.9637 13.9383C26.6599 13.933 26.3658 14.0458 26.1434 14.2529L21.1077 19.2887L21.1077 7.26231C21.1077 5.49952 20.4074 3.80894 19.1609 2.56246C17.9145 1.31599 16.2239 0.615723 14.4611 0.615723L1.55889 0.615723C1.24781 0.615723 0.949474 0.739298 0.729507 0.959265C0.509541 1.17923 0.385967 1.47757 0.385967 1.78865C0.385967 2.09973 0.509541 2.39807 0.729507 2.61803C0.949474 2.838 1.24781 2.96158 1.55889 2.96158L14.4611 2.96158C15.6017 2.96158 16.6956 3.41469 17.5022 4.22123C18.3087 5.02777 18.7618 6.12168 18.7618 7.26231L18.7618 19.2871L13.726 14.2514C13.5047 14.0378 13.2084 13.9197 12.9009 13.9226C12.5933 13.9254 12.2992 14.0489 12.0818 14.2664C11.8645 14.484 11.7412 14.7783 11.7387 15.0858C11.7362 15.3933 11.8545 15.6896 12.0683 15.9107L19.1059 22.9482C19.3258 23.1679 19.6239 23.2913 19.9347 23.2913C20.2456 23.2913 20.5437 23.1679 20.7636 22.9482L27.8012 15.9107Z" fill="#FFA511"/>
</svg>
