<?xml version="1.0" encoding="utf-8"?>
<!-- Generator: Adobe Illustrator 24.2.3, SVG Export Plug-In . SVG Version: 6.00 Build 0)  -->
<svg version="1.1" id="Слой_1" xmlns="http://www.w3.org/2000/svg" xmlns:xlink="http://www.w3.org/1999/xlink" x="0px" y="0px"
	 viewBox="0 0 1834.2 1781.4" style="enable-background:new 0 0 1834.2 1781.4;" xml:space="preserve">
<style type="text/css">
	.st0{fill:#97A43C;}
	.st1{fill:#BBD070;}
	.st2{fill:#48753A;}
	.st3{fill:url(#SVGID_1_);}
	.st4{fill:#E3E3E3;}
	.st5{fill:url(#SVGID_2_);}
	.st6{fill:#323657;}
	.st7{fill:url(#SVGID_3_);}
	.st8{fill:#2D3038;}
	.st9{fill:#3F444F;}
	.st10{opacity:0.32;fill:#F2F2F2;}
	.st11{fill:#CAC7D1;}
	.st12{fill:#1D2033;}
	.st13{fill:#EEA987;}
	.st14{fill:#D88A51;}
	.st15{fill:#C78D71;}
	.st16{fill:#A09EA6;}
	.st17{fill:#EAE6F2;}
	.st18{fill:#3A4066;}
	.st19{fill:#EFAA88;}
	.st20{fill:url(#SVGID_4_);}
	.st21{fill:#706865;}
	.st22{fill:#B59074;}
	.st23{fill:#EEA886;}
	.st24{fill:#515269;}
	.st25{fill:#6A6B8A;}
	.st26{fill:#C4C6D1;}
	.st27{fill:#34395C;}
	.st28{fill:#EDDCC5;}
	.st29{fill:#494F80;}
	.st30{fill:#403429;}
	.st31{fill:#FFC05C;}
	.st32{fill:#A77860;}
	.st33{fill:#D19E4C;}
	.st34{fill:#918783;}
	.st35{fill:#5E5854;}
	.st36{fill:#BFB2AC;}
	.st37{fill:#E2D2CA;}
	.st38{fill:#9CB839;}
	.st39{fill:#353A3D;}
	.st40{fill:#81807E;}
	.st41{fill:#2D3133;}
	.st42{fill:#DECBC4;}
	.st43{fill:#495055;}
	.st44{fill:#E8734D;}
	.st45{fill:#3C4145;}
	.st46{fill:#51565C;}
	.st47{fill:#F5E2D9;}
	.st48{fill:#D44040;}
	.st49{fill:#AD9F99;}
	.st50{fill:#69737A;}
	.st51{fill:#0E1E2B;}
	.st52{fill:#EBE2DF;}
	.st53{fill:#DB9C7C;}
	.st54{fill:#1D3B54;}
	.st55{fill:#23263D;}
	.st56{fill:#EDDAD3;}
	.st57{fill:#D6C5BE;}
	.st58{fill:#252E3B;}
	.st59{fill:#FAE6DE;}
	.st60{fill:#B54141;}
	.st61{fill:#8E4F3A;}
	.st62{fill:#AD9F9A;}
	.st63{fill:#FFB955;}
</style>
<g>
	<g>
		<g>
			<g>
				<path class="st0" d="M1153.7,601.6l-0.7-3.1c0.7-0.1,66.1-15.1,147.3-26.5c75-10.6,179.3-20.3,249.8-6.5l0.1,0
					c0.3,0.1,35,9.7,84.8,3.3c45.9-5.9,114.6-27.2,180.6-94.7l2.3,2.2c-29.4,30.1-61.9,53.7-96.4,70.1
					c-27.6,13.1-56.6,21.7-86.2,25.5c-49.3,6.4-84.1-2.9-85.9-3.4C1415.3,542.4,1156.3,601,1153.7,601.6z"/>
			</g>
			<g>
				<path class="st0" d="M1600.2,676.5c-22.8,0-44.3-6.7-63.2-19.9c-23.5-16.3-41.1-41.3-49.7-70.3c-14.1-47.7-1.5-105.6,58.4-127.5
					c59.2-21.7,95.8-5.7,131.2,9.8c38.6,16.9,75,32.8,139.2,5.3l3.2-1.4l-1.1,3.3c-0.1,0.4-14.3,42.2-44.7,87.2
					c-17.8,26.4-37.7,48.8-59.1,66.4c-26.7,22.1-55.9,36.8-86.6,43.8C1618.5,675.4,1609.2,676.5,1600.2,676.5z M1600.4,451.4
					c-15.8,0-33.3,2.9-53.6,10.3c-58,21.2-70.1,77.4-56.5,123.7c15.9,54,68.1,100.4,136.9,84.8c68.5-15.6,116-67.8,143.7-108.9
					c25.2-37.3,39.2-72.4,43.1-83.2c-63.5,26-101.6,9.4-138.4-6.7C1653,461.5,1629.8,451.4,1600.4,451.4z"/>
			</g>
			<g>
				
					<rect x="1583.9" y="522.9" transform="matrix(0.5598 -0.8286 0.8286 0.5598 191.0027 1583.1031)" class="st0" width="3.2" height="177.8"/>
			</g>
			<g>
				
					<rect x="1543.7" y="516.7" transform="matrix(0.7042 -0.71 0.71 0.7042 110.2807 1301.3274)" class="st0" width="146" height="3.2"/>
			</g>
		</g>
		<g>
			<g>
				<path class="st0" d="M1473.5,798.6l1.4-8.9c0.2-1.5,5.3-37.2-35.8-52.6c-25-9.4-69.7-35.4-79-73.4c-5.5-22.5,2.3-45.5,22.9-68.4
					c21.3-23.6,49.2-26.8,74.5-8.8c22.2,15.8,38.8,45.9,44.3,80.3c4.6,28.3,4.1,72.7-24.1,123.9L1473.5,798.6z M1424.4,578.2
					c-14,0-27.5,6.5-39,19.2c-19.9,22.1-27.4,44.1-22.2,65.6c8.9,36.7,52.6,62,77,71.2c32.4,12.2,37.6,37,38.1,49.1
					c45.7-88.9,14.2-168-22.5-194.2C1445.5,581.8,1434.8,578.2,1424.4,578.2z"/>
			</g>
			<g>
				<path class="st0" d="M1477.9,790.4l-3-0.9c0.1-0.2,7.2-24.3,4.9-56.8c-2.1-29.9-12.7-73.1-51.7-109.8
					c-34.1-32.1-61.9-35-94.2-38.4c-38.4-4-82-8.6-145.5-66.6l2.1-2.3c62.7,57.3,105.8,61.8,143.7,65.8c31.4,3.3,61.1,6.4,96,39.2
					c39.7,37.4,50.6,81.5,52.7,112C1485.2,765.7,1478,790.2,1477.9,790.4z"/>
			</g>
			<g>
				
					<rect x="1344.3" y="650.3" transform="matrix(0.1967 -0.9805 0.9805 0.1967 481.0121 1890.9581)" class="st0" width="100.5" height="3.2"/>
			</g>
			<g>
				
					<rect x="1461.5" y="603.4" transform="matrix(1.995683e-02 -0.9998 0.9998 1.995683e-02 804.2028 2080.0781)" class="st0" width="3.2" height="52.8"/>
			</g>
			<g>
				
					<rect x="1416.2" y="699.8" transform="matrix(0.212 -0.9773 0.9773 0.212 460.3348 1973.6385)" class="st0" width="75.8" height="3.2"/>
			</g>
			<g>
				
					<rect x="1487.3" y="713.4" transform="matrix(0.6515 -0.7587 0.7587 0.6515 -31.4823 1382.4137)" class="st0" width="3.2" height="24.1"/>
			</g>
		</g>
		<g>
			<g>
				<g>
					<g>
						<path class="st1" d="M1152.1,201.3c0,0,169.6,140.3,100.4,263.6c-69.2,123.2-112.6,22.5-112.6,22.5s-51.2,19.4,16.3-131.3
							C1188.1,285.1,1152.1,201.3,1152.1,201.3z"/>
					</g>
				</g>
			</g>
			<g>
				<g>
					<g>
						<path class="st0" d="M1434.8,16.8c0,0,131.4,134.4-17.3,343.4c-148.7,209-116.3,311.8-116.3,311.8S1051.2,343.9,1434.8,16.8z"
							/>
					</g>
				</g>
			</g>
			<g>
				<g>
					<g>
						<path class="st2" d="M1255.5,611.5c-74.5,20.5-23.7-200.3,85.1-275.1s209.7-88.5,268.7-157.4
							C1609.2,179,1622.5,510.4,1255.5,611.5z"/>
					</g>
				</g>
			</g>
		</g>
		<g>
			<linearGradient id="SVGID_1_" gradientUnits="userSpaceOnUse" x1="918.736" y1="1568.3539" x2="918.736" y2="717.4802">
				<stop  offset="0" style="stop-color:#E36C44"/>
				<stop  offset="1" style="stop-color:#F75A5A"/>
			</linearGradient>
			<path class="st3" d="M651,1208.3c0-153,11.8-218.2,35.5-275.9c23.7-57.8,72.5-108.1,146.6-151.1c22.2-13.3,49.6-28.5,82.2-45.5
				c32.6-17,64.4-37.4,95.5-61.1c31.1-23.7,57.4-51.4,78.9-83.3c21.5-31.8,32.2-68.5,32.2-110c0-31.1-5.9-58.5-17.8-82.2
				c-11.9-23.7-27.4-43.7-46.7-60c-19.3-16.3-41.9-28.5-67.8-36.7c-25.9-8.1-52.2-12.2-78.9-12.2c-32.6,0-62.2,5.6-88.9,16.7
				c-26.7,11.1-50.7,25.2-72.2,42.2c-21.5,17-40.8,36.3-57.8,57.8c-17,21.5-31.5,41.9-43.3,61.1L455.6,334.8
				c19.2-45.9,44.8-86.6,76.6-122.2c31.8-35.5,68.1-65.5,108.9-90c40.7-24.4,84.8-42.9,132.2-55.5c47.4-12.6,96.3-18.9,146.6-18.9
				c56.3,0,111.8,8.2,166.6,24.4c54.8,16.3,104,42.2,147.7,77.8c43.7,35.5,79.2,81.1,106.6,136.6c27.4,55.5,41.1,121.8,41.1,198.8
				c0,47.4-5.6,89.2-16.7,125.5c-11.1,36.3-27,69.2-47.8,98.9c-20.8,29.6-45.2,56.3-73.3,80c-28.2,23.7-60,46.7-95.5,68.9
				c-29.6,17.8-59.3,34.8-88.9,51.1c-29.6,16.3-56.6,34.4-81.1,54.4c-24.4,20-44.4,43-60,68.9c-15.5,25.9-23.3,57.4-23.3,174.9H651z
				 M655.5,1645.5v-306.6h246.6v306.6H655.5z"/>
		</g>
		<g>
			<path class="st4" d="M1192.9,576.3H792c-1.1,0-2.1-0.9-2.1-2.1v-19.7c0-1.1,0.9-2.1,2.1-2.1h400.9c1.1,0,2.1,0.9,2.1,2.1v19.7
				C1195,575.3,1194.1,576.3,1192.9,576.3z"/>
			<path class="st4" d="M1069.5,779H792c-1.1,0-2.1-0.9-2.1-2.1v-19.7c0-1.1,0.9-2.1,2.1-2.1h277.5c1.1,0,2.1,0.9,2.1,2.1V777
				C1071.6,778.1,1070.7,779,1069.5,779z"/>
			<path class="st4" d="M1022.5,627H792c-1.1,0-2.1-0.9-2.1-2.1v-19.7c0-1.1,0.9-2.1,2.1-2.1h230.5c1.1,0,2.1,0.9,2.1,2.1v19.7
				C1024.6,626,1023.6,627,1022.5,627z"/>
			<path class="st4" d="M1107.4,677.7H792c-1.1,0-2.1-0.9-2.1-2.1v-19.7c0-1.1,0.9-2.1,2.1-2.1h315.4c1.1,0,2.1,0.9,2.1,2.1v19.7
				C1109.5,676.7,1108.6,677.7,1107.4,677.7z"/>
			<path class="st4" d="M924.1,728.3H792c-1.1,0-2.1-0.9-2.1-2.1v-19.7c0-1.1,0.9-2.1,2.1-2.1h132.1c1.1,0,2.1,0.9,2.1,2.1v19.7
				C926.2,727.4,925.3,728.3,924.1,728.3z"/>
			<linearGradient id="SVGID_2_" gradientUnits="userSpaceOnUse" x1="789.9753" y1="514.2293" x2="926.2057" y2="514.2293">
				<stop  offset="0" style="stop-color:#E36C44"/>
				<stop  offset="1" style="stop-color:#F75A5A"/>
			</linearGradient>
			<path class="st5" d="M924.1,526.1H792c-1.1,0-2.1-0.9-2.1-2.1v-19.7c0-1.1,0.9-2.1,2.1-2.1h132.1c1.1,0,2.1,0.9,2.1,2.1v19.7
				C926.2,525.2,925.3,526.1,924.1,526.1z"/>
		</g>
		<g>
			<g>
				<path class="st6" d="M1041.1,887.7c0,0-75,66.4-97.2,84.1c-10.3,8.2-34.6,8.9-60.8,8.9c-8.6,0-18.3,0.4-26.9,0c0,0,0,0,0,0
					c-34.4-1.7-64.2-4.9-64.2-4.9s-89.1,4.5-84.7-50.8c0,0,10.4-16.7,23.7-20.5c12.3-3.5,71.8,6.2,81.6,6.7
					c10.7,0.5,85.3,15,88,14.5c3.4-0.6,35.4-19.3,52.5-29.7c26.1-15.9,50.9-28.6,50.9-28.6L1041.1,887.7z"/>
			</g>
			<g>
				<linearGradient id="SVGID_3_" gradientUnits="userSpaceOnUse" x1="618.319" y1="895.9073" x2="1298.1335" y2="895.9073">
					<stop  offset="0" style="stop-color:#FF9F55"/>
					<stop  offset="1" style="stop-color:#FFD255"/>
				</linearGradient>
				<polygon class="st7" points="1284.6,993.2 618.3,878.2 631.9,798.6 1298.1,913.6 				"/>
				
					<rect x="599.9" y="798" transform="matrix(0.9858 0.1679 -0.1679 0.9858 149.0585 -90.9596)" class="st8" width="25.4" height="76.5"/>
				<path class="st9" d="M318.8,477.2C156.6,477.2,25.1,608.8,25.1,771c0,162.2,131.5,293.8,293.8,293.8
					c162.2,0,293.8-131.5,293.8-293.8C612.6,608.8,481.1,477.2,318.8,477.2z M318.8,1016.5c-94,0-175.6-52.8-216.9-130.3
					c0,0,0,0,0,0C83.7,851.8,73.3,812.6,73.3,771c0-135.6,109.9-245.5,245.5-245.5c63.6,0,121.6,24.2,165.2,63.9
					c49.3,44.9,80.3,109.6,80.3,181.6C564.4,906.6,454.4,1016.5,318.8,1016.5z"/>
				<path class="st10" d="M484.1,589.4c0,0-318.6-39.5-382.1,296.8c0,0,0,0,0,0C83.7,851.8,73.3,812.6,73.3,771
					c0-135.6,109.9-245.5,245.5-245.5C382.5,525.5,440.5,549.7,484.1,589.4z"/>
			</g>
			<g>
				<path class="st11" d="M496.9,1309c0,0,29,8.8,41.2,6.6c12.2-2.2,6-151.3,6.5-182.4c0.4-25.2,14.1-91.6,14.1-91.6s0,0,0,0.1
					c0,0,0,0.1,0,0.1c0,0,0,0.1,0,0.1c1.4,5,19.9,73.9,20.6,107.1c0.7,34.4-4.5,165.9-4.5,165.9l51.2,5l147.2,3.6l30.7-3.6
					c0,0-3.7-56.2-5-83c-0.8-17-4.1-47.4-3.3-77c0,0-0.5-31.2,2.6-44.7c0.3-59.3,3.9-118.1,3.9-118.1c2-26.9,3.4-52,4.2-75.5
					c-6.5-3.4-14.3-7.4-20.5-10.4c-19.3-9.2-46.2-21.6-63.5-29.5c-10.1-4.6-20-8-20-8s-69-6.6-74.7-6.3c-1.8,0.1-10.4,3.1-21.7,7.4
					c-24.5,9.3-71.7,28.2-79.2,33.6c-11,7.9-34.3,195.4-35.4,208.6C489.4,1140.7,496.9,1309,496.9,1309z"/>
			</g>
			<path class="st12" d="M799.6,1296.4c0,0-101,8.6-189.5,0v29c0,0,132.9,19.2,194-5.5L799.6,1296.4z"/>
			<g>
				<path class="st6" d="M820.2,1325.1c-6.3-34.5-13.1-77.8-18-117.8v-0.2c-0.4-3.4-0.8-6.8-1.2-10.1c0-0.2,0-0.4-0.1-0.5
					c-1.6-14.2-2.9-27.7-3.9-40.1c-0.7-9.5-0.1-18.8,1.2-27.9c3.9-63.5,5.8-130.4,5.8-130.4c2-27.4,7.6-63,8.4-86.8
					c-9.4-1.8-15.6-2-24.1-5c0,0-55.4-20.2-74.9-28.4c0,0,16.4,38.6,28.8,124.9c4.7,33.1,13.5,88.9,19.9,145.9
					c2.5,22.5,6.6,45.2,10.6,66.6c4,21.4,7.7,41.5,9.6,58.7c1.2,11.6,3.3,30.6,5.5,51c0.4,3.1,0.7,6.3,1,9.4h33.2
					C821.4,1331.4,820.7,1328.3,820.2,1325.1z"/>
			</g>
			<path class="st11" d="M708.2,898c0,0,1.8,26.4-20.5,27c-22.4,0.6-40.1-20.9-40.1-20.9l37.1,9.6l22.6-19.1L708.2,898z"/>
			<g>
				<path class="st13" d="M678.1,695.6c0,0,51.3,8.6,42.6,88.9c-8.7,80.3-53.9,73.2-57,73.1c-3-0.1-45.5,1-47.8-97.2
					C615.9,760.4,615.2,687.9,678.1,695.6z"/>
			</g>
			<g>
				<path class="st13" d="M700.5,834.3c0,0,0,33.1,1.4,40.2c1.5,7.7-41.2,29.9-68.7,4c0,0,5.6-36.1,3.8-48.9
					C635.3,817,700.5,834.3,700.5,834.3z"/>
			</g>
			<g>
				<path class="st13" d="M720.8,765.8c0,0,5.7-5.9,7.7,0.2c2,6.1-7.2,31.9-8.4,34.4c0,0-1.1,2.3-2.4,1
					C716.4,800.1,720.8,765.8,720.8,765.8z"/>
			</g>
			<g>
				<path class="st13" d="M616.5,759.7c0,0-5.4-6.2-7.7-0.2c-2.2,6,6,33,7,34.7c0,0,1.8,2.8,3.2,1.5
					C620.3,794.5,616.5,759.7,616.5,759.7z"/>
			</g>
			<g>
				<path class="st14" d="M724.9,755c-1.8,11-3.4,19.1-3.4,19.1l-7.5,9.7c0,0,0.4-21.5-0.7-24.9c-0.4-1.3-0.9-3.6-1.5-6
					c-0.9-4.1-1.7-8.6-2.3-10.2c-1-2.4-43.9-15-82.2,2.6c0,0,0.3,3.3,0.3,7c0,4.3-0.5,9.1-2.5,9.8c-3.7,1.3-2.1,25.2-2.1,25.2
					l-6-6.9c0,0-1.7-12.5-3.4-26.8c0,0,0,0,0-0.1c-0.4-3.3-0.8-6.8-1.2-10.2c-0.9-14.4,0.6-40.6,19.3-56c12.7-5.4,32.9-10,66.6,0.3
					c0,0,7.7,0.5,9.9,2.6C729.3,713.5,724.9,755,724.9,755z"/>
			</g>
			<path class="st15" d="M640.5,846.9c0,0,8.2,11.4,27.2,10.9c19-0.4,27.3-10.3,27.3-10.3s-9,18.8-27.4,18.6
				C649.3,865.9,640.5,846.9,640.5,846.9z"/>
			<path class="st16" d="M703.9,899.6l-19.1,14.1c0,0,16-34.1,16.3-47.7L703.9,899.6z"/>
			<polygon class="st17" points="701,866.1 714.1,878.2 727.8,919 703.9,899.6 			"/>
			<path class="st13" d="M698.7,878.3c0,0-5.3,18.6-13.9,35.5c0,0-20.1-17.6-26.4-23.9C652,883.7,698.7,878.3,698.7,878.3z"/>
			<path class="st16" d="M663.7,894.1l21,19.7c0,0-24.8-1.6-29.5-5.8L663.7,894.1z"/>
			<path class="st17" d="M635.9,857.9c0,0,16.8,27.3,27.9,36.2l-18.6,30.9l-29.9-54.3L635.9,857.9z"/>
			<g>
				<path class="st6" d="M666.9,1054.9c-4.1-78.3-46.8-178.6-51.7-184.1c-3.8,1.4-17.2,7.1-21.4,8.7c-23.1,9.1-70.3,25.8-76.7,30.4
					c-11,7.9-31.9,204.5-33.2,217.7c-1.8,18,3.8,189.9,3.8,189.9s28.4,6.2,46.1,7.6c3.5,0.3,6.6,0.4,9,0.2c-1.1,3.2-2.1,6.3-3.1,9.2
					h100.6c0.3-3.1,0.6-6.2,0.9-9.4c1.2-12.6,2.6-26.1,4-40.2c3.7-36.7,8.7-70.9,13.2-114.8C662.6,1129,668.2,1078.7,666.9,1054.9z
					 M546.7,1134.7c2.7-36.6,14.1-83,14.1-83c6.3,22,14.4,122,14.4,122c0,31.4-12.4,85.6-25.7,130.2
					C552,1259,545,1157.1,546.7,1134.7z"/>
			</g>
			<g>
				<path class="st6" d="M548.6,1215.2l-0.6,109.9l-0.1,9.4h-39.6c-6.3-1.8-13.2-4-20.5-6.7l0-2.8l-2.4-175.8L548.6,1215.2z"/>
			</g>
			<rect x="680.1" y="1298.1" class="st18" width="47.6" height="35.4"/>
			<g>
				<g>
					<path class="st19" d="M1002.2,862.7c0,0-4.6,20.6-0.2,26.3c4.5,5.7,6.5-1.6,6.5-1.6s-2.2,7.2,3.4,9.6c5.6,2.4,7.6-6.3,7.6-6.3
						s-0.2,5.9,6.2,6.3c6.4,0.3,6.3-7.3,6.3-7.3s4.4,8.6,9.6,2.6c8.7-10,5.2-25.2,5.2-25.2s-1.2-3.6-7.3-3.5c0,0-2.3-9-12.2-5.3
						c0,0-7.9-7.2-12.8,0.1C1014.7,858.3,1005.8,851.2,1002.2,862.7z"/>
				</g>
			</g>
			<linearGradient id="SVGID_4_" gradientUnits="userSpaceOnUse" x1="465.4806" y1="1333.4681" x2="932.6051" y2="1333.4681">
				<stop  offset="0" style="stop-color:#FF9F55"/>
				<stop  offset="1" style="stop-color:#FFD255"/>
			</linearGradient>
			<rect x="465.5" y="1325.1" class="st20" width="467.1" height="16.8"/>
		</g>
		<g>
			<g>
				
					<rect x="457.6" y="1397.5" transform="matrix(1 -7.583903e-03 7.583903e-03 1 -10.6285 3.9994)" class="st6" width="128.9" height="11.8"/>
				
					<rect x="536.6" y="1342.8" transform="matrix(0.2925 -0.9563 0.9563 0.2925 -866.4332 1525.7059)" class="st6" width="122.4" height="11.2"/>
				<g>
					<rect x="821" y="1424.2" class="st21" width="10.1" height="292.4"/>
				</g>
				<g>
					
						<rect x="445.5" y="1406.6" transform="matrix(-1 -1.224647e-16 1.224647e-16 -1 1333.1731 2830.8757)" class="st22" width="442.1" height="17.6"/>
				</g>
				<g>
					
						<rect x="496.7" y="1424.2" transform="matrix(-1 -1.224647e-16 1.224647e-16 -1 1003.3846 3140.9353)" class="st21" width="10.1" height="292.4"/>
				</g>
				<path class="st23" d="M453.8,1385.1c0,0,6.7,1.3,9.9,1.4c3.2,0.1,17.9-6.6,22.7-5.9c4.7,0.6,35.5,13.7,36.9,14.7
					c1.4,1-0.7,3.1-0.7,3.1l-70.7,0.8L453.8,1385.1z"/>
				<g>
					<path class="st24" d="M332.9,1682.6l-4.5,9.8c0,0-19.1-7.1-19.2-7.4c-0.1-0.2,5.3-13.6,5.3-13.6L332.9,1682.6z"/>
				</g>
				<g>
					<path class="st25" d="M496.4,1682.4l5.3,15.4c0,0-21,4.6-24,4.4c-0.3,0-4-17.5-4-17.5L496.4,1682.4z"/>
				</g>
				<path class="st26" d="M475.4,1697.7c0,0,14.6-4,15.1-4.6c0.4-0.6,5.8-4.3,8.6-3.8c2.8,0.5,3,3.8,5.8,4.5
					c2.8,0.7,24.2,7.5,27.1,9.3c3,1.7,17.1-3.4,19.8,0.3c2.7,3.7,5.4,13.3-16.9,16.6c-22.2,3.3-46,13.3-51.4,11.9
					C478.2,1730.5,474.5,1703.6,475.4,1697.7z"/>
				<path class="st26" d="M307.7,1682.5c0,0,13.6,5.8,14.3,5.6c0.7-0.2,7,0.3,8.8,2.3c1.8,2,0,4.7,1.7,6.9
					c1.7,2.2,11.4,15,14.2,17.9c2.3,2.4,15,4.7,19.1,8.9c3.1,3.2-0.5,16-22.1,9.9c-21-6-47.1-16.3-50.3-20.6
					C290.1,1709.2,303.5,1686.5,307.7,1682.5z"/>
				<g>
					<path class="st27" d="M321.6,1490c0,0,59.7,26.5,72.3,35.6c12.6,9.1,40.3,25.8,41.3,29.9c0.9,4.1,6.4,0.1-3.4,20.5
						c-9.8,20.4-56.3,69.6-60.6,74.9c-4.5,5.6-36.7,39-36.7,39l-24.2-18.2c0,0,46.6-68.5,53.3-78.6c6.7-10.1,9.8-11.6,5.8-16
						c-4-4.4-19.9-4.4-101.9-38.3c-8.2-3.4-31-11.3-34.1-22.3c-5.4-19.9-0.8-45.1,21.3-56.1C276.6,1449.4,321.6,1490,321.6,1490z"/>
				</g>
				<g>
					<path class="st23" d="M350,1297.9c-0.5,0.5-1.1,1.5-1.7,2.9c-0.9,2-1.8,4.8-2.6,7.8c-2.7,9.5-5.2,21.6-5.2,21.6
						s-34.2-28.5-29.3-30.2c4.8-1.8,8.4-10.1,8.4-10.1S353.6,1294.7,350,1297.9z"/>
				</g>
				<g>
					<path class="st28" d="M347.8,1396.2c0,0-27.7,53-28.9,72.9c-1.2,19.9-57.9-6.3-57.9-6.3L347.8,1396.2z"/>
				</g>
				<g>
					<path class="st6" d="M319,1467.8l0.6,4.9l1,6.5c0,0,0,0,0,0s0,0,0,0c-0.9-0.1-55.3-3.5-59.3-2.5c-4,1,7.5-12.9,7.5-12.9
						L319,1467.8z"/>
				</g>
				<g>
					<path class="st29" d="M320.7,1479.3c0,0,61.7,14.5,76.9,19.4c15.2,4.9,41.5,13.4,48.5,17.5c3.7,2.1,9.5,5.3,16.3,27.6
						c7.8,25.3,25.5,96.3,29.5,107.4c2.5,6.9,9.8,34.3,9.8,34.3l-31.5,5.5c0,0-37.5-75.5-40.6-95.7c-5.1-33.9-18.3-34.1-23.6-37.2
						c-5.3-3.1-30.9,2.7-121.8-4.5c-9.1-0.7-33.9-1.2-40.4-11c-11.6-17.7-23.3-37.8-5.3-55.7C256.6,1469,320.7,1479.3,320.7,1479.3z
						"/>
				</g>
				<g>
					<path class="st23" d="M362,1226.6c0,0,10.7,18.4,8.2,23.4c-2.4,5,11.1,17.2,8.9,19.7c-2.2,2.6-6.8,5.7-6.7,6.4
						c0.1,0.7-3.9,24.8-9.2,25.3c-5.2,0.5-41-1.3-44-12.5c-3-11.2-11.7-35.7-13.8-40.3C303.4,1244.1,324.1,1209,362,1226.6z"/>
				</g>
				<g>
					<path class="st30" d="M317.9,1223c-3,2.2-5.4,4.6-7.3,6.9c-2.3,1.1-16.2,8-13.3,15.4c3.9,10,19.5,36.8,20.8,39.6
						c0.2,0.4,0.2-0.3,0-1.8c1-9.5,12.6-20.1,12.6-20.1l6.2-2.8c-3.2-6-2-11.7-2-11.7c7-7.5,30.4-15.7,30.4-15.7
						C362.1,1199.6,333.5,1211.4,317.9,1223z"/>
				</g>
				<g>
					<path class="st23" d="M328.5,1255.2c-1.7-2.5-10.4-2.1-9.1,5.3c1.3,7.4,12,13.4,14.3,10.1
						C336,1267.3,330.2,1257.9,328.5,1255.2z"/>
				</g>
				<path class="st31" d="M351.1,1390.6c-2,3.3-4.4,8.6-7,15.1c-1.4,3.6-2.8,7.5-4.3,11.6c-9.5,26.9-19.3,62-19.3,62
					c-31.7-7.7-90.3,20.4-90.3,20.4c0.3-9.2,18-86.5,27.8-130.5c9.7-44,53-69.2,53-69.2c19.9,9.9,34.9,33.9,34.9,33.9
					S361.6,1373.7,351.1,1390.6z"/>
				<path class="st32" d="M348.3,1300.8c-0.9,2-1.8,4.8-2.6,7.8c-5.1-2.1-14.9-11.1-15.2-11.4
					C334.6,1298.8,348.3,1300.8,348.3,1300.8z"/>
				<path class="st33" d="M344.2,1405.8c-1.4,3.6-2.8,7.5-4.3,11.6c-3-3.7-8.2-10.3-13-17.7c-7.2-11.1-19-42.8-19.7-44.8
					C313.5,1363.5,336.7,1395.5,344.2,1405.8z"/>
				<g>
					<g>
						<polygon class="st34" points="166.4,1726.3 169,1733.7 280,1699.3 274.7,1684.3 						"/>
					</g>
				</g>
				<g>
					<g>
						<rect x="271.2" y="1573.3" class="st34" width="12.6" height="120.7"/>
					</g>
				</g>
				<g>
					<g>
						<rect x="240.3" y="1566.9" class="st35" width="74.4" height="7.1"/>
					</g>
				</g>
				<g>
					<g>
						<polygon class="st34" points="389.7,1726.3 387,1733.7 276,1699.3 280.9,1683.4 						"/>
					</g>
				</g>
				<g>
					<g>
						<polygon class="st34" points="311.4,1732.9 311.4,1741.5 276,1699.3 280.9,1683.4 						"/>
					</g>
				</g>
				<g>
					<g>
						<path class="st36" d="M400.1,1736.6c0,5.7-4.6,10.4-10.4,10.4c-5.7,0-10.4-4.6-10.4-10.4c0-5.7,4.6-10.4,10.4-10.4
							C395.4,1726.2,400.1,1730.8,400.1,1736.6z"/>
					</g>
				</g>
				<g>
					<g>
						<path class="st36" d="M312.3,1736.6c0,5.7-4.6,10.4-10.4,10.4c-5.7,0-10.4-4.6-10.4-10.4c0-5.7,4.6-10.4,10.4-10.4
							C307.7,1726.2,312.3,1730.8,312.3,1736.6z"/>
					</g>
				</g>
				<g>
					<g>
						<path class="st36" d="M176.7,1736.6c0,5.7-4.6,10.4-10.4,10.4c-5.7,0-10.4-4.6-10.4-10.4c0-5.7,4.6-10.4,10.4-10.4
							C172.1,1726.2,176.7,1730.8,176.7,1736.6z"/>
					</g>
				</g>
				<g>
					<path class="st37" d="M359.4,1566.9H196.6c-3.8,0-6.8-3-6.8-6.8v-13.4c0-3.8,3-6.8,6.8-6.8h162.8c3.8,0,6.8,3,6.8,6.8v13.4
						C366.2,1563.8,363.2,1566.9,359.4,1566.9z"/>
				</g>
				<g>
					<path class="st37" d="M235.8,1521h-75.4c-6.5,0-11.8-5.3-11.8-11.8v-144.9c0-6.5,5.3-11.8,11.8-11.8h75.4
						c6.5,0,11.8,5.3,11.8,11.8v144.9C247.6,1515.8,242.3,1521,235.8,1521z"/>
				</g>
				<g>
					<path class="st37" d="M248.7,1560.2c-17.9,0-32.5-6-43.2-17.9c-24.3-26.8-19.9-74-19.7-76c0.4-3.7,3.7-6.4,7.4-6.1
						c3.7,0.4,6.4,3.7,6.1,7.4c-0.1,0.5-3.9,43.3,16.3,65.6c8.2,9,19,13.4,33.2,13.4c3.7,0,6.8,3,6.8,6.8
						C255.5,1557.1,252.4,1560.2,248.7,1560.2z"/>
				</g>
				<g>
					<path class="st31" d="M328,1322.9c0,0,4.6,5.2,10.9,16.3c7.2,12.5,13.1,24.9,14.6,27.7c3.2,5.7,14.4,11.5,19.4,13.6
						c4.6,2,84.2,3.7,85.2,3.6c1-0.1-1.2,24.2-1.2,24.2s-109.9,3.1-114.7-1.2c-4.8-4.4-18.7-20.9-24.5-29.2
						c-5.5-7.8-14.1-20.7-18.6-26.2c-5-6.2-15.6-27.4-2.2-37.9C314.3,1300.3,323.9,1316.7,328,1322.9z"/>
				</g>
			</g>
			<path class="st4" d="M574.1,1200.4H413.7c-1.1,0-2.1-0.9-2.1-2.1v-5.6c0-1.1,0.9-2.1,2.1-2.1h160.4c1.1,0,2.1,0.9,2.1,2.1v5.6
				C576.2,1199.5,575.3,1200.4,574.1,1200.4z"/>
			<path class="st4" d="M524,1282.8H413.7c-1.1,0-2.1-0.9-2.1-2.1v-5.6c0-1.1,0.9-2.1,2.1-2.1H524c1.1,0,2.1,0.9,2.1,2.1v5.6
				C526,1281.9,525.1,1282.8,524,1282.8z"/>
			<path class="st4" d="M504.9,1221h-91.2c-1.1,0-2.1-0.9-2.1-2.1v-5.6c0-1.1,0.9-2.1,2.1-2.1h91.2c1.1,0,2.1,0.9,2.1,2.1v5.6
				C506.9,1220.1,506,1221,504.9,1221z"/>
			<path class="st4" d="M539.4,1241.6H413.7c-1.1,0-2.1-0.9-2.1-2.1v-5.6c0-1.1,0.9-2.1,2.1-2.1h125.7c1.1,0,2.1,0.9,2.1,2.1v5.6
				C541.4,1240.7,540.5,1241.6,539.4,1241.6z"/>
			<path class="st4" d="M464.9,1262.2h-51.2c-1.1,0-2.1-0.9-2.1-2.1v-5.6c0-1.1,0.9-2.1,2.1-2.1h51.2c1.1,0,2.1,0.9,2.1,2.1v5.6
				C467,1261.3,466.1,1262.2,464.9,1262.2z"/>
			<path class="st38" d="M464.9,1180.1h-51.2c-1.1,0-2.1-0.9-2.1-2.1v-5.6c0-1.1,0.9-2.1,2.1-2.1h51.2c1.1,0,2.1,0.9,2.1,2.1v5.6
				C467,1179.1,466.1,1180.1,464.9,1180.1z"/>
		</g>
		<g>
			<g>
				<path class="st23" d="M1171.5,1350c0,0-8.3-0.1-11.3-3.3c-3-3.2-8.2-6.1-9.9-6.9c-2.2-1.1-8.4-7.1-9.2-4.2
					c-0.8,2.9,9.9,10.4,11.9,12.4c2,2-8.8,2.9-10.4,4.9c-1.6,2,4,22.5,11.2,20.9c7.2-1.6,13.2-8.9,14.6-8.9c1.4,0,5.4-0.9,5.4-0.9
					L1171.5,1350z"/>
			</g>
			<g>
				<path class="st23" d="M1144.2,1352c0,0-21.6,6.6-22.5,8.5c-0.9,1.9-0.3,3.2,1.8,2.7c2.1-0.5,21.2-5.7,21.2-5.7
					s-23.6,12.9-24.7,14.2c-0.6,0.8,0.4,3.5,1.6,3.3c1.1-0.2,25.5-11.3,25.5-11.3s-22,12.1-22.6,13.6c-0.5,1.3,1,3.6,2.7,2.8
					c1.7-0.8,23-10.6,23-10.6s-15.4,10.1-15.1,11.7c0.1,1,1,3.4,4.8,0.6c3.9-2.8,13.8-8,13.8-8L1144.2,1352z"/>
			</g>
			<g>
				<path class="st39" d="M1217,1714.9c0,0-6.9,10.4-16.7,12.6c-9.7,2.2-19.3,5.8-19.4,12c-0.1,6.1,28.1,9.8,39.3,3.6
					c16.6-9.2,18.3-6.5,20.2-11.1c1.8-4.6-2.2-17-2.1-18.4C1238.4,1711.7,1217,1714.9,1217,1714.9z"/>
			</g>
			<g>
				<path class="st40" d="M1218.1,1709.8c0,0-1.3,5-1.1,5.1c0.2,0.1,21.9,2.7,21.3-1.3c-0.5-3.3-1.3-6.8-1.3-6.8L1218.1,1709.8z"/>
			</g>
			<g>
				<path class="st39" d="M1353.6,1714.2c0,0-4.9,9.9-13.4,13.3c-9,3.6-16.3,7.8-16.1,13.8c0.2,6,22.1,12.1,38.1,0.6
					c10.1-7.3,13.3-7.3,14.9-11.9c1.6-4.6-2.8-16.4-2.7-17.9C1374.3,1710.3,1353.6,1714.2,1353.6,1714.2z"/>
			</g>
			<g>
				<path class="st40" d="M1353.3,1709c0,0,0.1,5.1,0.2,5.2c0.2,0.1,21.2,1.8,20.7-2.1c-0.4-3.1-2-6.9-2-6.9L1353.3,1709z"/>
			</g>
			<g>
				<path class="st41" d="M1276.3,1405.7c0,0-27.6,105.8-38.1,130.2c-9.7,22.7-13,54.3-14.3,70.2c-1.7,20-11.7,97.9-12.9,103.8
					c-1.2,5.9,32.5,3.2,32.5,3.2s23.2-134.8,32.8-154.4c6.4-13.1,43.7-107.2,48-101.8c4.3,5.4,9.6,99.7,12.7,115.4
					c3.2,15.7,12.9,139.3,12.9,139.3s21.7,3.2,27.5-1.7c0,0,2.6-105.6,0.6-134.9c-0.8-11.2,13.1-134.1-4.7-183.6
					C1363.9,1365.2,1276.3,1405.7,1276.3,1405.7z"/>
			</g>
			<g>
				<path class="st42" d="M1430,1329.8c0,1.2-2.3,6-5.9,13c-5.3-10.7-9.5-19.4-10.9-22.6c-4.5-10.6-27.6-34.9-27.6-34.9s0,0,0,0.1
					c0,0,0,0,0,0c0,0,0,0,0,0c0,0,0,0.1,0,0.1c0,0.1,0,0.1-0.1,0.2c0,0,0,0.1,0,0.1c0,0,0,0.1,0,0.1c-1.3,4.7-9,34.1-9.3,48.5
					c-0.3,15.7-4.4,44.9-4.4,44.9l0,0l-4.8,0.7l-10.7,1.5l-1.3,0.2l-3.1,0.4l-28.4,4l-10.1,1.4l-1.4,0.2l-5.8,0.8l-15.9,2.2l-4,0.6
					l0,0l-3,0.4l-4.2,0.6c0,0,0,0,0,0c-0.1-0.2-4.1-5.6-3.5-17.6c0.4-7.8,1.3-22.4,0.9-36c0-0.1,0-0.1,0-0.2c0-0.2,0-0.3,0-0.5
					c0-0.1,0-0.1,0-0.2v0c-0.2-7.5-0.9-14.5-2.3-19.9c-0.9-3.6-1.6-7.2-2-10.6c0-0.2,0-0.3-0.1-0.5c-0.1-0.6-0.1-1.2-0.2-1.9
					c-0.9-9.4-0.2-16.6-0.1-17l0,0c-0.3,0.6-2.4,8.2-5.1,17.6c-4.6,15.8-11,36.8-13.7,37.8c-4,1.5-68.4,20.6-82.3,22.5
					c-1.6,0.2-2.5,0.2-2.6-0.1c-0.1-0.2-0.1-0.4-0.2-0.6c-1.7-5.6-4-15-4.4-16.6c0-0.1-0.1-0.2-0.1-0.2l2.5-0.7l70.1-21l32.1-92.4
					c0.7-0.5,8.5-4.3,14.3-7.1c5.9-2.8,12.9-6.9,19.3-10.4c3.3-1.8,6.4-3.4,9-4.6l0.4-0.2l0,0c4.4-2,7.3-3.4,7.3-3.4s0,0,0,0
					c0.1,0,0.8-0.1,1.9-0.2c6.2-0.6,25.3-2.4,31.7-2.8c0.5,0,1-0.1,1.3-0.1c0.3,0,0.5,0,0.6,0c0.8,0,4.8,1.4,9.9,3.4h0
					c0.2,0.1,0.4,0.1,0.6,0.2c0.2,0.1,0.5,0.2,0.7,0.3c0.4,0.2,0.9,0.3,1.4,0.5c0.9,0.4,1.9,0.7,2.8,1.1c0.3,0.1,0.7,0.3,1,0.4
					c10.4,4.1,22.3,9.2,25.1,11.2c1.9,1.3,7.7,12.3,14.4,25.8c8.7,27.8,19.7,70.3,20,80.8C1430,1329.5,1430,1329.7,1430,1329.8z"/>
			</g>
			<g>
				<path class="st43" d="M1279,1392.3c0,0-2.1,2.6-2.8,13.4c0,0,87.8-10.2,97-14.3c0,0,0.4-11.9-1.6-12.1
					C1369.5,1379,1279,1392.3,1279,1392.3z"/>
			</g>
			<g>
				<path class="st23" d="M1353.8,1202.5c-0.3,13.8-26.9,21.3-26.9,21.3s-11.2-14-8.5-15.3c1-0.5,1.5-2.6,1.6-5
					c0.1-2.2,0-4.7-0.2-6.2c-0.1-1-0.2-1.6-0.2-1.6s3.8-4,8.7-8.8c8.5-8.4,20.1-19.1,20.1-14.8c0,0.2,0,0.5-0.1,0.8
					C1346.3,1182.5,1353.8,1202.5,1353.8,1202.5z"/>
			</g>
			<g>
				<path class="st39" d="M1351.6,1381.4c0,0,1.9,12.1,2.1,15.2l4.1-0.8c0,0-1.1-12.8-1.8-14.9L1351.6,1381.4z"/>
			</g>
			<g>
				<path class="st39" d="M1286.3,1390.9c0,0-1.5,11-1.6,15.1l4.3-0.6c0,0,0.9-13.7,1.4-15.1L1286.3,1390.9z"/>
			</g>
			<g>
				<path class="st32" d="M1343.6,1182.3C1343.6,1182.3,1343.6,1182.3,1343.6,1182.3c-0.1,0.1-1.2,1.8-3.1,4.2
					c-4.1,5.1-11.8,13.6-20.4,17c0.1-2.2,0-4.7-0.2-6.2c-0.9,0-1.8-0.1-2.6-0.3c2.4-4.1,5.8-8.5,5.8-8.5l5.4-1.6L1343.6,1182.3z"/>
			</g>
			<g>
				<path class="st23" d="M1348.7,1172.2c-2.3,5-4.5,8.7-5.1,10.1c0,0,0,0,0,0c-0.4,0.9-1.5,2.5-3.1,4.2c-4.4,4.7-12.6,11-20.6,10.8
					c-0.9,0-1.8-0.1-2.6-0.3c-3.2-0.7-7.1-2.2-9.2-6.3c-16.6-32.6-4.6-59.2-4.6-59.2s45.5-12.9,52.6,0.8
					C1361,1141.9,1354.1,1160.5,1348.7,1172.2z"/>
			</g>
			<g>
				<path class="st44" d="M1303.4,1131.4c0,0-4.2-0.2-5.3-8.2c-1-7.9,1.1-10.1,1.1-10.1s18.8-7.9,25.5-8.9c6.7-1,23.3-2,27.2,2.4
					c0,0,9.4-2.2,12,13.5c4.1,24.9-13.9,49-13.9,49s0.2-16.2-3.4-18.4c-3.6-2.2-6.7,3-6.7,3l-7.3,1.3c0,0,11.1-24-2.2-24.9
					C1317.1,1129.2,1311.1,1132.8,1303.4,1131.4z"/>
			</g>
			<g>
				<path class="st23" d="M1340.2,1147.2c0.7-7.2,13.6-9.9,12.8-2.4c-0.9,7.5-7.2,14.7-10.2,14.5
					C1339.8,1159.1,1339.6,1152.7,1340.2,1147.2z"/>
			</g>
			<g>
				<path class="st45" d="M1385.4,1285.9c-1.3,4.7-9,34.1-9.3,48.5c0,1.3-0.1,2.8-0.2,4.3c2,0.8,3.9,1.7,5.8,2.5
					c-0.2-1.2-0.3-2.4-0.3-3.6C1381.4,1337.6,1382.6,1296.9,1385.4,1285.9z M1430,1329.4c-0.2-10.5-5.4-52.4-14.1-80.2
					c-2.3-7.3-4.4-13.7-6.1-18.3c-1.4-3.9-2.6-6.5-3.4-7c-2.7-1.9-22.8-7.5-34-11.6c-0.7-0.3-1.3-0.5-2-0.8c-0.4-0.1-0.7-0.3-1-0.4
					c-0.7-0.3-1.4-0.6-2.1-0.8c-0.2-0.1-0.5-0.2-0.7-0.3c-0.5-0.2-0.9-0.3-1.3-0.5c-0.3-0.1-0.5-0.2-0.7-0.3
					c-0.2-0.1-0.4-0.1-0.6-0.2h0c0,0,0,0,0,0c-0.1,0.1-0.1,0.2-0.2,0.3c-0.1,0.1-0.2,0.2-0.3,0.3c-0.2,0.2-0.5,0.6-0.8,0.9
					c-1.1,1.3-2.8,3.3-4.8,5.9c-1.7,2.2-3.6,4.7-5.6,7.6l-0.1,0.1c0,0.1-0.1,0.2-0.2,0.2c-0.5,0.7-1,1.5-1.5,2.2
					c-0.4,0.6-0.8,1.1-1.1,1.7c-0.3,0.5-0.7,1-1,1.5c-0.1,0.1-0.1,0.2-0.2,0.4c-0.5,0.8-1.1,1.7-1.6,2.5c-1.1,1.7-2.1,3.5-3.2,5.4
					c-0.3,0.6-0.7,1.2-1,1.8c-1,1.8-2,3.6-2.9,5.5c-0.3,0.6-0.6,1.2-0.9,1.9c-0.3,0.6-0.6,1.3-0.9,1.9c-0.3,0.7-0.6,1.3-0.9,1.9
					c0,0.1-0.1,0.2-0.1,0.2c-0.5,1-0.9,2-1.3,3.1c-0.9,2.1-1.7,4.3-2.4,6.6c-0.2,0.7-0.4,1.3-0.7,2c-0.2,0.7-0.4,1.3-0.6,2
					c-0.2,0.7-0.4,1.4-0.6,2c-0.7,2.9-1.3,5.8-1.7,8.7c-0.1,0.5-0.1,1.1-0.2,1.6c-0.1,0.5-0.1,0.9-0.1,1.4c0,0.4-0.1,0.8-0.1,1.2
					c0,0.5-0.1,1-0.1,1.5c0,0.7,0,1.4,0,2.1c0,1.6,0.1,3.3,0.2,4.9c0.1,0.7,0.1,1.4,0.2,2.1c0,0.3,0,0.6,0.1,0.8
					c0.1,0.9,0.2,1.9,0.3,2.9c0.1,1.9,0.3,4,0.6,6.1c0.1,1.1,0.2,2.3,0.3,3.4c0.1,0.8,0.1,1.5,0.2,2.3c0.3,2.6,0.6,5.3,0.9,8.2
					c0.2,2,0.5,4,0.7,6c0.2,1.9,0.5,3.8,0.7,5.8c0.2,1.4,0.4,2.8,0.6,4.3c0.2,1.7,0.5,3.5,0.8,5.2c2.9,18.2,12.1,30.5,20.2,45.3
					c0.1,0.1,0.1,0.3,0.2,0.4c0,0.1,0.1,0.1,0.1,0.2c0.2,0.3,0.4,0.6,0.5,0.9c0,0,0,0,0,0c0.2,0.5,0.5,1,0.8,1.5
					c0.2,0.3,0.3,0.6,0.5,0.9c1.5,3,3.1,6,4.5,9.1c1,2,1.9,4,2.8,5.9c0.1,0.2,0.2,0.4,0.3,0.6c0,0,1.5,3.5,3.4,7.9
					c0.7,1.6,1.5,3.4,2.2,5.2v0c0.5,1.2,1.1,2.4,1.6,3.6c0.5,1,0.9,2,1.3,3v0c0.9,2.1,1.7,4,2.3,5.3v0c0.4,1,0.7,1.6,0.8,1.9
					c2.8,7,4.8,12.4,5.7,14.9c0.4,1,0.6,1.6,0.6,1.6l28.1-15.5c5.3-2.7,2.6-17,0.6-22.7c-1.7-4.7-4-9.7-6.7-14.8
					c-1.1-2.1-2.2-4.3-3.4-6.4c5.5-9.7,11.1-19.5,15.9-28.2c2.8-5.1,5.4-9.7,7.4-13.7c3.6-7,5.9-11.8,5.9-13
					C1430,1329.7,1430,1329.5,1430,1329.4z M1390.9,1344.7L1390.9,1344.7c0,0.1-0.1,0.3-0.2,0.4c-1.5,3.3-3.1,6.8-4.8,10.5
					c-0.1-0.1-0.1-0.3-0.2-0.5c-2-4.9-3.5-9.7-4-14c-0.2-1.2-0.3-2.4-0.3-3.6c0,0,1.2-40.7,4-51.7c0,0,0-0.1,0-0.1c0,0,0-0.1,0-0.1
					c0-0.1,0-0.1,0-0.2c0,0,0-0.1,0-0.1v0c0,0,0,0,0,0s13.6,21.3,12.6,39.9C1398,1328.1,1395.1,1335.4,1390.9,1344.7z"/>
			</g>
			<g>
				<path class="st45" d="M1301.9,1216.1c-6.7,3.1-14.3,6.6-20.3,9.5c-5.8,2.7-14.4,7.4-15.1,7.9l-34,89l-67.5,22.1
					c0,0,0.3,1.1,0.9,2.9c0.2,0.5,0.3,1.1,0.5,1.8c1.2,4.4,3,10.8,4,15.3c0.1,0.4,0.2,0.8,0.2,1.2c0.1,0.4,0.1,0.7,0.2,1.1
					c0.6,3.3,80.4-20.3,84.8-21.9c2-0.7,6.8-12.2,11.5-24.5v0c1.7-4.6,3.5-9.3,5-13.7c0-0.1,0.1-0.2,0.1-0.3
					c1.9,9.8,5.1,20.2,4.2,31.2c0,0,0,0,0,0c-2.7,35.1-17.6,84.9-21.9,99c-0.7,2.4,0,4.9,1.8,6.6l7.9,7.3l2.7,2.5
					c0,0,9.1-28.1,13.8-48c0.1-0.5,0.3-1.1,0.4-1.6c1.1-4.6,1.9-8.7,2.2-11.8c0,0,0,0,0,0c1.7-15.7,6.9-36.8,9.2-57.4v0
					c2.9-26.1,6-51.9,8.1-67.1c0.2-1.3,0.4-2.5,0.5-3.8c0.1-0.5,0.1-1,0.2-1.5c0-0.1,0-0.2,0-0.3c0.1-0.7,0.2-1.5,0.3-2.2
					c0-0.1,0-0.3,0.1-0.4c0.2-1.1,0.3-2.2,0.5-3.2c0,0,0,0,0,0c4.9-31.2,8.6-43.7,8.6-43.7l-0.2-0.2
					C1308.1,1213.2,1305.1,1214.6,1301.9,1216.1z"/>
			</g>
			<g>
				<path class="st46" d="M1329,1288.4c1,10.9,2.4,28.6,5.4,47.3l14.8-79.7l-5.5-5.7l13-7.3l12.9-32c-1.9-0.8-3.8-1.5-5.5-2.2
					C1361.7,1211.4,1325.6,1252.2,1329,1288.4z"/>
			</g>
			<g>
				<path class="st46" d="M1301.9,1216.1l-11.8,30l5.5,6.9l-6.2,6.7l3,74.6c2.9-26.1,6-51.9,8.1-67.1c5.6-39.5,10.5-55.3,10.5-55.3
					l-0.4,0.2C1308.1,1213.2,1305.1,1214.6,1301.9,1216.1z"/>
			</g>
			<g>
				<path class="st47" d="M1326.9,1223.8l7.6,21.3l30.1-36.1l-10.8-6.5C1353.8,1202.5,1353.5,1208.4,1326.9,1223.8z"/>
			</g>
			<g>
				<path class="st47" d="M1311.1,1211.9l1.1,31.2l14.8-19.2c-6.7-12-7.1-18.3-7.1-18.3L1311.1,1211.9z"/>
			</g>
			<g>
				<path class="st48" d="M1318,1237.9c4.5,2.9,10.8,0.6,10.8,0.6c1-3.2-1.8-14.6-1.8-14.6C1321.2,1229.9,1318,1237.9,1318,1237.9z"
					/>
			</g>
			<g>
				<g>
					<path class="st49" d="M1312.1,1355.6c-0.1,1-1.6,25.2,0,33.3l1.3-0.3c-1.6-7.9,0-32.7,0-32.9L1312.1,1355.6z"/>
				</g>
			</g>
			<g>
				<path class="st50" d="M1306.2,1387.8l0.6,14.5l16.9-1.8l-0.3-15.3C1323.4,1385.2,1310.4,1386.7,1306.2,1387.8z"/>
			</g>
			<g>
				<path class="st48" d="M1323.5,1262.7c1.4-9.5,3.5-27.5,3.5-27.5l-6.4,1.6c0,0-14.4,36.4-12.1,77.1c2.4,42.2,6.4,57.5,6.4,57.5
					l8.9,11.1l3.9-13.7C1327.7,1368.9,1315.8,1315.1,1323.5,1262.7z"/>
			</g>
			<g>
				<path class="st23" d="M1363.8,1408.6c0,0-3.1,6.2-6.2,7.2c-3.1,1-7.6,6.1-7.6,6.1l21.8,11.5c0,0,5.8-11.3,6.1-18.5
					C1378.1,1407.6,1363.8,1408.6,1363.8,1408.6z"/>
			</g>
			<g>
				<path class="st42" d="M1360.3,1412.1c0,0,13.8,10.1,17.5,10.8l1.3-3.9l-17.4-9.8L1360.3,1412.1z"/>
			</g>
			<g>
				<path class="st45" d="M1360.3,1409.3c0,0,10.4,8.6,19.1,12.5l29.3-52.8l-15.2-29.4C1393.5,1339.6,1361,1404.2,1360.3,1409.3z"/>
			</g>
			<g>
				<path class="st41" d="M1267.1,1320.5c1.7-4.6,3.5-9.3,5-13.7c0,0.2,0,0.3,0.1,0.5c0-0.4,0-0.7,0-0.7c0,0,0,0,0,0
					s-0.1-8.7,0.4-18.4c0.5-9.3,1.4-19.5,3.4-24.3c0,0-8.6,14.4-9.3,41.7C1266.6,1310.2,1266.7,1315.2,1267.1,1320.5z"/>
			</g>
			<g>
				<path class="st41" d="M1380.6,1419.6l23.5-28.4c-1.1-2.1-2.2-4.3-3.4-6.4L1380.6,1419.6z"/>
			</g>
		</g>
		<g>
			<g>
				<g>
					<g>
						<path class="st23" d="M1031,1456.5c-0.6-1.9-5-8.6-6.2-10.1c-1.2-1.4-3.6-4-4.4-5.9c-0.9-2.4-3.6-5-3.6-5l-15.2,1.3
							c0,0,6.3,6.1,5,14.2c-1.4,8.1,1.3,18.3,1.9,19.3c0.6,1,0.9,2.4,2,3.4c1.1,1.1,3.6-0.1,3.6-0.1s1.4,1.6,3.5,1.1
							c1.6-0.4,2.4-1.5,2.4-1.5s1.4,0.7,3.7-0.4c1-0.5,1.4-2.3,1.4-2.3s1.5,0.7,3.5-1c1-0.8,0.5-2.2,0.5-2.2s2.3,2.2,3.7,1.6
							c1.3-0.5-0.4-3.4-1.1-4.9C1030.9,1462.6,1031.3,1457.3,1031,1456.5z"/>
					</g>
				</g>
			</g>
			<g>
				<path class="st51" d="M1007.2,1465.5c-0.2-0.8-0.3-1.7-0.5-2.7h-2.5c-2,0-3.9,1-5.1,2.5c1.1,5.7,2,11.2,3,16.2v-12.3
					c0-1.2,0.9-2.1,2.1-2.1h3.4C1007.4,1466.7,1007.3,1466.1,1007.2,1465.5z M1039.2,1462.8h-35c-2,0-3.9,1-5.1,2.5
					c-0.2,0.3-0.4,0.6-0.6,0.8c-0.5,0.9-0.8,2-0.8,3.1v22c0,3,2.1,5.5,4.9,6.2c0.5,0.1,1,0.2,1.6,0.2h35c3.5,0,6.4-2.9,6.4-6.4v-22
					C1045.6,1465.7,1042.7,1462.8,1039.2,1462.8z M1041.3,1491.3c0,1.2-1,2.1-2.1,2.1h-35c-1.2,0-2.1-1-2.1-2.1v-22
					c0-1.2,0.9-2.1,2.1-2.1h35c1.2,0,2.1,0.9,2.1,2.1V1491.3z"/>
			</g>
			<g>
				<rect x="956.1" y="1488.3" class="st52" width="131.1" height="93.9"/>
			</g>
			<g>
				<path class="st23" d="M989.6,1350.9c1.4-8.2-3.9-53.5-3.4-58.6c0.5-5-7.3-52.3-20.2-55.4c0,0-6.7,0.1-9.6,20.2
					c-2.9,20.1,2.6,28.5,3.2,36.8c0.6,8.4,10.5,62.3,10.7,64.7c0.3,2.4,1.6,31.1,5.4,38.7c3.8,7.6,31.9,50.8,32.3,53
					c0.4,2.2,13.6-7.5,13.6-7.5s-22.1-46.2-23.4-51.5C997.1,1386.1,988.2,1359.2,989.6,1350.9z"/>
			</g>
			<g>
				<path class="st6" d="M992,1355.3c-0.2-9.8-6.3-57.9-5.8-62.9c0.5-5-1.4-48.5-20.2-55.4c0,0-6.7,0.1-9.6,20.2
					c-2.9,20.1-0.3,27.3,1.5,36c1.6,8.2,7.2,58.5,7.5,60.9c0.3,2.4,6.9,32.7,10.4,43.4c2.6,8.1,27.7,50.6,28.1,52.7
					c0.4,2.2,19.5-9.9,19.5-9.9s-24.5-47.8-25.8-53.1C996.2,1381.8,992.1,1363.6,992,1355.3z"/>
			</g>
			<g>
				<g>
					<path class="st53" d="M1023.9,1455.9c-2.9-1.4-2.3,2-2.3,2s-0.6-3.3-3.3-3.1c-2.7,0.2-1.7,4.1-1.7,4.1s-1.1-2.4-3.7-1.2
						c-2.6,1.2-1,4.2-1,4.2s-3.5-2.5-4.3,0.9c-1.4,5.7,2.8,11.1,2.8,11.1s1.4,1.3,3.9,0c0,0,2.8,3.1,6-0.4c0,0,4.6,1.2,5.1-2.6
						c0,0,5.4,0.9,4-4.4C1029.2,1466.4,1026.8,1457.2,1023.9,1455.9z"/>
				</g>
			</g>
			<g>
				<path class="st54" d="M1038,1700.7c0,0-5.7-2.6-11-1.7c-5.2,0.9-9,12.9-7.2,17c4.2,9.8,4.4,32.5,13.6,36
					c9.2,3.5,24.3,3.1,26.3,0c2-3.1-12.4-22.4-12.4-22.4C1032.6,1714.5,1038,1700.7,1038,1700.7z"/>
			</g>
			<g>
				<g>
					<path class="st23" d="M1038.1,1700.6c-4.6-4.8-14.4,0.6-14.4,0.6s1.2,3.6,2.2,10.9c1.1,7.9,4.2,21,9,25.5
						c4.8,4.5,16.7,2.9,17.1,1.2c0.4-1.8-8.9-15.6-9.8-22.2C1041.1,1708.8,1038.1,1700.6,1038.1,1700.6z"/>
				</g>
			</g>
			<g>
				<path class="st54" d="M912.7,1700.9c0,0-6.2-2.8-11.4-1.9c-5.2,0.9-9,12.9-7.2,17c4.2,9.8,4.4,32.5,13.6,36
					c9.2,3.5,24.3,3.1,26.3,0c2-3.1-11.9-22.1-11.9-22.1C907.3,1714.8,912.7,1700.9,912.7,1700.9z"/>
			</g>
			<g>
				<g>
					<path class="st23" d="M912.7,1700.9c-4.6-4.8-11.4-1.9-11.4-1.9s-1.5,5.2-1.1,13.1c0.4,7.9,4.2,21,9,25.5
						c4.8,4.5,16.7,2.9,17.1,1.2c0.4-1.8-9-16.2-10.7-22.6C913.8,1709.9,912.7,1700.9,912.7,1700.9z"/>
				</g>
			</g>
			<g>
				<g>
					<path class="st23" d="M1021.1,1614.9c0.6-4.3-11.5-49.1-12.3-61c-0.9-11.9-8.8-81.9-11.6-96.4c-2.8-14.5-15.2-71.9-15.2-71.9
						s-53.7-99.4-91.8,8.1c-20.3,57.4-7.4,69-2.2,150c0.5,8.5,0.9,35.4,1.1,55c0.3,19.6,10.5,100.8,12,102.4
						c6.8,7.4,11.6-0.2,11.6-0.2s6.2-74.4,7.6-90.8c1.4-16.4-0.6-49,2-58.7c2.6-9.6,6.8-85.6,8.8-94.4c2-8.8,2.3-15.2,5.7-11.2
						c3.4,4-2.2,23.6,23.9,84.7c2.8,6.6,25,44,25,73.4c0,21.3,37,98.9,40.4,101.2c6.6,4.6,12.9-0.5,12.9-0.5
						S1020.6,1619.2,1021.1,1614.9z"/>
				</g>
			</g>
			<g>
				<path class="st55" d="M899.1,1369.6c0,0-35.2,49.2-20,153.9c0,0,83.4,11.3,128.1-13.1c0,0-18.5-108-25.2-124.8
					C975.3,1368.8,899.1,1369.6,899.1,1369.6z"/>
			</g>
			<g>
				<polygon class="st54" points="1019.4,1734.6 1022.1,1734.6 1022.1,1718.9 1019.4,1714.3 				"/>
			</g>
			<g>
				<polygon class="st54" points="893.7,1734.6 896.3,1734.6 896.3,1718.9 893.7,1714.3 				"/>
			</g>
			<g>
				<path class="st56" d="M963.8,1236.7c-4.5-0.9-17.5-7-17.5-7c-8.5-1.3-20.5-0.6-24.6,0.8c-4.1,1.4-27.2,3.8-35.6,10.3
					c-9.7,7.6,1,40.5,1,40.5s13.2,42.8,15.2,47.9c2,5,3.8,24.7,1.6,28.3c-2.2,3.6-19,28.8-19,28.8c16.7,14.8,90.1,13.2,89.5,5.1
					c-0.5-8.1,2-39,4.9-53.5c2.9-14.6-3.1-19.4,3.2-34c6.3-14.6,9.4-27,6.3-35.3C985.7,1260.3,968.3,1237.6,963.8,1236.7z"/>
			</g>
			<g>
				<path class="st57" d="M950.4,1258.6l7.9-9.2l-6.8-24.3C951.5,1225.1,949.2,1238.6,950.4,1258.6z"/>
			</g>
			<g>
				<path class="st23" d="M930,1137.7c-9.7,3.4-20.9,11.9-19.8,31c1.1,19.1,12.4,44.1,30.8,50.9c18.4,6.8,38.3-18.9,31.7-55.1
					C965.9,1128.4,937.7,1135,930,1137.7z"/>
			</g>
			<g>
				<path class="st58" d="M943.2,1132.5c-30.8-1.1-39,24.3-36.5,42.7c2.5,18.5,15.3,28.2,15.3,28.2s-1.1-14.9,4.9-18.8
					c6-3.9,29.9-11.6,40.3-29.6c0,0,4.8,5.7,5.5,9.5C972.6,1164.6,974,1133.6,943.2,1132.5z"/>
			</g>
			<g>
				<path class="st58" d="M907.7,1141.2c-11.3,0.5-20.1,11.4-19.5,24.4c0.6,13,10.2,23.1,21.5,22.6c11.3-0.5,20.1-11.4,19.5-24.4
					C928.7,1150.8,919,1140.7,907.7,1141.2z"/>
			</g>
			<g>
				<path class="st23" d="M923.3,1202c4.9,16.4-1.6,28.5-1.6,28.5c15.3,29.2,28.8,15.7,28.8,15.7c-0.5-7.7,2-31.5,2-31.5
					S918.4,1185.6,923.3,1202z"/>
			</g>
			<g>
				<polygon class="st23" points="950.4,1258.6 950.4,1246.3 935,1247 				"/>
			</g>
			<g>
				<polygon class="st57" points="922.3,1229 915.3,1235.8 950.4,1258.6 944,1250.6 				"/>
			</g>
			<g>
				<path class="st6" d="M919.3,1231.1c0,0-11.3,1.4-23.5,4c-13.9,3-17.8,24.4-17.8,24.4s4.1,15.4,15.5,53.8
					c11.4,38.4-18.3,86.4-18.3,86.4s44.1,32.5,50.2,3.3c6.1-29.2,13.7-120.1,12.9-132.2C937.5,1258.7,919.3,1231.1,919.3,1231.1z"/>
			</g>
			<g>
				<path class="st6" d="M990,1272.3c-6-20.6-24-35.3-24-35.3l-10.1-3c25.1,30.1,13.5,142.1,9.9,171.6c-0.4,2.9,2.8,5,5.3,3.5
					l17.5-9.3c0,0-7.3-36.9-7.6-47.1c-0.4-10.3-0.6-43.1-0.6-43.1C993.3,1283.9,990,1272.3,990,1272.3z"/>
			</g>
			<g>
				<path class="st23" d="M922.9,1176.1c-2.2,1.6-3.4,6.5,0,12.8c3.4,6.3,15.5,10.7,7-10.8C928.8,1175.2,925,1174.5,922.9,1176.1z"
					/>
			</g>
			<g>
				<polygon class="st59" points="958.3,1249.4 968.2,1252.1 951.5,1225.1 				"/>
			</g>
			<g>
				<polygon class="st59" points="916.4,1231.5 935,1262.5 944,1250.6 922.3,1229 				"/>
			</g>
			<g>
				<path class="st32" d="M926.9,1209.7C926.8,1209.7,926.8,1209.7,926.9,1209.7C926.8,1209.7,926.8,1209.7,926.9,1209.7z"/>
				<path class="st32" d="M926.9,1209.7c14,17,24.7,15,24.7,15l0.4-4.7C937.3,1221.7,927.6,1210.6,926.9,1209.7z"/>
			</g>
			<path class="st60" d="M980.5,1309.5l1.1,54.3c2.5-19.8,1.9-60.8,1.9-60.8L980.5,1309.5z"/>
			<g>
				<g>
					<path class="st23" d="M963.5,1335.1c0.5,2.4-1.8,12.6-1.8,12.6l5.6-1.3c0,0-0.2-3.7-0.6-9.5
						C966.3,1331.1,963,1332.8,963.5,1335.1z"/>
				</g>
			</g>
			<polygon class="st61" points="961.6,1374.3 983,1374.3 986,1326.9 958.3,1326.9 			"/>
			<g>
				<g>
					<path class="st23" d="M987.1,1348.8c-2.5-1.5-13.9-0.8-13.9-0.8s1.9-0.5,7.8-2.2c5.9-1.7,7.5-3.9,4.6-5.7
						c-2.1-1.2-14.5,2.7-23.9,6.7c-7.1,3-6.9,6.7-6.9,6.7s0.5,1.6-3.7,3.2c-3.2,1.3-7.9-0.2-7.9-0.2l-5.6,12.5
						c0,0,16.7,2.9,25.5,1.8c4.3-0.5,12.8-2.2,17.5-4.2c4.7-2,1.8-5.6,1.8-5.6c4.6-0.7,4.5-2.7,4.2-4.2c-0.4-2-5.2-2.3-5.2-2.3
						s4.4-0.1,6.3-0.6C989.6,1353.4,989.6,1350.3,987.1,1348.8z"/>
				</g>
			</g>
			<path class="st6" d="M890,1319.5c0,0,9.9-26.6,12-32.3c2.1-5.7,16.7-43.7-3.8-50.3c-4.6-1.5-17.8,1.9-20.1,15.6
				c-2.3,13.7-3.2,28.9-5.3,36.3c-2.1,7.4-12.1,44.9-7.6,47.6c4.5,2.7,13.8,5.6,24.4,11.2c10.2,5.3,59.7,26.1,59.7,26.1l3.9-21.8
				c0,0-9.5-2.3-18.1-6.5C926.6,1341.3,905.8,1329.3,890,1319.5z"/>
			<rect x="957.4" y="1324.1" class="st62" width="29.6" height="5.7"/>
			<path class="st58" d="M932.3,1176.6c0,0-3,7.8-0.4,12.8c2.6,5-1.1,18.8-1.1,18.8s8-11.5,5.5-19c-2.2-6.7,4.6-17.3,4.6-17.3
				L932.3,1176.6z"/>
			<g>
				<polygon class="st63" points="991.7,1166.3 1007.3,1150.7 1094.1,1150.7 1094.1,1076.4 991.7,1076.4 				"/>
			</g>
		</g>
		<g>
			<polygon class="st63" points="1263.1,1060.8 1160.7,1060.8 1160.7,1135 1247.5,1135 1263.1,1150.6 			"/>
		</g>
	</g>
</g>
</svg>
