<?xml version="1.0" encoding="utf-8"?>
<!-- Generator: Adobe Illustrator 24.2.3, SVG Export Plug-In . SVG Version: 6.00 Build 0)  -->
<svg version="1.1" id="Слой_2" xmlns="http://www.w3.org/2000/svg" xmlns:xlink="http://www.w3.org/1999/xlink" x="0px" y="0px"
	 viewBox="0 0 1700.4 459.6" style="enable-background:new 0 0 1700.4 459.6;" xml:space="preserve">
<style type="text/css">
	.st0{fill:#8A89A9;}
	.st1{opacity:0.4;}
	.st2{fill:#3A3A5B;}
	.st3{opacity:0.8;fill:#3A3A5B;}
	.st4{opacity:0.5;fill:#3A3A5B;}
	.st5{fill:#5DD782;}
	.st6{fill:#4C4B73;}
	.st7{fill:#FED677;}
	.st8{fill:#FCBA64;}
	.st9{fill:#F9C29D;}
	.st10{fill:#CED1EC;}
	.st11{fill:#2C2C2C;}
	.st12{fill:#FF4D67;}
	.st13{fill:#FF2948;}
	.st14{fill:#FFCCBE;}
	.st15{fill:#ECF1F9;}
	.st16{fill:#E98C94;}
	.st17{opacity:0.8;fill:#81E3A5;}
	.st18{fill:#7398E6;}
	.st19{opacity:0.5;fill:#4EC46D;}
	.st20{fill:#605E87;}
	.st21{fill:#80B4FF;}
	.st22{opacity:0.5;fill:#FFCCBE;}
	.st23{fill:#FFB27D;}
	.st24{fill:#B66479;}
	.st25{fill:#9B5265;}
	.st26{fill:#ABDDDA;}
	.st27{fill:#EA1B42;}
	.st28{opacity:0.4;fill:#E9F3FE;}
</style>
<g>
	<g>
		<path class="st0" d="M327.9,70.3c0,1.5,1.2,2.6,2.6,2.6c1.5,0,2.6-1.2,2.6-2.6c0-1.5-1.2-2.6-2.6-2.6
			C329.1,67.7,327.9,68.9,327.9,70.3z"/>
		<path class="st0" d="M296.3,70.3c0,1.5,1.2,2.6,2.6,2.6c1.5,0,2.6-1.2,2.6-2.6c0-1.5-1.2-2.6-2.6-2.6
			C297.5,67.7,296.3,68.9,296.3,70.3z"/>
		<path class="st0" d="M264.8,70.3c0,1.5,1.2,2.6,2.6,2.6c1.5,0,2.6-1.2,2.6-2.6c0-1.5-1.2-2.6-2.6-2.6
			C266,67.7,264.8,68.9,264.8,70.3z"/>
		<path class="st0" d="M233.2,70.3c0,1.5,1.2,2.6,2.6,2.6c1.5,0,2.6-1.2,2.6-2.6c0-1.5-1.2-2.6-2.6-2.6
			C234.4,67.7,233.2,68.9,233.2,70.3z"/>
		<path class="st0" d="M327.9,101.9c0,1.5,1.2,2.6,2.6,2.6c1.5,0,2.6-1.2,2.6-2.6c0-1.5-1.2-2.6-2.6-2.6
			C329.1,99.2,327.9,100.4,327.9,101.9z"/>
		<path class="st0" d="M296.3,101.9c0,1.5,1.2,2.6,2.6,2.6c1.5,0,2.6-1.2,2.6-2.6c0-1.5-1.2-2.6-2.6-2.6
			C297.5,99.2,296.3,100.4,296.3,101.9z"/>
		<path class="st0" d="M264.8,101.9c0,1.5,1.2,2.6,2.6,2.6c1.5,0,2.6-1.2,2.6-2.6c0-1.5-1.2-2.6-2.6-2.6
			C266,99.2,264.8,100.4,264.8,101.9z"/>
		<path class="st0" d="M233.2,101.9c0,1.5,1.2,2.6,2.6,2.6c1.5,0,2.6-1.2,2.6-2.6c0-1.5-1.2-2.6-2.6-2.6
			C234.4,99.2,233.2,100.4,233.2,101.9z"/>
		<path class="st0" d="M327.9,133.4c0,1.5,1.2,2.6,2.6,2.6c1.5,0,2.6-1.2,2.6-2.6c0-1.5-1.2-2.6-2.6-2.6
			C329.1,130.8,327.9,132,327.9,133.4z"/>
		<path class="st0" d="M296.3,133.4c0,1.5,1.2,2.6,2.6,2.6c1.5,0,2.6-1.2,2.6-2.6c0-1.5-1.2-2.6-2.6-2.6
			C297.5,130.8,296.3,132,296.3,133.4z"/>
		<path class="st0" d="M264.8,133.4c0,1.5,1.2,2.6,2.6,2.6c1.5,0,2.6-1.2,2.6-2.6c0-1.5-1.2-2.6-2.6-2.6
			C266,130.8,264.8,132,264.8,133.4z"/>
		<path class="st0" d="M233.2,133.4c0,1.5,1.2,2.6,2.6,2.6c1.5,0,2.6-1.2,2.6-2.6c0-1.5-1.2-2.6-2.6-2.6
			C234.4,130.8,233.2,132,233.2,133.4z"/>
		<path class="st0" d="M327.9,165c0,1.5,1.2,2.6,2.6,2.6c1.5,0,2.6-1.2,2.6-2.6c0-1.5-1.2-2.6-2.6-2.6
			C329.1,162.4,327.9,163.5,327.9,165z"/>
		<path class="st0" d="M296.3,165c0,1.5,1.2,2.6,2.6,2.6c1.5,0,2.6-1.2,2.6-2.6c0-1.5-1.2-2.6-2.6-2.6
			C297.5,162.4,296.3,163.5,296.3,165z"/>
		<path class="st0" d="M264.8,165c0,1.5,1.2,2.6,2.6,2.6c1.5,0,2.6-1.2,2.6-2.6c0-1.5-1.2-2.6-2.6-2.6
			C266,162.4,264.8,163.5,264.8,165z"/>
		<path class="st0" d="M233.2,165c0,1.5,1.2,2.6,2.6,2.6c1.5,0,2.6-1.2,2.6-2.6c0-1.5-1.2-2.6-2.6-2.6
			C234.4,162.4,233.2,163.5,233.2,165z"/>
		<circle class="st0" cx="330.5" cy="196.5" r="2.6"/>
		<path class="st0" d="M296.3,196.5c0,1.5,1.2,2.6,2.6,2.6c1.5,0,2.6-1.2,2.6-2.6c0-1.5-1.2-2.6-2.6-2.6
			C297.5,193.9,296.3,195.1,296.3,196.5z"/>
		<path class="st0" d="M264.8,196.5c0,1.5,1.2,2.6,2.6,2.6c1.5,0,2.6-1.2,2.6-2.6c0-1.5-1.2-2.6-2.6-2.6
			C266,193.9,264.8,195.1,264.8,196.5z"/>
		<path class="st0" d="M233.2,196.5c0,1.5,1.2,2.6,2.6,2.6c1.5,0,2.6-1.2,2.6-2.6c0-1.5-1.2-2.6-2.6-2.6
			C234.4,193.9,233.2,195.1,233.2,196.5z"/>
		<path class="st0" d="M327.9,228.1c0,1.5,1.2,2.6,2.6,2.6c1.5,0,2.6-1.2,2.6-2.6c0-1.5-1.2-2.6-2.6-2.6
			C329.1,225.5,327.9,226.7,327.9,228.1z"/>
		<path class="st0" d="M296.3,228.1c0,1.5,1.2,2.6,2.6,2.6c1.5,0,2.6-1.2,2.6-2.6c0-1.5-1.2-2.6-2.6-2.6
			C297.5,225.5,296.3,226.7,296.3,228.1z"/>
		<path class="st0" d="M264.8,228.1c0,1.5,1.2,2.6,2.6,2.6c1.5,0,2.6-1.2,2.6-2.6c0-1.5-1.2-2.6-2.6-2.6
			C266,225.5,264.8,226.7,264.8,228.1z"/>
		<path class="st0" d="M233.2,228.1c0,1.5,1.2,2.6,2.6,2.6c1.5,0,2.6-1.2,2.6-2.6c0-1.5-1.2-2.6-2.6-2.6
			C234.4,225.5,233.2,226.7,233.2,228.1z"/>
		<circle class="st0" cx="330.5" cy="259.7" r="2.6"/>
		<path class="st0" d="M296.3,259.7c0,1.5,1.2,2.6,2.6,2.6c1.5,0,2.6-1.2,2.6-2.6c0-1.5-1.2-2.6-2.6-2.6
			C297.5,257,296.3,258.2,296.3,259.7z"/>
		<path class="st0" d="M264.8,259.7c0,1.5,1.2,2.6,2.6,2.6c1.5,0,2.6-1.2,2.6-2.6c0-1.5-1.2-2.6-2.6-2.6
			C266,257,264.8,258.2,264.8,259.7z"/>
		<path class="st0" d="M233.2,259.7c0,1.5,1.2,2.6,2.6,2.6c1.5,0,2.6-1.2,2.6-2.6c0-1.5-1.2-2.6-2.6-2.6
			C234.4,257,233.2,258.2,233.2,259.7z"/>
		<path class="st0" d="M327.9,291.2c0,1.5,1.2,2.6,2.6,2.6c1.5,0,2.6-1.2,2.6-2.6c0-1.5-1.2-2.6-2.6-2.6
			C329.1,288.6,327.9,289.8,327.9,291.2z"/>
		<path class="st0" d="M296.3,291.2c0,1.5,1.2,2.6,2.6,2.6c1.5,0,2.6-1.2,2.6-2.6c0-1.5-1.2-2.6-2.6-2.6
			C297.5,288.6,296.3,289.8,296.3,291.2z"/>
		<path class="st0" d="M264.8,291.2c0,1.5,1.2,2.6,2.6,2.6c1.5,0,2.6-1.2,2.6-2.6c0-1.5-1.2-2.6-2.6-2.6
			C266,288.6,264.8,289.8,264.8,291.2z"/>
		<path class="st0" d="M233.2,291.2c0,1.5,1.2,2.6,2.6,2.6c1.5,0,2.6-1.2,2.6-2.6c0-1.5-1.2-2.6-2.6-2.6
			C234.4,288.6,233.2,289.8,233.2,291.2z"/>
		<circle class="st0" cx="330.5" cy="322.8" r="2.6"/>
		<path class="st0" d="M296.3,322.8c0,1.5,1.2,2.6,2.6,2.6c1.5,0,2.6-1.2,2.6-2.6c0-1.5-1.2-2.6-2.6-2.6
			C297.5,320.2,296.3,321.3,296.3,322.8z"/>
		<path class="st0" d="M264.8,322.8c0,1.5,1.2,2.6,2.6,2.6c1.5,0,2.6-1.2,2.6-2.6c0-1.5-1.2-2.6-2.6-2.6
			C266,320.2,264.8,321.3,264.8,322.8z"/>
		<path class="st0" d="M233.2,322.8c0,1.5,1.2,2.6,2.6,2.6c1.5,0,2.6-1.2,2.6-2.6c0-1.5-1.2-2.6-2.6-2.6
			C234.4,320.2,233.2,321.3,233.2,322.8z"/>
		<circle class="st0" cx="330.5" cy="354.4" r="2.6"/>
		<path class="st0" d="M296.3,354.4c0,1.5,1.2,2.6,2.6,2.6c1.5,0,2.6-1.2,2.6-2.6c0-1.5-1.2-2.6-2.6-2.6
			C297.5,351.7,296.3,352.9,296.3,354.4z"/>
		<path class="st0" d="M264.8,354.4c0,1.5,1.2,2.6,2.6,2.6c1.5,0,2.6-1.2,2.6-2.6c0-1.5-1.2-2.6-2.6-2.6
			C266,351.7,264.8,352.9,264.8,354.4z"/>
		<path class="st0" d="M233.2,354.4c0,1.5,1.2,2.6,2.6,2.6c1.5,0,2.6-1.2,2.6-2.6c0-1.5-1.2-2.6-2.6-2.6
			C234.4,351.7,233.2,352.9,233.2,354.4z"/>
		<circle class="st0" cx="330.5" cy="385.9" r="2.6"/>
		<path class="st0" d="M296.3,385.9c0,1.5,1.2,2.6,2.6,2.6c1.5,0,2.6-1.2,2.6-2.6c0-1.5-1.2-2.6-2.6-2.6
			C297.5,383.3,296.3,384.5,296.3,385.9z"/>
		<path class="st0" d="M264.8,385.9c0,1.5,1.2,2.6,2.6,2.6c1.5,0,2.6-1.2,2.6-2.6c0-1.5-1.2-2.6-2.6-2.6
			C266,383.3,264.8,384.5,264.8,385.9z"/>
		<path class="st0" d="M233.2,385.9c0,1.5,1.2,2.6,2.6,2.6c1.5,0,2.6-1.2,2.6-2.6c0-1.5-1.2-2.6-2.6-2.6
			C234.4,383.3,233.2,384.5,233.2,385.9z"/>
		<circle class="st0" cx="330.5" cy="417.5" r="2.6"/>
		<path class="st0" d="M296.3,417.5c0,1.5,1.2,2.6,2.6,2.6c1.5,0,2.6-1.2,2.6-2.6c0-1.5-1.2-2.6-2.6-2.6
			C297.5,414.8,296.3,416,296.3,417.5z"/>
		<path class="st0" d="M264.8,417.5c0,1.5,1.2,2.6,2.6,2.6c1.5,0,2.6-1.2,2.6-2.6c0-1.5-1.2-2.6-2.6-2.6
			C266,414.8,264.8,416,264.8,417.5z"/>
		<path class="st0" d="M233.2,417.5c0,1.5,1.2,2.6,2.6,2.6c1.5,0,2.6-1.2,2.6-2.6c0-1.5-1.2-2.6-2.6-2.6
			C234.4,414.8,233.2,416,233.2,417.5z"/>
		<path class="st0" d="M454.1,70.3c0,1.5,1.2,2.6,2.6,2.6c1.5,0,2.6-1.2,2.6-2.6c0-1.5-1.2-2.6-2.6-2.6
			C455.3,67.7,454.1,68.9,454.1,70.3z"/>
		<path class="st0" d="M422.6,70.3c0,1.5,1.2,2.6,2.6,2.6c1.5,0,2.6-1.2,2.6-2.6c0-1.5-1.2-2.6-2.6-2.6
			C423.8,67.7,422.6,68.9,422.6,70.3z"/>
		<path class="st0" d="M391,70.3c0,1.5,1.2,2.6,2.6,2.6c1.5,0,2.6-1.2,2.6-2.6c0-1.5-1.2-2.6-2.6-2.6C392.2,67.7,391,68.9,391,70.3z
			"/>
		<path class="st0" d="M359.5,70.3c0,1.5,1.2,2.6,2.6,2.6c1.5,0,2.6-1.2,2.6-2.6c0-1.5-1.2-2.6-2.6-2.6
			C360.6,67.7,359.5,68.9,359.5,70.3z"/>
		<path class="st0" d="M454.1,101.9c0,1.5,1.2,2.6,2.6,2.6c1.5,0,2.6-1.2,2.6-2.6c0-1.5-1.2-2.6-2.6-2.6
			C455.3,99.2,454.1,100.4,454.1,101.9z"/>
		<path class="st0" d="M422.6,101.9c0,1.5,1.2,2.6,2.6,2.6c1.5,0,2.6-1.2,2.6-2.6c0-1.5-1.2-2.6-2.6-2.6
			C423.8,99.2,422.6,100.4,422.6,101.9z"/>
		<path class="st0" d="M391,101.9c0,1.5,1.2,2.6,2.6,2.6c1.5,0,2.6-1.2,2.6-2.6c0-1.5-1.2-2.6-2.6-2.6
			C392.2,99.2,391,100.4,391,101.9z"/>
		<path class="st0" d="M359.5,101.9c0,1.5,1.2,2.6,2.6,2.6c1.5,0,2.6-1.2,2.6-2.6c0-1.5-1.2-2.6-2.6-2.6
			C360.6,99.2,359.5,100.4,359.5,101.9z"/>
		<path class="st0" d="M454.1,133.4c0,1.5,1.2,2.6,2.6,2.6c1.5,0,2.6-1.2,2.6-2.6c0-1.5-1.2-2.6-2.6-2.6
			C455.3,130.8,454.1,132,454.1,133.4z"/>
		<path class="st0" d="M422.6,133.4c0,1.5,1.2,2.6,2.6,2.6c1.5,0,2.6-1.2,2.6-2.6c0-1.5-1.2-2.6-2.6-2.6
			C423.8,130.8,422.6,132,422.6,133.4z"/>
		<path class="st0" d="M391,133.4c0,1.5,1.2,2.6,2.6,2.6c1.5,0,2.6-1.2,2.6-2.6c0-1.5-1.2-2.6-2.6-2.6
			C392.2,130.8,391,132,391,133.4z"/>
		<path class="st0" d="M359.5,133.4c0,1.5,1.2,2.6,2.6,2.6c1.5,0,2.6-1.2,2.6-2.6c0-1.5-1.2-2.6-2.6-2.6
			C360.6,130.8,359.5,132,359.5,133.4z"/>
		<path class="st0" d="M454.1,165c0,1.5,1.2,2.6,2.6,2.6c1.5,0,2.6-1.2,2.6-2.6c0-1.5-1.2-2.6-2.6-2.6
			C455.3,162.4,454.1,163.5,454.1,165z"/>
		<path class="st0" d="M422.6,165c0,1.5,1.2,2.6,2.6,2.6c1.5,0,2.6-1.2,2.6-2.6c0-1.5-1.2-2.6-2.6-2.6
			C423.8,162.4,422.6,163.5,422.6,165z"/>
		<path class="st0" d="M391,165c0,1.5,1.2,2.6,2.6,2.6c1.5,0,2.6-1.2,2.6-2.6c0-1.5-1.2-2.6-2.6-2.6C392.2,162.4,391,163.5,391,165z
			"/>
		<path class="st0" d="M359.5,165c0,1.5,1.2,2.6,2.6,2.6c1.5,0,2.6-1.2,2.6-2.6c0-1.5-1.2-2.6-2.6-2.6
			C360.6,162.4,359.5,163.5,359.5,165z"/>
		<circle class="st0" cx="456.8" cy="196.5" r="2.6"/>
		<path class="st0" d="M422.6,196.5c0,1.5,1.2,2.6,2.6,2.6c1.5,0,2.6-1.2,2.6-2.6c0-1.5-1.2-2.6-2.6-2.6
			C423.8,193.9,422.6,195.1,422.6,196.5z"/>
		<path class="st0" d="M391,196.5c0,1.5,1.2,2.6,2.6,2.6c1.5,0,2.6-1.2,2.6-2.6c0-1.5-1.2-2.6-2.6-2.6
			C392.2,193.9,391,195.1,391,196.5z"/>
		<path class="st0" d="M359.5,196.5c0,1.5,1.2,2.6,2.6,2.6c1.5,0,2.6-1.2,2.6-2.6c0-1.5-1.2-2.6-2.6-2.6
			C360.6,193.9,359.5,195.1,359.5,196.5z"/>
		<path class="st0" d="M454.1,228.1c0,1.5,1.2,2.6,2.6,2.6c1.5,0,2.6-1.2,2.6-2.6c0-1.5-1.2-2.6-2.6-2.6
			C455.3,225.5,454.1,226.7,454.1,228.1z"/>
		<path class="st0" d="M422.6,228.1c0,1.5,1.2,2.6,2.6,2.6c1.5,0,2.6-1.2,2.6-2.6c0-1.5-1.2-2.6-2.6-2.6
			C423.8,225.5,422.6,226.7,422.6,228.1z"/>
		<path class="st0" d="M391,228.1c0,1.5,1.2,2.6,2.6,2.6c1.5,0,2.6-1.2,2.6-2.6c0-1.5-1.2-2.6-2.6-2.6
			C392.2,225.5,391,226.7,391,228.1z"/>
		<path class="st0" d="M359.5,228.1c0,1.5,1.2,2.6,2.6,2.6c1.5,0,2.6-1.2,2.6-2.6c0-1.5-1.2-2.6-2.6-2.6
			C360.6,225.5,359.5,226.7,359.5,228.1z"/>
		<circle class="st0" cx="456.8" cy="259.7" r="2.6"/>
		<path class="st0" d="M422.6,259.7c0,1.5,1.2,2.6,2.6,2.6c1.5,0,2.6-1.2,2.6-2.6c0-1.5-1.2-2.6-2.6-2.6
			C423.8,257,422.6,258.2,422.6,259.7z"/>
		<path class="st0" d="M391,259.7c0,1.5,1.2,2.6,2.6,2.6c1.5,0,2.6-1.2,2.6-2.6c0-1.5-1.2-2.6-2.6-2.6
			C392.2,257,391,258.2,391,259.7z"/>
		<path class="st0" d="M359.5,259.7c0,1.5,1.2,2.6,2.6,2.6c1.5,0,2.6-1.2,2.6-2.6c0-1.5-1.2-2.6-2.6-2.6
			C360.6,257,359.5,258.2,359.5,259.7z"/>
		<path class="st0" d="M454.1,291.2c0,1.5,1.2,2.6,2.6,2.6c1.5,0,2.6-1.2,2.6-2.6c0-1.5-1.2-2.6-2.6-2.6
			C455.3,288.6,454.1,289.8,454.1,291.2z"/>
		<path class="st0" d="M422.6,291.2c0,1.5,1.2,2.6,2.6,2.6c1.5,0,2.6-1.2,2.6-2.6c0-1.5-1.2-2.6-2.6-2.6
			C423.8,288.6,422.6,289.8,422.6,291.2z"/>
		<path class="st0" d="M391,291.2c0,1.5,1.2,2.6,2.6,2.6c1.5,0,2.6-1.2,2.6-2.6c0-1.5-1.2-2.6-2.6-2.6
			C392.2,288.6,391,289.8,391,291.2z"/>
		<path class="st0" d="M359.5,291.2c0,1.5,1.2,2.6,2.6,2.6c1.5,0,2.6-1.2,2.6-2.6c0-1.5-1.2-2.6-2.6-2.6
			C360.6,288.6,359.5,289.8,359.5,291.2z"/>
		<circle class="st0" cx="456.8" cy="322.8" r="2.6"/>
		<path class="st0" d="M422.6,322.8c0,1.5,1.2,2.6,2.6,2.6c1.5,0,2.6-1.2,2.6-2.6c0-1.5-1.2-2.6-2.6-2.6
			C423.8,320.2,422.6,321.3,422.6,322.8z"/>
		<path class="st0" d="M391,322.8c0,1.5,1.2,2.6,2.6,2.6c1.5,0,2.6-1.2,2.6-2.6c0-1.5-1.2-2.6-2.6-2.6
			C392.2,320.2,391,321.3,391,322.8z"/>
		<path class="st0" d="M359.5,322.8c0,1.5,1.2,2.6,2.6,2.6c1.5,0,2.6-1.2,2.6-2.6c0-1.5-1.2-2.6-2.6-2.6
			C360.6,320.2,359.5,321.3,359.5,322.8z"/>
		<circle class="st0" cx="456.8" cy="354.4" r="2.6"/>
		<path class="st0" d="M422.6,354.4c0,1.5,1.2,2.6,2.6,2.6c1.5,0,2.6-1.2,2.6-2.6c0-1.5-1.2-2.6-2.6-2.6
			C423.8,351.7,422.6,352.9,422.6,354.4z"/>
		<path class="st0" d="M391,354.4c0,1.5,1.2,2.6,2.6,2.6c1.5,0,2.6-1.2,2.6-2.6c0-1.5-1.2-2.6-2.6-2.6
			C392.2,351.7,391,352.9,391,354.4z"/>
		<path class="st0" d="M359.5,354.4c0,1.5,1.2,2.6,2.6,2.6c1.5,0,2.6-1.2,2.6-2.6c0-1.5-1.2-2.6-2.6-2.6
			C360.6,351.7,359.5,352.9,359.5,354.4z"/>
		<circle class="st0" cx="456.8" cy="385.9" r="2.6"/>
		<path class="st0" d="M422.6,385.9c0,1.5,1.2,2.6,2.6,2.6c1.5,0,2.6-1.2,2.6-2.6c0-1.5-1.2-2.6-2.6-2.6
			C423.8,383.3,422.6,384.5,422.6,385.9z"/>
		<path class="st0" d="M391,385.9c0,1.5,1.2,2.6,2.6,2.6c1.5,0,2.6-1.2,2.6-2.6c0-1.5-1.2-2.6-2.6-2.6
			C392.2,383.3,391,384.5,391,385.9z"/>
		<path class="st0" d="M359.5,385.9c0,1.5,1.2,2.6,2.6,2.6c1.5,0,2.6-1.2,2.6-2.6c0-1.5-1.2-2.6-2.6-2.6
			C360.6,383.3,359.5,384.5,359.5,385.9z"/>
		<circle class="st0" cx="456.8" cy="417.5" r="2.6"/>
		<path class="st0" d="M422.6,417.5c0,1.5,1.2,2.6,2.6,2.6c1.5,0,2.6-1.2,2.6-2.6c0-1.5-1.2-2.6-2.6-2.6
			C423.8,414.8,422.6,416,422.6,417.5z"/>
		<path class="st0" d="M391,417.5c0,1.5,1.2,2.6,2.6,2.6c1.5,0,2.6-1.2,2.6-2.6c0-1.5-1.2-2.6-2.6-2.6
			C392.2,414.8,391,416,391,417.5z"/>
		<path class="st0" d="M359.5,417.5c0,1.5,1.2,2.6,2.6,2.6c1.5,0,2.6-1.2,2.6-2.6c0-1.5-1.2-2.6-2.6-2.6
			C360.6,414.8,359.5,416,359.5,417.5z"/>
		<path class="st0" d="M170.1,70.3c0,1.5,1.2,2.6,2.6,2.6c1.5,0,2.6-1.2,2.6-2.6c0-1.5-1.2-2.6-2.6-2.6
			C171.3,67.7,170.1,68.9,170.1,70.3z"/>
		<path class="st0" d="M138.5,70.3c0,1.5,1.2,2.6,2.6,2.6c1.5,0,2.6-1.2,2.6-2.6c0-1.5-1.2-2.6-2.6-2.6
			C139.7,67.7,138.5,68.9,138.5,70.3z"/>
		<path class="st0" d="M107,70.3c0,1.5,1.2,2.6,2.6,2.6c1.5,0,2.6-1.2,2.6-2.6c0-1.5-1.2-2.6-2.6-2.6C108.2,67.7,107,68.9,107,70.3z
			"/>
		<path class="st0" d="M75.4,70.3c0,1.5,1.2,2.6,2.6,2.6c1.5,0,2.6-1.2,2.6-2.6c0-1.5-1.2-2.6-2.6-2.6
			C76.6,67.7,75.4,68.9,75.4,70.3z"/>
		<path class="st0" d="M170.1,101.9c0,1.5,1.2,2.6,2.6,2.6c1.5,0,2.6-1.2,2.6-2.6c0-1.5-1.2-2.6-2.6-2.6
			C171.3,99.2,170.1,100.4,170.1,101.9z"/>
		<path class="st0" d="M138.5,101.9c0,1.5,1.2,2.6,2.6,2.6c1.5,0,2.6-1.2,2.6-2.6c0-1.5-1.2-2.6-2.6-2.6
			C139.7,99.2,138.5,100.4,138.5,101.9z"/>
		<path class="st0" d="M107,101.9c0,1.5,1.2,2.6,2.6,2.6c1.5,0,2.6-1.2,2.6-2.6c0-1.5-1.2-2.6-2.6-2.6
			C108.2,99.2,107,100.4,107,101.9z"/>
		<path class="st0" d="M75.4,101.9c0,1.5,1.2,2.6,2.6,2.6c1.5,0,2.6-1.2,2.6-2.6c0-1.5-1.2-2.6-2.6-2.6
			C76.6,99.2,75.4,100.4,75.4,101.9z"/>
		<path class="st0" d="M170.1,133.4c0,1.5,1.2,2.6,2.6,2.6c1.5,0,2.6-1.2,2.6-2.6c0-1.5-1.2-2.6-2.6-2.6
			C171.3,130.8,170.1,132,170.1,133.4z"/>
		<path class="st0" d="M138.5,133.4c0,1.5,1.2,2.6,2.6,2.6c1.5,0,2.6-1.2,2.6-2.6c0-1.5-1.2-2.6-2.6-2.6
			C139.7,130.8,138.5,132,138.5,133.4z"/>
		<path class="st0" d="M107,133.4c0,1.5,1.2,2.6,2.6,2.6c1.5,0,2.6-1.2,2.6-2.6c0-1.5-1.2-2.6-2.6-2.6
			C108.2,130.8,107,132,107,133.4z"/>
		<path class="st0" d="M75.4,133.4c0,1.5,1.2,2.6,2.6,2.6c1.5,0,2.6-1.2,2.6-2.6c0-1.5-1.2-2.6-2.6-2.6
			C76.6,130.8,75.4,132,75.4,133.4z"/>
		<path class="st0" d="M170.1,165c0,1.5,1.2,2.6,2.6,2.6c1.5,0,2.6-1.2,2.6-2.6c0-1.5-1.2-2.6-2.6-2.6
			C171.3,162.4,170.1,163.5,170.1,165z"/>
		<path class="st0" d="M138.5,165c0,1.5,1.2,2.6,2.6,2.6c1.5,0,2.6-1.2,2.6-2.6c0-1.5-1.2-2.6-2.6-2.6
			C139.7,162.4,138.5,163.5,138.5,165z"/>
		<path class="st0" d="M107,165c0,1.5,1.2,2.6,2.6,2.6c1.5,0,2.6-1.2,2.6-2.6c0-1.5-1.2-2.6-2.6-2.6C108.2,162.4,107,163.5,107,165z
			"/>
		<path class="st0" d="M75.4,165c0,1.5,1.2,2.6,2.6,2.6c1.5,0,2.6-1.2,2.6-2.6c0-1.5-1.2-2.6-2.6-2.6
			C76.6,162.4,75.4,163.5,75.4,165z"/>
		<path class="st0" d="M170.1,196.5c0,1.5,1.2,2.6,2.6,2.6c1.5,0,2.6-1.2,2.6-2.6c0-1.5-1.2-2.6-2.6-2.6
			C171.3,193.9,170.1,195.1,170.1,196.5z"/>
		<path class="st0" d="M138.5,196.5c0,1.5,1.2,2.6,2.6,2.6c1.5,0,2.6-1.2,2.6-2.6c0-1.5-1.2-2.6-2.6-2.6
			C139.7,193.9,138.5,195.1,138.5,196.5z"/>
		<path class="st0" d="M107,196.5c0,1.5,1.2,2.6,2.6,2.6c1.5,0,2.6-1.2,2.6-2.6c0-1.5-1.2-2.6-2.6-2.6
			C108.2,193.9,107,195.1,107,196.5z"/>
		<path class="st0" d="M75.4,196.5c0,1.5,1.2,2.6,2.6,2.6c1.5,0,2.6-1.2,2.6-2.6c0-1.5-1.2-2.6-2.6-2.6
			C76.6,193.9,75.4,195.1,75.4,196.5z"/>
		<path class="st0" d="M170.1,228.1c0,1.5,1.2,2.6,2.6,2.6c1.5,0,2.6-1.2,2.6-2.6c0-1.5-1.2-2.6-2.6-2.6
			C171.3,225.5,170.1,226.7,170.1,228.1z"/>
		<path class="st0" d="M138.5,228.1c0,1.5,1.2,2.6,2.6,2.6c1.5,0,2.6-1.2,2.6-2.6c0-1.5-1.2-2.6-2.6-2.6
			C139.7,225.5,138.5,226.7,138.5,228.1z"/>
		<path class="st0" d="M107,228.1c0,1.5,1.2,2.6,2.6,2.6c1.5,0,2.6-1.2,2.6-2.6c0-1.5-1.2-2.6-2.6-2.6
			C108.2,225.5,107,226.7,107,228.1z"/>
		<path class="st0" d="M75.4,228.1c0,1.5,1.2,2.6,2.6,2.6c1.5,0,2.6-1.2,2.6-2.6c0-1.5-1.2-2.6-2.6-2.6
			C76.6,225.5,75.4,226.7,75.4,228.1z"/>
		<path class="st0" d="M170.1,259.7c0,1.5,1.2,2.6,2.6,2.6c1.5,0,2.6-1.2,2.6-2.6c0-1.5-1.2-2.6-2.6-2.6
			C171.3,257,170.1,258.2,170.1,259.7z"/>
		<path class="st0" d="M138.5,259.7c0,1.5,1.2,2.6,2.6,2.6c1.5,0,2.6-1.2,2.6-2.6c0-1.5-1.2-2.6-2.6-2.6
			C139.7,257,138.5,258.2,138.5,259.7z"/>
		<path class="st0" d="M107,259.7c0,1.5,1.2,2.6,2.6,2.6c1.5,0,2.6-1.2,2.6-2.6c0-1.5-1.2-2.6-2.6-2.6
			C108.2,257,107,258.2,107,259.7z"/>
		<path class="st0" d="M75.4,259.7c0,1.5,1.2,2.6,2.6,2.6c1.5,0,2.6-1.2,2.6-2.6c0-1.5-1.2-2.6-2.6-2.6
			C76.6,257,75.4,258.2,75.4,259.7z"/>
		<path class="st0" d="M170.1,291.2c0,1.5,1.2,2.6,2.6,2.6c1.5,0,2.6-1.2,2.6-2.6c0-1.5-1.2-2.6-2.6-2.6
			C171.3,288.6,170.1,289.8,170.1,291.2z"/>
		<path class="st0" d="M138.5,291.2c0,1.5,1.2,2.6,2.6,2.6c1.5,0,2.6-1.2,2.6-2.6c0-1.5-1.2-2.6-2.6-2.6
			C139.7,288.6,138.5,289.8,138.5,291.2z"/>
		<path class="st0" d="M107,291.2c0,1.5,1.2,2.6,2.6,2.6c1.5,0,2.6-1.2,2.6-2.6c0-1.5-1.2-2.6-2.6-2.6
			C108.2,288.6,107,289.8,107,291.2z"/>
		<path class="st0" d="M75.4,291.2c0,1.5,1.2,2.6,2.6,2.6c1.5,0,2.6-1.2,2.6-2.6c0-1.5-1.2-2.6-2.6-2.6
			C76.6,288.6,75.4,289.8,75.4,291.2z"/>
		<path class="st0" d="M170.1,322.8c0,1.5,1.2,2.6,2.6,2.6c1.5,0,2.6-1.2,2.6-2.6c0-1.5-1.2-2.6-2.6-2.6
			C171.3,320.2,170.1,321.3,170.1,322.8z"/>
		<path class="st0" d="M138.5,322.8c0,1.5,1.2,2.6,2.6,2.6c1.5,0,2.6-1.2,2.6-2.6c0-1.5-1.2-2.6-2.6-2.6
			C139.7,320.2,138.5,321.3,138.5,322.8z"/>
		<path class="st0" d="M107,322.8c0,1.5,1.2,2.6,2.6,2.6c1.5,0,2.6-1.2,2.6-2.6c0-1.5-1.2-2.6-2.6-2.6
			C108.2,320.2,107,321.3,107,322.8z"/>
		<path class="st0" d="M75.4,322.8c0,1.5,1.2,2.6,2.6,2.6c1.5,0,2.6-1.2,2.6-2.6c0-1.5-1.2-2.6-2.6-2.6
			C76.6,320.2,75.4,321.3,75.4,322.8z"/>
		<path class="st0" d="M170.1,354.4c0,1.5,1.2,2.6,2.6,2.6c1.5,0,2.6-1.2,2.6-2.6c0-1.5-1.2-2.6-2.6-2.6
			C171.3,351.7,170.1,352.9,170.1,354.4z"/>
		<path class="st0" d="M138.5,354.4c0,1.5,1.2,2.6,2.6,2.6c1.5,0,2.6-1.2,2.6-2.6c0-1.5-1.2-2.6-2.6-2.6
			C139.7,351.7,138.5,352.9,138.5,354.4z"/>
		<path class="st0" d="M107,354.4c0,1.5,1.2,2.6,2.6,2.6c1.5,0,2.6-1.2,2.6-2.6c0-1.5-1.2-2.6-2.6-2.6
			C108.2,351.7,107,352.9,107,354.4z"/>
		<path class="st0" d="M75.4,354.4c0,1.5,1.2,2.6,2.6,2.6c1.5,0,2.6-1.2,2.6-2.6c0-1.5-1.2-2.6-2.6-2.6
			C76.6,351.7,75.4,352.9,75.4,354.4z"/>
		<path class="st0" d="M170.1,385.9c0,1.5,1.2,2.6,2.6,2.6c1.5,0,2.6-1.2,2.6-2.6c0-1.5-1.2-2.6-2.6-2.6
			C171.3,383.3,170.1,384.5,170.1,385.9z"/>
		<path class="st0" d="M138.5,385.9c0,1.5,1.2,2.6,2.6,2.6c1.5,0,2.6-1.2,2.6-2.6c0-1.5-1.2-2.6-2.6-2.6
			C139.7,383.3,138.5,384.5,138.5,385.9z"/>
		<path class="st0" d="M107,385.9c0,1.5,1.2,2.6,2.6,2.6c1.5,0,2.6-1.2,2.6-2.6c0-1.5-1.2-2.6-2.6-2.6
			C108.2,383.3,107,384.5,107,385.9z"/>
		<path class="st0" d="M75.4,385.9c0,1.5,1.2,2.6,2.6,2.6c1.5,0,2.6-1.2,2.6-2.6c0-1.5-1.2-2.6-2.6-2.6
			C76.6,383.3,75.4,384.5,75.4,385.9z"/>
		<path class="st0" d="M170.1,417.5c0,1.5,1.2,2.6,2.6,2.6c1.5,0,2.6-1.2,2.6-2.6c0-1.5-1.2-2.6-2.6-2.6
			C171.3,414.8,170.1,416,170.1,417.5z"/>
		<path class="st0" d="M138.5,417.5c0,1.5,1.2,2.6,2.6,2.6c1.5,0,2.6-1.2,2.6-2.6c0-1.5-1.2-2.6-2.6-2.6
			C139.7,414.8,138.5,416,138.5,417.5z"/>
		<path class="st0" d="M107,417.5c0,1.5,1.2,2.6,2.6,2.6c1.5,0,2.6-1.2,2.6-2.6c0-1.5-1.2-2.6-2.6-2.6
			C108.2,414.8,107,416,107,417.5z"/>
		<path class="st0" d="M75.4,417.5c0,1.5,1.2,2.6,2.6,2.6c1.5,0,2.6-1.2,2.6-2.6c0-1.5-1.2-2.6-2.6-2.6
			C76.6,414.8,75.4,416,75.4,417.5z"/>
		<path class="st0" d="M43.9,70.3c0,1.5,1.2,2.6,2.6,2.6c1.5,0,2.6-1.2,2.6-2.6c0-1.5-1.2-2.6-2.6-2.6C45,67.7,43.9,68.9,43.9,70.3z
			"/>
		<path class="st0" d="M43.9,101.9c0,1.5,1.2,2.6,2.6,2.6c1.5,0,2.6-1.2,2.6-2.6c0-1.5-1.2-2.6-2.6-2.6
			C45,99.2,43.9,100.4,43.9,101.9z"/>
		<path class="st0" d="M43.9,133.4c0,1.5,1.2,2.6,2.6,2.6c1.5,0,2.6-1.2,2.6-2.6c0-1.5-1.2-2.6-2.6-2.6
			C45,130.8,43.9,132,43.9,133.4z"/>
		<path class="st0" d="M43.9,165c0,1.5,1.2,2.6,2.6,2.6c1.5,0,2.6-1.2,2.6-2.6c0-1.5-1.2-2.6-2.6-2.6C45,162.4,43.9,163.5,43.9,165z
			"/>
		<path class="st0" d="M43.9,196.5c0,1.5,1.2,2.6,2.6,2.6c1.5,0,2.6-1.2,2.6-2.6c0-1.5-1.2-2.6-2.6-2.6
			C45,193.9,43.9,195.1,43.9,196.5z"/>
		<path class="st0" d="M43.9,228.1c0,1.5,1.2,2.6,2.6,2.6c1.5,0,2.6-1.2,2.6-2.6c0-1.5-1.2-2.6-2.6-2.6
			C45,225.5,43.9,226.7,43.9,228.1z"/>
		<path class="st0" d="M43.9,259.7c0,1.5,1.2,2.6,2.6,2.6c1.5,0,2.6-1.2,2.6-2.6c0-1.5-1.2-2.6-2.6-2.6
			C45,257,43.9,258.2,43.9,259.7z"/>
		<path class="st0" d="M43.9,291.2c0,1.5,1.2,2.6,2.6,2.6c1.5,0,2.6-1.2,2.6-2.6c0-1.5-1.2-2.6-2.6-2.6
			C45,288.6,43.9,289.8,43.9,291.2z"/>
		<path class="st0" d="M43.9,322.8c0,1.5,1.2,2.6,2.6,2.6c1.5,0,2.6-1.2,2.6-2.6c0-1.5-1.2-2.6-2.6-2.6
			C45,320.2,43.9,321.3,43.9,322.8z"/>
		<path class="st0" d="M43.9,354.4c0,1.5,1.2,2.6,2.6,2.6c1.5,0,2.6-1.2,2.6-2.6c0-1.5-1.2-2.6-2.6-2.6
			C45,351.7,43.9,352.9,43.9,354.4z"/>
		<path class="st0" d="M43.9,385.9c0,1.5,1.2,2.6,2.6,2.6c1.5,0,2.6-1.2,2.6-2.6c0-1.5-1.2-2.6-2.6-2.6
			C45,383.3,43.9,384.5,43.9,385.9z"/>
		<path class="st0" d="M43.9,417.5c0,1.5,1.2,2.6,2.6,2.6c1.5,0,2.6-1.2,2.6-2.6c0-1.5-1.2-2.6-2.6-2.6
			C45,414.8,43.9,416,43.9,417.5z"/>
		<path class="st0" d="M201.7,70.3c0,1.5,1.2,2.6,2.6,2.6c1.5,0,2.6-1.2,2.6-2.6c0-1.5-1.2-2.6-2.6-2.6
			C202.8,67.7,201.7,68.9,201.7,70.3z"/>
		<path class="st0" d="M201.7,101.9c0,1.5,1.2,2.6,2.6,2.6c1.5,0,2.6-1.2,2.6-2.6c0-1.5-1.2-2.6-2.6-2.6
			C202.8,99.2,201.7,100.4,201.7,101.9z"/>
		<path class="st0" d="M201.7,133.4c0,1.5,1.2,2.6,2.6,2.6c1.5,0,2.6-1.2,2.6-2.6c0-1.5-1.2-2.6-2.6-2.6
			C202.8,130.8,201.7,132,201.7,133.4z"/>
		<path class="st0" d="M201.7,165c0,1.5,1.2,2.6,2.6,2.6c1.5,0,2.6-1.2,2.6-2.6c0-1.5-1.2-2.6-2.6-2.6
			C202.8,162.4,201.7,163.5,201.7,165z"/>
		<path class="st0" d="M201.7,196.5c0,1.5,1.2,2.6,2.6,2.6c1.5,0,2.6-1.2,2.6-2.6c0-1.5-1.2-2.6-2.6-2.6
			C202.8,193.9,201.7,195.1,201.7,196.5z"/>
		<path class="st0" d="M201.7,228.1c0,1.5,1.2,2.6,2.6,2.6c1.5,0,2.6-1.2,2.6-2.6c0-1.5-1.2-2.6-2.6-2.6
			C202.8,225.5,201.7,226.7,201.7,228.1z"/>
		<path class="st0" d="M201.7,259.7c0,1.5,1.2,2.6,2.6,2.6c1.5,0,2.6-1.2,2.6-2.6c0-1.5-1.2-2.6-2.6-2.6
			C202.8,257,201.7,258.2,201.7,259.7z"/>
		<path class="st0" d="M201.7,291.2c0,1.5,1.2,2.6,2.6,2.6c1.5,0,2.6-1.2,2.6-2.6c0-1.5-1.2-2.6-2.6-2.6
			C202.8,288.6,201.7,289.8,201.7,291.2z"/>
		<path class="st0" d="M201.7,322.8c0,1.5,1.2,2.6,2.6,2.6c1.5,0,2.6-1.2,2.6-2.6c0-1.5-1.2-2.6-2.6-2.6
			C202.8,320.2,201.7,321.3,201.7,322.8z"/>
		<path class="st0" d="M201.7,354.4c0,1.5,1.2,2.6,2.6,2.6c1.5,0,2.6-1.2,2.6-2.6c0-1.5-1.2-2.6-2.6-2.6
			C202.8,351.7,201.7,352.9,201.7,354.4z"/>
		<path class="st0" d="M201.7,385.9c0,1.5,1.2,2.6,2.6,2.6c1.5,0,2.6-1.2,2.6-2.6c0-1.5-1.2-2.6-2.6-2.6
			C202.8,383.3,201.7,384.5,201.7,385.9z"/>
		<path class="st0" d="M201.7,417.5c0,1.5,1.2,2.6,2.6,2.6c1.5,0,2.6-1.2,2.6-2.6c0-1.5-1.2-2.6-2.6-2.6
			C202.8,414.8,201.7,416,201.7,417.5z"/>
		<path class="st0" d="M580.4,70.3c0,1.5,1.2,2.6,2.6,2.6c1.5,0,2.6-1.2,2.6-2.6c0-1.5-1.2-2.6-2.6-2.6
			C581.6,67.7,580.4,68.9,580.4,70.3z"/>
		<path class="st0" d="M548.8,70.3c0,1.5,1.2,2.6,2.6,2.6c1.5,0,2.6-1.2,2.6-2.6c0-1.5-1.2-2.6-2.6-2.6
			C550,67.7,548.8,68.9,548.8,70.3z"/>
		<path class="st0" d="M517.3,70.3c0,1.5,1.2,2.6,2.6,2.6c1.5,0,2.6-1.2,2.6-2.6c0-1.5-1.2-2.6-2.6-2.6
			C518.4,67.7,517.3,68.9,517.3,70.3z"/>
		<path class="st0" d="M485.7,70.3c0,1.5,1.2,2.6,2.6,2.6c1.5,0,2.6-1.2,2.6-2.6c0-1.5-1.2-2.6-2.6-2.6
			C486.9,67.7,485.7,68.9,485.7,70.3z"/>
		<path class="st0" d="M580.4,101.9c0,1.5,1.2,2.6,2.6,2.6c1.5,0,2.6-1.2,2.6-2.6c0-1.5-1.2-2.6-2.6-2.6
			C581.6,99.2,580.4,100.4,580.4,101.9z"/>
		<path class="st0" d="M548.8,101.9c0,1.5,1.2,2.6,2.6,2.6c1.5,0,2.6-1.2,2.6-2.6c0-1.5-1.2-2.6-2.6-2.6
			C550,99.2,548.8,100.4,548.8,101.9z"/>
		<path class="st0" d="M517.3,101.9c0,1.5,1.2,2.6,2.6,2.6c1.5,0,2.6-1.2,2.6-2.6c0-1.5-1.2-2.6-2.6-2.6
			C518.4,99.2,517.3,100.4,517.3,101.9z"/>
		<path class="st0" d="M485.7,101.9c0,1.5,1.2,2.6,2.6,2.6c1.5,0,2.6-1.2,2.6-2.6c0-1.5-1.2-2.6-2.6-2.6
			C486.9,99.2,485.7,100.4,485.7,101.9z"/>
		<path class="st0" d="M580.4,133.4c0,1.5,1.2,2.6,2.6,2.6c1.5,0,2.6-1.2,2.6-2.6c0-1.5-1.2-2.6-2.6-2.6
			C581.6,130.8,580.4,132,580.4,133.4z"/>
		<path class="st0" d="M548.8,133.4c0,1.5,1.2,2.6,2.6,2.6c1.5,0,2.6-1.2,2.6-2.6c0-1.5-1.2-2.6-2.6-2.6
			C550,130.8,548.8,132,548.8,133.4z"/>
		<path class="st0" d="M517.3,133.4c0,1.5,1.2,2.6,2.6,2.6c1.5,0,2.6-1.2,2.6-2.6c0-1.5-1.2-2.6-2.6-2.6
			C518.4,130.8,517.3,132,517.3,133.4z"/>
		<path class="st0" d="M485.7,133.4c0,1.5,1.2,2.6,2.6,2.6c1.5,0,2.6-1.2,2.6-2.6c0-1.5-1.2-2.6-2.6-2.6
			C486.9,130.8,485.7,132,485.7,133.4z"/>
		<path class="st0" d="M580.4,165c0,1.5,1.2,2.6,2.6,2.6c1.5,0,2.6-1.2,2.6-2.6c0-1.5-1.2-2.6-2.6-2.6
			C581.6,162.4,580.4,163.5,580.4,165z"/>
		<path class="st0" d="M548.8,165c0,1.5,1.2,2.6,2.6,2.6c1.5,0,2.6-1.2,2.6-2.6c0-1.5-1.2-2.6-2.6-2.6
			C550,162.4,548.8,163.5,548.8,165z"/>
		<path class="st0" d="M517.3,165c0,1.5,1.2,2.6,2.6,2.6c1.5,0,2.6-1.2,2.6-2.6c0-1.5-1.2-2.6-2.6-2.6
			C518.4,162.4,517.3,163.5,517.3,165z"/>
		<path class="st0" d="M485.7,165c0,1.5,1.2,2.6,2.6,2.6c1.5,0,2.6-1.2,2.6-2.6c0-1.5-1.2-2.6-2.6-2.6
			C486.9,162.4,485.7,163.5,485.7,165z"/>
		<circle class="st0" cx="583" cy="196.5" r="2.6"/>
		<circle class="st0" cx="551.5" cy="196.5" r="2.6"/>
		<circle class="st0" cx="519.9" cy="196.5" r="2.6"/>
		<circle class="st0" cx="488.3" cy="196.5" r="2.6"/>
		<path class="st0" d="M580.4,228.1c0,1.5,1.2,2.6,2.6,2.6c1.5,0,2.6-1.2,2.6-2.6c0-1.5-1.2-2.6-2.6-2.6
			C581.6,225.5,580.4,226.7,580.4,228.1z"/>
		<path class="st0" d="M548.8,228.1c0,1.5,1.2,2.6,2.6,2.6c1.5,0,2.6-1.2,2.6-2.6c0-1.5-1.2-2.6-2.6-2.6
			C550,225.5,548.8,226.7,548.8,228.1z"/>
		<path class="st0" d="M517.3,228.1c0,1.5,1.2,2.6,2.6,2.6c1.5,0,2.6-1.2,2.6-2.6c0-1.5-1.2-2.6-2.6-2.6
			C518.4,225.5,517.3,226.7,517.3,228.1z"/>
		<path class="st0" d="M485.7,228.1c0,1.5,1.2,2.6,2.6,2.6c1.5,0,2.6-1.2,2.6-2.6c0-1.5-1.2-2.6-2.6-2.6
			C486.9,225.5,485.7,226.7,485.7,228.1z"/>
		<circle class="st0" cx="583" cy="259.7" r="2.6"/>
		<circle class="st0" cx="551.5" cy="259.7" r="2.6"/>
		<circle class="st0" cx="519.9" cy="259.7" r="2.6"/>
		<circle class="st0" cx="488.3" cy="259.7" r="2.6"/>
		<path class="st0" d="M580.4,291.2c0,1.5,1.2,2.6,2.6,2.6c1.5,0,2.6-1.2,2.6-2.6c0-1.5-1.2-2.6-2.6-2.6
			C581.6,288.6,580.4,289.8,580.4,291.2z"/>
		<path class="st0" d="M548.8,291.2c0,1.5,1.2,2.6,2.6,2.6c1.5,0,2.6-1.2,2.6-2.6c0-1.5-1.2-2.6-2.6-2.6
			C550,288.6,548.8,289.8,548.8,291.2z"/>
		<path class="st0" d="M517.3,291.2c0,1.5,1.2,2.6,2.6,2.6c1.5,0,2.6-1.2,2.6-2.6c0-1.5-1.2-2.6-2.6-2.6
			C518.4,288.6,517.3,289.8,517.3,291.2z"/>
		<path class="st0" d="M485.7,291.2c0,1.5,1.2,2.6,2.6,2.6c1.5,0,2.6-1.2,2.6-2.6c0-1.5-1.2-2.6-2.6-2.6
			C486.9,288.6,485.7,289.8,485.7,291.2z"/>
		<circle class="st0" cx="583" cy="322.8" r="2.6"/>
		<circle class="st0" cx="551.5" cy="322.8" r="2.6"/>
		<circle class="st0" cx="519.9" cy="322.8" r="2.6"/>
		<circle class="st0" cx="488.3" cy="322.8" r="2.6"/>
		<circle class="st0" cx="583" cy="354.4" r="2.6"/>
		<circle class="st0" cx="551.5" cy="354.4" r="2.6"/>
		<circle class="st0" cx="519.9" cy="354.4" r="2.6"/>
		<circle class="st0" cx="488.3" cy="354.4" r="2.6"/>
		<circle class="st0" cx="583" cy="385.9" r="2.6"/>
		<circle class="st0" cx="551.5" cy="385.9" r="2.6"/>
		<circle class="st0" cx="519.9" cy="385.9" r="2.6"/>
		<circle class="st0" cx="488.3" cy="385.9" r="2.6"/>
		<circle class="st0" cx="583" cy="417.5" r="2.6"/>
		<circle class="st0" cx="551.5" cy="417.5" r="2.6"/>
		<circle class="st0" cx="519.9" cy="417.5" r="2.6"/>
		<circle class="st0" cx="488.3" cy="417.5" r="2.6"/>
		<path class="st0" d="M706.6,70.3c0,1.5,1.2,2.6,2.6,2.6c1.5,0,2.6-1.2,2.6-2.6c0-1.5-1.2-2.6-2.6-2.6
			C707.8,67.7,706.6,68.9,706.6,70.3z"/>
		<path class="st0" d="M675.1,70.3c0,1.5,1.2,2.6,2.6,2.6c1.5,0,2.6-1.2,2.6-2.6c0-1.5-1.2-2.6-2.6-2.6
			C676.2,67.7,675.1,68.9,675.1,70.3z"/>
		<path class="st0" d="M643.5,70.3c0,1.5,1.2,2.6,2.6,2.6c1.5,0,2.6-1.2,2.6-2.6c0-1.5-1.2-2.6-2.6-2.6
			C644.7,67.7,643.5,68.9,643.5,70.3z"/>
		<path class="st0" d="M612,70.3c0,1.5,1.2,2.6,2.6,2.6c1.5,0,2.6-1.2,2.6-2.6c0-1.5-1.2-2.6-2.6-2.6C613.1,67.7,612,68.9,612,70.3z
			"/>
		<path class="st0" d="M706.6,101.9c0,1.5,1.2,2.6,2.6,2.6c1.5,0,2.6-1.2,2.6-2.6c0-1.5-1.2-2.6-2.6-2.6
			C707.8,99.2,706.6,100.4,706.6,101.9z"/>
		<path class="st0" d="M675.1,101.9c0,1.5,1.2,2.6,2.6,2.6c1.5,0,2.6-1.2,2.6-2.6c0-1.5-1.2-2.6-2.6-2.6
			C676.2,99.2,675.1,100.4,675.1,101.9z"/>
		<path class="st0" d="M643.5,101.9c0,1.5,1.2,2.6,2.6,2.6c1.5,0,2.6-1.2,2.6-2.6c0-1.5-1.2-2.6-2.6-2.6
			C644.7,99.2,643.5,100.4,643.5,101.9z"/>
		<path class="st0" d="M612,101.9c0,1.5,1.2,2.6,2.6,2.6c1.5,0,2.6-1.2,2.6-2.6c0-1.5-1.2-2.6-2.6-2.6
			C613.1,99.2,612,100.4,612,101.9z"/>
		<path class="st0" d="M706.6,133.4c0,1.5,1.2,2.6,2.6,2.6c1.5,0,2.6-1.2,2.6-2.6c0-1.5-1.2-2.6-2.6-2.6
			C707.8,130.8,706.6,132,706.6,133.4z"/>
		<path class="st0" d="M675.1,133.4c0,1.5,1.2,2.6,2.6,2.6c1.5,0,2.6-1.2,2.6-2.6c0-1.5-1.2-2.6-2.6-2.6
			C676.2,130.8,675.1,132,675.1,133.4z"/>
		<path class="st0" d="M643.5,133.4c0,1.5,1.2,2.6,2.6,2.6c1.5,0,2.6-1.2,2.6-2.6c0-1.5-1.2-2.6-2.6-2.6
			C644.7,130.8,643.5,132,643.5,133.4z"/>
		<path class="st0" d="M612,133.4c0,1.5,1.2,2.6,2.6,2.6c1.5,0,2.6-1.2,2.6-2.6c0-1.5-1.2-2.6-2.6-2.6
			C613.1,130.8,612,132,612,133.4z"/>
		<path class="st0" d="M706.6,165c0,1.5,1.2,2.6,2.6,2.6c1.5,0,2.6-1.2,2.6-2.6c0-1.5-1.2-2.6-2.6-2.6
			C707.8,162.4,706.6,163.5,706.6,165z"/>
		<path class="st0" d="M675.1,165c0,1.5,1.2,2.6,2.6,2.6c1.5,0,2.6-1.2,2.6-2.6c0-1.5-1.2-2.6-2.6-2.6
			C676.2,162.4,675.1,163.5,675.1,165z"/>
		<path class="st0" d="M643.5,165c0,1.5,1.2,2.6,2.6,2.6c1.5,0,2.6-1.2,2.6-2.6c0-1.5-1.2-2.6-2.6-2.6
			C644.7,162.4,643.5,163.5,643.5,165z"/>
		<path class="st0" d="M612,165c0,1.5,1.2,2.6,2.6,2.6c1.5,0,2.6-1.2,2.6-2.6c0-1.5-1.2-2.6-2.6-2.6C613.1,162.4,612,163.5,612,165z
			"/>
		<path class="st0" d="M706.6,196.5c0,1.5,1.2,2.6,2.6,2.6c1.5,0,2.6-1.2,2.6-2.6c0-1.5-1.2-2.6-2.6-2.6
			C707.8,193.9,706.6,195.1,706.6,196.5z"/>
		<circle class="st0" cx="677.7" cy="196.5" r="2.6"/>
		<path class="st0" d="M643.5,196.5c0,1.5,1.2,2.6,2.6,2.6c1.5,0,2.6-1.2,2.6-2.6c0-1.5-1.2-2.6-2.6-2.6
			C644.7,193.9,643.5,195.1,643.5,196.5z"/>
		<circle class="st0" cx="614.6" cy="196.5" r="2.6"/>
		<path class="st0" d="M706.6,228.1c0,1.5,1.2,2.6,2.6,2.6c1.5,0,2.6-1.2,2.6-2.6c0-1.5-1.2-2.6-2.6-2.6
			C707.8,225.5,706.6,226.7,706.6,228.1z"/>
		<path class="st0" d="M675.1,228.1c0,1.5,1.2,2.6,2.6,2.6c1.5,0,2.6-1.2,2.6-2.6c0-1.5-1.2-2.6-2.6-2.6
			C676.2,225.5,675.1,226.7,675.1,228.1z"/>
		<path class="st0" d="M643.5,228.1c0,1.5,1.2,2.6,2.6,2.6c1.5,0,2.6-1.2,2.6-2.6c0-1.5-1.2-2.6-2.6-2.6
			C644.7,225.5,643.5,226.7,643.5,228.1z"/>
		<path class="st0" d="M612,228.1c0,1.5,1.2,2.6,2.6,2.6c1.5,0,2.6-1.2,2.6-2.6c0-1.5-1.2-2.6-2.6-2.6
			C613.1,225.5,612,226.7,612,228.1z"/>
		<path class="st0" d="M706.6,259.7c0,1.5,1.2,2.6,2.6,2.6c1.5,0,2.6-1.2,2.6-2.6c0-1.5-1.2-2.6-2.6-2.6
			C707.8,257,706.6,258.2,706.6,259.7z"/>
		<circle class="st0" cx="677.7" cy="259.7" r="2.6"/>
		<path class="st0" d="M643.5,259.7c0,1.5,1.2,2.6,2.6,2.6c1.5,0,2.6-1.2,2.6-2.6c0-1.5-1.2-2.6-2.6-2.6
			C644.7,257,643.5,258.2,643.5,259.7z"/>
		<circle class="st0" cx="614.6" cy="259.7" r="2.6"/>
		<path class="st0" d="M706.6,291.2c0,1.5,1.2,2.6,2.6,2.6c1.5,0,2.6-1.2,2.6-2.6c0-1.5-1.2-2.6-2.6-2.6
			C707.8,288.6,706.6,289.8,706.6,291.2z"/>
		<path class="st0" d="M675.1,291.2c0,1.5,1.2,2.6,2.6,2.6c1.5,0,2.6-1.2,2.6-2.6c0-1.5-1.2-2.6-2.6-2.6
			C676.2,288.6,675.1,289.8,675.1,291.2z"/>
		<path class="st0" d="M643.5,291.2c0,1.5,1.2,2.6,2.6,2.6c1.5,0,2.6-1.2,2.6-2.6c0-1.5-1.2-2.6-2.6-2.6
			C644.7,288.6,643.5,289.8,643.5,291.2z"/>
		<path class="st0" d="M612,291.2c0,1.5,1.2,2.6,2.6,2.6c1.5,0,2.6-1.2,2.6-2.6c0-1.5-1.2-2.6-2.6-2.6
			C613.1,288.6,612,289.8,612,291.2z"/>
		<path class="st0" d="M706.6,322.8c0,1.5,1.2,2.6,2.6,2.6c1.5,0,2.6-1.2,2.6-2.6c0-1.5-1.2-2.6-2.6-2.6
			C707.8,320.2,706.6,321.3,706.6,322.8z"/>
		<circle class="st0" cx="677.7" cy="322.8" r="2.6"/>
		<path class="st0" d="M643.5,322.8c0,1.5,1.2,2.6,2.6,2.6c1.5,0,2.6-1.2,2.6-2.6c0-1.5-1.2-2.6-2.6-2.6
			C644.7,320.2,643.5,321.3,643.5,322.8z"/>
		<circle class="st0" cx="614.6" cy="322.8" r="2.6"/>
		<path class="st0" d="M706.6,354.4c0,1.5,1.2,2.6,2.6,2.6c1.5,0,2.6-1.2,2.6-2.6c0-1.5-1.2-2.6-2.6-2.6
			C707.8,351.7,706.6,352.9,706.6,354.4z"/>
		<circle class="st0" cx="677.7" cy="354.4" r="2.6"/>
		<path class="st0" d="M643.5,354.4c0,1.5,1.2,2.6,2.6,2.6c1.5,0,2.6-1.2,2.6-2.6c0-1.5-1.2-2.6-2.6-2.6
			C644.7,351.7,643.5,352.9,643.5,354.4z"/>
		<circle class="st0" cx="614.6" cy="354.4" r="2.6"/>
		<path class="st0" d="M706.6,385.9c0,1.5,1.2,2.6,2.6,2.6c1.5,0,2.6-1.2,2.6-2.6c0-1.5-1.2-2.6-2.6-2.6
			C707.8,383.3,706.6,384.5,706.6,385.9z"/>
		<circle class="st0" cx="677.7" cy="385.9" r="2.6"/>
		<path class="st0" d="M643.5,385.9c0,1.5,1.2,2.6,2.6,2.6c1.5,0,2.6-1.2,2.6-2.6c0-1.5-1.2-2.6-2.6-2.6
			C644.7,383.3,643.5,384.5,643.5,385.9z"/>
		<circle class="st0" cx="614.6" cy="385.9" r="2.6"/>
		<path class="st0" d="M706.6,417.5c0,1.5,1.2,2.6,2.6,2.6c1.5,0,2.6-1.2,2.6-2.6c0-1.5-1.2-2.6-2.6-2.6
			C707.8,414.8,706.6,416,706.6,417.5z"/>
		<circle class="st0" cx="677.7" cy="417.5" r="2.6"/>
		<path class="st0" d="M643.5,417.5c0,1.5,1.2,2.6,2.6,2.6c1.5,0,2.6-1.2,2.6-2.6c0-1.5-1.2-2.6-2.6-2.6
			C644.7,414.8,643.5,416,643.5,417.5z"/>
		<circle class="st0" cx="614.6" cy="417.5" r="2.6"/>
		<path class="st0" d="M832.9,70.3c0,1.5,1.2,2.6,2.6,2.6c1.5,0,2.6-1.2,2.6-2.6c0-1.5-1.2-2.6-2.6-2.6
			C834.1,67.7,832.9,68.9,832.9,70.3z"/>
		<path class="st0" d="M801.3,70.3c0,1.5,1.2,2.6,2.6,2.6c1.5,0,2.6-1.2,2.6-2.6c0-1.5-1.2-2.6-2.6-2.6
			C802.5,67.7,801.3,68.9,801.3,70.3z"/>
		<path class="st0" d="M769.8,70.3c0,1.5,1.2,2.6,2.6,2.6c1.5,0,2.6-1.2,2.6-2.6c0-1.5-1.2-2.6-2.6-2.6
			C770.9,67.7,769.8,68.9,769.8,70.3z"/>
		<path class="st0" d="M738.2,70.3c0,1.5,1.2,2.6,2.6,2.6c1.5,0,2.6-1.2,2.6-2.6c0-1.5-1.2-2.6-2.6-2.6
			C739.4,67.7,738.2,68.9,738.2,70.3z"/>
		<path class="st0" d="M832.9,101.9c0,1.5,1.2,2.6,2.6,2.6c1.5,0,2.6-1.2,2.6-2.6c0-1.5-1.2-2.6-2.6-2.6
			C834.1,99.2,832.9,100.4,832.9,101.9z"/>
		<path class="st0" d="M801.3,101.9c0,1.5,1.2,2.6,2.6,2.6c1.5,0,2.6-1.2,2.6-2.6c0-1.5-1.2-2.6-2.6-2.6
			C802.5,99.2,801.3,100.4,801.3,101.9z"/>
		<path class="st0" d="M769.8,101.9c0,1.5,1.2,2.6,2.6,2.6c1.5,0,2.6-1.2,2.6-2.6c0-1.5-1.2-2.6-2.6-2.6
			C770.9,99.2,769.8,100.4,769.8,101.9z"/>
		<path class="st0" d="M738.2,101.9c0,1.5,1.2,2.6,2.6,2.6c1.5,0,2.6-1.2,2.6-2.6c0-1.5-1.2-2.6-2.6-2.6
			C739.4,99.2,738.2,100.4,738.2,101.9z"/>
		<path class="st0" d="M832.9,133.4c0,1.5,1.2,2.6,2.6,2.6c1.5,0,2.6-1.2,2.6-2.6c0-1.5-1.2-2.6-2.6-2.6
			C834.1,130.8,832.9,132,832.9,133.4z"/>
		<path class="st0" d="M801.3,133.4c0,1.5,1.2,2.6,2.6,2.6c1.5,0,2.6-1.2,2.6-2.6c0-1.5-1.2-2.6-2.6-2.6
			C802.5,130.8,801.3,132,801.3,133.4z"/>
		<path class="st0" d="M769.8,133.4c0,1.5,1.2,2.6,2.6,2.6c1.5,0,2.6-1.2,2.6-2.6c0-1.5-1.2-2.6-2.6-2.6
			C770.9,130.8,769.8,132,769.8,133.4z"/>
		<path class="st0" d="M738.2,133.4c0,1.5,1.2,2.6,2.6,2.6c1.5,0,2.6-1.2,2.6-2.6c0-1.5-1.2-2.6-2.6-2.6
			C739.4,130.8,738.2,132,738.2,133.4z"/>
		<path class="st0" d="M832.9,165c0,1.5,1.2,2.6,2.6,2.6c1.5,0,2.6-1.2,2.6-2.6c0-1.5-1.2-2.6-2.6-2.6
			C834.1,162.4,832.9,163.5,832.9,165z"/>
		<path class="st0" d="M801.3,165c0,1.5,1.2,2.6,2.6,2.6c1.5,0,2.6-1.2,2.6-2.6c0-1.5-1.2-2.6-2.6-2.6
			C802.5,162.4,801.3,163.5,801.3,165z"/>
		<path class="st0" d="M769.8,165c0,1.5,1.2,2.6,2.6,2.6c1.5,0,2.6-1.2,2.6-2.6c0-1.5-1.2-2.6-2.6-2.6
			C770.9,162.4,769.8,163.5,769.8,165z"/>
		<path class="st0" d="M738.2,165c0,1.5,1.2,2.6,2.6,2.6c1.5,0,2.6-1.2,2.6-2.6c0-1.5-1.2-2.6-2.6-2.6
			C739.4,162.4,738.2,163.5,738.2,165z"/>
		<path class="st0" d="M832.9,196.5c0,1.5,1.2,2.6,2.6,2.6c1.5,0,2.6-1.2,2.6-2.6c0-1.5-1.2-2.6-2.6-2.6
			C834.1,193.9,832.9,195.1,832.9,196.5z"/>
		<path class="st0" d="M801.3,196.5c0,1.5,1.2,2.6,2.6,2.6c1.5,0,2.6-1.2,2.6-2.6c0-1.5-1.2-2.6-2.6-2.6
			C802.5,193.9,801.3,195.1,801.3,196.5z"/>
		<path class="st0" d="M769.8,196.5c0,1.5,1.2,2.6,2.6,2.6c1.5,0,2.6-1.2,2.6-2.6c0-1.5-1.2-2.6-2.6-2.6
			C770.9,193.9,769.8,195.1,769.8,196.5z"/>
		<path class="st0" d="M738.2,196.5c0,1.5,1.2,2.6,2.6,2.6c1.5,0,2.6-1.2,2.6-2.6c0-1.5-1.2-2.6-2.6-2.6
			C739.4,193.9,738.2,195.1,738.2,196.5z"/>
		<path class="st0" d="M832.9,228.1c0,1.5,1.2,2.6,2.6,2.6c1.5,0,2.6-1.2,2.6-2.6c0-1.5-1.2-2.6-2.6-2.6
			C834.1,225.5,832.9,226.7,832.9,228.1z"/>
		<path class="st0" d="M801.3,228.1c0,1.5,1.2,2.6,2.6,2.6c1.5,0,2.6-1.2,2.6-2.6c0-1.5-1.2-2.6-2.6-2.6
			C802.5,225.5,801.3,226.7,801.3,228.1z"/>
		<path class="st0" d="M769.8,228.1c0,1.5,1.2,2.6,2.6,2.6c1.5,0,2.6-1.2,2.6-2.6c0-1.5-1.2-2.6-2.6-2.6
			C770.9,225.5,769.8,226.7,769.8,228.1z"/>
		<path class="st0" d="M738.2,228.1c0,1.5,1.2,2.6,2.6,2.6c1.5,0,2.6-1.2,2.6-2.6c0-1.5-1.2-2.6-2.6-2.6
			C739.4,225.5,738.2,226.7,738.2,228.1z"/>
		<path class="st0" d="M832.9,259.7c0,1.5,1.2,2.6,2.6,2.6c1.5,0,2.6-1.2,2.6-2.6c0-1.5-1.2-2.6-2.6-2.6
			C834.1,257,832.9,258.2,832.9,259.7z"/>
		<path class="st0" d="M801.3,259.7c0,1.5,1.2,2.6,2.6,2.6c1.5,0,2.6-1.2,2.6-2.6c0-1.5-1.2-2.6-2.6-2.6
			C802.5,257,801.3,258.2,801.3,259.7z"/>
		<path class="st0" d="M769.8,259.7c0,1.5,1.2,2.6,2.6,2.6c1.5,0,2.6-1.2,2.6-2.6c0-1.5-1.2-2.6-2.6-2.6
			C770.9,257,769.8,258.2,769.8,259.7z"/>
		<path class="st0" d="M738.2,259.7c0,1.5,1.2,2.6,2.6,2.6c1.5,0,2.6-1.2,2.6-2.6c0-1.5-1.2-2.6-2.6-2.6
			C739.4,257,738.2,258.2,738.2,259.7z"/>
		<path class="st0" d="M832.9,291.2c0,1.5,1.2,2.6,2.6,2.6c1.5,0,2.6-1.2,2.6-2.6c0-1.5-1.2-2.6-2.6-2.6
			C834.1,288.6,832.9,289.8,832.9,291.2z"/>
		<path class="st0" d="M801.3,291.2c0,1.5,1.2,2.6,2.6,2.6c1.5,0,2.6-1.2,2.6-2.6c0-1.5-1.2-2.6-2.6-2.6
			C802.5,288.6,801.3,289.8,801.3,291.2z"/>
		<path class="st0" d="M769.8,291.2c0,1.5,1.2,2.6,2.6,2.6c1.5,0,2.6-1.2,2.6-2.6c0-1.5-1.2-2.6-2.6-2.6
			C770.9,288.6,769.8,289.8,769.8,291.2z"/>
		<path class="st0" d="M738.2,291.2c0,1.5,1.2,2.6,2.6,2.6c1.5,0,2.6-1.2,2.6-2.6c0-1.5-1.2-2.6-2.6-2.6
			C739.4,288.6,738.2,289.8,738.2,291.2z"/>
		<path class="st0" d="M832.9,322.8c0,1.5,1.2,2.6,2.6,2.6c1.5,0,2.6-1.2,2.6-2.6c0-1.5-1.2-2.6-2.6-2.6
			C834.1,320.2,832.9,321.3,832.9,322.8z"/>
		<path class="st0" d="M801.3,322.8c0,1.5,1.2,2.6,2.6,2.6c1.5,0,2.6-1.2,2.6-2.6c0-1.5-1.2-2.6-2.6-2.6
			C802.5,320.2,801.3,321.3,801.3,322.8z"/>
		<path class="st0" d="M769.8,322.8c0,1.5,1.2,2.6,2.6,2.6c1.5,0,2.6-1.2,2.6-2.6c0-1.5-1.2-2.6-2.6-2.6
			C770.9,320.2,769.8,321.3,769.8,322.8z"/>
		<path class="st0" d="M738.2,322.8c0,1.5,1.2,2.6,2.6,2.6c1.5,0,2.6-1.2,2.6-2.6c0-1.5-1.2-2.6-2.6-2.6
			C739.4,320.2,738.2,321.3,738.2,322.8z"/>
		<path class="st0" d="M832.9,354.4c0,1.5,1.2,2.6,2.6,2.6c1.5,0,2.6-1.2,2.6-2.6c0-1.5-1.2-2.6-2.6-2.6
			C834.1,351.7,832.9,352.9,832.9,354.4z"/>
		<path class="st0" d="M801.3,354.4c0,1.5,1.2,2.6,2.6,2.6c1.5,0,2.6-1.2,2.6-2.6c0-1.5-1.2-2.6-2.6-2.6
			C802.5,351.7,801.3,352.9,801.3,354.4z"/>
		<path class="st0" d="M769.8,354.4c0,1.5,1.2,2.6,2.6,2.6c1.5,0,2.6-1.2,2.6-2.6c0-1.5-1.2-2.6-2.6-2.6
			C770.9,351.7,769.8,352.9,769.8,354.4z"/>
		<path class="st0" d="M738.2,354.4c0,1.5,1.2,2.6,2.6,2.6c1.5,0,2.6-1.2,2.6-2.6c0-1.5-1.2-2.6-2.6-2.6
			C739.4,351.7,738.2,352.9,738.2,354.4z"/>
		<path class="st0" d="M832.9,385.9c0,1.5,1.2,2.6,2.6,2.6c1.5,0,2.6-1.2,2.6-2.6c0-1.5-1.2-2.6-2.6-2.6
			C834.1,383.3,832.9,384.5,832.9,385.9z"/>
		<path class="st0" d="M801.3,385.9c0,1.5,1.2,2.6,2.6,2.6c1.5,0,2.6-1.2,2.6-2.6c0-1.5-1.2-2.6-2.6-2.6
			C802.5,383.3,801.3,384.5,801.3,385.9z"/>
		<path class="st0" d="M769.8,385.9c0,1.5,1.2,2.6,2.6,2.6c1.5,0,2.6-1.2,2.6-2.6c0-1.5-1.2-2.6-2.6-2.6
			C770.9,383.3,769.8,384.5,769.8,385.9z"/>
		<path class="st0" d="M738.2,385.9c0,1.5,1.2,2.6,2.6,2.6c1.5,0,2.6-1.2,2.6-2.6c0-1.5-1.2-2.6-2.6-2.6
			C739.4,383.3,738.2,384.5,738.2,385.9z"/>
		<path class="st0" d="M832.9,417.5c0,1.5,1.2,2.6,2.6,2.6c1.5,0,2.6-1.2,2.6-2.6c0-1.5-1.2-2.6-2.6-2.6
			C834.1,414.8,832.9,416,832.9,417.5z"/>
		<path class="st0" d="M801.3,417.5c0,1.5,1.2,2.6,2.6,2.6c1.5,0,2.6-1.2,2.6-2.6c0-1.5-1.2-2.6-2.6-2.6
			C802.5,414.8,801.3,416,801.3,417.5z"/>
		<path class="st0" d="M769.8,417.5c0,1.5,1.2,2.6,2.6,2.6c1.5,0,2.6-1.2,2.6-2.6c0-1.5-1.2-2.6-2.6-2.6
			C770.9,414.8,769.8,416,769.8,417.5z"/>
		<path class="st0" d="M738.2,417.5c0,1.5,1.2,2.6,2.6,2.6c1.5,0,2.6-1.2,2.6-2.6c0-1.5-1.2-2.6-2.6-2.6
			C739.4,414.8,738.2,416,738.2,417.5z"/>
		<path class="st0" d="M959.1,70.3c0,1.5,1.2,2.6,2.6,2.6c1.5,0,2.6-1.2,2.6-2.6c0-1.5-1.2-2.6-2.6-2.6
			C960.3,67.7,959.1,68.9,959.1,70.3z"/>
		<path class="st0" d="M927.6,70.3c0,1.5,1.2,2.6,2.6,2.6c1.5,0,2.6-1.2,2.6-2.6c0-1.5-1.2-2.6-2.6-2.6
			C928.7,67.7,927.6,68.9,927.6,70.3z"/>
		<path class="st0" d="M896,70.3c0,1.5,1.2,2.6,2.6,2.6c1.5,0,2.6-1.2,2.6-2.6c0-1.5-1.2-2.6-2.6-2.6C897.2,67.7,896,68.9,896,70.3z
			"/>
		<path class="st0" d="M864.4,70.3c0,1.5,1.2,2.6,2.6,2.6c1.5,0,2.6-1.2,2.6-2.6c0-1.5-1.2-2.6-2.6-2.6
			C865.6,67.7,864.4,68.9,864.4,70.3z"/>
		<path class="st0" d="M959.1,101.9c0,1.5,1.2,2.6,2.6,2.6c1.5,0,2.6-1.2,2.6-2.6c0-1.5-1.2-2.6-2.6-2.6
			C960.3,99.2,959.1,100.4,959.1,101.9z"/>
		<path class="st0" d="M927.6,101.9c0,1.5,1.2,2.6,2.6,2.6c1.5,0,2.6-1.2,2.6-2.6c0-1.5-1.2-2.6-2.6-2.6
			C928.7,99.2,927.6,100.4,927.6,101.9z"/>
		<path class="st0" d="M896,101.9c0,1.5,1.2,2.6,2.6,2.6c1.5,0,2.6-1.2,2.6-2.6c0-1.5-1.2-2.6-2.6-2.6
			C897.2,99.2,896,100.4,896,101.9z"/>
		<path class="st0" d="M864.4,101.9c0,1.5,1.2,2.6,2.6,2.6c1.5,0,2.6-1.2,2.6-2.6c0-1.5-1.2-2.6-2.6-2.6
			C865.6,99.2,864.4,100.4,864.4,101.9z"/>
		<path class="st0" d="M959.1,133.4c0,1.5,1.2,2.6,2.6,2.6c1.5,0,2.6-1.2,2.6-2.6c0-1.5-1.2-2.6-2.6-2.6
			C960.3,130.8,959.1,132,959.1,133.4z"/>
		<path class="st0" d="M927.6,133.4c0,1.5,1.2,2.6,2.6,2.6c1.5,0,2.6-1.2,2.6-2.6c0-1.5-1.2-2.6-2.6-2.6
			C928.7,130.8,927.6,132,927.6,133.4z"/>
		<path class="st0" d="M896,133.4c0,1.5,1.2,2.6,2.6,2.6c1.5,0,2.6-1.2,2.6-2.6c0-1.5-1.2-2.6-2.6-2.6
			C897.2,130.8,896,132,896,133.4z"/>
		<path class="st0" d="M864.4,133.4c0,1.5,1.2,2.6,2.6,2.6c1.5,0,2.6-1.2,2.6-2.6c0-1.5-1.2-2.6-2.6-2.6
			C865.6,130.8,864.4,132,864.4,133.4z"/>
		<path class="st0" d="M959.1,165c0,1.5,1.2,2.6,2.6,2.6c1.5,0,2.6-1.2,2.6-2.6c0-1.5-1.2-2.6-2.6-2.6
			C960.3,162.4,959.1,163.5,959.1,165z"/>
		<path class="st0" d="M927.6,165c0,1.5,1.2,2.6,2.6,2.6c1.5,0,2.6-1.2,2.6-2.6c0-1.5-1.2-2.6-2.6-2.6
			C928.7,162.4,927.6,163.5,927.6,165z"/>
		<path class="st0" d="M896,165c0,1.5,1.2,2.6,2.6,2.6c1.5,0,2.6-1.2,2.6-2.6c0-1.5-1.2-2.6-2.6-2.6C897.2,162.4,896,163.5,896,165z
			"/>
		<path class="st0" d="M864.4,165c0,1.5,1.2,2.6,2.6,2.6c1.5,0,2.6-1.2,2.6-2.6c0-1.5-1.2-2.6-2.6-2.6
			C865.6,162.4,864.4,163.5,864.4,165z"/>
		<path class="st0" d="M959.1,196.5c0,1.5,1.2,2.6,2.6,2.6c1.5,0,2.6-1.2,2.6-2.6c0-1.5-1.2-2.6-2.6-2.6
			C960.3,193.9,959.1,195.1,959.1,196.5z"/>
		<path class="st0" d="M927.6,196.5c0,1.5,1.2,2.6,2.6,2.6c1.5,0,2.6-1.2,2.6-2.6c0-1.5-1.2-2.6-2.6-2.6
			C928.7,193.9,927.6,195.1,927.6,196.5z"/>
		<path class="st0" d="M896,196.5c0,1.5,1.2,2.6,2.6,2.6c1.5,0,2.6-1.2,2.6-2.6c0-1.5-1.2-2.6-2.6-2.6
			C897.2,193.9,896,195.1,896,196.5z"/>
		<path class="st0" d="M864.4,196.5c0,1.5,1.2,2.6,2.6,2.6c1.5,0,2.6-1.2,2.6-2.6c0-1.5-1.2-2.6-2.6-2.6
			C865.6,193.9,864.4,195.1,864.4,196.5z"/>
		<path class="st0" d="M959.1,228.1c0,1.5,1.2,2.6,2.6,2.6c1.5,0,2.6-1.2,2.6-2.6c0-1.5-1.2-2.6-2.6-2.6
			C960.3,225.5,959.1,226.7,959.1,228.1z"/>
		<path class="st0" d="M927.6,228.1c0,1.5,1.2,2.6,2.6,2.6c1.5,0,2.6-1.2,2.6-2.6c0-1.5-1.2-2.6-2.6-2.6
			C928.7,225.5,927.6,226.7,927.6,228.1z"/>
		<path class="st0" d="M896,228.1c0,1.5,1.2,2.6,2.6,2.6c1.5,0,2.6-1.2,2.6-2.6c0-1.5-1.2-2.6-2.6-2.6
			C897.2,225.5,896,226.7,896,228.1z"/>
		<path class="st0" d="M864.4,228.1c0,1.5,1.2,2.6,2.6,2.6c1.5,0,2.6-1.2,2.6-2.6c0-1.5-1.2-2.6-2.6-2.6
			C865.6,225.5,864.4,226.7,864.4,228.1z"/>
		<path class="st0" d="M959.1,259.7c0,1.5,1.2,2.6,2.6,2.6c1.5,0,2.6-1.2,2.6-2.6c0-1.5-1.2-2.6-2.6-2.6
			C960.3,257,959.1,258.2,959.1,259.7z"/>
		<path class="st0" d="M927.6,259.7c0,1.5,1.2,2.6,2.6,2.6c1.5,0,2.6-1.2,2.6-2.6c0-1.5-1.2-2.6-2.6-2.6
			C928.7,257,927.6,258.2,927.6,259.7z"/>
		<path class="st0" d="M896,259.7c0,1.5,1.2,2.6,2.6,2.6c1.5,0,2.6-1.2,2.6-2.6c0-1.5-1.2-2.6-2.6-2.6
			C897.2,257,896,258.2,896,259.7z"/>
		<path class="st0" d="M864.4,259.7c0,1.5,1.2,2.6,2.6,2.6c1.5,0,2.6-1.2,2.6-2.6c0-1.5-1.2-2.6-2.6-2.6
			C865.6,257,864.4,258.2,864.4,259.7z"/>
		<path class="st0" d="M959.1,291.2c0,1.5,1.2,2.6,2.6,2.6c1.5,0,2.6-1.2,2.6-2.6c0-1.5-1.2-2.6-2.6-2.6
			C960.3,288.6,959.1,289.8,959.1,291.2z"/>
		<path class="st0" d="M927.6,291.2c0,1.5,1.2,2.6,2.6,2.6c1.5,0,2.6-1.2,2.6-2.6c0-1.5-1.2-2.6-2.6-2.6
			C928.7,288.6,927.6,289.8,927.6,291.2z"/>
		<path class="st0" d="M896,291.2c0,1.5,1.2,2.6,2.6,2.6c1.5,0,2.6-1.2,2.6-2.6c0-1.5-1.2-2.6-2.6-2.6
			C897.2,288.6,896,289.8,896,291.2z"/>
		<path class="st0" d="M864.4,291.2c0,1.5,1.2,2.6,2.6,2.6c1.5,0,2.6-1.2,2.6-2.6c0-1.5-1.2-2.6-2.6-2.6
			C865.6,288.6,864.4,289.8,864.4,291.2z"/>
		<path class="st0" d="M959.1,322.8c0,1.5,1.2,2.6,2.6,2.6c1.5,0,2.6-1.2,2.6-2.6c0-1.5-1.2-2.6-2.6-2.6
			C960.3,320.2,959.1,321.3,959.1,322.8z"/>
		<path class="st0" d="M927.6,322.8c0,1.5,1.2,2.6,2.6,2.6c1.5,0,2.6-1.2,2.6-2.6c0-1.5-1.2-2.6-2.6-2.6
			C928.7,320.2,927.6,321.3,927.6,322.8z"/>
		<path class="st0" d="M896,322.8c0,1.5,1.2,2.6,2.6,2.6c1.5,0,2.6-1.2,2.6-2.6c0-1.5-1.2-2.6-2.6-2.6
			C897.2,320.2,896,321.3,896,322.8z"/>
		<path class="st0" d="M864.4,322.8c0,1.5,1.2,2.6,2.6,2.6c1.5,0,2.6-1.2,2.6-2.6c0-1.5-1.2-2.6-2.6-2.6
			C865.6,320.2,864.4,321.3,864.4,322.8z"/>
		<path class="st0" d="M959.1,354.4c0,1.5,1.2,2.6,2.6,2.6c1.5,0,2.6-1.2,2.6-2.6c0-1.5-1.2-2.6-2.6-2.6
			C960.3,351.7,959.1,352.9,959.1,354.4z"/>
		<path class="st0" d="M927.6,354.4c0,1.5,1.2,2.6,2.6,2.6c1.5,0,2.6-1.2,2.6-2.6c0-1.5-1.2-2.6-2.6-2.6
			C928.7,351.7,927.6,352.9,927.6,354.4z"/>
		<path class="st0" d="M896,354.4c0,1.5,1.2,2.6,2.6,2.6c1.5,0,2.6-1.2,2.6-2.6c0-1.5-1.2-2.6-2.6-2.6
			C897.2,351.7,896,352.9,896,354.4z"/>
		<path class="st0" d="M864.4,354.4c0,1.5,1.2,2.6,2.6,2.6c1.5,0,2.6-1.2,2.6-2.6c0-1.5-1.2-2.6-2.6-2.6
			C865.6,351.7,864.4,352.9,864.4,354.4z"/>
		<path class="st0" d="M959.1,385.9c0,1.5,1.2,2.6,2.6,2.6c1.5,0,2.6-1.2,2.6-2.6c0-1.5-1.2-2.6-2.6-2.6
			C960.3,383.3,959.1,384.5,959.1,385.9z"/>
		<path class="st0" d="M927.6,385.9c0,1.5,1.2,2.6,2.6,2.6c1.5,0,2.6-1.2,2.6-2.6c0-1.5-1.2-2.6-2.6-2.6
			C928.7,383.3,927.6,384.5,927.6,385.9z"/>
		<path class="st0" d="M896,385.9c0,1.5,1.2,2.6,2.6,2.6c1.5,0,2.6-1.2,2.6-2.6c0-1.5-1.2-2.6-2.6-2.6
			C897.2,383.3,896,384.5,896,385.9z"/>
		<path class="st0" d="M864.4,385.9c0,1.5,1.2,2.6,2.6,2.6c1.5,0,2.6-1.2,2.6-2.6c0-1.5-1.2-2.6-2.6-2.6
			C865.6,383.3,864.4,384.5,864.4,385.9z"/>
		<path class="st0" d="M959.1,417.5c0,1.5,1.2,2.6,2.6,2.6c1.5,0,2.6-1.2,2.6-2.6c0-1.5-1.2-2.6-2.6-2.6
			C960.3,414.8,959.1,416,959.1,417.5z"/>
		<path class="st0" d="M927.6,417.5c0,1.5,1.2,2.6,2.6,2.6c1.5,0,2.6-1.2,2.6-2.6c0-1.5-1.2-2.6-2.6-2.6
			C928.7,414.8,927.6,416,927.6,417.5z"/>
		<path class="st0" d="M896,417.5c0,1.5,1.2,2.6,2.6,2.6c1.5,0,2.6-1.2,2.6-2.6c0-1.5-1.2-2.6-2.6-2.6
			C897.2,414.8,896,416,896,417.5z"/>
		<path class="st0" d="M864.4,417.5c0,1.5,1.2,2.6,2.6,2.6c1.5,0,2.6-1.2,2.6-2.6c0-1.5-1.2-2.6-2.6-2.6
			C865.6,414.8,864.4,416,864.4,417.5z"/>
		<path class="st0" d="M1085.4,70.3c0,1.5,1.2,2.6,2.6,2.6s2.6-1.2,2.6-2.6c0-1.5-1.2-2.6-2.6-2.6S1085.4,68.9,1085.4,70.3z"/>
		<path class="st0" d="M1053.8,70.3c0,1.5,1.2,2.6,2.6,2.6c1.5,0,2.6-1.2,2.6-2.6c0-1.5-1.2-2.6-2.6-2.6
			C1055,67.7,1053.8,68.9,1053.8,70.3z"/>
		<path class="st0" d="M1022.2,70.3c0,1.5,1.2,2.6,2.6,2.6c1.5,0,2.6-1.2,2.6-2.6c0-1.5-1.2-2.6-2.6-2.6
			C1023.4,67.7,1022.2,68.9,1022.2,70.3z"/>
		<path class="st0" d="M990.7,70.3c0,1.5,1.2,2.6,2.6,2.6c1.5,0,2.6-1.2,2.6-2.6c0-1.5-1.2-2.6-2.6-2.6
			C991.9,67.7,990.7,68.9,990.7,70.3z"/>
		<path class="st0" d="M1085.4,101.9c0,1.5,1.2,2.6,2.6,2.6s2.6-1.2,2.6-2.6c0-1.5-1.2-2.6-2.6-2.6S1085.4,100.4,1085.4,101.9z"/>
		<path class="st0" d="M1053.8,101.9c0,1.5,1.2,2.6,2.6,2.6c1.5,0,2.6-1.2,2.6-2.6c0-1.5-1.2-2.6-2.6-2.6
			C1055,99.2,1053.8,100.4,1053.8,101.9z"/>
		<path class="st0" d="M1022.2,101.9c0,1.5,1.2,2.6,2.6,2.6c1.5,0,2.6-1.2,2.6-2.6c0-1.5-1.2-2.6-2.6-2.6
			C1023.4,99.2,1022.2,100.4,1022.2,101.9z"/>
		<path class="st0" d="M990.7,101.9c0,1.5,1.2,2.6,2.6,2.6c1.5,0,2.6-1.2,2.6-2.6c0-1.5-1.2-2.6-2.6-2.6
			C991.9,99.2,990.7,100.4,990.7,101.9z"/>
		<path class="st0" d="M1085.4,133.4c0,1.5,1.2,2.6,2.6,2.6s2.6-1.2,2.6-2.6c0-1.5-1.2-2.6-2.6-2.6S1085.4,132,1085.4,133.4z"/>
		<path class="st0" d="M1053.8,133.4c0,1.5,1.2,2.6,2.6,2.6c1.5,0,2.6-1.2,2.6-2.6c0-1.5-1.2-2.6-2.6-2.6
			C1055,130.8,1053.8,132,1053.8,133.4z"/>
		<path class="st0" d="M1022.2,133.4c0,1.5,1.2,2.6,2.6,2.6c1.5,0,2.6-1.2,2.6-2.6c0-1.5-1.2-2.6-2.6-2.6
			C1023.4,130.8,1022.2,132,1022.2,133.4z"/>
		<path class="st0" d="M990.7,133.4c0,1.5,1.2,2.6,2.6,2.6c1.5,0,2.6-1.2,2.6-2.6c0-1.5-1.2-2.6-2.6-2.6
			C991.9,130.8,990.7,132,990.7,133.4z"/>
		<path class="st0" d="M1085.4,165c0,1.5,1.2,2.6,2.6,2.6s2.6-1.2,2.6-2.6c0-1.5-1.2-2.6-2.6-2.6S1085.4,163.5,1085.4,165z"/>
		<path class="st0" d="M1053.8,165c0,1.5,1.2,2.6,2.6,2.6c1.5,0,2.6-1.2,2.6-2.6c0-1.5-1.2-2.6-2.6-2.6
			C1055,162.4,1053.8,163.5,1053.8,165z"/>
		<path class="st0" d="M1022.2,165c0,1.5,1.2,2.6,2.6,2.6c1.5,0,2.6-1.2,2.6-2.6c0-1.5-1.2-2.6-2.6-2.6
			C1023.4,162.4,1022.2,163.5,1022.2,165z"/>
		<path class="st0" d="M990.7,165c0,1.5,1.2,2.6,2.6,2.6c1.5,0,2.6-1.2,2.6-2.6c0-1.5-1.2-2.6-2.6-2.6
			C991.9,162.4,990.7,163.5,990.7,165z"/>
		<circle class="st0" cx="1088" cy="196.5" r="2.6"/>
		<path class="st0" d="M1053.8,196.5c0,1.5,1.2,2.6,2.6,2.6c1.5,0,2.6-1.2,2.6-2.6c0-1.5-1.2-2.6-2.6-2.6
			C1055,193.9,1053.8,195.1,1053.8,196.5z"/>
		<circle class="st0" cx="1024.9" cy="196.5" r="2.6"/>
		<path class="st0" d="M990.7,196.5c0,1.5,1.2,2.6,2.6,2.6c1.5,0,2.6-1.2,2.6-2.6c0-1.5-1.2-2.6-2.6-2.6
			C991.9,193.9,990.7,195.1,990.7,196.5z"/>
		<path class="st0" d="M1085.4,228.1c0,1.5,1.2,2.6,2.6,2.6s2.6-1.2,2.6-2.6c0-1.5-1.2-2.6-2.6-2.6S1085.4,226.7,1085.4,228.1z"/>
		<path class="st0" d="M1053.8,228.1c0,1.5,1.2,2.6,2.6,2.6c1.5,0,2.6-1.2,2.6-2.6c0-1.5-1.2-2.6-2.6-2.6
			C1055,225.5,1053.8,226.7,1053.8,228.1z"/>
		<path class="st0" d="M1022.2,228.1c0,1.5,1.2,2.6,2.6,2.6c1.5,0,2.6-1.2,2.6-2.6c0-1.5-1.2-2.6-2.6-2.6
			C1023.4,225.5,1022.2,226.7,1022.2,228.1z"/>
		<circle class="st0" cx="1088" cy="259.7" r="2.6"/>
		<path class="st0" d="M1053.8,259.7c0,1.5,1.2,2.6,2.6,2.6c1.5,0,2.6-1.2,2.6-2.6c0-1.5-1.2-2.6-2.6-2.6
			C1055,257,1053.8,258.2,1053.8,259.7z"/>
		<circle class="st0" cx="1024.9" cy="259.7" r="2.6"/>
		<path class="st0" d="M990.7,259.7c0,1.5,1.2,2.6,2.6,2.6c1.5,0,2.6-1.2,2.6-2.6c0-1.5-1.2-2.6-2.6-2.6
			C991.9,257,990.7,258.2,990.7,259.7z"/>
		<path class="st0" d="M1085.4,291.2c0,1.5,1.2,2.6,2.6,2.6s2.6-1.2,2.6-2.6c0-1.5-1.2-2.6-2.6-2.6S1085.4,289.8,1085.4,291.2z"/>
		<path class="st0" d="M1053.8,291.2c0,1.5,1.2,2.6,2.6,2.6c1.5,0,2.6-1.2,2.6-2.6c0-1.5-1.2-2.6-2.6-2.6
			C1055,288.6,1053.8,289.8,1053.8,291.2z"/>
		<path class="st0" d="M1022.2,291.2c0,1.5,1.2,2.6,2.6,2.6c1.5,0,2.6-1.2,2.6-2.6c0-1.5-1.2-2.6-2.6-2.6
			C1023.4,288.6,1022.2,289.8,1022.2,291.2z"/>
		<path class="st0" d="M990.7,291.2c0,1.5,1.2,2.6,2.6,2.6c1.5,0,2.6-1.2,2.6-2.6c0-1.5-1.2-2.6-2.6-2.6
			C991.9,288.6,990.7,289.8,990.7,291.2z"/>
		<circle class="st0" cx="1088" cy="322.8" r="2.6"/>
		<path class="st0" d="M1053.8,322.8c0,1.5,1.2,2.6,2.6,2.6c1.5,0,2.6-1.2,2.6-2.6c0-1.5-1.2-2.6-2.6-2.6
			C1055,320.2,1053.8,321.3,1053.8,322.8z"/>
		<circle class="st0" cx="1024.9" cy="322.8" r="2.6"/>
		<path class="st0" d="M990.7,322.8c0,1.5,1.2,2.6,2.6,2.6c1.5,0,2.6-1.2,2.6-2.6c0-1.5-1.2-2.6-2.6-2.6
			C991.9,320.2,990.7,321.3,990.7,322.8z"/>
		<circle class="st0" cx="1088" cy="354.4" r="2.6"/>
		<path class="st0" d="M1053.8,354.4c0,1.5,1.2,2.6,2.6,2.6c1.5,0,2.6-1.2,2.6-2.6c0-1.5-1.2-2.6-2.6-2.6
			C1055,351.7,1053.8,352.9,1053.8,354.4z"/>
		<circle class="st0" cx="1024.9" cy="354.4" r="2.6"/>
		<path class="st0" d="M990.7,354.4c0,1.5,1.2,2.6,2.6,2.6c1.5,0,2.6-1.2,2.6-2.6c0-1.5-1.2-2.6-2.6-2.6
			C991.9,351.7,990.7,352.9,990.7,354.4z"/>
		<circle class="st0" cx="1088" cy="385.9" r="2.6"/>
		<path class="st0" d="M1053.8,385.9c0,1.5,1.2,2.6,2.6,2.6c1.5,0,2.6-1.2,2.6-2.6c0-1.5-1.2-2.6-2.6-2.6
			C1055,383.3,1053.8,384.5,1053.8,385.9z"/>
		<circle class="st0" cx="1024.9" cy="385.9" r="2.6"/>
		<path class="st0" d="M990.7,385.9c0,1.5,1.2,2.6,2.6,2.6c1.5,0,2.6-1.2,2.6-2.6c0-1.5-1.2-2.6-2.6-2.6
			C991.9,383.3,990.7,384.5,990.7,385.9z"/>
		<circle class="st0" cx="1088" cy="417.5" r="2.6"/>
		<path class="st0" d="M1053.8,417.5c0,1.5,1.2,2.6,2.6,2.6c1.5,0,2.6-1.2,2.6-2.6c0-1.5-1.2-2.6-2.6-2.6
			C1055,414.8,1053.8,416,1053.8,417.5z"/>
		<circle class="st0" cx="1024.9" cy="417.5" r="2.6"/>
		<path class="st0" d="M990.7,417.5c0,1.5,1.2,2.6,2.6,2.6c1.5,0,2.6-1.2,2.6-2.6c0-1.5-1.2-2.6-2.6-2.6
			C991.9,414.8,990.7,416,990.7,417.5z"/>
		<path class="st0" d="M1211.6,70.3c0,1.5,1.2,2.6,2.6,2.6c1.5,0,2.6-1.2,2.6-2.6c0-1.5-1.2-2.6-2.6-2.6
			C1212.8,67.7,1211.6,68.9,1211.6,70.3z"/>
		<path class="st0" d="M1180,70.3c0,1.5,1.2,2.6,2.6,2.6c1.5,0,2.6-1.2,2.6-2.6c0-1.5-1.2-2.6-2.6-2.6
			C1181.2,67.7,1180,68.9,1180,70.3z"/>
		<path class="st0" d="M1148.5,70.3c0,1.5,1.2,2.6,2.6,2.6c1.5,0,2.6-1.2,2.6-2.6c0-1.5-1.2-2.6-2.6-2.6
			C1149.7,67.7,1148.5,68.9,1148.5,70.3z"/>
		<path class="st0" d="M1116.9,70.3c0,1.5,1.2,2.6,2.6,2.6c1.5,0,2.6-1.2,2.6-2.6c0-1.5-1.2-2.6-2.6-2.6
			C1118.1,67.7,1116.9,68.9,1116.9,70.3z"/>
		<path class="st0" d="M1211.6,101.9c0,1.5,1.2,2.6,2.6,2.6c1.5,0,2.6-1.2,2.6-2.6c0-1.5-1.2-2.6-2.6-2.6
			C1212.8,99.2,1211.6,100.4,1211.6,101.9z"/>
		<path class="st0" d="M1180,101.9c0,1.5,1.2,2.6,2.6,2.6c1.5,0,2.6-1.2,2.6-2.6c0-1.5-1.2-2.6-2.6-2.6
			C1181.2,99.2,1180,100.4,1180,101.9z"/>
		<path class="st0" d="M1148.5,101.9c0,1.5,1.2,2.6,2.6,2.6c1.5,0,2.6-1.2,2.6-2.6c0-1.5-1.2-2.6-2.6-2.6
			C1149.7,99.2,1148.5,100.4,1148.5,101.9z"/>
		<path class="st0" d="M1116.9,101.9c0,1.5,1.2,2.6,2.6,2.6c1.5,0,2.6-1.2,2.6-2.6c0-1.5-1.2-2.6-2.6-2.6
			C1118.1,99.2,1116.9,100.4,1116.9,101.9z"/>
		<path class="st0" d="M1211.6,133.4c0,1.5,1.2,2.6,2.6,2.6c1.5,0,2.6-1.2,2.6-2.6c0-1.5-1.2-2.6-2.6-2.6
			C1212.8,130.8,1211.6,132,1211.6,133.4z"/>
		<path class="st0" d="M1180,133.4c0,1.5,1.2,2.6,2.6,2.6c1.5,0,2.6-1.2,2.6-2.6c0-1.5-1.2-2.6-2.6-2.6
			C1181.2,130.8,1180,132,1180,133.4z"/>
		<path class="st0" d="M1148.5,133.4c0,1.5,1.2,2.6,2.6,2.6c1.5,0,2.6-1.2,2.6-2.6c0-1.5-1.2-2.6-2.6-2.6
			C1149.7,130.8,1148.5,132,1148.5,133.4z"/>
		<path class="st0" d="M1116.9,133.4c0,1.5,1.2,2.6,2.6,2.6c1.5,0,2.6-1.2,2.6-2.6c0-1.5-1.2-2.6-2.6-2.6
			C1118.1,130.8,1116.9,132,1116.9,133.4z"/>
		<path class="st0" d="M1211.6,165c0,1.5,1.2,2.6,2.6,2.6c1.5,0,2.6-1.2,2.6-2.6c0-1.5-1.2-2.6-2.6-2.6
			C1212.8,162.4,1211.6,163.5,1211.6,165z"/>
		<path class="st0" d="M1180,165c0,1.5,1.2,2.6,2.6,2.6c1.5,0,2.6-1.2,2.6-2.6c0-1.5-1.2-2.6-2.6-2.6
			C1181.2,162.4,1180,163.5,1180,165z"/>
		<path class="st0" d="M1148.5,165c0,1.5,1.2,2.6,2.6,2.6c1.5,0,2.6-1.2,2.6-2.6c0-1.5-1.2-2.6-2.6-2.6
			C1149.7,162.4,1148.5,163.5,1148.5,165z"/>
		<path class="st0" d="M1116.9,165c0,1.5,1.2,2.6,2.6,2.6c1.5,0,2.6-1.2,2.6-2.6c0-1.5-1.2-2.6-2.6-2.6
			C1118.1,162.4,1116.9,163.5,1116.9,165z"/>
		<circle class="st0" cx="1214.2" cy="196.5" r="2.6"/>
		<path class="st0" d="M1180,196.5c0,1.5,1.2,2.6,2.6,2.6c1.5,0,2.6-1.2,2.6-2.6c0-1.5-1.2-2.6-2.6-2.6
			C1181.2,193.9,1180,195.1,1180,196.5z"/>
		<circle class="st0" cx="1151.1" cy="196.5" r="2.6"/>
		<path class="st0" d="M1116.9,196.5c0,1.5,1.2,2.6,2.6,2.6c1.5,0,2.6-1.2,2.6-2.6c0-1.5-1.2-2.6-2.6-2.6
			C1118.1,193.9,1116.9,195.1,1116.9,196.5z"/>
		<path class="st0" d="M1211.6,228.1c0,1.5,1.2,2.6,2.6,2.6c1.5,0,2.6-1.2,2.6-2.6c0-1.5-1.2-2.6-2.6-2.6
			C1212.8,225.5,1211.6,226.7,1211.6,228.1z"/>
		<path class="st0" d="M1180,228.1c0,1.5,1.2,2.6,2.6,2.6c1.5,0,2.6-1.2,2.6-2.6c0-1.5-1.2-2.6-2.6-2.6
			C1181.2,225.5,1180,226.7,1180,228.1z"/>
		<path class="st0" d="M1148.5,228.1c0,1.5,1.2,2.6,2.6,2.6c1.5,0,2.6-1.2,2.6-2.6c0-1.5-1.2-2.6-2.6-2.6
			C1149.7,225.5,1148.5,226.7,1148.5,228.1z"/>
		<path class="st0" d="M1116.9,228.1c0,1.5,1.2,2.6,2.6,2.6c1.5,0,2.6-1.2,2.6-2.6c0-1.5-1.2-2.6-2.6-2.6
			C1118.1,225.5,1116.9,226.7,1116.9,228.1z"/>
		<circle class="st0" cx="1214.2" cy="259.7" r="2.6"/>
		<path class="st0" d="M1180,259.7c0,1.5,1.2,2.6,2.6,2.6c1.5,0,2.6-1.2,2.6-2.6c0-1.5-1.2-2.6-2.6-2.6
			C1181.2,257,1180,258.2,1180,259.7z"/>
		<circle class="st0" cx="1151.1" cy="259.7" r="2.6"/>
		<path class="st0" d="M1116.9,259.7c0,1.5,1.2,2.6,2.6,2.6c1.5,0,2.6-1.2,2.6-2.6c0-1.5-1.2-2.6-2.6-2.6
			C1118.1,257,1116.9,258.2,1116.9,259.7z"/>
		<path class="st0" d="M1211.6,291.2c0,1.5,1.2,2.6,2.6,2.6c1.5,0,2.6-1.2,2.6-2.6c0-1.5-1.2-2.6-2.6-2.6
			C1212.8,288.6,1211.6,289.8,1211.6,291.2z"/>
		<path class="st0" d="M1180,291.2c0,1.5,1.2,2.6,2.6,2.6c1.5,0,2.6-1.2,2.6-2.6c0-1.5-1.2-2.6-2.6-2.6
			C1181.2,288.6,1180,289.8,1180,291.2z"/>
		<path class="st0" d="M1148.5,291.2c0,1.5,1.2,2.6,2.6,2.6c1.5,0,2.6-1.2,2.6-2.6c0-1.5-1.2-2.6-2.6-2.6
			C1149.7,288.6,1148.5,289.8,1148.5,291.2z"/>
		<path class="st0" d="M1116.9,291.2c0,1.5,1.2,2.6,2.6,2.6c1.5,0,2.6-1.2,2.6-2.6c0-1.5-1.2-2.6-2.6-2.6
			C1118.1,288.6,1116.9,289.8,1116.9,291.2z"/>
		<circle class="st0" cx="1214.2" cy="322.8" r="2.6"/>
		<path class="st0" d="M1180,322.8c0,1.5,1.2,2.6,2.6,2.6c1.5,0,2.6-1.2,2.6-2.6c0-1.5-1.2-2.6-2.6-2.6
			C1181.2,320.2,1180,321.3,1180,322.8z"/>
		<circle class="st0" cx="1151.1" cy="322.8" r="2.6"/>
		<path class="st0" d="M1116.9,322.8c0,1.5,1.2,2.6,2.6,2.6c1.5,0,2.6-1.2,2.6-2.6c0-1.5-1.2-2.6-2.6-2.6
			C1118.1,320.2,1116.9,321.3,1116.9,322.8z"/>
		<circle class="st0" cx="1214.2" cy="354.4" r="2.6"/>
		<path class="st0" d="M1180,354.4c0,1.5,1.2,2.6,2.6,2.6c1.5,0,2.6-1.2,2.6-2.6c0-1.5-1.2-2.6-2.6-2.6
			C1181.2,351.7,1180,352.9,1180,354.4z"/>
		<circle class="st0" cx="1151.1" cy="354.4" r="2.6"/>
		<path class="st0" d="M1116.9,354.4c0,1.5,1.2,2.6,2.6,2.6c1.5,0,2.6-1.2,2.6-2.6c0-1.5-1.2-2.6-2.6-2.6
			C1118.1,351.7,1116.9,352.9,1116.9,354.4z"/>
		<circle class="st0" cx="1214.2" cy="385.9" r="2.6"/>
		<path class="st0" d="M1180,385.9c0,1.5,1.2,2.6,2.6,2.6c1.5,0,2.6-1.2,2.6-2.6c0-1.5-1.2-2.6-2.6-2.6
			C1181.2,383.3,1180,384.5,1180,385.9z"/>
		<circle class="st0" cx="1151.1" cy="385.9" r="2.6"/>
		<path class="st0" d="M1116.9,385.9c0,1.5,1.2,2.6,2.6,2.6c1.5,0,2.6-1.2,2.6-2.6c0-1.5-1.2-2.6-2.6-2.6
			C1118.1,383.3,1116.9,384.5,1116.9,385.9z"/>
		<circle class="st0" cx="1214.2" cy="417.5" r="2.6"/>
		<path class="st0" d="M1180,417.5c0,1.5,1.2,2.6,2.6,2.6c1.5,0,2.6-1.2,2.6-2.6c0-1.5-1.2-2.6-2.6-2.6
			C1181.2,414.8,1180,416,1180,417.5z"/>
		<circle class="st0" cx="1151.1" cy="417.5" r="2.6"/>
		<path class="st0" d="M1116.9,417.5c0,1.5,1.2,2.6,2.6,2.6c1.5,0,2.6-1.2,2.6-2.6c0-1.5-1.2-2.6-2.6-2.6
			C1118.1,414.8,1116.9,416,1116.9,417.5z"/>
		<path class="st0" d="M1337.8,70.3c0,1.5,1.2,2.6,2.6,2.6c1.5,0,2.6-1.2,2.6-2.6c0-1.5-1.2-2.6-2.6-2.6
			C1339,67.7,1337.8,68.9,1337.8,70.3z"/>
		<path class="st0" d="M1306.3,70.3c0,1.5,1.2,2.6,2.6,2.6c1.5,0,2.6-1.2,2.6-2.6c0-1.5-1.2-2.6-2.6-2.6
			C1307.5,67.7,1306.3,68.9,1306.3,70.3z"/>
		<path class="st0" d="M1274.7,70.3c0,1.5,1.2,2.6,2.6,2.6c1.5,0,2.6-1.2,2.6-2.6c0-1.5-1.2-2.6-2.6-2.6
			C1275.9,67.7,1274.7,68.9,1274.7,70.3z"/>
		<path class="st0" d="M1243.2,70.3c0,1.5,1.2,2.6,2.6,2.6c1.5,0,2.6-1.2,2.6-2.6c0-1.5-1.2-2.6-2.6-2.6
			C1244.3,67.7,1243.2,68.9,1243.2,70.3z"/>
		<path class="st0" d="M1337.8,101.9c0,1.5,1.2,2.6,2.6,2.6c1.5,0,2.6-1.2,2.6-2.6c0-1.5-1.2-2.6-2.6-2.6
			C1339,99.2,1337.8,100.4,1337.8,101.9z"/>
		<path class="st0" d="M1306.3,101.9c0,1.5,1.2,2.6,2.6,2.6c1.5,0,2.6-1.2,2.6-2.6c0-1.5-1.2-2.6-2.6-2.6
			C1307.5,99.2,1306.3,100.4,1306.3,101.9z"/>
		<path class="st0" d="M1274.7,101.9c0,1.5,1.2,2.6,2.6,2.6c1.5,0,2.6-1.2,2.6-2.6c0-1.5-1.2-2.6-2.6-2.6
			C1275.9,99.2,1274.7,100.4,1274.7,101.9z"/>
		<path class="st0" d="M1243.2,101.9c0,1.5,1.2,2.6,2.6,2.6c1.5,0,2.6-1.2,2.6-2.6c0-1.5-1.2-2.6-2.6-2.6
			C1244.3,99.2,1243.2,100.4,1243.2,101.9z"/>
		<path class="st0" d="M1337.8,133.4c0,1.5,1.2,2.6,2.6,2.6c1.5,0,2.6-1.2,2.6-2.6c0-1.5-1.2-2.6-2.6-2.6
			C1339,130.8,1337.8,132,1337.8,133.4z"/>
		<path class="st0" d="M1306.3,133.4c0,1.5,1.2,2.6,2.6,2.6c1.5,0,2.6-1.2,2.6-2.6c0-1.5-1.2-2.6-2.6-2.6
			C1307.5,130.8,1306.3,132,1306.3,133.4z"/>
		<path class="st0" d="M1274.7,133.4c0,1.5,1.2,2.6,2.6,2.6c1.5,0,2.6-1.2,2.6-2.6c0-1.5-1.2-2.6-2.6-2.6
			C1275.9,130.8,1274.7,132,1274.7,133.4z"/>
		<path class="st0" d="M1243.2,133.4c0,1.5,1.2,2.6,2.6,2.6c1.5,0,2.6-1.2,2.6-2.6c0-1.5-1.2-2.6-2.6-2.6
			C1244.3,130.8,1243.2,132,1243.2,133.4z"/>
		<path class="st0" d="M1337.8,165c0,1.5,1.2,2.6,2.6,2.6c1.5,0,2.6-1.2,2.6-2.6c0-1.5-1.2-2.6-2.6-2.6
			C1339,162.4,1337.8,163.5,1337.8,165z"/>
		<path class="st0" d="M1306.3,165c0,1.5,1.2,2.6,2.6,2.6c1.5,0,2.6-1.2,2.6-2.6c0-1.5-1.2-2.6-2.6-2.6
			C1307.5,162.4,1306.3,163.5,1306.3,165z"/>
		<path class="st0" d="M1274.7,165c0,1.5,1.2,2.6,2.6,2.6c1.5,0,2.6-1.2,2.6-2.6c0-1.5-1.2-2.6-2.6-2.6
			C1275.9,162.4,1274.7,163.5,1274.7,165z"/>
		<path class="st0" d="M1243.2,165c0,1.5,1.2,2.6,2.6,2.6c1.5,0,2.6-1.2,2.6-2.6c0-1.5-1.2-2.6-2.6-2.6
			C1244.3,162.4,1243.2,163.5,1243.2,165z"/>
		<circle class="st0" cx="1340.5" cy="196.5" r="2.6"/>
		<path class="st0" d="M1306.3,196.5c0,1.5,1.2,2.6,2.6,2.6c1.5,0,2.6-1.2,2.6-2.6c0-1.5-1.2-2.6-2.6-2.6
			C1307.5,193.9,1306.3,195.1,1306.3,196.5z"/>
		<circle class="st0" cx="1277.4" cy="196.5" r="2.6"/>
		<circle class="st0" cx="1245.8" cy="196.5" r="2.6"/>
		<path class="st0" d="M1337.8,228.1c0,1.5,1.2,2.6,2.6,2.6c1.5,0,2.6-1.2,2.6-2.6c0-1.5-1.2-2.6-2.6-2.6
			C1339,225.5,1337.8,226.7,1337.8,228.1z"/>
		<path class="st0" d="M1306.3,228.1c0,1.5,1.2,2.6,2.6,2.6c1.5,0,2.6-1.2,2.6-2.6c0-1.5-1.2-2.6-2.6-2.6
			C1307.5,225.5,1306.3,226.7,1306.3,228.1z"/>
		<path class="st0" d="M1274.7,228.1c0,1.5,1.2,2.6,2.6,2.6c1.5,0,2.6-1.2,2.6-2.6c0-1.5-1.2-2.6-2.6-2.6
			C1275.9,225.5,1274.7,226.7,1274.7,228.1z"/>
		<path class="st0" d="M1243.2,228.1c0,1.5,1.2,2.6,2.6,2.6c1.5,0,2.6-1.2,2.6-2.6c0-1.5-1.2-2.6-2.6-2.6
			C1244.3,225.5,1243.2,226.7,1243.2,228.1z"/>
		<circle class="st0" cx="1340.5" cy="259.7" r="2.6"/>
		<path class="st0" d="M1306.3,259.7c0,1.5,1.2,2.6,2.6,2.6c1.5,0,2.6-1.2,2.6-2.6c0-1.5-1.2-2.6-2.6-2.6
			C1307.5,257,1306.3,258.2,1306.3,259.7z"/>
		<circle class="st0" cx="1277.4" cy="259.7" r="2.6"/>
		<circle class="st0" cx="1245.8" cy="259.7" r="2.6"/>
		<path class="st0" d="M1337.8,291.2c0,1.5,1.2,2.6,2.6,2.6c1.5,0,2.6-1.2,2.6-2.6c0-1.5-1.2-2.6-2.6-2.6
			C1339,288.6,1337.8,289.8,1337.8,291.2z"/>
		<path class="st0" d="M1306.3,291.2c0,1.5,1.2,2.6,2.6,2.6c1.5,0,2.6-1.2,2.6-2.6c0-1.5-1.2-2.6-2.6-2.6
			C1307.5,288.6,1306.3,289.8,1306.3,291.2z"/>
		<path class="st0" d="M1274.7,291.2c0,1.5,1.2,2.6,2.6,2.6c1.5,0,2.6-1.2,2.6-2.6c0-1.5-1.2-2.6-2.6-2.6
			C1275.9,288.6,1274.7,289.8,1274.7,291.2z"/>
		<path class="st0" d="M1243.2,291.2c0,1.5,1.2,2.6,2.6,2.6c1.5,0,2.6-1.2,2.6-2.6c0-1.5-1.2-2.6-2.6-2.6
			C1244.3,288.6,1243.2,289.8,1243.2,291.2z"/>
		<circle class="st0" cx="1340.5" cy="322.8" r="2.6"/>
		<path class="st0" d="M1306.3,322.8c0,1.5,1.2,2.6,2.6,2.6c1.5,0,2.6-1.2,2.6-2.6c0-1.5-1.2-2.6-2.6-2.6
			C1307.5,320.2,1306.3,321.3,1306.3,322.8z"/>
		<circle class="st0" cx="1277.4" cy="322.8" r="2.6"/>
		<circle class="st0" cx="1245.8" cy="322.8" r="2.6"/>
		<circle class="st0" cx="1340.5" cy="354.4" r="2.6"/>
		<path class="st0" d="M1306.3,354.4c0,1.5,1.2,2.6,2.6,2.6c1.5,0,2.6-1.2,2.6-2.6c0-1.5-1.2-2.6-2.6-2.6
			C1307.5,351.7,1306.3,352.9,1306.3,354.4z"/>
		<circle class="st0" cx="1277.4" cy="354.4" r="2.6"/>
		<circle class="st0" cx="1245.8" cy="354.4" r="2.6"/>
		<circle class="st0" cx="1340.5" cy="385.9" r="2.6"/>
		<path class="st0" d="M1306.3,385.9c0,1.5,1.2,2.6,2.6,2.6c1.5,0,2.6-1.2,2.6-2.6c0-1.5-1.2-2.6-2.6-2.6
			C1307.5,383.3,1306.3,384.5,1306.3,385.9z"/>
		<circle class="st0" cx="1277.4" cy="385.9" r="2.6"/>
		<circle class="st0" cx="1245.8" cy="385.9" r="2.6"/>
		<circle class="st0" cx="1340.5" cy="417.5" r="2.6"/>
		<path class="st0" d="M1306.3,417.5c0,1.5,1.2,2.6,2.6,2.6c1.5,0,2.6-1.2,2.6-2.6c0-1.5-1.2-2.6-2.6-2.6
			C1307.5,414.8,1306.3,416,1306.3,417.5z"/>
		<circle class="st0" cx="1277.4" cy="417.5" r="2.6"/>
		<circle class="st0" cx="1245.8" cy="417.5" r="2.6"/>
		<path class="st0" d="M1464.1,70.3c0,1.5,1.2,2.6,2.6,2.6c1.5,0,2.6-1.2,2.6-2.6c0-1.5-1.2-2.6-2.6-2.6
			C1465.3,67.7,1464.1,68.9,1464.1,70.3z"/>
		<path class="st0" d="M1432.5,70.3c0,1.5,1.2,2.6,2.6,2.6c1.5,0,2.6-1.2,2.6-2.6c0-1.5-1.2-2.6-2.6-2.6
			C1433.7,67.7,1432.5,68.9,1432.5,70.3z"/>
		<path class="st0" d="M1401,70.3c0,1.5,1.2,2.6,2.6,2.6c1.5,0,2.6-1.2,2.6-2.6c0-1.5-1.2-2.6-2.6-2.6
			C1402.1,67.7,1401,68.9,1401,70.3z"/>
		<path class="st0" d="M1369.4,70.3c0,1.5,1.2,2.6,2.6,2.6c1.5,0,2.6-1.2,2.6-2.6c0-1.5-1.2-2.6-2.6-2.6
			C1370.6,67.7,1369.4,68.9,1369.4,70.3z"/>
		<path class="st0" d="M1464.1,101.9c0,1.5,1.2,2.6,2.6,2.6c1.5,0,2.6-1.2,2.6-2.6c0-1.5-1.2-2.6-2.6-2.6
			C1465.3,99.2,1464.1,100.4,1464.1,101.9z"/>
		<path class="st0" d="M1432.5,101.9c0,1.5,1.2,2.6,2.6,2.6c1.5,0,2.6-1.2,2.6-2.6c0-1.5-1.2-2.6-2.6-2.6
			C1433.7,99.2,1432.5,100.4,1432.5,101.9z"/>
		<path class="st0" d="M1401,101.9c0,1.5,1.2,2.6,2.6,2.6c1.5,0,2.6-1.2,2.6-2.6c0-1.5-1.2-2.6-2.6-2.6
			C1402.1,99.2,1401,100.4,1401,101.9z"/>
		<path class="st0" d="M1369.4,101.9c0,1.5,1.2,2.6,2.6,2.6c1.5,0,2.6-1.2,2.6-2.6c0-1.5-1.2-2.6-2.6-2.6
			C1370.6,99.2,1369.4,100.4,1369.4,101.9z"/>
		<path class="st0" d="M1464.1,133.4c0,1.5,1.2,2.6,2.6,2.6c1.5,0,2.6-1.2,2.6-2.6c0-1.5-1.2-2.6-2.6-2.6
			C1465.3,130.8,1464.1,132,1464.1,133.4z"/>
		<path class="st0" d="M1432.5,133.4c0,1.5,1.2,2.6,2.6,2.6c1.5,0,2.6-1.2,2.6-2.6c0-1.5-1.2-2.6-2.6-2.6
			C1433.7,130.8,1432.5,132,1432.5,133.4z"/>
		<path class="st0" d="M1401,133.4c0,1.5,1.2,2.6,2.6,2.6c1.5,0,2.6-1.2,2.6-2.6c0-1.5-1.2-2.6-2.6-2.6
			C1402.1,130.8,1401,132,1401,133.4z"/>
		<path class="st0" d="M1369.4,133.4c0,1.5,1.2,2.6,2.6,2.6c1.5,0,2.6-1.2,2.6-2.6c0-1.5-1.2-2.6-2.6-2.6
			C1370.6,130.8,1369.4,132,1369.4,133.4z"/>
		<path class="st0" d="M1464.1,165c0,1.5,1.2,2.6,2.6,2.6c1.5,0,2.6-1.2,2.6-2.6c0-1.5-1.2-2.6-2.6-2.6
			C1465.3,162.4,1464.1,163.5,1464.1,165z"/>
		<path class="st0" d="M1432.5,165c0,1.5,1.2,2.6,2.6,2.6c1.5,0,2.6-1.2,2.6-2.6c0-1.5-1.2-2.6-2.6-2.6
			C1433.7,162.4,1432.5,163.5,1432.5,165z"/>
		<path class="st0" d="M1401,165c0,1.5,1.2,2.6,2.6,2.6c1.5,0,2.6-1.2,2.6-2.6c0-1.5-1.2-2.6-2.6-2.6
			C1402.1,162.4,1401,163.5,1401,165z"/>
		<path class="st0" d="M1369.4,165c0,1.5,1.2,2.6,2.6,2.6c1.5,0,2.6-1.2,2.6-2.6c0-1.5-1.2-2.6-2.6-2.6
			C1370.6,162.4,1369.4,163.5,1369.4,165z"/>
		<path class="st0" d="M1464.1,196.5c0,1.5,1.2,2.6,2.6,2.6c1.5,0,2.6-1.2,2.6-2.6c0-1.5-1.2-2.6-2.6-2.6
			C1465.3,193.9,1464.1,195.1,1464.1,196.5z"/>
		<path class="st0" d="M1432.5,196.5c0,1.5,1.2,2.6,2.6,2.6c1.5,0,2.6-1.2,2.6-2.6c0-1.5-1.2-2.6-2.6-2.6
			C1433.7,193.9,1432.5,195.1,1432.5,196.5z"/>
		<path class="st0" d="M1401,196.5c0,1.5,1.2,2.6,2.6,2.6c1.5,0,2.6-1.2,2.6-2.6c0-1.5-1.2-2.6-2.6-2.6
			C1402.1,193.9,1401,195.1,1401,196.5z"/>
		<path class="st0" d="M1369.4,196.5c0,1.5,1.2,2.6,2.6,2.6c1.5,0,2.6-1.2,2.6-2.6c0-1.5-1.2-2.6-2.6-2.6
			C1370.6,193.9,1369.4,195.1,1369.4,196.5z"/>
		<path class="st0" d="M1464.1,228.1c0,1.5,1.2,2.6,2.6,2.6c1.5,0,2.6-1.2,2.6-2.6c0-1.5-1.2-2.6-2.6-2.6
			C1465.3,225.5,1464.1,226.7,1464.1,228.1z"/>
		<path class="st0" d="M1432.5,228.1c0,1.5,1.2,2.6,2.6,2.6c1.5,0,2.6-1.2,2.6-2.6c0-1.5-1.2-2.6-2.6-2.6
			C1433.7,225.5,1432.5,226.7,1432.5,228.1z"/>
		<path class="st0" d="M1401,228.1c0,1.5,1.2,2.6,2.6,2.6c1.5,0,2.6-1.2,2.6-2.6c0-1.5-1.2-2.6-2.6-2.6
			C1402.1,225.5,1401,226.7,1401,228.1z"/>
		<path class="st0" d="M1369.4,228.1c0,1.5,1.2,2.6,2.6,2.6c1.5,0,2.6-1.2,2.6-2.6c0-1.5-1.2-2.6-2.6-2.6
			C1370.6,225.5,1369.4,226.7,1369.4,228.1z"/>
		<path class="st0" d="M1464.1,259.7c0,1.5,1.2,2.6,2.6,2.6c1.5,0,2.6-1.2,2.6-2.6c0-1.5-1.2-2.6-2.6-2.6
			C1465.3,257,1464.1,258.2,1464.1,259.7z"/>
		<path class="st0" d="M1432.5,259.7c0,1.5,1.2,2.6,2.6,2.6c1.5,0,2.6-1.2,2.6-2.6c0-1.5-1.2-2.6-2.6-2.6
			C1433.7,257,1432.5,258.2,1432.5,259.7z"/>
		<path class="st0" d="M1401,259.7c0,1.5,1.2,2.6,2.6,2.6c1.5,0,2.6-1.2,2.6-2.6c0-1.5-1.2-2.6-2.6-2.6
			C1402.1,257,1401,258.2,1401,259.7z"/>
		<path class="st0" d="M1369.4,259.7c0,1.5,1.2,2.6,2.6,2.6c1.5,0,2.6-1.2,2.6-2.6c0-1.5-1.2-2.6-2.6-2.6
			C1370.6,257,1369.4,258.2,1369.4,259.7z"/>
		<path class="st0" d="M1464.1,291.2c0,1.5,1.2,2.6,2.6,2.6c1.5,0,2.6-1.2,2.6-2.6c0-1.5-1.2-2.6-2.6-2.6
			C1465.3,288.6,1464.1,289.8,1464.1,291.2z"/>
		<path class="st0" d="M1432.5,291.2c0,1.5,1.2,2.6,2.6,2.6c1.5,0,2.6-1.2,2.6-2.6c0-1.5-1.2-2.6-2.6-2.6
			C1433.7,288.6,1432.5,289.8,1432.5,291.2z"/>
		<path class="st0" d="M1401,291.2c0,1.5,1.2,2.6,2.6,2.6c1.5,0,2.6-1.2,2.6-2.6c0-1.5-1.2-2.6-2.6-2.6
			C1402.1,288.6,1401,289.8,1401,291.2z"/>
		<path class="st0" d="M1369.4,291.2c0,1.5,1.2,2.6,2.6,2.6c1.5,0,2.6-1.2,2.6-2.6c0-1.5-1.2-2.6-2.6-2.6
			C1370.6,288.6,1369.4,289.8,1369.4,291.2z"/>
		<path class="st0" d="M1464.1,322.8c0,1.5,1.2,2.6,2.6,2.6c1.5,0,2.6-1.2,2.6-2.6c0-1.5-1.2-2.6-2.6-2.6
			C1465.3,320.2,1464.1,321.3,1464.1,322.8z"/>
		<path class="st0" d="M1432.5,322.8c0,1.5,1.2,2.6,2.6,2.6c1.5,0,2.6-1.2,2.6-2.6c0-1.5-1.2-2.6-2.6-2.6
			C1433.7,320.2,1432.5,321.3,1432.5,322.8z"/>
		<path class="st0" d="M1401,322.8c0,1.5,1.2,2.6,2.6,2.6c1.5,0,2.6-1.2,2.6-2.6c0-1.5-1.2-2.6-2.6-2.6
			C1402.1,320.2,1401,321.3,1401,322.8z"/>
		<path class="st0" d="M1369.4,322.8c0,1.5,1.2,2.6,2.6,2.6c1.5,0,2.6-1.2,2.6-2.6c0-1.5-1.2-2.6-2.6-2.6
			C1370.6,320.2,1369.4,321.3,1369.4,322.8z"/>
		<path class="st0" d="M1464.1,354.4c0,1.5,1.2,2.6,2.6,2.6c1.5,0,2.6-1.2,2.6-2.6c0-1.5-1.2-2.6-2.6-2.6
			C1465.3,351.7,1464.1,352.9,1464.1,354.4z"/>
		<path class="st0" d="M1432.5,354.4c0,1.5,1.2,2.6,2.6,2.6c1.5,0,2.6-1.2,2.6-2.6c0-1.5-1.2-2.6-2.6-2.6
			C1433.7,351.7,1432.5,352.9,1432.5,354.4z"/>
		<path class="st0" d="M1401,354.4c0,1.5,1.2,2.6,2.6,2.6c1.5,0,2.6-1.2,2.6-2.6c0-1.5-1.2-2.6-2.6-2.6
			C1402.1,351.7,1401,352.9,1401,354.4z"/>
		<path class="st0" d="M1369.4,354.4c0,1.5,1.2,2.6,2.6,2.6c1.5,0,2.6-1.2,2.6-2.6c0-1.5-1.2-2.6-2.6-2.6
			C1370.6,351.7,1369.4,352.9,1369.4,354.4z"/>
		<path class="st0" d="M1464.1,385.9c0,1.5,1.2,2.6,2.6,2.6c1.5,0,2.6-1.2,2.6-2.6c0-1.5-1.2-2.6-2.6-2.6
			C1465.3,383.3,1464.1,384.5,1464.1,385.9z"/>
		<path class="st0" d="M1432.5,385.9c0,1.5,1.2,2.6,2.6,2.6c1.5,0,2.6-1.2,2.6-2.6c0-1.5-1.2-2.6-2.6-2.6
			C1433.7,383.3,1432.5,384.5,1432.5,385.9z"/>
		<path class="st0" d="M1401,385.9c0,1.5,1.2,2.6,2.6,2.6c1.5,0,2.6-1.2,2.6-2.6c0-1.5-1.2-2.6-2.6-2.6
			C1402.1,383.3,1401,384.5,1401,385.9z"/>
		<path class="st0" d="M1369.4,385.9c0,1.5,1.2,2.6,2.6,2.6c1.5,0,2.6-1.2,2.6-2.6c0-1.5-1.2-2.6-2.6-2.6
			C1370.6,383.3,1369.4,384.5,1369.4,385.9z"/>
		<path class="st0" d="M1464.1,417.5c0,1.5,1.2,2.6,2.6,2.6c1.5,0,2.6-1.2,2.6-2.6c0-1.5-1.2-2.6-2.6-2.6
			C1465.3,414.8,1464.1,416,1464.1,417.5z"/>
		<path class="st0" d="M1432.5,417.5c0,1.5,1.2,2.6,2.6,2.6c1.5,0,2.6-1.2,2.6-2.6c0-1.5-1.2-2.6-2.6-2.6
			C1433.7,414.8,1432.5,416,1432.5,417.5z"/>
		<path class="st0" d="M1401,417.5c0,1.5,1.2,2.6,2.6,2.6c1.5,0,2.6-1.2,2.6-2.6c0-1.5-1.2-2.6-2.6-2.6
			C1402.1,414.8,1401,416,1401,417.5z"/>
		<path class="st0" d="M1369.4,417.5c0,1.5,1.2,2.6,2.6,2.6c1.5,0,2.6-1.2,2.6-2.6c0-1.5-1.2-2.6-2.6-2.6
			C1370.6,414.8,1369.4,416,1369.4,417.5z"/>
		<path class="st0" d="M1590.3,70.3c0,1.5,1.2,2.6,2.6,2.6c1.5,0,2.6-1.2,2.6-2.6c0-1.5-1.2-2.6-2.6-2.6
			C1591.5,67.7,1590.3,68.9,1590.3,70.3z"/>
		<path class="st0" d="M1558.8,70.3c0,1.5,1.2,2.6,2.6,2.6c1.5,0,2.6-1.2,2.6-2.6c0-1.5-1.2-2.6-2.6-2.6
			C1559.9,67.7,1558.8,68.9,1558.8,70.3z"/>
		<path class="st0" d="M1527.2,70.3c0,1.5,1.2,2.6,2.6,2.6c1.5,0,2.6-1.2,2.6-2.6c0-1.5-1.2-2.6-2.6-2.6
			C1528.4,67.7,1527.2,68.9,1527.2,70.3z"/>
		<path class="st0" d="M1495.6,70.3c0,1.5,1.2,2.6,2.6,2.6c1.5,0,2.6-1.2,2.6-2.6c0-1.5-1.2-2.6-2.6-2.6
			C1496.8,67.7,1495.6,68.9,1495.6,70.3z"/>
		<path class="st0" d="M1590.3,101.9c0,1.5,1.2,2.6,2.6,2.6c1.5,0,2.6-1.2,2.6-2.6c0-1.5-1.2-2.6-2.6-2.6
			C1591.5,99.2,1590.3,100.4,1590.3,101.9z"/>
		<path class="st0" d="M1558.8,101.9c0,1.5,1.2,2.6,2.6,2.6c1.5,0,2.6-1.2,2.6-2.6c0-1.5-1.2-2.6-2.6-2.6
			C1559.9,99.2,1558.8,100.4,1558.8,101.9z"/>
		<path class="st0" d="M1527.2,101.9c0,1.5,1.2,2.6,2.6,2.6c1.5,0,2.6-1.2,2.6-2.6c0-1.5-1.2-2.6-2.6-2.6
			C1528.4,99.2,1527.2,100.4,1527.2,101.9z"/>
		<path class="st0" d="M1495.6,101.9c0,1.5,1.2,2.6,2.6,2.6c1.5,0,2.6-1.2,2.6-2.6c0-1.5-1.2-2.6-2.6-2.6
			C1496.8,99.2,1495.6,100.4,1495.6,101.9z"/>
		<path class="st0" d="M1590.3,133.4c0,1.5,1.2,2.6,2.6,2.6c1.5,0,2.6-1.2,2.6-2.6c0-1.5-1.2-2.6-2.6-2.6
			C1591.5,130.8,1590.3,132,1590.3,133.4z"/>
		<path class="st0" d="M1558.8,133.4c0,1.5,1.2,2.6,2.6,2.6c1.5,0,2.6-1.2,2.6-2.6c0-1.5-1.2-2.6-2.6-2.6
			C1559.9,130.8,1558.8,132,1558.8,133.4z"/>
		<path class="st0" d="M1527.2,133.4c0,1.5,1.2,2.6,2.6,2.6c1.5,0,2.6-1.2,2.6-2.6c0-1.5-1.2-2.6-2.6-2.6
			C1528.4,130.8,1527.2,132,1527.2,133.4z"/>
		<path class="st0" d="M1495.6,133.4c0,1.5,1.2,2.6,2.6,2.6c1.5,0,2.6-1.2,2.6-2.6c0-1.5-1.2-2.6-2.6-2.6
			C1496.8,130.8,1495.6,132,1495.6,133.4z"/>
		<path class="st0" d="M1590.3,165c0,1.5,1.2,2.6,2.6,2.6c1.5,0,2.6-1.2,2.6-2.6c0-1.5-1.2-2.6-2.6-2.6
			C1591.5,162.4,1590.3,163.5,1590.3,165z"/>
		<path class="st0" d="M1558.8,165c0,1.5,1.2,2.6,2.6,2.6c1.5,0,2.6-1.2,2.6-2.6c0-1.5-1.2-2.6-2.6-2.6
			C1559.9,162.4,1558.8,163.5,1558.8,165z"/>
		<path class="st0" d="M1527.2,165c0,1.5,1.2,2.6,2.6,2.6c1.5,0,2.6-1.2,2.6-2.6c0-1.5-1.2-2.6-2.6-2.6
			C1528.4,162.4,1527.2,163.5,1527.2,165z"/>
		<path class="st0" d="M1495.6,165c0,1.5,1.2,2.6,2.6,2.6c1.5,0,2.6-1.2,2.6-2.6c0-1.5-1.2-2.6-2.6-2.6
			C1496.8,162.4,1495.6,163.5,1495.6,165z"/>
		<circle class="st0" cx="1593" cy="196.5" r="2.6"/>
		<circle class="st0" cx="1561.4" cy="196.5" r="2.6"/>
		<circle class="st0" cx="1529.8" cy="196.5" r="2.6"/>
		<path class="st0" d="M1495.6,196.5c0,1.5,1.2,2.6,2.6,2.6c1.5,0,2.6-1.2,2.6-2.6c0-1.5-1.2-2.6-2.6-2.6
			C1496.8,193.9,1495.6,195.1,1495.6,196.5z"/>
		<path class="st0" d="M1590.3,228.1c0,1.5,1.2,2.6,2.6,2.6c1.5,0,2.6-1.2,2.6-2.6c0-1.5-1.2-2.6-2.6-2.6
			C1591.5,225.5,1590.3,226.7,1590.3,228.1z"/>
		<path class="st0" d="M1558.8,228.1c0,1.5,1.2,2.6,2.6,2.6c1.5,0,2.6-1.2,2.6-2.6c0-1.5-1.2-2.6-2.6-2.6
			C1559.9,225.5,1558.8,226.7,1558.8,228.1z"/>
		<path class="st0" d="M1527.2,228.1c0,1.5,1.2,2.6,2.6,2.6c1.5,0,2.6-1.2,2.6-2.6c0-1.5-1.2-2.6-2.6-2.6
			C1528.4,225.5,1527.2,226.7,1527.2,228.1z"/>
		<path class="st0" d="M1495.6,228.1c0,1.5,1.2,2.6,2.6,2.6c1.5,0,2.6-1.2,2.6-2.6c0-1.5-1.2-2.6-2.6-2.6
			C1496.8,225.5,1495.6,226.7,1495.6,228.1z"/>
		<circle class="st0" cx="1593" cy="259.7" r="2.6"/>
		<circle class="st0" cx="1561.4" cy="259.7" r="2.6"/>
		<circle class="st0" cx="1529.8" cy="259.7" r="2.6"/>
		<path class="st0" d="M1495.6,259.7c0,1.5,1.2,2.6,2.6,2.6c1.5,0,2.6-1.2,2.6-2.6c0-1.5-1.2-2.6-2.6-2.6
			C1496.8,257,1495.6,258.2,1495.6,259.7z"/>
		<path class="st0" d="M1590.3,291.2c0,1.5,1.2,2.6,2.6,2.6c1.5,0,2.6-1.2,2.6-2.6c0-1.5-1.2-2.6-2.6-2.6
			C1591.5,288.6,1590.3,289.8,1590.3,291.2z"/>
		<path class="st0" d="M1558.8,291.2c0,1.5,1.2,2.6,2.6,2.6c1.5,0,2.6-1.2,2.6-2.6c0-1.5-1.2-2.6-2.6-2.6
			C1559.9,288.6,1558.8,289.8,1558.8,291.2z"/>
		<path class="st0" d="M1527.2,291.2c0,1.5,1.2,2.6,2.6,2.6c1.5,0,2.6-1.2,2.6-2.6c0-1.5-1.2-2.6-2.6-2.6
			C1528.4,288.6,1527.2,289.8,1527.2,291.2z"/>
		<path class="st0" d="M1495.6,291.2c0,1.5,1.2,2.6,2.6,2.6c1.5,0,2.6-1.2,2.6-2.6c0-1.5-1.2-2.6-2.6-2.6
			C1496.8,288.6,1495.6,289.8,1495.6,291.2z"/>
		<circle class="st0" cx="1593" cy="322.8" r="2.6"/>
		<circle class="st0" cx="1561.4" cy="322.8" r="2.6"/>
		<circle class="st0" cx="1529.8" cy="322.8" r="2.6"/>
		<path class="st0" d="M1495.6,322.8c0,1.5,1.2,2.6,2.6,2.6c1.5,0,2.6-1.2,2.6-2.6c0-1.5-1.2-2.6-2.6-2.6
			C1496.8,320.2,1495.6,321.3,1495.6,322.8z"/>
		<circle class="st0" cx="1593" cy="354.4" r="2.6"/>
		<circle class="st0" cx="1561.4" cy="354.4" r="2.6"/>
		<circle class="st0" cx="1529.8" cy="354.4" r="2.6"/>
		<path class="st0" d="M1495.6,354.4c0,1.5,1.2,2.6,2.6,2.6c1.5,0,2.6-1.2,2.6-2.6c0-1.5-1.2-2.6-2.6-2.6
			C1496.8,351.7,1495.6,352.9,1495.6,354.4z"/>
		<circle class="st0" cx="1593" cy="385.9" r="2.6"/>
		<circle class="st0" cx="1561.4" cy="385.9" r="2.6"/>
		<circle class="st0" cx="1529.8" cy="385.9" r="2.6"/>
		<path class="st0" d="M1495.6,385.9c0,1.5,1.2,2.6,2.6,2.6c1.5,0,2.6-1.2,2.6-2.6c0-1.5-1.2-2.6-2.6-2.6
			C1496.8,383.3,1495.6,384.5,1495.6,385.9z"/>
		<circle class="st0" cx="1593" cy="417.5" r="2.6"/>
		<circle class="st0" cx="1561.4" cy="417.5" r="2.6"/>
		<circle class="st0" cx="1529.8" cy="417.5" r="2.6"/>
		<path class="st0" d="M1495.6,417.5c0,1.5,1.2,2.6,2.6,2.6c1.5,0,2.6-1.2,2.6-2.6c0-1.5-1.2-2.6-2.6-2.6
			C1496.8,414.8,1495.6,416,1495.6,417.5z"/>
		<path class="st0" d="M1653.5,70.3c0,1.5,1.2,2.6,2.6,2.6c1.5,0,2.6-1.2,2.6-2.6c0-1.5-1.2-2.6-2.6-2.6
			C1654.6,67.7,1653.5,68.9,1653.5,70.3z"/>
		<path class="st0" d="M1621.9,70.3c0,1.5,1.2,2.6,2.6,2.6c1.5,0,2.6-1.2,2.6-2.6c0-1.5-1.2-2.6-2.6-2.6
			C1623.1,67.7,1621.9,68.9,1621.9,70.3z"/>
		<path class="st0" d="M327.9,38.7c0,1.5,1.2,2.6,2.6,2.6c1.5,0,2.6-1.2,2.6-2.6c0-1.5-1.2-2.6-2.6-2.6
			C329.1,36.1,327.9,37.3,327.9,38.7z"/>
		<path class="st0" d="M296.3,38.7c0,1.5,1.2,2.6,2.6,2.6c1.5,0,2.6-1.2,2.6-2.6c0-1.5-1.2-2.6-2.6-2.6
			C297.5,36.1,296.3,37.3,296.3,38.7z"/>
		<path class="st0" d="M264.8,38.7c0,1.5,1.2,2.6,2.6,2.6c1.5,0,2.6-1.2,2.6-2.6c0-1.5-1.2-2.6-2.6-2.6
			C266,36.1,264.8,37.3,264.8,38.7z"/>
		<path class="st0" d="M233.2,38.7c0,1.5,1.2,2.6,2.6,2.6c1.5,0,2.6-1.2,2.6-2.6c0-1.5-1.2-2.6-2.6-2.6
			C234.4,36.1,233.2,37.3,233.2,38.7z"/>
		<path class="st0" d="M454.1,38.7c0,1.5,1.2,2.6,2.6,2.6c1.5,0,2.6-1.2,2.6-2.6c0-1.5-1.2-2.6-2.6-2.6
			C455.3,36.1,454.1,37.3,454.1,38.7z"/>
		<path class="st0" d="M422.6,38.7c0,1.5,1.2,2.6,2.6,2.6c1.5,0,2.6-1.2,2.6-2.6c0-1.5-1.2-2.6-2.6-2.6
			C423.8,36.1,422.6,37.3,422.6,38.7z"/>
		<path class="st0" d="M391,38.7c0,1.5,1.2,2.6,2.6,2.6c1.5,0,2.6-1.2,2.6-2.6c0-1.5-1.2-2.6-2.6-2.6C392.2,36.1,391,37.3,391,38.7z
			"/>
		<path class="st0" d="M359.5,38.7c0,1.5,1.2,2.6,2.6,2.6c1.5,0,2.6-1.2,2.6-2.6c0-1.5-1.2-2.6-2.6-2.6
			C360.6,36.1,359.5,37.3,359.5,38.7z"/>
		<path class="st0" d="M170.1,38.7c0,1.5,1.2,2.6,2.6,2.6c1.5,0,2.6-1.2,2.6-2.6c0-1.5-1.2-2.6-2.6-2.6
			C171.3,36.1,170.1,37.3,170.1,38.7z"/>
		<path class="st0" d="M138.5,38.7c0,1.5,1.2,2.6,2.6,2.6c1.5,0,2.6-1.2,2.6-2.6c0-1.5-1.2-2.6-2.6-2.6
			C139.7,36.1,138.5,37.3,138.5,38.7z"/>
		<path class="st0" d="M107,38.7c0,1.5,1.2,2.6,2.6,2.6c1.5,0,2.6-1.2,2.6-2.6c0-1.5-1.2-2.6-2.6-2.6C108.2,36.1,107,37.3,107,38.7z
			"/>
		<path class="st0" d="M75.4,38.7c0,1.5,1.2,2.6,2.6,2.6c1.5,0,2.6-1.2,2.6-2.6c0-1.5-1.2-2.6-2.6-2.6
			C76.6,36.1,75.4,37.3,75.4,38.7z"/>
		<path class="st0" d="M43.9,38.7c0,1.5,1.2,2.6,2.6,2.6c1.5,0,2.6-1.2,2.6-2.6c0-1.5-1.2-2.6-2.6-2.6C45,36.1,43.9,37.3,43.9,38.7z
			"/>
		<path class="st0" d="M201.7,38.7c0,1.5,1.2,2.6,2.6,2.6c1.5,0,2.6-1.2,2.6-2.6c0-1.5-1.2-2.6-2.6-2.6
			C202.8,36.1,201.7,37.3,201.7,38.7z"/>
		<path class="st0" d="M580.4,38.7c0,1.5,1.2,2.6,2.6,2.6c1.5,0,2.6-1.2,2.6-2.6c0-1.5-1.2-2.6-2.6-2.6
			C581.6,36.1,580.4,37.3,580.4,38.7z"/>
		<path class="st0" d="M548.8,38.7c0,1.5,1.2,2.6,2.6,2.6c1.5,0,2.6-1.2,2.6-2.6c0-1.5-1.2-2.6-2.6-2.6
			C550,36.1,548.8,37.3,548.8,38.7z"/>
		<path class="st0" d="M517.3,38.7c0,1.5,1.2,2.6,2.6,2.6c1.5,0,2.6-1.2,2.6-2.6c0-1.5-1.2-2.6-2.6-2.6
			C518.4,36.1,517.3,37.3,517.3,38.7z"/>
		<path class="st0" d="M485.7,38.7c0,1.5,1.2,2.6,2.6,2.6c1.5,0,2.6-1.2,2.6-2.6c0-1.5-1.2-2.6-2.6-2.6
			C486.9,36.1,485.7,37.3,485.7,38.7z"/>
		<path class="st0" d="M706.6,38.7c0,1.5,1.2,2.6,2.6,2.6c1.5,0,2.6-1.2,2.6-2.6c0-1.5-1.2-2.6-2.6-2.6
			C707.8,36.1,706.6,37.3,706.6,38.7z"/>
		<path class="st0" d="M675.1,38.7c0,1.5,1.2,2.6,2.6,2.6c1.5,0,2.6-1.2,2.6-2.6c0-1.5-1.2-2.6-2.6-2.6
			C676.2,36.1,675.1,37.3,675.1,38.7z"/>
		<path class="st0" d="M643.5,38.7c0,1.5,1.2,2.6,2.6,2.6c1.5,0,2.6-1.2,2.6-2.6c0-1.5-1.2-2.6-2.6-2.6
			C644.7,36.1,643.5,37.3,643.5,38.7z"/>
		<path class="st0" d="M612,38.7c0,1.5,1.2,2.6,2.6,2.6c1.5,0,2.6-1.2,2.6-2.6c0-1.5-1.2-2.6-2.6-2.6C613.1,36.1,612,37.3,612,38.7z
			"/>
		<path class="st0" d="M832.9,38.7c0,1.5,1.2,2.6,2.6,2.6c1.5,0,2.6-1.2,2.6-2.6c0-1.5-1.2-2.6-2.6-2.6
			C834.1,36.1,832.9,37.3,832.9,38.7z"/>
		<path class="st0" d="M801.3,38.7c0,1.5,1.2,2.6,2.6,2.6c1.5,0,2.6-1.2,2.6-2.6c0-1.5-1.2-2.6-2.6-2.6
			C802.5,36.1,801.3,37.3,801.3,38.7z"/>
		<path class="st0" d="M769.8,38.7c0,1.5,1.2,2.6,2.6,2.6c1.5,0,2.6-1.2,2.6-2.6c0-1.5-1.2-2.6-2.6-2.6
			C770.9,36.1,769.8,37.3,769.8,38.7z"/>
		<path class="st0" d="M738.2,38.7c0,1.5,1.2,2.6,2.6,2.6c1.5,0,2.6-1.2,2.6-2.6c0-1.5-1.2-2.6-2.6-2.6
			C739.4,36.1,738.2,37.3,738.2,38.7z"/>
		<path class="st0" d="M959.1,38.7c0,1.5,1.2,2.6,2.6,2.6c1.5,0,2.6-1.2,2.6-2.6c0-1.5-1.2-2.6-2.6-2.6
			C960.3,36.1,959.1,37.3,959.1,38.7z"/>
		<path class="st0" d="M927.6,38.7c0,1.5,1.2,2.6,2.6,2.6c1.5,0,2.6-1.2,2.6-2.6c0-1.5-1.2-2.6-2.6-2.6
			C928.7,36.1,927.6,37.3,927.6,38.7z"/>
		<path class="st0" d="M896,38.7c0,1.5,1.2,2.6,2.6,2.6c1.5,0,2.6-1.2,2.6-2.6c0-1.5-1.2-2.6-2.6-2.6C897.2,36.1,896,37.3,896,38.7z
			"/>
		<path class="st0" d="M864.4,38.7c0,1.5,1.2,2.6,2.6,2.6c1.5,0,2.6-1.2,2.6-2.6c0-1.5-1.2-2.6-2.6-2.6
			C865.6,36.1,864.4,37.3,864.4,38.7z"/>
		<path class="st0" d="M1085.4,38.7c0,1.5,1.2,2.6,2.6,2.6s2.6-1.2,2.6-2.6c0-1.5-1.2-2.6-2.6-2.6S1085.4,37.3,1085.4,38.7z"/>
		<path class="st0" d="M1053.8,38.7c0,1.5,1.2,2.6,2.6,2.6c1.5,0,2.6-1.2,2.6-2.6c0-1.5-1.2-2.6-2.6-2.6
			C1055,36.1,1053.8,37.3,1053.8,38.7z"/>
		<path class="st0" d="M1022.2,38.7c0,1.5,1.2,2.6,2.6,2.6c1.5,0,2.6-1.2,2.6-2.6c0-1.5-1.2-2.6-2.6-2.6
			C1023.4,36.1,1022.2,37.3,1022.2,38.7z"/>
		<path class="st0" d="M990.7,38.7c0,1.5,1.2,2.6,2.6,2.6c1.5,0,2.6-1.2,2.6-2.6c0-1.5-1.2-2.6-2.6-2.6
			C991.9,36.1,990.7,37.3,990.7,38.7z"/>
		<path class="st0" d="M1211.6,38.7c0,1.5,1.2,2.6,2.6,2.6c1.5,0,2.6-1.2,2.6-2.6c0-1.5-1.2-2.6-2.6-2.6
			C1212.8,36.1,1211.6,37.3,1211.6,38.7z"/>
		<path class="st0" d="M1180,38.7c0,1.5,1.2,2.6,2.6,2.6c1.5,0,2.6-1.2,2.6-2.6c0-1.5-1.2-2.6-2.6-2.6
			C1181.2,36.1,1180,37.3,1180,38.7z"/>
		<path class="st0" d="M1148.5,38.7c0,1.5,1.2,2.6,2.6,2.6c1.5,0,2.6-1.2,2.6-2.6c0-1.5-1.2-2.6-2.6-2.6
			C1149.7,36.1,1148.5,37.3,1148.5,38.7z"/>
		<path class="st0" d="M1116.9,38.7c0,1.5,1.2,2.6,2.6,2.6c1.5,0,2.6-1.2,2.6-2.6c0-1.5-1.2-2.6-2.6-2.6
			C1118.1,36.1,1116.9,37.3,1116.9,38.7z"/>
		<path class="st0" d="M1337.8,38.7c0,1.5,1.2,2.6,2.6,2.6c1.5,0,2.6-1.2,2.6-2.6c0-1.5-1.2-2.6-2.6-2.6
			C1339,36.1,1337.8,37.3,1337.8,38.7z"/>
		<path class="st0" d="M1306.3,38.7c0,1.5,1.2,2.6,2.6,2.6c1.5,0,2.6-1.2,2.6-2.6c0-1.5-1.2-2.6-2.6-2.6
			C1307.5,36.1,1306.3,37.3,1306.3,38.7z"/>
		<path class="st0" d="M1274.7,38.7c0,1.5,1.2,2.6,2.6,2.6c1.5,0,2.6-1.2,2.6-2.6c0-1.5-1.2-2.6-2.6-2.6
			C1275.9,36.1,1274.7,37.3,1274.7,38.7z"/>
		<path class="st0" d="M1243.2,38.7c0,1.5,1.2,2.6,2.6,2.6c1.5,0,2.6-1.2,2.6-2.6c0-1.5-1.2-2.6-2.6-2.6
			C1244.3,36.1,1243.2,37.3,1243.2,38.7z"/>
		<path class="st0" d="M1464.1,38.7c0,1.5,1.2,2.6,2.6,2.6c1.5,0,2.6-1.2,2.6-2.6c0-1.5-1.2-2.6-2.6-2.6
			C1465.3,36.1,1464.1,37.3,1464.1,38.7z"/>
		<path class="st0" d="M1432.5,38.7c0,1.5,1.2,2.6,2.6,2.6c1.5,0,2.6-1.2,2.6-2.6c0-1.5-1.2-2.6-2.6-2.6
			C1433.7,36.1,1432.5,37.3,1432.5,38.7z"/>
		<path class="st0" d="M1401,38.7c0,1.5,1.2,2.6,2.6,2.6c1.5,0,2.6-1.2,2.6-2.6c0-1.5-1.2-2.6-2.6-2.6
			C1402.1,36.1,1401,37.3,1401,38.7z"/>
		<path class="st0" d="M1369.4,38.7c0,1.5,1.2,2.6,2.6,2.6c1.5,0,2.6-1.2,2.6-2.6c0-1.5-1.2-2.6-2.6-2.6
			C1370.6,36.1,1369.4,37.3,1369.4,38.7z"/>
		<path class="st0" d="M1590.3,38.7c0,1.5,1.2,2.6,2.6,2.6c1.5,0,2.6-1.2,2.6-2.6c0-1.5-1.2-2.6-2.6-2.6
			C1591.5,36.1,1590.3,37.3,1590.3,38.7z"/>
		<path class="st0" d="M1558.8,38.7c0,1.5,1.2,2.6,2.6,2.6c1.5,0,2.6-1.2,2.6-2.6c0-1.5-1.2-2.6-2.6-2.6
			C1559.9,36.1,1558.8,37.3,1558.8,38.7z"/>
		<path class="st0" d="M1527.2,38.7c0,1.5,1.2,2.6,2.6,2.6c1.5,0,2.6-1.2,2.6-2.6c0-1.5-1.2-2.6-2.6-2.6
			C1528.4,36.1,1527.2,37.3,1527.2,38.7z"/>
		<path class="st0" d="M1495.6,38.7c0,1.5,1.2,2.6,2.6,2.6c1.5,0,2.6-1.2,2.6-2.6c0-1.5-1.2-2.6-2.6-2.6
			C1496.8,36.1,1495.6,37.3,1495.6,38.7z"/>
		<path class="st0" d="M1653.5,38.7c0,1.5,1.2,2.6,2.6,2.6c1.5,0,2.6-1.2,2.6-2.6c0-1.5-1.2-2.6-2.6-2.6
			C1654.6,36.1,1653.5,37.3,1653.5,38.7z"/>
		<path class="st0" d="M1621.9,38.7c0,1.5,1.2,2.6,2.6,2.6c1.5,0,2.6-1.2,2.6-2.6c0-1.5-1.2-2.6-2.6-2.6
			C1623.1,36.1,1621.9,37.3,1621.9,38.7z"/>
		<path class="st0" d="M1653.5,101.9c0,1.5,1.2,2.6,2.6,2.6c1.5,0,2.6-1.2,2.6-2.6c0-1.5-1.2-2.6-2.6-2.6
			C1654.6,99.2,1653.5,100.4,1653.5,101.9z"/>
		<path class="st0" d="M1621.9,101.9c0,1.5,1.2,2.6,2.6,2.6c1.5,0,2.6-1.2,2.6-2.6c0-1.5-1.2-2.6-2.6-2.6
			C1623.1,99.2,1621.9,100.4,1621.9,101.9z"/>
		<path class="st0" d="M1653.5,133.4c0,1.5,1.2,2.6,2.6,2.6c1.5,0,2.6-1.2,2.6-2.6c0-1.5-1.2-2.6-2.6-2.6
			C1654.6,130.8,1653.5,132,1653.5,133.4z"/>
		<path class="st0" d="M1621.9,133.4c0,1.5,1.2,2.6,2.6,2.6c1.5,0,2.6-1.2,2.6-2.6c0-1.5-1.2-2.6-2.6-2.6
			C1623.1,130.8,1621.9,132,1621.9,133.4z"/>
		<path class="st0" d="M1653.5,165c0,1.5,1.2,2.6,2.6,2.6c1.5,0,2.6-1.2,2.6-2.6c0-1.5-1.2-2.6-2.6-2.6
			C1654.6,162.4,1653.5,163.5,1653.5,165z"/>
		<path class="st0" d="M1621.9,165c0,1.5,1.2,2.6,2.6,2.6c1.5,0,2.6-1.2,2.6-2.6c0-1.5-1.2-2.6-2.6-2.6
			C1623.1,162.4,1621.9,163.5,1621.9,165z"/>
		<circle class="st0" cx="1656.1" cy="196.5" r="2.6"/>
		<circle class="st0" cx="1624.5" cy="196.5" r="2.6"/>
		<path class="st0" d="M1653.5,228.1c0,1.5,1.2,2.6,2.6,2.6c1.5,0,2.6-1.2,2.6-2.6c0-1.5-1.2-2.6-2.6-2.6
			C1654.6,225.5,1653.5,226.7,1653.5,228.1z"/>
		<path class="st0" d="M1621.9,228.1c0,1.5,1.2,2.6,2.6,2.6c1.5,0,2.6-1.2,2.6-2.6c0-1.5-1.2-2.6-2.6-2.6
			C1623.1,225.5,1621.9,226.7,1621.9,228.1z"/>
		<circle class="st0" cx="1656.1" cy="259.7" r="2.6"/>
		<circle class="st0" cx="1624.5" cy="259.7" r="2.6"/>
		<path class="st0" d="M1653.5,291.2c0,1.5,1.2,2.6,2.6,2.6c1.5,0,2.6-1.2,2.6-2.6c0-1.5-1.2-2.6-2.6-2.6
			C1654.6,288.6,1653.5,289.8,1653.5,291.2z"/>
		<path class="st0" d="M1621.9,291.2c0,1.5,1.2,2.6,2.6,2.6c1.5,0,2.6-1.2,2.6-2.6c0-1.5-1.2-2.6-2.6-2.6
			C1623.1,288.6,1621.9,289.8,1621.9,291.2z"/>
		<circle class="st0" cx="1656.1" cy="322.8" r="2.6"/>
		<circle class="st0" cx="1624.5" cy="322.8" r="2.6"/>
		<circle class="st0" cx="1656.1" cy="354.4" r="2.6"/>
		<circle class="st0" cx="1624.5" cy="354.4" r="2.6"/>
		<circle class="st0" cx="1656.1" cy="385.9" r="2.6"/>
		<circle class="st0" cx="1624.5" cy="385.9" r="2.6"/>
		<circle class="st0" cx="1656.1" cy="417.5" r="2.6"/>
		<circle class="st0" cx="1624.5" cy="417.5" r="2.6"/>
	</g>
</g>
</svg>
