<?xml version="1.0" encoding="utf-8"?>
<!-- Generator: Adobe Illustrator 24.2.3, SVG Export Plug-In . SVG Version: 6.00 Build 0)  -->
<svg version="1.1" id="Слой_2" xmlns="http://www.w3.org/2000/svg" xmlns:xlink="http://www.w3.org/1999/xlink" x="0px" y="0px"
	 viewBox="0 0 1721.9 943" style="enable-background:new 0 0 1721.9 943;" xml:space="preserve">
<style type="text/css">
	.st0{fill:#8A89A9;}
	.st1{opacity:0.4;}
	.st2{fill:#3A3A5B;}
	.st3{opacity:0.8;fill:#3A3A5B;}
	.st4{opacity:0.5;fill:#3A3A5B;}
	.st5{fill:#5DD782;}
	.st6{fill:#4C4B73;}
	.st7{fill:#FED677;}
	.st8{fill:#FCBA64;}
	.st9{fill:#F9C29D;}
	.st10{fill:#CED1EC;}
	.st11{fill:#2C2C2C;}
	.st12{fill:#FF4D67;}
	.st13{fill:#FF2948;}
	.st14{fill:#FFCCBE;}
	.st15{fill:#ECF1F9;}
	.st16{fill:#E98C94;}
	.st17{opacity:0.8;fill:#81E3A5;}
	.st18{fill:#7398E6;}
	.st19{opacity:0.5;fill:#4EC46D;}
	.st20{fill:#605E87;}
	.st21{fill:#80B4FF;}
	.st22{opacity:0.5;fill:#FFCCBE;}
	.st23{fill:#FFB27D;}
	.st24{fill:#B66479;}
	.st25{fill:#9B5265;}
	.st26{fill:#ABDDDA;}
	.st27{fill:#EA1B42;}
	.st28{opacity:0.4;fill:#E9F3FE;}
</style>
<g>
	<circle class="st0" cx="774.7" cy="785.8" r="2.5"/>
</g>
<g>
	<path class="st0" d="M1398.7,915.2c0,0,262.4-170.2,129.3-453.7c-71.8-152.9-277.9-168-388.8-73.1
		c-47.2,40.4-162.7,172.7-258.1-129.7C769.6-94.7,8-69.2,206.6,458.8c84.8,225.3-176,247.5-37.7,457L1398.7,915.2z"/>
	<g class="st1">
		<g>
			<g>
				<path class="st2" d="M515.5,558.1c0,0,0.1-1,1.3-2.3c0.7-1.4,1.5-3.1,1.5-4.1c0.1-1.8,2.2-2.5,3.1-1c0.3,0.5,0.4,1.1,0.5,1.7
					c3.4-1.5,8.7-2.8,16.9-3.3c0,0,6.3-0.7,2.2,4.4c-2.7,3.4-5.1,3.4-9,8.1c-3.9,4.7-9.8,7.3-14.3,6l-5.2,0.6l-3.4-7.9L515.5,558.1z
					"/>
				<g>
					<path class="st2" d="M347,505.9c0,0,5.2,53.6,78.5,76.3c19.8,6.1,93.9-12.7,93.9-12.7s-0.4-9.2-6.4-11.5c0,0-69.4-4-75.3-1.3
						c-5.2,2.4-49.5-40.8-63.8-47.7C359.5,502,347,505.9,347,505.9z"/>
				</g>
			</g>
			<g>
				<path class="st2" d="M256.4,875c0,0-8.8,7.6-7.1,13c1.7,5.4,9.6,9,10.7,15.6c1.1,6.6,5.4,10.2,9.2,10.2s18.4,0,18.4,0
					s2.8-4.6-4-6c-6.9-1.4-9.4-9.1-9-16.3c0.4-7.2-0.6-16.8-0.6-16.8l-14.6-3.2L256.4,875z"/>
			</g>
			<g>
				<path class="st2" d="M256.4,870.3c1.6,4.5,19.3,11.1,19.3,11.1s9.6-14.4,40.5-65.8c2.7-4.4,5.4-9.3,8.3-14.5
					c30.3-55,69.5-146.5,69.5-146.5L319,634.7c0,0-3.5,28.4-4.2,42.8c-0.4,8.8-5.7,27.5-12.4,43.9c-4.3,10.4-9.1,19.9-13.7,25.2
					C268.2,770.9,256.4,870.3,256.4,870.3z"/>
			</g>
			<g>
				<path class="st2" d="M302.5,721.5c4.7,22.6,13.3,60.4,22,79.6c30.3-55,69.5-146.5,69.5-146.5L319,634.7c0,0-3.5,28.4-4.2,42.8
					C314.5,686.3,309.2,705.1,302.5,721.5z"/>
			</g>
			<g>
				<path class="st2" d="M364.1,894.6c0,0-1.6,17.3,2.3,19.1l49.4-0.1c0,0,0-5.4-7.9-6.6c-7.9-1.2-21.9-5.6-24.2-15.4
					C381.3,881.9,364.1,894.6,364.1,894.6z"/>
			</g>
			<g>
				<path class="st2" d="M405.8,650.9c0,0-2.6,30.2-5.7,66.6c-4.2,49.4-9.2,110-9.7,121.5c-0.9,20-4.3,51.9-4.3,51.9
					s-8.1,7.6-24.4,4.4c0,0-14.5-45.6-18.7-93.8c-0.1-0.8-0.1-1.6-0.2-2.4c-3.9-49.1-9.9-152.4-9.9-152.4L405.8,650.9z"/>
			</g>
			<g>
				<path class="st2" d="M337.6,485.7c0,0,29.3,18.2,47.6,12.8c0,0-5.1-7.3-9.9-13.1c0.6-3.5,1.1-6.5,1.4-9c0.8-5.9,0.8-9.2,0.8-9.2
					l-12.2-9.1l-11.6-8.7C354.5,473.8,337.6,485.7,337.6,485.7z"/>
			</g>
			<g>
				<path class="st2" d="M296.2,708.1c37.2,23.8,112.5,17,113,16.5c1.3-15.1,2-40.1,2.4-63.2c0.5-28.7,0.5-54.5,0.5-55
					c0,0,0-0.9-0.1-2.3c-0.1-4.7-0.4-15.3-0.7-23.3c-0.1-1.5-0.1-2.9-0.2-4.1c0-0.1,0-0.1,0-0.2c-0.2-3.6-2.5-13.1-5.8-24.3
					c-4.8-16.3-11.6-36-16.8-45.2c-2.7-4.7-11.6-18.3-11.6-18.3c-6.3,1.2-10.9-0.6-17.6-3.7c-7.3-3.3-15.2-6.9-16.5-6
					c-9.6,6.6-16.1,21.5-19.5,40.5C321.3,530.5,294.4,707,296.2,708.1z"/>
			</g>
			<g>
				<path class="st2" d="M353.3,458.7c0,0,8,13.8,23.3,17.7c0.8-5.9,0.8-9.2,0.8-9.2l-12.2-9.1L353.3,458.7z"/>
			</g>
			<g>
				<path class="st2" d="M383,466.7c0,0-30.3,4.7-33.1-12.9c-2.8-17.6-8.7-28.9,10.6-32.6c19.2-3.7,24.1,2.5,26.6,8.1
					C389.5,435,390.8,465.1,383,466.7z"/>
			</g>
			<g>
				<path class="st2" d="M338.9,419.1c-0.3-0.3-0.9-0.5-2.3-0.6c0,0,1.1-0.7,2.6-0.7c0.3-1.9,1.3-5.1,4.7-5.9c0,0-1.8,0.9-2.1,2.9
					c3.9-3.8,12.3-6.6,35.5-4.8c30.6,2.3,20.5,20.8,16.5,23c-4,2.2-13.9-3.8-21.3-3.3c-7.4,0.6-8.8,10.6-11.3,12
					c-2.5,1.4-1.5-1.1-4.9-2.5c-3.4-1.4-3.7,3.9-2.7,7.3c1,3.5-3.7,8-3.7,8s0,0-4.7-4.8c-4.7-4.8-9.1-25.1-7-29.4
					C338.5,419.9,338.7,419.5,338.9,419.1z"/>
			</g>
			<g>
				<path class="st2" d="M411.6,661.5c0.5-28.7,0.5-54.5,0.5-55c0,0,0-0.9-0.1-2.3c-29.2-34.2-66.8-69.6-66.8-69.6
					S337.1,634.7,411.6,661.5z"/>
			</g>
			<g>
				<path class="st2" d="M372,528.6c0.4,0.6,9.6,52.2,33.4,52.8c2.3,0.1,4.3-0.2,5.9-0.6c-0.1-1.5-0.1-2.9-0.2-4.1
					c0-0.1,0-0.1,0-0.2c-0.2-3.6-2.5-13.1-5.8-24.3C395.6,550.3,384.2,541.9,372,528.6z"/>
			</g>
			<g>
				<path class="st2" d="M342.7,479c0,0,2.8-7.7,5.1-8.6c0,0,31.9,7,42.5,40.3C390.3,510.7,377.9,490.2,342.7,479z"/>
			</g>
			<g>
				<g>
					<path class="st3" d="M405.2,745.5l71.6,9.4l37.9,5c14.7,1.9,28.4-7.9,30.5-21.8L582,487.8c2-13.9-8.3-26.9-23-28.8l-33.6-4.4
						l-75.9-10c-14.7-1.9-28.4,7.9-30.5,21.8l-36.8,250.3C380.2,730.5,390.5,743.5,405.2,745.5z"/>
					<g>
						<g>
							<path class="st2" d="M409.6,687.9c0.2,0,0.3,0.1,0.5,0.1c-1.2,0.3-2.3,0.7-3.4,1.2c-3.2,1.7-5.3,4.4-6.2,7.5
								c-0.9,3.1-0.6,6.5,1.2,9.5l14,23.4c3.6,6,11.6,8.1,18,4.7c6.3-3.4,8.6-11,5-17l-2.5-4.2c1.1-0.7,2.1-1.5,2.9-2.5
								c0.1,0.2,0.2,0.3,0.2,0.5l7,11.7l0,0l7,11.7c3.6,6,11.6,8.1,18,4.7c6.3-3.4,8.6-11,5-17l-7-11.7l0,0l-2.5-4.2l2,1.8
								c2.4,2.1,5.4,3.1,8.4,3.2c0.2,1.7,0.7,3.4,1.6,5l7,11.7l0,0l7,11.7c3.6,6,11.6,8.1,18,4.7c2-1.1,3.7-2.6,4.8-4.4
								c3.1,4.2,8.7,6.3,14.1,5c3.5-0.9,6.3-3,8-5.8c1.7-2.8,2.3-6.1,1.4-9.4l-3.6-13l0,0l-3.6-13c-0.8-2.8-2.4-5-4.7-6.7
								c1.1-2.7,1.2-5.7,0.2-8.5c1.3,0.6,2.8,1,4.3,1.1c3.6,0.3,7-0.8,9.6-2.9c2.6-2.1,4.4-5,4.7-8.4l1.2-13.4l0,0l1.2-13.4
								c0.5-5-2.3-9.6-6.6-11.9l4.6-7.4l0,0l7.2-11.6c3.7-5.9,1.6-13.6-4.6-17.1c-6.2-3.5-14.4-1.5-18.1,4.4l-7.2,11.6l0,0l-1.9,3
								c-0.5-4.4-3.4-8.4-7.9-10.2l-13-5.3l0,0l-13-5.3c-1.1-0.5-2.3-0.7-3.4-0.9c5.1-3.9,6.5-10.9,3-16.3c-3.8-5.8-12-7.7-18.1-4.1
								l-24.2,14.1c-4.6,2.7-6.9,7.7-6.1,12.6c-1.6,2.2-2.3,4.9-2.2,7.4c0.1,2,0.7,3.9,1.7,5.7c-2.7-0.3-5.4,0.2-7.9,1.5
								c-1.2,0.6-2.3,1.5-3.2,2.4l7.8-18.8c2.6-6.4-0.7-13.6-7.5-16.2c-3.4-1.3-7-1.1-10.1,0.2c-3.1,1.3-5.7,3.7-7,6.9l-5.2,12.5
								l0,0l-5.2,12.5c-2.6,6.4,0.7,13.7,7.5,16.2c6.1,2.3,12.9-0.1,16.1-5.3c-0.1,2.1,0.3,4.2,1.4,6.1c-0.4-0.1-0.7-0.3-1.1-0.4
								c-3.5-0.9-7.1-0.4-10,1.1c-2.9,1.6-5.3,4.2-6.2,7.5l-3.8,12.9l0,0l-3.8,12.9C398.5,679.1,402.6,686,409.6,687.9z
								 M520.2,680.2l-5.4-4.7c0.6-0.2,1.2-0.5,1.7-0.8c1.5-0.8,2.8-1.9,3.8-3.1l-0.4,4.6C519.7,677.6,519.9,678.9,520.2,680.2z
								 M433.8,652.2l6,10c0.8,1.4,1.9,2.5,3.1,3.5c-3-0.8-6.2-0.6-8.9,0.6c-2.2,0.9-4.2,2.5-5.6,4.4l5.2-17.4
								C433.7,653,433.8,652.6,433.8,652.2z M469.7,614.2l-3.1-2.7l3.7-2.1C469.7,611,469.6,612.6,469.7,614.2z M452.9,633.5
								l9.3,8.1c0.8,0.7,1.7,1.3,2.6,1.7c-1.4,1.4-2.5,3.1-3.1,4.9L452.9,633.5z M447.6,668.1c3.3,0.9,6.9,0.6,10.1-1.1
								c0.9-0.5,1.7-1.1,2.4-1.7l-0.2,3.4c-3.5-0.8-7.2-0.3-10.3,1.5C449.1,669.4,448.4,668.7,447.6,668.1z M489.6,629.6
								C489.6,629.6,489.6,629.6,489.6,629.6c-3.2,1.7-5.3,4.5-6.2,7.5c-0.5,1.8-0.6,3.6-0.3,5.5c-0.8-0.6-1.6-1.2-2.5-1.7
								c0.1-0.1,0.1-0.1,0.2-0.2c3.7-3.9,4.4-9.4,2.1-13.8L489.6,629.6z M491.5,658.3l2.2,3.7c-2.5,0.1-5,0.8-7.1,2.1l0.7-11.5
								c0-0.4,0-0.8,0-1.2L491.5,658.3L491.5,658.3z M501.7,704c-2.3-3.9-6.6-6.1-11-6.3c-0.3-3-1.7-5.9-4.2-8.1l-3.7-3.2
								c0.8-1,1.5-2,2-3.2c0.1,0.1,0.2,0.2,0.4,0.4l20.9,18.2c0.3,0.2,0.5,0.4,0.8,0.6c-1,2.3-1.2,5-0.5,7.6l1,3.6L501.7,704z
								 M450.9,692.6c-1.3,0-2.5,0.2-3.8,0.5l1.1-2.8L450.9,692.6z M416.3,688c2.2-0.5,4.2-1.5,5.9-3l-0.3,0.7l0,0l-1.6,3.8
								C419,688.8,417.7,688.3,416.3,688z M515.2,634.9c-1.2,5.1,1.1,10.6,6.1,13.4c0.4,0.2,0.8,0.4,1.1,0.6c0,0.2-0.1,0.4-0.1,0.6
								l-0.8,8.4c0-0.1-0.1-0.1-0.1-0.2l-7-11.7l0,0l-5.8-9.7C511,636.4,513.2,635.9,515.2,634.9z"/>
						</g>
					</g>
					<path class="st4" d="M476.9,754.9l37.9,5c14.7,1.9,28.4-7.9,30.5-21.8L582,487.8c2-13.9-8.3-26.9-23-28.8l-33.6-4.4
						c-3.4,4.1-5.8,9.3-6.7,15.1l-41.6,282.7C477,753.2,476.9,754,476.9,754.9z"/>
					<g>
						<path class="st2" d="M422.8,453.1l101.7,13.4l57.7,7.6c2.9,0.4,5.5-1.5,5.9-4.2l3.5-23.6c0.4-2.7-1.6-5.2-4.5-5.6l-57.7-7.6
							c0,0,0,0,0,0l-101.8-13.4c-2.9-0.4-5.5,1.5-5.9,4.2l-3.5,23.6C417.9,450.2,419.9,452.7,422.8,453.1z"/>
					</g>
					<g>
						<path class="st2" d="M524.5,466.4l57.7,7.6c2.9,0.4,5.5-1.5,5.9-4.2l3.5-23.6c0.4-2.7-1.6-5.2-4.5-5.6l-57.7-7.6c0,0,0,0,0,0
							c-2.9-0.4-5.5,1.5-5.9,4.2l-3.5,23.6C519.7,463.5,521.7,466,524.5,466.4z"/>
					</g>
				</g>
			</g>
			<g>
				<path class="st2" d="M482.5,598.9c0,0,0.4-0.9,1.9-1.9c1.1-1.2,2.4-2.6,2.7-3.5c0.6-1.7,2.9-1.9,3.3-0.2c0.1,0.6,0.1,1.2,0,1.7
					c3.7-0.5,9.2-0.4,17.2,1.2c0,0,6.2,1,0.9,4.8c-3.6,2.5-5.9,1.9-11,5.4c-5.1,3.5-11.5,4.4-15.5,2.1l-5.2-0.8l-1-8.5L482.5,598.9z
					"/>
				<g>
					<path class="st2" d="M335.7,504.8c0,0-10.7,52.9,53.3,93.8c17.3,11,94,12.3,94,12.3s2.3-9-2.8-12.8c0,0-65.6-22-72-20.9
						c-5.7,1-35.7-52.1-47.5-62.5C348.9,504.3,335.7,504.8,335.7,504.8z"/>
				</g>
			</g>
		</g>
	</g>
	<g class="st1">
		<g>
			<g>
				<path class="st2" d="M823.8,416.4c0-1.2,1-14.3,22.2-15c0,0-10.4,1.2-12.2,5.5c0,0,7.1-5.3,12.8-3.6c5.8,1.7,9.1,11.3,9.2,14.4
					c0,3.1-3.2,13.3-6.8,14.1c-1.4,0.3-3,0.2-4.4,0c1,1.4,1.9,3,2.8,4.8c8.4,16.4-0.3,32.4-7.4,30.6c-4.6-1.1-5.9,6.3-5.9,6.3
					l-44.5-34.1C789.7,439.4,806,407.4,823.8,416.4z"/>
			</g>
			<path class="st2" d="M702.6,621.1c3.7,3.1,13.6-7.6,14.9-9c0.1-0.1,0.1-0.2,0.1-0.2l-3-7.9c0,0-12.9-0.5-15.1,1.6
				C697.5,607.6,698.5,617.8,702.6,621.1z"/>
			<path class="st2" d="M714.7,604l1.3,8.2c0,0,0.6,0,1.6-0.1c3.1-0.2,10.8-0.6,19.4-1.5c8.3-0.8,17.5-1.9,24.7-3.6
				c4.2-1,7.7-2.1,9.9-3.4c9.4-5.4,24.7-22,34.7-38.5c0.3-0.4,0.5-0.8,0.7-1.2c3.4-5.7,6.1-11.3,7.7-16.5c0.9-2.8,1.4-5.5,1.5-8
				c0.2-4.3-0.3-7.9-1.2-11.1c-1.2-4.2-3.2-7.5-5.3-10c-0.3-0.4-0.6-0.8-1-1.1c-3.4-3.9-6.8-5.5-6.8-5.5c-1.4-0.5-2.8-0.1-4.3,1
				c-0.2,0.1-0.3,0.3-0.5,0.4c0,0,0,0,0,0c-0.2,0.2-0.4,0.4-0.6,0.6v0.1c-0.6,0.5-1.1,1.2-1.7,1.9c0,0,0,0,0,0
				c-1.1,1.4-2.2,3-3.2,4.9c-0.1,0.1-0.1,0.1-0.1,0.2c-0.4,0.6-0.7,1.3-1.1,2c-0.1,0.1-0.2,0.3-0.3,0.5c-0.8,1.6-1.6,3.2-2.4,4.9
				c-8.8,18.1-18.2,45.6-25.9,53.8c-1.8,1.9-7.1,4.8-13.6,7.9v0c-0.1,0.1-0.2,0.1-0.4,0.2c0,0,0,0,0,0c-5.4,2.5-11.5,5.2-17,7.5
				C721.8,601.3,714.7,604,714.7,604z"/>
			<g>
				<path class="st2" d="M747.7,590.3c0.4,0.9,2.3,5.1,5.3,9.5c2.5,3.5,5.7,7,9.5,8.9c2.9-1.3,8.2-3.3,10.5-4.6
					c8.1-4.7,19.7-18,29.2-32.3c1.4-2.2,2.8-4.4,4.2-6.6c0.3-0.4,0.5-0.8,0.7-1.2c3.4-5.7,6.1-11.3,7.7-16.5l-17.1-34.7l0-0.1
					c-0.1,0.1-0.2,0.2-0.5,0.5c0,0,0,0,0,0c-0.5,0.5-1.3,1.4-2.3,2.6c0,0,0,0,0,0c-1.1,1.4-2.2,3-3.2,4.9c-0.1,0.1-0.1,0.1-0.1,0.2
					c-0.4,0.6-0.7,1.3-1.1,2c-0.1,0.1-0.2,0.3-0.3,0.5c-0.8,1.6-1.6,3.2-2.4,4.9c-8.8,18.1-18.2,45.6-25.9,53.8
					c-1.8,1.9-7.1,4.8-13.6,7.9v0C747.9,590.2,747.8,590.3,747.7,590.3z"/>
			</g>
			<g>
				<path class="st2" d="M753,599.7c2.5,3.5,5.7,7,9.5,8.9c2.9-1.3,8.2-3.3,10.5-4.6c8.1-4.7,19.7-18,29.2-32.3
					c-0.4-4.5-25.2,18.5-28.3,22.7C771.5,597.6,759.2,599.1,753,599.7z"/>
			</g>
			<g>
				<g>
					<path class="st2" d="M711.5,873.5l3.5,30.3c0.7,6,6.4,10.4,12.8,9.7l32.1-3.3c6.3-0.6,11-6.1,10.3-12.1l-3.5-30.3
						c-0.6-5.5-5.5-9.7-11.3-9.8c-0.5,0-1,0-1.5,0.1l-32.1,3.3C715.5,862.1,710.8,867.5,711.5,873.5z"/>
				</g>
				<g>
					<path class="st2" d="M729.6,872.7c22.7,1.2,27.3,38,30.3,37.7c6.3-0.6,11-6.1,10.3-12.1l-3.5-30.3c-0.6-5.5-5.5-9.7-11.3-9.8
						C735.4,865,718.2,872.1,729.6,872.7z"/>
				</g>
				<g>
					<path class="st2" d="M629.4,502.2l43.2,230.5l24.4,130c1.4,7.5,8.7,12.7,16.7,11.9l39.4-4l8.9-0.9
						c11.2-1.1,19.5-10.3,18.9-20.9l-6.3-126.5L763,488.6l-82.3,8.4L629.4,502.2z"/>
				</g>
				<g>
					<path class="st2" d="M680.7,497l42,226.8l25.6,138.1c0.6,3.5,2.5,6.5,5,8.7l8.9-0.9c11.2-1.1,19.5-10.3,18.9-20.9l-6.3-126.5
						L763,488.6L680.7,497z"/>
				</g>
				<g>
					<polygon class="st2" points="627.7,486.5 629.4,502.2 680.7,497 763,488.6 761.2,472.8 678.4,481.3 					"/>
				</g>
				<g>
					<path class="st2" d="M672.7,732.7l24.5,130.9c1.3,7,8.2,11.9,15.7,11.1l37.1-3.8l15.5-1.6c9.3-0.9,16.2-8.6,15.7-17.4
						l-6.5-129.7l-52.8,5.4L672.7,732.7z"/>
				</g>
				<g>
					<path class="st2" d="M721.9,727.7l25.8,137.5c0.4,2.1,1.2,4,2.3,5.8l15.5-1.6c9.3-0.9,16.2-8.6,15.7-17.4l-6.5-129.7
						L721.9,727.7z"/>
				</g>
				<g>
					<polygon class="st2" points="678.4,481.3 680.7,497 763,488.6 761.2,472.8 					"/>
				</g>
			</g>
			<g>
				<path class="st2" d="M808.3,898.7l9.4,3.3c0,0,41-53.8,46.1-101.2c0.9-8.5,0.6-16.6-1.3-24.2c0,0,0.4-2.2,1.1-6
					c0.3-1.8,0.7-3.9,1.2-6.4c1.3-7.2,3.2-17.1,5.3-28.4c4.8-25.9,11.1-59,15.9-83.4l-2.5-0.8l-27.5-8.4l-5.7-17.1l-20.5-5.1
					c0,0-4.6,8.5-8.7,48.5c-0.8,5.3-1.4,11-2,17.3c-1.6,19.2-1.7,42.9,2,70.1c0.9,7,2.1,14.1,3.6,21.5c1.1,5.4,1.2,12.8,0.8,21.3
					C823.4,838.5,808.3,898.7,808.3,898.7z"/>
			</g>
			<g>
				<path class="st2" d="M819.1,686.9l44.5,83.7c0.3-1.8,0.7-3.9,1.2-6.4c1.3-7.2,3.2-17.1,5.3-28.4c4.8-25.9,11.1-59,15.9-83.4
					l-2.5-0.8l-27.5-8.4l-5.7-17.1l-20.5-5.1c0,0-4.6,8.5-8.7,48.5C820.3,674.8,819.6,680.6,819.1,686.9z"/>
			</g>
			<g>
				<path class="st2" d="M838.7,631.8l1-8.4c17.3,4.3,63.4-12.1,63.4-12.1s16.7,13.9,14.5,47.3c-1.1,16.3-3,85.4-5.1,105.9
					c-0.7,7.4-1.4,12.7-1.7,14.8c0,0,0,0,0,0c-0.1,0.6,0.2,1.3,0.5,1.8c3,4.8,5.5,9.9,7.6,15c20.1,50.6-3.1,112.9-3.1,112.9l-6-2.3
					c0,0-13.2-69.4-23.9-100c-1.8-5.2-3.6-9.3-5.2-11.7c-4.7-7.1-9-18.7-12.9-32.5c-7.4-26.1-13.4-60.1-17.4-86.3
					C850,676.2,838.7,631.8,838.7,631.8z"/>
			</g>
			<g>
				<path class="st2" d="M825.6,534.8c29.7,1.5,23.2-40.3,21.4-40.1c-3.6-1.8-10.2-10.5-13.9-25.1l-1.3,0.6l-21.4,9.5
					c0,0,2.3,6.6,4,12.9c1.3,4.9,2.3,9.7,1.5,11c-1.7,0.6-2.7,1.1-2.7,1.1s0,0,0,0C812.8,505.2,817.7,534.4,825.6,534.8z"/>
			</g>
			<g>
				<path class="st2" d="M810.3,479.7c0,0,2.3,6.6,4,12.9c12.5-3.3,16.3-15.8,17.5-22.4L810.3,479.7z"/>
			</g>
			<g>
				<path class="st2" d="M807.7,486.7c0,0,30-6.6,25.4-24.1c-4.6-17.6-3.8-30.3-23.2-26.8c-19.3,3.4-21.3,11-21.2,17.2
					C788.6,459.1,799.8,487.9,807.7,486.7z"/>
			</g>
			<g>
				<path class="st2" d="M786.9,442.9c3.2-6.4,7-6,9.4-4.9c14.1-12.3,27.9-2.3,27.9-2.3c5.3,12.1,16.8,17.1,16.8,17.1
					s-4.6,4.5-17.9,4.4c-4.1,0-8.2-1.8-11.9-4.2c7.2,6.9,15.6,11,15.6,11c-16.7-3-27.9-21.3-29-23.3c-1.4,2-4.1,6.2-4.3,9.7
					c-0.3,4.8,1.4,14.2-1.5,14.6C791.9,465.1,782.1,452.5,786.9,442.9z"/>
			</g>
			<g>
				<path class="st2" d="M880.9,913.7h47.6c0,0,1.1-6.9-1.3-12.1c-2.4-5-6.1-7.3-5.2-13.3c-3,2.9-8,6.2-14.8,5.4
					c-0.8,1.3-5.4,8.2-8.3,10.1C895.8,905.9,881.9,905.2,880.9,913.7z"/>
			</g>
			<g>
				<path class="st2" d="M778.8,913.7h47.6c0,0,1.8-7.2-1.3-12.1c-2.8-4.3-1.7-6.8,0.3-10.4c-2.2,0.8-4.9,1.6-8,1.4
					c-2.4-0.1-4.9-1.1-7.1-2.4c-2,2.2-10.8,11.6-13.6,13.5C793.6,905.9,779.7,905.2,778.8,913.7z"/>
			</g>
			<g>
				<path class="st2" d="M797.5,512.7l7.8,99.1l4.8,60.7c7.3,2.2,14.3,3.8,21,5.1c0.4-5.1,2.2-11.2,2.2-11.2
					c-0.1,3.2,3.9,9.3,6.2,12.6c60.9,9.2,89.5-15.9,89.5-15.9c-2.4-22.3-12.6-67.3-24.9-105c-2.6-7.8-5.2-15.4-7.9-22.3
					c-6.1-15.8-10-24-13.2-30.4c-6.2-12.2-34.2-11.4-34.2-11.4c-5.4,18.3-20.2,29.8-20.2,29.8c-7.9-4.4-13.8-19.8-13.8-19.8
					L797.5,512.7z"/>
			</g>
			<g>
				<path class="st2" d="M842.6,490.6c0,0,5.1,0.3,6.2,3.4c0,0-6.6,25.2-20.2,29.8L842.6,490.6z"/>
			</g>
			<g>
				<path class="st2" d="M828.5,523.8c0,0-12.6-19.9-12.6-22.9c0,0-5.2,1.9-4.9,5C811.1,505.9,822,522.4,828.5,523.8z"/>
			</g>
			<g>
				<path class="st2" d="M863.2,514.8c-0.4,1.2-46,70.1-47,83.8c-1,13.7,19.2,6,19.5,4.2C836.1,601,863.2,514.8,863.2,514.8z"/>
			</g>
			<g>
				<path class="st2" d="M805.3,611.8l4.8,60.7c65.3-17.8,68.8-148,68.8-148l-40.3,68.9l-32.9,18
					C805.7,611.3,805.6,611.5,805.3,611.8z"/>
			</g>
			<g>
				<path class="st2" d="M742.9,618.6c0.1-2.3,3.3-2.2,5.7-2.2c3.9,0,10.1-0.3,13.7-1.6c0,0-11.5-0.2-9-3.6
					c0.4-0.6,6.1-0.2,12.5-0.2c2.6,0,9.1,3.4,8.7,3.5c4.6-0.6,8.8-1.4,10.2-1.7l0,0c3.1-1.6,6.9-3.6,10.9-5.7
					c8.2-4.4,17.4-9.5,24.6-14.2c1.3-0.8,2.5-1.7,3.7-2.5c4.4-3,7.6-5.6,8.8-7.5c1.8-2.9,3.8-7.5,6-13.2c1.1-3,2.4-6.2,3.6-9.7
					c2.1-5.7,4.3-11.8,6.5-18c4-11.2,8.3-22.5,12.4-31.2c2.6-5.5,5.2-10,7.6-12.8c1.9-2.2,16.6-0.2,16.7,19.4c0.1,1.1,0,2.2-0.1,3.4
					c-0.1,3.4-0.9,7.6-1.9,12.2c-1.7,7.7-4.6,16.6-8.2,25.7c-1,2.4-2,4.9-3.1,7.4c-7.7,18.1-17.7,35-26,40.8c-0.4,0.3-0.6,0.5-1,0.7
					c-3.1,1.8-7.4,3.7-12.4,5.4c-0.7,0.3-1.5,0.5-2.2,0.8c-8.4,2.7-18.4,5.1-27.4,7.2h-0.1c-5.2,1.1-10,2.1-14,2.8h0l0,0
					c0,0-0.4,0.1-1.2,0.3c-0.3,0.1-0.7,0.1-1.1,0.2c0,0,0,0,0,0c-3.8,0.9-11.6,2.8-18.9,5.5c-10.3,3.9-17.9-0.9-21.3-4.3
					C744.5,623.6,742.8,620.7,742.9,618.6z"/>
			</g>
			<g>
				<path class="st2" d="M820.3,593.1c0,0-0.5,16.3,15.7,24.3c18.7-6.4,28.7-32.8,36.4-50.9c1.1-2.5,2.1-5,3.1-7.4
					c3.6-9.1,6.4-18,8.2-25.7c1.1-4.6,1.8-8.8,1.9-12.2c0.1-1.2,0.1-2.4,0.1-3.4c-0.1-19.6-14.8-21.6-16.7-19.4
					c-2.4,2.8-5,7.3-7.6,12.8c-4.1,8.7-8.4,20-12.4,31.2c-2.2,6.2-4.4,12.3-6.5,18c-1.2,3.4-2.4,6.7-3.6,9.7
					c-2.2,5.7-4.2,10.3-6,13.2c-1.1,1.9-4.4,4.5-8.8,7.5C822.9,591.4,821.6,592.2,820.3,593.1z"/>
			</g>
			<path class="st2" d="M747.6,590.2c0,0.1,0.1,0.1,0.1,0.1C747.7,590.2,747.6,590.2,747.6,590.2C747.6,590,747.6,590,747.6,590.2z"
				/>
		</g>
	</g>
	<path class="st5" d="M67.9,909.5c3.2,0.1,6.3-0.3,9.3-0.7c-3.5-2.6-11-8-17-11.8c-8.3-5.2-12.9-13.8-1.3-15.3
		c9.9-1.3,17.7,20.4,19.8,26.8c1.4-0.3,2.7-0.5,4-0.8c-1.6-4.6-5.1-14.3-8.4-21c-4.5-9.1-20.3-24.6-4.5-26.3
		c14.1-1.6,17.8,37.5,18.5,46.1c2.8-0.6,5.3-1,7.2-0.9c4.5,0.3,8.8,5.2,6.3,7.4H54.3C55.8,911.7,59.8,909.3,67.9,909.5z"/>
	<path class="st5" d="M1587.3,902.9L1587.3,902.9c7.2-17.4,22.7-50.6,34.5-46.7c11.7,3.9-14.6,32.7-29.3,47.7c2.9,0.6,5.6,1.2,8,1.8
		c11.4-10.4,30.2-27.3,31.9-20.3c1.5,6.1-14.6,15.4-26.9,21.5c7.7,1.7,13.5,2.5,20.7,0.8c11.9-2.7,17.9,5.4,17.9,5.4h-90.6
		C1553.4,913,1568.4,899.3,1587.3,902.9z"/>
	<g>
		<g>
			<g>
				<path class="st6" d="M983.8,478.1V703c0,13.8,11.3,25.1,25.1,25.1h133.7c3.6,0,7-0.8,10.1-2.1c8.8-3.9,15-12.7,15-23V478.1
					c0-13.8-11.3-25.1-25.1-25.1h-133.7C995.1,453,983.8,464.3,983.8,478.1z"/>
				<path class="st7" d="M1043,537.6c14.1-5.3,21.3-21.1,16-35.2c-5.3-14.1-21-21.3-35.2-16c-14.1,5.3-21.3,21.1-16,35.2
					C1013.2,535.7,1028.9,542.9,1043,537.6z"/>
				<path class="st8" d="M1007.9,521.6l51.1-19.2c-5.3-14.1-21-21.3-35.2-16C1009.7,491.7,1002.6,507.5,1007.9,521.6z"/>
				<path class="st7" d="M1135.3,533.2c11.7-9.5,13.4-26.7,3.9-38.4c-9.5-11.7-26.7-13.4-38.4-3.9c-11.7,9.5-13.4,26.7-3.9,38.4
					C1106.4,540.9,1123.6,542.7,1135.3,533.2z"/>
				<path class="st8" d="M1096.9,529.3l42.3-34.5c-9.5-11.7-26.7-13.4-38.4-3.9C1089.1,500.4,1087.4,517.6,1096.9,529.3z"/>
			</g>
		</g>
		<path class="st4" d="M983.8,494.1V703c0,13.8,11.3,25.1,25.1,25.1h133.7c3.6,0,7-0.8,10.1-2.1V523c0-8.3-3.5-15.8-9.2-21.1
			c-2.1-2-4.5-3.6-7.1-4.9c-3.8-1.9-8.1-2.9-12.7-2.9H983.8z"/>
	</g>
	<g>
		<g>
			<path class="st6" d="M975.2,510.1h133.7c13.8,0,25.1,11.3,25.1,25.1v224.9c0,13.8-11.3,25.1-25.1,25.1H975.2
				c-13.8,0-25.1-11.3-25.1-25.1V535.2C950.1,521.4,961.4,510.1,975.2,510.1z"/>
			<path class="st7" d="M1009.3,594.7c14.1-5.3,21.3-21.1,16-35.2c-5.3-14.1-21-21.3-35.2-16c-14.1,5.3-21.3,21.1-16,35.2
				C979.4,592.8,995.2,600,1009.3,594.7z"/>
			<path class="st8" d="M974.1,578.7l51.1-19.2c-5.3-14.1-21-21.3-35.2-16C976,548.9,968.8,564.6,974.1,578.7z"/>
			<path class="st7" d="M1101.6,590.3c11.7-9.5,13.4-26.7,3.9-38.4c-9.5-11.7-26.7-13.4-38.4-3.9c-11.7,9.5-13.4,26.7-3.9,38.4
				C1072.7,598.1,1089.9,599.8,1101.6,590.3z"/>
			<path class="st8" d="M1063.2,586.4l42.3-34.5c-9.5-11.7-26.7-13.4-38.4-3.9C1055.4,557.5,1053.6,574.7,1063.2,586.4z"/>
		</g>
	</g>
	<g>
		<g>
			<path class="st9" d="M485.5,537.1c0,0,0.1-1,1.3-2.4c0.7-1.5,1.5-3.3,1.5-4.3c0.1-1.9,2.2-2.7,3.1-1.1c0.3,0.5,0.4,1.1,0.5,1.8
				c3.4-1.6,8.7-3,16.9-3.5c0,0,6.3-0.7,2.2,4.6c-2.7,3.6-5.1,3.6-9,8.5c-3.9,5-9.8,7.7-14.3,6.4l-5.2,0.6l-3.4-8.3L485.5,537.1z"/>
			<path class="st10" d="M317,481.9c0,0,5.2,56.7,78.5,80.7c19.8,6.5,93.9-13.4,93.9-13.4s-0.4-9.8-6.4-12.2c0,0-69.4-4.3-75.3-1.4
				c-5.2,2.5-49.5-43.1-63.8-50.5C329.5,477.7,317,481.9,317,481.9z"/>
		</g>
		<path class="st11" d="M226.4,872.2c0,0-8.8,8-7.1,13.7c1.7,5.7,9.6,9.5,10.7,16.5s5.4,10.8,9.2,10.8s18.4,0,18.4,0s2.8-4.9-4-6.4
			c-6.9-1.5-9.4-9.7-9-17.3c0.4-7.6-0.6-17.7-0.6-17.7l-14.6-3.4L226.4,872.2z"/>
		<path class="st12" d="M226.4,867.2c1.6,4.8,19.3,11.7,19.3,11.7s9.6-15.2,40.5-69.6c2.7-4.7,5.4-9.8,8.3-15.3
			c30.3-58.2,69.5-154.9,69.5-154.9L289,618.1c0,0-3.5,30.1-4.2,45.3c-0.4,9.3-5.7,29.1-12.4,46.4c-4.3,11-9.1,21-13.7,26.7
			C238.2,762.1,226.4,867.2,226.4,867.2z"/>
		<path class="st13" d="M272.5,709.8c4.7,23.9,13.3,63.9,22,84.1c30.3-58.2,69.5-154.9,69.5-154.9L289,618.1c0,0-3.5,30.1-4.2,45.3
			C284.5,672.7,279.2,692.5,272.5,709.8z"/>
		<path class="st11" d="M334.1,893c0,0-1.6,18.2,2.3,20.1l49.4-0.1c0,0,0-5.7-7.9-7c-7.9-1.3-21.9-5.9-24.2-16.2
			C351.3,879.5,334.1,893,334.1,893z"/>
		<path class="st12" d="M375.8,635.2c0,0-2.6,32-5.7,70.4c-4.2,52.2-9.2,116.4-9.7,128.5c-0.9,21.1-4.3,54.9-4.3,54.9
			s-8.1,8-24.4,4.6c0,0-14.5-48.2-18.7-99.2c-0.1-0.8-0.1-1.7-0.2-2.5c-3.9-51.9-9.9-161.2-9.9-161.2L375.8,635.2z"/>
		<path class="st14" d="M307.6,460.5c0,0,29.3,19.3,47.6,13.6c0,0-5.1-7.7-9.9-13.9c0.6-3.7,1.1-6.9,1.4-9.6
			c0.8-6.2,0.8-9.8,0.8-9.8l-12.2-9.6l-11.6-9.2C324.5,448,307.6,460.5,307.6,460.5z"/>
		<path class="st15" d="M266.2,695.7c37.2,25.1,112.5,18,113,17.5c1.3-16,2-42.4,2.4-66.8c0.5-30.3,0.5-57.6,0.5-58.2
			c0,0,0-0.9-0.1-2.5c-0.1-4.9-0.4-16.2-0.7-24.6c-0.1-1.6-0.1-3-0.2-4.4c0-0.1,0-0.1,0-0.2c-0.2-3.8-2.5-13.9-5.8-25.7
			c-4.8-17.3-11.6-38.1-16.8-47.8c-2.7-5-11.6-19.4-11.6-19.4c-6.3,1.3-10.9-0.6-17.6-3.9c-7.3-3.5-15.2-7.3-16.5-6.4
			c-9.6,7-16.1,22.7-19.5,42.8C291.3,507.9,264.4,694.5,266.2,695.7z"/>
		<path class="st16" d="M323.3,432c0,0,8,14.6,23.3,18.7c0.8-6.2,0.8-9.8,0.8-9.8l-12.2-9.6L323.3,432z"/>
		<path class="st14" d="M353,440.5c0,0-30.3,5-33.1-13.7c-2.8-18.6-8.7-30.5,10.6-34.5c19.2-4,24.1,2.6,26.6,8.6
			S360.8,438.7,353,440.5z"/>
		<path class="st11" d="M308.9,390.1c-0.3-0.3-0.9-0.6-2.3-0.6c0,0,1.1-0.7,2.6-0.7c0.3-2,1.3-5.4,4.7-6.3c0,0-1.8,1-2.1,3.1
			c3.9-4,12.3-6.9,35.5-5.1c30.6,2.4,20.5,22,16.5,24.3c-4,2.3-13.9-4.1-21.3-3.5c-7.4,0.6-8.8,11.2-11.3,12.7
			c-2.5,1.5-1.5-1.1-4.9-2.7c-3.4-1.5-3.7,4.1-2.7,7.7c1,3.6-3.7,8.5-3.7,8.5s0,0-4.7-5.1c-4.7-5.1-9.1-26.5-7-31.1
			C308.5,390.9,308.7,390.5,308.9,390.1z"/>
		<path class="st10" d="M381.6,646.4c0.5-30.3,0.5-57.6,0.5-58.2c0,0,0-0.9-0.1-2.5c-29.2-36.1-66.8-73.6-66.8-73.6
			S307.1,618.1,381.6,646.4z"/>
		<path class="st10" d="M342,506c0.4,0.6,9.6,55.2,33.4,55.8c2.3,0.1,4.3-0.2,5.9-0.7c-0.1-1.6-0.1-3-0.2-4.4c0-0.1,0-0.1,0-0.2
			c-0.2-3.8-2.5-13.9-5.8-25.7C365.6,528.9,354.2,520,342,506z"/>
		<path class="st10" d="M312.7,453.5c0,0,2.8-8.2,5.1-9.1c0,0,31.9,7.4,42.5,42.6C360.3,487,347.9,465.3,312.7,453.5z"/>
		<g>
			<g>
				<path class="st17" d="M375.2,735.2l71.6,10l37.9,5.3c14.7,2,28.4-8.3,30.5-23L552,462.7c2-14.7-8.3-28.4-23-30.5l-33.6-4.7
					L419.5,417c-14.7-2-28.4,8.3-30.5,23l-36.8,264.7C350.2,719.5,360.5,733.2,375.2,735.2z"/>
				<path class="st18" d="M379.6,674.3c0.2,0,0.3,0.1,0.5,0.1c-1.2,0.3-2.3,0.7-3.4,1.3c-3.2,1.8-5.3,4.7-6.2,8
					c-0.9,3.3-0.6,6.9,1.2,10l14,24.7c3.6,6.3,11.6,8.6,18,5c6.3-3.6,8.6-11.6,5-18l-2.5-4.4c1.1-0.7,2.1-1.6,2.9-2.6
					c0.1,0.2,0.2,0.3,0.2,0.5l7,12.4l0,0l7,12.4c3.6,6.3,11.6,8.6,18,5c6.3-3.6,8.6-11.6,5-18l-7-12.4l0,0l-2.5-4.5l2,1.9
					c2.4,2.2,5.4,3.3,8.4,3.4c0.2,1.8,0.7,3.6,1.6,5.3l7,12.4l0,0l7,12.4c3.6,6.3,11.6,8.6,18,5c2-1.2,3.7-2.8,4.8-4.7
					c3.1,4.4,8.7,6.7,14.1,5.3c3.5-0.9,6.3-3.2,8-6.1c1.7-2.9,2.3-6.5,1.4-10l-3.6-13.7l0,0l-3.6-13.7c-0.8-2.9-2.4-5.3-4.7-7.1
					c1.1-2.9,1.2-6.1,0.2-9c1.3,0.6,2.8,1,4.3,1.2c3.6,0.3,7-0.9,9.6-3c2.6-2.2,4.4-5.3,4.7-8.9l1.2-14.1l0,0l1.2-14.1
					c0.5-5.3-2.3-10.1-6.6-12.6l4.6-7.8l0,0l7.2-12.2c3.7-6.2,1.6-14.4-4.6-18.1c-6.2-3.7-14.4-1.6-18.1,4.6l-7.2,12.2l0,0l-1.9,3.2
					c-0.5-4.6-3.4-8.8-7.9-10.8l-13-5.6l0,0l-13-5.6c-1.1-0.5-2.3-0.8-3.4-0.9c5.1-4.1,6.5-11.5,3-17.2c-3.8-6.2-12-8.1-18.1-4.3
					l-24.2,14.9c-4.6,2.9-6.9,8.2-6.1,13.3c-1.6,2.4-2.3,5.1-2.2,7.9c0.1,2.1,0.7,4.2,1.7,6c-2.7-0.3-5.4,0.2-7.9,1.6
					c-1.2,0.7-2.3,1.5-3.2,2.5l7.8-19.9c2.6-6.7-0.7-14.4-7.5-17.1c-3.4-1.3-7-1.1-10.1,0.2c-3.1,1.4-5.7,3.9-7,7.3l-5.2,13.2l0,0
					l-5.2,13.2c-2.6,6.8,0.7,14.4,7.5,17.1c6.1,2.4,12.9-0.1,16.1-5.6c-0.1,2.2,0.3,4.4,1.4,6.5c-0.4-0.1-0.7-0.3-1.1-0.4
					c-3.5-1-7.1-0.4-10,1.2c-2.9,1.7-5.3,4.4-6.2,7.9l-3.8,13.7l0,0l-3.8,13.7C368.5,665,372.6,672.3,379.6,674.3z M490.2,666.2
					l-5.4-5c0.6-0.2,1.2-0.5,1.7-0.8c1.5-0.8,2.8-2,3.8-3.2l-0.4,4.8C489.7,663.4,489.9,664.8,490.2,666.2z M403.8,636.6l6,10.6
					c0.8,1.5,1.9,2.7,3.1,3.7c-3-0.9-6.2-0.6-8.9,0.6c-2.2,1-4.2,2.6-5.6,4.7l5.2-18.4C403.7,637.4,403.8,637,403.8,636.6z
					 M439.7,596.4l-3.1-2.8l3.7-2.3C439.7,593,439.6,594.8,439.7,596.4z M422.9,616.8l9.3,8.5c0.8,0.7,1.7,1.3,2.6,1.8
					c-1.4,1.5-2.5,3.2-3.1,5.2L422.9,616.8z M417.6,653.4c3.3,0.9,6.9,0.6,10.1-1.2c0.9-0.5,1.7-1.1,2.4-1.8L430,654
					c-3.5-0.9-7.2-0.3-10.3,1.6C419.1,654.8,418.4,654.1,417.6,653.4z M459.6,612.7C459.6,612.7,459.6,612.7,459.6,612.7
					c-3.2,1.8-5.3,4.7-6.2,8c-0.5,1.9-0.6,3.8-0.3,5.8c-0.8-0.7-1.6-1.3-2.5-1.8c0.1-0.1,0.1-0.1,0.2-0.2c3.7-4.1,4.4-9.9,2.1-14.6
					L459.6,612.7z M461.5,643.1l2.2,3.9c-2.5,0.1-5,0.8-7.1,2.3l0.7-12.2c0-0.4,0-0.8,0-1.3L461.5,643.1L461.5,643.1z M471.7,691.4
					c-2.3-4.1-6.6-6.5-11-6.7c-0.3-3.2-1.7-6.2-4.2-8.5l-3.7-3.4c0.8-1,1.5-2.1,2-3.4c0.1,0.1,0.2,0.3,0.4,0.4l20.9,19.2
					c0.3,0.2,0.5,0.5,0.8,0.7c-1,2.5-1.2,5.3-0.5,8l1,3.8L471.7,691.4z M420.9,679.3c-1.3,0-2.5,0.2-3.8,0.5l1.1-2.9L420.9,679.3z
					 M386.3,674.4c2.2-0.5,4.2-1.6,5.9-3.2l-0.3,0.8l0,0l-1.6,4.1C389,675.3,387.7,674.7,386.3,674.4z M485.2,618.3
					c-1.2,5.4,1.1,11.2,6.1,14.2c0.4,0.2,0.8,0.4,1.1,0.6c0,0.2-0.1,0.4-0.1,0.7l-0.8,8.9c0-0.1-0.1-0.1-0.1-0.2l-7-12.4l0,0
					l-5.8-10.2C481,619.9,483.2,619.3,485.2,618.3z"/>
				<path class="st19" d="M446.9,745.2l37.9,5.3c14.7,2,28.4-8.3,30.5-23L552,462.7c2-14.7-8.3-28.4-23-30.5l-33.6-4.7
					c-3.4,4.4-5.8,9.8-6.7,15.9l-41.6,299C447,743.4,446.9,744.3,446.9,745.2z"/>
				<path class="st20" d="M392.8,426l101.7,14.2l57.7,8c2.9,0.4,5.5-1.6,5.9-4.5l3.5-24.9c0.4-2.9-1.6-5.5-4.5-5.9l-57.7-8
					c0,0,0,0,0,0l-101.8-14.2c-2.9-0.4-5.5,1.6-5.9,4.5l-3.5,24.9C387.9,423,389.9,425.6,392.8,426z"/>
				<path class="st6" d="M494.5,440.2l57.7,8c2.9,0.4,5.5-1.6,5.9-4.5l3.5-24.9c0.4-2.9-1.6-5.5-4.5-5.9l-57.7-8c0,0,0,0,0,0
					c-2.9-0.4-5.5,1.6-5.9,4.5l-3.5,24.9C489.7,437.1,491.7,439.7,494.5,440.2z"/>
			</g>
		</g>
		<g>
			<path class="st9" d="M452.5,580.2c0,0,0.4-1,1.9-2c1.1-1.2,2.4-2.7,2.7-3.7c0.6-1.8,2.9-2,3.3-0.2c0.1,0.6,0.1,1.2,0,1.8
				c3.7-0.6,9.2-0.5,17.2,1.3c0,0,6.2,1.1,0.9,5.1c-3.6,2.7-5.9,2-11,5.7c-5.1,3.7-11.5,4.7-15.5,2.2l-5.2-0.8l-1-9L452.5,580.2z"/>
			<path class="st15" d="M305.7,480.7c0,0-10.7,55.9,53.3,99.2c17.3,11.7,94,13,94,13s2.3-9.5-2.8-13.5c0,0-65.6-23.2-72-22.1
				c-5.7,1-35.7-55.1-47.5-66.1C318.9,480.2,305.7,480.7,305.7,480.7z"/>
		</g>
	</g>
	<g>
		<path class="st13" d="M518.7,897c0,4.4,1.8,8.4,4.7,11.3c2.9,2.9,6.9,4.7,11.3,4.7h75.8c8.8,0,16.1-7.2,16.1-16.1
			c0-4.4-1.8-8.4-4.7-11.3c-2.9-2.9-6.9-4.7-11.3-4.7h-75.8C525.9,881,518.7,888.2,518.7,897z"/>
		<path class="st21" d="M557.8,897c0,4.4,1.8,8.4,4.7,11.3c2.9,2.9,6.9,4.7,11.3,4.7h36.7c8.8,0,16.1-7.2,16.1-16.1
			c0-4.4-1.8-8.4-4.7-11.3c-2.9-2.9-6.9-4.7-11.3-4.7h-36.7C565,881,557.8,888.2,557.8,897z"/>
		<path class="st22" d="M533.5,884.6h72.3c1.3,0,2.3,1,2.3,2.3v0.5c0,1.3-1,2.3-2.3,2.3h-72.3c-1.3,0-2.3-1-2.3-2.3v-0.5
			C531.2,885.6,532.2,884.6,533.5,884.6z"/>
	</g>
	<g>
		<path class="st11" d="M793.8,387.3c0-1.3,1-15.2,22.2-15.9c0,0-10.4,1.2-12.2,5.8c0,0,7.1-5.6,12.8-3.8c5.8,1.8,9.1,11.9,9.2,15.2
			c0,3.3-3.2,14-6.8,14.9c-1.4,0.3-3,0.3-4.4,0c1,1.5,1.9,3.2,2.8,5.1c8.4,17.3-0.3,34.2-7.4,32.4c-4.6-1.2-5.9,6.6-5.9,6.6
			l-44.5-36C759.7,411.6,776,377.8,793.8,387.3z"/>
		<path class="st23" d="M672.6,603.7c3.7,3.3,13.6-8,14.9-9.5c0.1-0.1,0.1-0.2,0.1-0.2l-3-8.4c0,0-12.9-0.5-15.1,1.6
			C667.5,589.4,668.5,600.2,672.6,603.7z"/>
		<path class="st23" d="M684.7,585.6l1.3,8.7c0,0,0.6,0,1.6-0.1c3.1-0.2,10.8-0.6,19.4-1.6c8.3-0.8,17.5-2,24.7-3.8
			c4.2-1,7.7-2.2,9.9-3.6c9.4-5.7,24.7-23.2,34.7-40.8c0.3-0.4,0.5-0.9,0.7-1.3c3.4-6,6.1-12,7.7-17.4c0.9-3,1.4-5.8,1.5-8.4
			c0.2-4.5-0.3-8.4-1.2-11.7c-1.2-4.4-3.2-7.9-5.3-10.6c-0.3-0.4-0.6-0.9-1-1.2c-3.4-4.1-6.8-5.8-6.8-5.8c-1.4-0.6-2.8-0.1-4.3,1.1
			c-0.2,0.1-0.3,0.3-0.5,0.4c0,0,0,0,0,0c-0.2,0.2-0.4,0.4-0.6,0.6v0.1c-0.6,0.6-1.1,1.3-1.7,2c0,0,0,0,0,0
			c-1.1,1.4-2.2,3.2-3.2,5.2c-0.1,0.1-0.1,0.1-0.1,0.2c-0.4,0.6-0.7,1.4-1.1,2.1c-0.1,0.1-0.2,0.4-0.3,0.5c-0.8,1.6-1.6,3.4-2.4,5.1
			c-8.8,19.2-18.2,48.2-25.9,56.8c-1.8,2-7.1,5.1-13.6,8.3v0c-0.1,0.1-0.2,0.1-0.4,0.2c0,0,0,0,0,0c-5.4,2.7-11.5,5.5-17,7.9
			C691.8,582.8,684.7,585.6,684.7,585.6z"/>
		<path class="st15" d="M717.7,571.1c0.4,1,2.3,5.4,5.3,10c2.5,3.7,5.7,7.4,9.5,9.4c2.9-1.4,8.2-3.5,10.5-4.9
			c8.1-5,19.7-19,29.2-34.1c1.4-2.3,2.8-4.6,4.2-6.9c0.3-0.4,0.5-0.9,0.7-1.3c3.4-6,6.1-12,7.7-17.4l-17.1-36.6l0-0.1
			c-0.1,0.1-0.2,0.2-0.5,0.5c0,0,0,0,0,0c-0.5,0.6-1.3,1.5-2.3,2.8c0,0,0,0,0,0c-1.1,1.4-2.2,3.2-3.2,5.2c-0.1,0.1-0.1,0.1-0.1,0.2
			c-0.4,0.6-0.7,1.4-1.1,2.1c-0.1,0.1-0.2,0.4-0.3,0.5c-0.8,1.6-1.6,3.4-2.4,5.1c-8.8,19.2-18.2,48.2-25.9,56.8
			c-1.8,2-7.1,5.1-13.6,8.3v0C717.9,571,717.8,571.1,717.7,571.1z"/>
		<path class="st10" d="M723,581.1c2.5,3.7,5.7,7.4,9.5,9.4c2.9-1.4,8.2-3.5,10.5-4.9c8.1-5,19.7-19,29.2-34.1
			c-0.4-4.7-25.2,19.6-28.3,24C741.5,578.8,729.2,580.5,723,581.1z"/>
		<g>
			<path class="st6" d="M681.5,870.7l3.5,32.1c0.7,6.3,6.4,11,12.8,10.3l32.1-3.5c6.3-0.7,11-6.4,10.3-12.8l-3.5-32.1
				c-0.6-5.8-5.5-10.2-11.3-10.4c-0.5,0-1,0-1.5,0.1l-32.1,3.5C685.5,858.6,680.8,864.3,681.5,870.7z"/>
			<path class="st2" d="M699.6,869.8c22.7,1.3,27.3,40.1,30.3,39.8c6.3-0.7,11-6.4,10.3-12.8l-3.5-32.1c-0.6-5.8-5.5-10.2-11.3-10.4
				C705.4,861.6,688.2,869.1,699.6,869.8z"/>
			<path class="st7" d="M599.4,478l43.2,243.7l24.4,137.5c1.4,7.9,8.7,13.4,16.7,12.5l39.4-4.3l8.9-1c11.2-1.2,19.5-10.9,18.9-22.1
				l-6.3-133.7L733,463.6l-82.3,8.9L599.4,478z"/>
			<path class="st8" d="M650.7,472.5l42,239.8l25.6,146c0.6,3.7,2.5,6.9,5,9.2l8.9-1c11.2-1.2,19.5-10.9,18.9-22.1l-6.3-133.7
				L733,463.6L650.7,472.5z"/>
			<polygon class="st12" points="597.7,461.3 599.4,478 650.7,472.5 733,463.6 731.2,446.9 648.4,455.9 			"/>
			<path class="st12" d="M642.7,721.7l24.5,138.4c1.3,7.4,8.2,12.6,15.7,11.8l37.1-4l15.5-1.7c9.3-1,16.2-9.1,15.7-18.4l-6.5-137.1
				l-52.8,5.7L642.7,721.7z"/>
			<path class="st13" d="M691.9,716.4l25.8,145.4c0.4,2.2,1.2,4.3,2.3,6.1l15.5-1.7c9.3-1,16.2-9.1,15.7-18.4l-6.5-137.1
				L691.9,716.4z"/>
			<polygon class="st13" points="648.4,455.9 650.7,472.5 733,463.6 731.2,446.9 			"/>
		</g>
		<path class="st24" d="M778.3,897.2l9.4,3.5c0,0,41-56.9,46.1-107c0.9-8.9,0.6-17.6-1.3-25.6c0,0,0.4-2.3,1.1-6.3
			c0.3-1.9,0.7-4.2,1.2-6.8c1.3-7.6,3.2-18.1,5.3-30c4.8-27.4,11.1-62.4,15.9-88.2l-2.5-0.8l-27.5-8.9l-5.7-18.1l-20.5-5.4
			c0,0-4.6,9-8.7,51.3c-0.8,5.6-1.4,11.7-2,18.3c-1.6,20.3-1.7,45.4,2,74.2c0.9,7.4,2.1,15,3.6,22.8c1.1,5.7,1.2,13.5,0.8,22.5
			C793.4,833.6,778.3,897.2,778.3,897.2z"/>
		<path class="st25" d="M789.1,673.3l44.5,88.5c0.3-1.9,0.7-4.2,1.2-6.8c1.3-7.6,3.2-18.1,5.3-30c4.8-27.4,11.1-62.4,15.9-88.2
			l-2.5-0.8l-27.5-8.9l-5.7-18.1l-20.5-5.4c0,0-4.6,9-8.7,51.3C790.3,660.5,789.6,666.6,789.1,673.3z"/>
		<path class="st24" d="M808.7,615l1-8.8c17.3,4.6,63.4-12.8,63.4-12.8s16.7,14.7,14.5,50c-1.1,17.2-3,90.3-5.1,112
			c-0.7,7.8-1.4,13.4-1.7,15.7c0,0,0,0,0,0c-0.1,0.7,0.2,1.3,0.5,1.9c3,5.1,5.5,10.4,7.6,15.9c20.1,53.5-3.1,119.4-3.1,119.4l-6-2.4
			c0,0-13.2-73.3-23.9-105.7c-1.8-5.5-3.6-9.8-5.2-12.4c-4.7-7.5-9-19.8-12.9-34.4c-7.4-27.6-13.4-63.6-17.4-91.3
			C820,661.9,808.7,615,808.7,615z"/>
		<path class="st14" d="M795.6,512.4c29.7,1.6,23.2-42.6,21.4-42.4c-3.6-1.9-10.2-11.1-13.9-26.5l-1.3,0.6l-21.4,10.1
			c0,0,2.3,7,4,13.6c1.3,5.2,2.3,10.3,1.5,11.7c-1.7,0.7-2.7,1.1-2.7,1.1s0,0,0,0C782.8,481.2,787.7,512,795.6,512.4z"/>
		<path class="st16" d="M780.3,454.2c0,0,2.3,7,4,13.6c12.5-3.5,16.3-16.7,17.5-23.7L780.3,454.2z"/>
		<path class="st14" d="M777.7,461.5c0,0,30-6.9,25.4-25.5c-4.6-18.6-3.8-32-23.2-28.4c-19.3,3.6-21.3,11.7-21.2,18.2
			C758.6,432.5,769.8,462.9,777.7,461.5z"/>
		<path class="st11" d="M756.9,415.3c3.2-6.7,7-6.4,9.4-5.2c14.1-13,27.9-2.4,27.9-2.4c5.3,12.8,16.8,18.1,16.8,18.1
			s-4.6,4.7-17.9,4.6c-4.1,0-8.2-1.9-11.9-4.5c7.2,7.2,15.6,11.7,15.6,11.7c-16.7-3.2-27.9-22.5-29-24.6c-1.4,2.1-4.1,6.5-4.3,10.3
			c-0.3,5.1,1.4,15-1.5,15.4C761.9,438.7,752.1,425.4,756.9,415.3z"/>
		<path class="st11" d="M850.9,913.1h47.6c0,0,1.1-7.3-1.3-12.8c-2.4-5.3-6.1-7.7-5.2-14.1c-3,3.1-8,6.6-14.8,5.7
			c-0.8,1.4-5.4,8.7-8.3,10.7C865.8,904.9,851.9,904.1,850.9,913.1z"/>
		<path class="st11" d="M748.8,913.1h47.6c0,0,1.8-7.6-1.3-12.8c-2.8-4.6-1.7-7.2,0.3-11c-2.2,0.9-4.9,1.7-8,1.5
			c-2.4-0.1-4.9-1.2-7.1-2.5c-2,2.3-10.8,12.3-13.6,14.2C763.6,904.9,749.7,904.1,748.8,913.1z"/>
		<path class="st15" d="M767.5,489.1l7.8,104.8l4.8,64.2c7.3,2.3,14.3,4.1,21,5.4c0.4-5.4,2.2-11.8,2.2-11.8
			c-0.1,3.4,3.9,9.8,6.2,13.3c60.9,9.8,89.5-16.8,89.5-16.8c-2.4-23.5-12.6-71.1-24.9-111c-2.6-8.3-5.2-16.3-7.9-23.6
			c-6.1-16.7-10-25.4-13.2-32.2c-6.2-12.9-34.2-12-34.2-12c-5.4,19.4-20.2,31.5-20.2,31.5c-7.9-4.6-13.8-20.9-13.8-20.9L767.5,489.1
			z"/>
		<path class="st10" d="M812.6,465.7c0,0,5.1,0.3,6.2,3.6c0,0-6.6,26.6-20.2,31.5L812.6,465.7z"/>
		<path class="st10" d="M798.5,500.8c0,0-12.6-21-12.6-24.2c0,0-5.2,2-4.9,5.3C781.1,481.9,792,499.3,798.5,500.8z"/>
		<path class="st10" d="M833.2,491.3c-0.4,1.3-46,74.1-47,88.6c-1,14.5,19.2,6.3,19.5,4.4C806.1,582.4,833.2,491.3,833.2,491.3z"/>
		<path class="st10" d="M775.3,593.9l4.8,64.2c65.3-18.8,68.8-156.5,68.8-156.5l-40.3,72.8l-32.9,19
			C775.7,593.4,775.6,593.5,775.3,593.9z"/>
		<path class="st14" d="M712.9,601.1c0.1-2.4,3.3-2.3,5.7-2.3c3.9,0,10.1-0.3,13.7-1.7c0,0-11.5-0.2-9-3.8c0.4-0.7,6.1-0.2,12.5-0.2
			c2.6,0,9.1,3.6,8.7,3.7c4.6-0.6,8.8-1.5,10.2-1.8l0,0c3.1-1.7,6.9-3.8,10.9-6.1c8.2-4.6,17.4-10.1,24.6-15
			c1.3-0.9,2.5-1.8,3.7-2.6c4.4-3.1,7.6-5.9,8.8-7.9c1.8-3.1,3.8-7.9,6-13.9c1.1-3.1,2.4-6.6,3.6-10.2c2.1-6,4.3-12.5,6.5-19
			c4-11.9,8.3-23.8,12.4-33c2.6-5.8,5.2-10.6,7.6-13.5c1.9-2.4,16.6-0.2,16.7,20.5c0.1,1.1,0,2.4-0.1,3.6c-0.1,3.6-0.9,8.1-1.9,12.9
			c-1.7,8.2-4.6,17.6-8.2,27.2c-1,2.6-2,5.2-3.1,7.9c-7.7,19.2-17.7,37-26,43.1c-0.4,0.3-0.6,0.5-1,0.7c-3.1,1.9-7.4,3.9-12.4,5.7
			c-0.7,0.3-1.5,0.5-2.2,0.8c-8.4,2.9-18.4,5.4-27.4,7.6h-0.1c-5.2,1.1-10,2.2-14,3h0l0,0c0,0-0.4,0.1-1.2,0.3
			c-0.3,0.1-0.7,0.1-1.1,0.2c0,0,0,0,0,0c-3.8,0.9-11.6,2.9-18.9,5.8c-10.3,4.1-17.9-1-21.3-4.6
			C714.5,606.3,712.8,603.3,712.9,601.1z"/>
		<path class="st15" d="M790.3,574.1c0,0-0.5,17.3,15.7,25.7c18.7-6.8,28.7-34.7,36.4-53.8c1.1-2.6,2.1-5.3,3.1-7.9
			c3.6-9.6,6.4-19,8.2-27.2c1.1-4.9,1.8-9.3,1.9-12.9c0.1-1.3,0.1-2.5,0.1-3.6c-0.1-20.7-14.8-22.9-16.7-20.5
			c-2.4,2.9-5,7.7-7.6,13.5c-4.1,9.2-8.4,21.2-12.4,33c-2.2,6.5-4.4,13-6.5,19c-1.2,3.6-2.4,7.1-3.6,10.2c-2.2,6-4.2,10.9-6,13.9
			c-1.1,2-4.4,4.8-8.8,7.9C792.9,572.3,791.6,573.2,790.3,574.1z"/>
		<path class="st26" d="M717.6,571c0,0.1,0.1,0.1,0.1,0.1C717.7,571,717.6,571,717.6,571C717.6,570.9,717.6,570.9,717.6,571z"/>
	</g>
	<g>
		<rect x="970.8" y="599.8" class="st13" width="209.9" height="313.3"/>
		<rect x="941.5" y="599.8" class="st13" width="209.9" height="313.3"/>
		<polygon class="st27" points="1151.5,618 1161.5,633.7 1180.7,633.7 1180.7,599.8 1151.5,599.8 		"/>
		<polygon class="st12" points="1180.7,599.8 1198.6,624.5 1169.4,624.5 1151.5,599.8 		"/>
		<polygon class="st12" points="1151.5,614.1 1151.5,914.1 1043.2,914.1 1043.2,624.5 		"/>
		<g>
			<polygon class="st27" points="941.5,624.5 958.6,633.7 1141.3,633.7 1151.5,618 1151.5,599.8 			"/>
			<polygon class="st12" points="941.5,599.8 1151.5,599.8 1136.6,624.5 926.7,624.5 			"/>
		</g>
	</g>
	<g>
		<g>
			<g>
				<path class="st6" d="M1021.5,729.3h224.9c13.8,0,25.1,11.3,25.1,25.1v133.7c0,13.8-11.3,25.1-25.1,25.1h-224.9
					c-13.8,0-25.1-11.3-25.1-25.1V754.4C996.4,740.6,1007.7,729.3,1021.5,729.3z"/>
				<path class="st7" d="M1186.9,788.5c5.3,14.1,21.1,21.3,35.2,16c14.1-5.3,21.3-21,16-35.2c-5.3-14.1-21.1-21.3-35.2-16
					C1188.7,758.7,1181.6,774.4,1186.9,788.5z"/>
				<path class="st8" d="M1202.9,753.3l19.2,51.1c14.1-5.3,21.3-21,16-35.2C1232.7,755.2,1217,748,1202.9,753.3z"/>
				<path class="st7" d="M1191.3,880.8c9.5,11.7,26.7,13.4,38.4,3.9c11.7-9.5,13.4-26.7,3.9-38.4c-9.5-11.7-26.7-13.4-38.4-3.9
					C1183.5,851.9,1181.8,869.1,1191.3,880.8z"/>
				<path class="st8" d="M1195.2,842.4l34.5,42.3c11.7-9.5,13.4-26.7,3.9-38.4C1224.1,834.6,1206.9,832.9,1195.2,842.4z"/>
				<path class="st7" d="M1020.3,788.5c5.3,14.1,21.1,21.3,35.2,16c14.1-5.3,21.3-21,16-35.2c-5.3-14.1-21.1-21.3-35.2-16
					C1022.1,758.7,1015,774.4,1020.3,788.5z"/>
				<path class="st8" d="M1036.3,753.3l19.2,51.1c14.1-5.3,21.3-21,16-35.2C1066.1,755.2,1050.4,748,1036.3,753.3z"/>
				<path class="st7" d="M1024.7,880.8c9.2,11.3,25.6,13.3,37.2,4.8c0.4-0.3,0.8-0.6,1.2-0.9c11.7-9.5,13.4-26.7,3.9-38.4
					c-9.5-11.7-26.7-13.4-38.4-3.9c-0.4,0.3-0.8,0.7-1.2,1C1016.8,853.1,1015.5,869.5,1024.7,880.8z"/>
				<path class="st8" d="M1027.4,843.4l34.5,42.2c0.4-0.3,0.8-0.6,1.2-0.9c11.7-9.5,13.4-26.7,3.9-38.4
					c-9.5-11.7-26.7-13.4-38.4-3.9C1028.2,842.7,1027.8,843,1027.4,843.4z"/>
				<g>
					<path class="st7" d="M1101.4,767.2c-6.5,13.6-0.6,29.9,13,36.4c13.6,6.5,29.9,0.7,36.4-13c6.5-13.6,0.6-29.9-13-36.4
						C1124.1,747.8,1107.8,753.6,1101.4,767.2z"/>
					<path class="st8" d="M1137.8,754.2l-23.4,49.4c13.6,6.5,29.9,0.7,36.4-13C1157.2,777,1151.4,760.7,1137.8,754.2z"/>
				</g>
				<path class="st7" d="M1136.2,888.9c14-5.6,20.8-21.5,15.2-35.5c-5.6-14-21.5-20.8-35.5-15.2c-14,5.6-20.8,21.5-15.2,35.5
					C1106.3,887.7,1122.2,894.5,1136.2,888.9z"/>
				<path class="st8" d="M1100.7,873.7l50.7-20.3c-5.6-14-21.5-20.8-35.5-15.2C1101.9,843.8,1095.1,859.7,1100.7,873.7z"/>
			</g>
		</g>
		<path class="st25" d="M1296.2,601.6c0.5-5.6,4.3-10.6,6.3-12.9c-11.6,13.8,6.9,41.1,6.9,41.1c-3.2-14.8,47.3-37.1,49.3-55
			c2-17.8-14.5-19-18.8-24.5c-4.3-5.5,4.4-34.6-9.5-46.2c-14-11.6-26.8-4-26.8-4c3.2-3.3,9.3-5,9.3-5c-15.5,0-18.1,10.7-18.5,15.6
			c-12.9,3.4-17.3,28.7-17.3,28.7l40.4,17.1c0.6,1.3,1,2.2,1.1,2.5c0.7,2.8-6.2,18.4-14.7,22.7
			C1294.3,586.5,1296.2,601.6,1296.2,601.6z M1303.5,587.7c0.2-0.2,0.3-0.3,0.3-0.3C1303.7,587.5,1303.6,587.6,1303.5,587.7z"/>
		<path class="st21" d="M1350.9,903.1l10-1.5c0,0,33.7-26.8,38.7-76.7c0.5-5.1,0.6-10.2,0.2-15.4c0-0.6,0-1.2,0.3-1.7c0,0,0,0,0,0
			c1.1-1.7,3.8-5.8,7.4-11.7c3.6-5.8,9.7-16.8,16.5-29.1c12.1-22.2,26.3-48.7,31.1-57.1c15.5-26.9,8-45,8-45s-43.1-4.3-54.9-14.6
			l-4.3,6.6c0,0-9.3,41.4-8.9,41.5c-0.5,1.4-0.9,2.8-1.4,4.3c-7.4,22.8-15.9,51.2-20.5,74.4c-2.6,13-4,24.4-3.2,32.1
			c0.3,2.7-0.1,6.7-0.8,11.8C1365.1,850.6,1350.9,903.1,1350.9,903.1z"/>
		<path class="st11" d="M1329.9,915.8h41.8c0,0,1-6.4-1.2-11.2c-2.1-4.6-5.1-4.8-0.4-12.1c-2.7,2.7-11.2,3.9-17.2,3.1
			c-0.7,1.2-4.8,9.3-7.2,11C1342.9,908.6,1330.8,907.9,1329.9,915.8z"/>
		<path class="st18" d="M1393.8,702.7c3.7,20.1,12.3,53.6,30.3,64.3c12.1-22.2,26.3-48.7,31.1-57.1c15.5-26.9,8-45,8-45
			s-43.1-4.3-54.9-14.6l-4.3,6.6c0,0-9.3,41.4-8.9,41.5C1394.7,699.8,1394.2,701.2,1393.8,702.7z"/>
		<path class="st21" d="M1423.1,668l-0.1-7.8c15.6,2,53.7-18.6,53.7-18.6s16.3,10.8,18.5,41.8c1.1,15.1,8,79,8.7,98.1
			c0.3,6.9,0.4,11.8,0.4,13.8c0,0,0,0,0,0c0,0.6,0.3,1.1,0.7,1.6c3.2,4.1,6,8.4,8.4,12.9c23.8,44.2,11.3,104.3,11.3,104.3l-5.5-1.4
			c0,0-20.1-62.3-33.2-89.2c-2.2-4.6-4.3-8.1-5.9-10.2c-4.9-6-10.1-16.2-15.3-28.4c-9.7-23.2-19.1-53.8-25.8-77.4
			C1438.5,707.5,1423.1,668,1423.1,668z"/>
		<path class="st16" d="M1231.9,722.7c1-0.7,11.5-0.5,11.5-0.5s5.9-3.7,12-9.8c12.6-12.6,31.1-33.1,34.5-36
			c5.8-4.9,15.8-54.3,24.4-82c4.5-14.6,24.3-17.3,32.3-4.3c1.4,2.3,2.3,5,2.4,8.1c0.4,17.1-33.3,83.3-37.8,89.2
			c-8.2,10.7-57.4,36.3-57.4,36.3c-1.1,0.6-1.2,2.5-1.7,3.3c-1.1,1.8-2.2,2.3-2.2,2.3l0,0c0,0,0,0,0,0c0,0-6.4,1.8-8.1,3l-1.8,1.2
			c0,0-1.1-1.2,0.6-2.5c0.4-0.3,1.1-0.9,1.8-1.7h-2.9c-0.3,0-0.5,0-0.7-0.1c-1.6-0.3-3.3-0.9-5-0.8c-1.8,0.1-3.6,0.6-4.9,0.8
			c-1.4,0.2-7.6,0.1-7.6,0.1C1220.9,728.8,1230.2,724,1231.9,722.7z"/>
		<path class="st14" d="M1331.9,615.8c25.5-5.8,9.2-41.6,7.7-41c-3.5-0.7-11.3-6.9-18.2-19l-0.9,0.8l-15.6,13.7
			c0,0,3.6,5.3,6.7,10.6c2.4,4.1,4.4,8.1,4.1,9.5C1314.3,591.4,1325.1,617.4,1331.9,615.8z"/>
		<path class="st10" d="M1315.9,589.2c0,0-4.5,8.8-6.9,16.5c-2.4,7.7-8.4,32-8.4,32s12.3,14.1,29.5,13.2c0,0,9.2-14.4,6-27.5
			C1332.8,610.5,1315.9,589.2,1315.9,589.2z"/>
		<path class="st16" d="M1304.9,570.3c0,0,3.6,5.3,6.7,10.6c9.7-6,9.7-18,9-24.3L1304.9,570.3z"/>
		<path class="st14" d="M1304.4,577.2c0,0,23.6-13.1,15.2-27.7c-8.4-14.6-11-26.1-26.4-18.3c-15.4,7.8-15.1,15-13.5,20.6
			C1281.3,557.3,1298.1,580.3,1304.4,577.2z"/>
		<path class="st25" d="M1275.7,543.2c1.1-6.5,4.4-7.1,6.7-6.7c8.7-14.4,23-8.8,23-8.8c7.6,9.5,18.6,11.2,18.6,11.2s-2.7,5.1-14,8.3
			c-3.4,1-7.4,0.4-11.1-0.9c7.8,4.4,16,6,16,6c-14.9,1.4-29-12.2-30.5-13.7c-0.7,2.1-1.9,6.5-1.2,9.7c1,4.4,4.9,12.3,2.5,13.3
			C1285.6,561.8,1274.1,552.9,1275.7,543.2z"/>
		<path class="st11" d="M1491.5,915.8h41.8c0,0,1-6.4-1.2-11.2c-2.1-4.6-5.4-6.7-4.6-12.4c-2.7,2.7-7,5.8-13,5
			c-0.7,1.2-4.8,7.6-7.3,9.4C1504.5,908.6,1492.3,907.9,1491.5,915.8z"/>
		<path class="st15" d="M1328.9,644.2c5.4,1.9,12.9,2.9,20.6,3.7c11,1.2,22.3,2,28.3,4.4c1.2,0.5,4.5,1.9,7.9,4.3v0
			c0,0,0.1,0.1,0.2,0.2c1.1,0.8,2.2,1.8,3.3,2.8c1.6,1.6,3,3.5,3.8,5.7c2.2,5.4-0.7,20.3-2.6,28.5c-0.7,3.3,0.8,6.7,3.8,8.2
			c4.2,2.2,8.3,4.2,12.3,6c0.2,0.1,0.4,0.2,0.6,0.3c0-0.8-0.1-1.7-0.1-2.5c0-5.6,0.7-10.3,0.7-10.3c1,5.7,4.7,11.8,8.2,16.5
			c56.1,22.5,95.3,12.7,94.6,1.5c-2.2-38.9-28.5-72-28.5-72c-49-56.9-148-71.9-148-71.9s-4.7-0.6-10.5,6.3
			c-8.2,9.9-8.6,12.5-8.6,12.5S1313.1,638.7,1328.9,644.2z"/>
		<path class="st10" d="M1349.6,647.9c11,1.2,22.3,2,28.3,4.4c2.4-36.3-14.7-63.6-14.7-63.6S1352,634.2,1349.6,647.9z"/>
		<path class="st10" d="M1390.6,693.8c-0.7,3.3,0.8,6.7,3.8,8.2c4.2,2.2,8.3,4.2,12.3,6c0.2-0.7,0.4-1.4,0.6-2.2
			c0.6-2.8,0.9-6.2,0.7-10.3c-0.9-17.2-12.7-30.3-18.7-35.9c1.6,1.6,3,3.5,3.8,5.7C1395.3,670.7,1392.4,685.7,1390.6,693.8z"/>
		<path class="st10" d="M1334.4,569.6c0,0-4.3-5.5-7.2-5.3c0,0-11.8,16.5-11.9,24.1C1315.3,588.4,1330,568.9,1334.4,569.6z"/>
		<path class="st14" d="M1261.7,765.1c0.6-1.4,4.6-11.4,8-12.2c3.5-0.9,8-4.9,8-4.9s31.2-52.8,36-57.7
			c7.6-7.8,14.9-102.4,24.3-108.6c0,0,27.5,2.7,29.8,20.6c2.2,17.9-26.4,90.8-30.5,97.4c-7.5,12-51.4,53.2-51.4,53.2
			c-5.3,7-3.6,7.3-5.9,14.1c-2.3,6.8-13.6,9.6-15.4,9.8c-1.9,0.2-0.3-3,2.3-6.7c2.6-3.7,3.4-10.3,2.9-10.8c-0.5-0.5-1.5,0.4-3.1,2.8
			C1265,764.5,1261.1,766.5,1261.7,765.1z"/>
		<path class="st15" d="M1323.9,615.9c0,0-2.8-46.1,32.5-35c35.3,11.2-5.5,90.5-5.5,90.5s-20.7-1-28.1-19.1L1323.9,615.9z"/>
	</g>
	<g>
		<path class="st20" d="M955.4,898.9c0,3.9,1.6,7.5,4.2,10c2.6,2.6,6.1,4.2,10,4.2h67.1c7.8,0,14.2-6.4,14.2-14.2
			c0-3.9-1.6-7.5-4.2-10c-2.6-2.6-6.1-4.2-10-4.2h-67.1C961.8,884.7,955.4,891.1,955.4,898.9z"/>
		<path class="st21" d="M990,898.9c0,3.9,1.6,7.5,4.2,10c2.6,2.6,6.1,4.2,10,4.2h32.5c7.8,0,14.2-6.4,14.2-14.2
			c0-3.9-1.6-7.5-4.2-10c-2.6-2.6-6.1-4.2-10-4.2h-32.5C996.4,884.7,990,891.1,990,898.9z"/>
		<path class="st28" d="M968.5,887.9h64c1.1,0,2,0.9,2,2v0.5c0,1.1-0.9,2-2,2h-64c-1.1,0-2-0.9-2-2v-0.5
			C966.5,888.8,967.4,887.9,968.5,887.9z"/>
	</g>
	<g>
		<path class="st13" d="M1012.7,858.7c-1.9,3.7-2,7.8-0.8,11.5c1.2,3.7,3.8,6.9,7.5,8.7l63.6,31.9c7.4,3.7,16.5,0.7,20.2-6.7
			c1.9-3.7,2-7.8,0.8-11.5c-1.2-3.7-3.8-6.9-7.5-8.7l-63.6-31.9C1025.5,848.3,1016.4,851.3,1012.7,858.7z"/>
		<path class="st5" d="M1045.5,875.1c-1.9,3.7-2,7.8-0.8,11.5c1.2,3.7,3.8,6.9,7.5,8.7l30.8,15.4c7.4,3.7,16.5,0.7,20.2-6.7
			c1.9-3.7,2-7.8,0.8-11.5c-1.2-3.7-3.8-6.9-7.5-8.7l-30.8-15.4C1058.3,864.7,1049.2,867.7,1045.5,875.1z"/>
		<path class="st22" d="M1027.2,855.8l0.2-0.4c0.5-1,1.8-1.5,2.9-1l60.6,30.4c1,0.5,1.5,1.8,1,2.9l-0.2,0.4c-0.5,1-1.8,1.5-2.9,1
			l-60.6-30.4C1027.1,858.1,1026.7,856.8,1027.2,855.8z"/>
	</g>
	<path class="st11" d="M22.8,917.4h1652.3c1.2,0,2.1-0.9,2.1-2.1v-0.2c0-1.2-0.9-2.1-2.1-2.1H22.8c-1.2,0-2.1,0.9-2.1,2.1v0.2
		C20.7,916.5,21.7,917.4,22.8,917.4z"/>
</g>
</svg>
