<svg id="Layer_1" data-name="Layer 1" xmlns="http://www.w3.org/2000/svg" viewBox="0 0 313 66"><defs><style>.cls-1{fill:#00a651;}.cls-2{fill:#00aeef;fill-rule:evenodd;}</style></defs><path class="cls-1" d="M12.11,18.3v4.82q0,1.68.06,2.13c0,.43.11.69.23.79l.35.32,2,.72-8.31,0a4.66,4.66,0,0,1,1.11-.46c.83-.3,1.27-.52,1.33-.68a11.55,11.55,0,0,0,.18-2.86V14.37c0-.61,0-1.11,0-1.52A4.08,4.08,0,0,0,9,12l-.2-.82L6.45,10l8.36,0-2.44,1.12q-.22.12-.24.66c0,.36,0,.78,0,1.28v4.34l6.76-5.54.69-.89-2.13-.91,7.66,0-2.89,1a4.49,4.49,0,0,0-1,.59l-1.4,1.05-5.75,4.37L23,25.86l2.86,1.27-7.7,0,1.71-.89Z"/><path class="cls-1" d="M32.44,19.46l-2.3,5.07c-.28.63,0,1.18.92,1.65a13.84,13.84,0,0,1,1.66.95h-7c.35-.23.85-.59,1.51-1.07a7.16,7.16,0,0,0,1.41-1.26,4.42,4.42,0,0,0,.71-1.21L35.52,10l7.59,15.2a3.34,3.34,0,0,0,1.23,1.31l.83.43.37.18H37.89a5,5,0,0,0,.81-.3c.41-.17.63-.41.66-.71a8.62,8.62,0,0,0-.71-2.41c-.5-1.32-1.06-2.74-1.65-4.25Zm4.3-.69-1.9-4.63-2.09,4.63Z"/><path class="cls-1" d="M60.4,27.13l-3.47,0a6,6,0,0,0,1.37-.68A4.25,4.25,0,0,0,59.13,25V17.88h-7V25a3.94,3.94,0,0,0,.83,1.48,5.31,5.31,0,0,0,1.36.68l-3.47,0-3.45,0a6,6,0,0,0,1.37-.68A4.15,4.15,0,0,0,49.56,25V17.88h-.42a4.09,4.09,0,0,1-.85-.35,4.45,4.45,0,0,0-.85-.38l-1.81-.37h3.93V12.4a7.31,7.31,0,0,0-.15-1.21c-.09-.29-.73-.69-1.91-1.18h6.66c-1.18.49-1.81.89-1.89,1.18a5,5,0,0,0-.16,1.21v4.38h7V12.4A6.12,6.12,0,0,0,59,11.19c-.09-.29-.72-.69-1.9-1.18h6.67c-1.19.49-1.82.89-1.89,1.18a4.92,4.92,0,0,0-.17,1.21V25a4,4,0,0,0,.82,1.48,5.36,5.36,0,0,0,1.38.68Z"/><path class="cls-1" d="M69.1,11.69l0,7.14c0,1.08,0,2,0,2.62s0,1.11,0,1.35a5.48,5.48,0,0,0,.25,1.33,2.15,2.15,0,0,0,1.35,1.38,7.32,7.32,0,0,0,2.77.47c1.77,0,3-.43,3.6-1.3a3.65,3.65,0,0,0,.58-1.41,13.7,13.7,0,0,0,.15-2.3V19l0-7.47c0-.62-.23-1-.65-1.13a7.76,7.76,0,0,0-1.59-.24l6.79,0c.15,0-.25.14-1.19.42a2,2,0,0,0-1.41,2.23v6.49c0,.34,0,.64,0,.91s0,.51,0,.71a10.52,10.52,0,0,1-.44,3.49,3.6,3.6,0,0,1-2,1.94,10.48,10.48,0,0,1-3.27.82A18.08,18.08,0,0,1,70.2,27a7.24,7.24,0,0,1-3-.9A2.56,2.56,0,0,1,66,24.6a10.83,10.83,0,0,1-.3-3.06l0-9.85a1.16,1.16,0,0,0-.55-1.1,5.92,5.92,0,0,0-1.72-.47h8.29a6.7,6.7,0,0,1-1.2.19C69.58,10.44,69.1,10.9,69.1,11.69Z"/><path class="cls-1" d="M93.39,10h3.39a5.19,5.19,0,0,0-.61.38,2.63,2.63,0,0,0-.59.56,3.41,3.41,0,0,0-.47.88v13H101a7.11,7.11,0,0,0,1.71-1.21,29,29,0,0,0,2.86-4.23c-.59,2.11-1,3.48-1.23,4.1a20.94,20.94,0,0,0-.72,2.28c-.24.9-.47,1.35-.68,1.35H89.74L91,26.48a3.45,3.45,0,0,0,1.23-1.06V11.71c-.16-.31-.32-.58-.47-.82A4.18,4.18,0,0,0,90,10Z"/><path class="cls-1" d="M115.36,10c-2.17.29-3.31.59-3.43.91a4.34,4.34,0,0,0-.26.77,72.46,72.46,0,0,0-.44,12.94c.26,1.41,1.6,2.25,4,2.5h-10q3.44-.43,3.71-2.51a66.53,66.53,0,0,0-.55-12.93,5.35,5.35,0,0,0-.26-.77c-.13-.32-1.27-.62-3.42-.91Z"/><path class="cls-1" d="M126.32,10l1.31,5.16c-.27-.55-.6-1.2-1-1.94A4.59,4.59,0,0,0,125,11.54h-6.45v5.14h3.21a1.21,1.21,0,0,0,.61-.15,7.58,7.58,0,0,0,1.63-2.4,10.54,10.54,0,0,1-.11,1.57,10.6,10.6,0,0,0-.11,1.56,11.47,11.47,0,0,0,.11,1.68,11.66,11.66,0,0,1,.11,1.68,8.16,8.16,0,0,0-1.63-2.41,1.88,1.88,0,0,0-.61-.15h-3.21v7.36a3.57,3.57,0,0,0,1.24,1.06l1.29.65h-7.78l1.27-.65a2.6,2.6,0,0,0,1-.69,3,3,0,0,0,.26-.37V11.71c-.16-.31-.32-.58-.47-.82a4.18,4.18,0,0,0-1.76-.88Z"/><path class="cls-1" d="M141.26,10l1.29,5.16c-.25-.55-.58-1.2-1-1.94a4.57,4.57,0,0,0-1.63-1.69h-6.44v5.14h3.21a1.21,1.21,0,0,0,.61-.15,8,8,0,0,0,1.62-2.4,10.58,10.58,0,0,1-.12,1.57,12.17,12.17,0,0,0-.11,1.56,13,13,0,0,0,.11,1.68,11.66,11.66,0,0,1,.12,1.68,8.7,8.7,0,0,0-1.62-2.41,1.88,1.88,0,0,0-.61-.15h-3.21v6.78h6a7.32,7.32,0,0,0,1.71-1.21A30.86,30.86,0,0,0,144,19.4c-.59,2.11-1,3.48-1.23,4.1a23.14,23.14,0,0,0-.73,2.28c-.25.9-.47,1.35-.68,1.35H128.23l1.27-.65a3.45,3.45,0,0,0,1.23-1.06V11.71c-.17-.31-.33-.58-.47-.82A4.18,4.18,0,0,0,128.5,10Z"/><path class="cls-1" d="M165.39,11.45l.73,4.22c-.75-1.15-1.33-2-1.74-2.62a2.78,2.78,0,0,0-1.66-.83,11.88,11.88,0,0,0-2.62-.28,9.18,9.18,0,0,0-2.44.32c-.72.22-1.08.55-1.09,1a5.82,5.82,0,0,0,.07.75c.05.36.88.88,2.48,1.57a37,37,0,0,0,4.33,1.61,4.11,4.11,0,0,1,2.76,2.57,4.52,4.52,0,0,1,.23,3.4,6.76,6.76,0,0,1-1.67,2.38,6.45,6.45,0,0,1-3.44,1.36,12.16,12.16,0,0,1-3.37.15,12.61,12.61,0,0,1-2.07-.54,5.62,5.62,0,0,1-1.73-1c0-.17-.1-.53-.21-1.09s-.22-1.14-.33-1.74-.26-1.39-.44-2.35a13.37,13.37,0,0,1,.65,1.35,6,6,0,0,0,.95,1.46,5.46,5.46,0,0,0,2.07,1.46,5.94,5.94,0,0,0,2.46.45,7.6,7.6,0,0,0,2.54-.43,3.87,3.87,0,0,0,1.77-1.2,1.73,1.73,0,0,0,.14-1.88,3.82,3.82,0,0,0-2.16-1.77c-1.12-.47-2.28-.93-3.5-1.39a19.14,19.14,0,0,1-3.27-1.61,2.82,2.82,0,0,1-1.47-2.42,3.23,3.23,0,0,1,1.78-3.12,10.27,10.27,0,0,1,4.06-1.2,13.12,13.12,0,0,1,4.15.22C164.62,10.58,165.3,11,165.39,11.45Z"/><path class="cls-1" d="M168.1,18.71a8.48,8.48,0,0,1,2.45-6.34,9.24,9.24,0,0,1,6.77-2.44,8.62,8.62,0,0,1,2.23.31,18.24,18.24,0,0,0,2.34.5l.8.12.47,4.19c0,.23-.28-.18-.95-1.23a7.35,7.35,0,0,0-1.63-2,5.85,5.85,0,0,0-5.36-.37,5,5,0,0,0-1.85,1.35,8.29,8.29,0,0,0-1.7,5.51c0,3.43.76,6,2.26,7.8a29.11,29.11,0,0,0,7.42,5.64,40.1,40.1,0,0,1-4.71-1.66,17.42,17.42,0,0,1-4.26-2.54,12.23,12.23,0,0,1-3.09-3.69A10.58,10.58,0,0,1,168.1,18.71Z"/><path class="cls-1" d="M190.47,10c-2.17.29-3.31.59-3.43.91a4.34,4.34,0,0,0-.26.77,72.46,72.46,0,0,0-.44,12.94c.26,1.41,1.6,2.25,4,2.5h-10c2.29-.29,3.52-1.13,3.71-2.51a66.53,66.53,0,0,0-.55-12.93,7,7,0,0,0-.26-.77c-.13-.32-1.27-.62-3.42-.91Z"/><path class="cls-1" d="M201.39,10l1.28,5.16c-.25-.55-.58-1.2-1-1.94A4.59,4.59,0,0,0,200,11.54h-6.43v5.14h3.21a1.18,1.18,0,0,0,.6-.15,8,8,0,0,0,1.62-2.4,12.08,12.08,0,0,1-.11,1.57,10.65,10.65,0,0,0-.12,1.56,11.45,11.45,0,0,0,.12,1.68,13.29,13.29,0,0,1,.11,1.68,8.7,8.7,0,0,0-1.62-2.41,1.84,1.84,0,0,0-.6-.15h-3.21v6.78h6a6.92,6.92,0,0,0,1.71-1.21,29.9,29.9,0,0,0,2.86-4.23c-.58,2.11-1,3.48-1.22,4.1a20.53,20.53,0,0,0-.74,2.28c-.24.9-.47,1.35-.67,1.35H188.35l1.28-.65a3.51,3.51,0,0,0,1.22-1.06V11.71c-.17-.31-.33-.58-.47-.82a4.12,4.12,0,0,0-1.75-.88Z"/><path class="cls-1" d="M209.76,10,219,22.36V11.69a3.81,3.81,0,0,0-.86-1A5.44,5.44,0,0,0,217,10h5.41l-.62.42a2.83,2.83,0,0,0-.59.53,3.36,3.36,0,0,0-.47.9V27.13h-2.57L209,13.78V25.15a4,4,0,0,0,1.06,1.12,6,6,0,0,0,1.27.59l.84.27h-7.31l.77-.26a5.08,5.08,0,0,0,1.21-.62,2.31,2.31,0,0,0,.77-1.3V11.77c-.9-1.06-1.51-1.62-1.85-1.68a2.55,2.55,0,0,0-.36-.08Z"/><path class="cls-1" d="M222.67,18.71a8.48,8.48,0,0,1,2.45-6.34,9.24,9.24,0,0,1,6.77-2.44,8.49,8.49,0,0,1,2.22.31,18.77,18.77,0,0,0,2.35.5l.8.12.47,4.19c0,.23-.29-.18-.95-1.23a7.15,7.15,0,0,0-1.64-2,5.39,5.39,0,0,0-3-.85,5.56,5.56,0,0,0-2.34.48,5.06,5.06,0,0,0-1.84,1.35,8.29,8.29,0,0,0-1.7,5.51q0,5.15,2.26,7.8a28.92,28.92,0,0,0,7.42,5.64,40.1,40.1,0,0,1-4.71-1.66A17.42,17.42,0,0,1,227,27.56a12.23,12.23,0,0,1-3.09-3.69A10.58,10.58,0,0,1,222.67,18.71Z"/><path class="cls-1" d="M248.93,10l1.29,5.16c-.25-.55-.58-1.2-1-1.94a4.57,4.57,0,0,0-1.63-1.69h-6.44v5.14h3.21a1.21,1.21,0,0,0,.61-.15,8,8,0,0,0,1.62-2.4,10.58,10.58,0,0,1-.12,1.57,12.17,12.17,0,0,0-.11,1.56,13,13,0,0,0,.11,1.68,11.66,11.66,0,0,1,.12,1.68A8.7,8.7,0,0,0,245,18.21a1.88,1.88,0,0,0-.61-.15h-3.21v6.78h6a7.32,7.32,0,0,0,1.71-1.21,30.86,30.86,0,0,0,2.86-4.23c-.59,2.11-1,3.48-1.23,4.1a23.14,23.14,0,0,0-.73,2.28c-.25.9-.47,1.35-.68,1.35H235.9l1.27-.65a3.45,3.45,0,0,0,1.23-1.06V11.71c-.17-.31-.33-.58-.47-.82a4.18,4.18,0,0,0-1.76-.88Z"/><path class="cls-1" d="M263.94,10h3.39a5.19,5.19,0,0,0-.61.38,2.63,2.63,0,0,0-.59.56,3.41,3.41,0,0,0-.47.88v13h5.86a7.11,7.11,0,0,0,1.71-1.21,29,29,0,0,0,2.86-4.23c-.59,2.11-1,3.48-1.23,4.1a20.94,20.94,0,0,0-.72,2.28c-.24.9-.47,1.35-.68,1.35H260.29l1.28-.65a3.45,3.45,0,0,0,1.23-1.06V11.71c-.16-.31-.32-.58-.47-.82a4.18,4.18,0,0,0-1.76-.88Z"/><path class="cls-1" d="M280.61,10H284a6.17,6.17,0,0,0-.6.38,2.43,2.43,0,0,0-.59.56,3.13,3.13,0,0,0-.47.88v13h5.85a7.18,7.18,0,0,0,1.72-1.21,29.9,29.9,0,0,0,2.86-4.23c-.59,2.11-1,3.48-1.23,4.1a23.14,23.14,0,0,0-.73,2.28c-.24.9-.47,1.35-.68,1.35H277l1.29-.65a3.63,3.63,0,0,0,1.23-1.06V11.71c-.17-.31-.32-.58-.47-.82a4.18,4.18,0,0,0-1.76-.88Z"/><path class="cls-1" d="M301.81,19.23c-.33,0-.75,0-1.24,0l-.32,0h-.68v6.19a3.41,3.41,0,0,0,1.27,1.06l1.35.65H294l1.35-.65a2.85,2.85,0,0,0,1-.69,2.58,2.58,0,0,0,.27-.37V18.05h-.35a3.05,3.05,0,0,1-.7-.35,3.54,3.54,0,0,0-.7-.36l-1.49-.4h3.24V13a2.28,2.28,0,0,0-1.39-2.45c-.93-.33-1.33-.49-1.2-.49h11.37a1.4,1.4,0,0,1,1,.44,3.09,3.09,0,0,1,.67.91,5.61,5.61,0,0,1,.47,2.31,11.21,11.21,0,0,1-.15,1.71,3,3,0,0,1-.53,1.43,8,8,0,0,1-2.08,1.77A7.18,7.18,0,0,1,301.81,19.23Zm-2.24-2.29c.93,0,1.67,0,2.24-.06a5.74,5.74,0,0,0,1.28-.28,2.45,2.45,0,0,0,2-2.43,2.53,2.53,0,0,0-1.28-2.3,6.11,6.11,0,0,0-2.83-.5l-.75,0-.69,0Z"/><path class="cls-2" d="M284.22,51.78h-11.5V41.18h11.37v1.88h-8.76v2.31h5.11V47.2h-5.11v2.6h8.89ZM260,43.09h-8.65v2.75H256v2h-4.66v4h-2.6V41.18H260Zm-26.15,8.69h-2.59V41.18h2.59Zm-15.68,0H207.24V41.18h2.61V49.8h8.32Zm-33.35-8.69h-8.64v2.75h4.66v2h-4.66v4h-2.61V41.18h11.25Zm-28.48,6.66V43.14H147.8v6.61Zm2.58-.47a2.55,2.55,0,0,1-.6,2,3.48,3.48,0,0,1-2.15.5H148a3.48,3.48,0,0,1-2.15-.49,2.53,2.53,0,0,1-.6-2V43.69a2.57,2.57,0,0,1,.6-2,3.55,3.55,0,0,1,2.15-.49h8.2a3.55,3.55,0,0,1,2.15.49,2.57,2.57,0,0,1,.6,2Zm-37.07,2.5h-11.5V41.18h11.37v1.88H113v2.31h5.11V47.2H113v2.6h8.9ZM93.49,45.09V43.87c0-.57-.39-.86-1.18-.86H86.42v2.93h5.89C93.1,45.94,93.49,45.66,93.49,45.09ZM97,51.78H93.29l-4.43-4H86.42v4H83.87V41.18h9.54c1.66,0,2.49.69,2.49,2.06v2.5a1.75,1.75,0,0,1-1.33,1.91,15.41,15.41,0,0,1-2.61.12ZM65.76,47.52l-2.48-4.41L60.9,47.52Zm5.29,4.26H68.14l-1.33-2.33h-7l-1.33,2.33H55.89l6.29-10.6h2.48Zm-27.51-2.5a2.51,2.51,0,0,1-.61,2,3.54,3.54,0,0,1-2.17.5H34.15a3.49,3.49,0,0,1-2.16-.5,2.55,2.55,0,0,1-.6-2V43.69a2.55,2.55,0,0,1,.6-2,3.41,3.41,0,0,1,2.16-.51h6.61c1.32,0,2.14.28,2.46.83a6.9,6.9,0,0,1,.32,2.71l-2.6.37v-2H34v6.61h7V47.5l2.6.52ZM20.41,36.36H296.24V56.07H20.41Z"/></svg>