<svg id="Layer_1" data-name="Layer 1" xmlns="http://www.w3.org/2000/svg" viewBox="0 0 482 338"><defs><style>.cls-1,.cls-3{fill:#00a651;}.cls-1,.cls-2{fill-rule:evenodd;}.cls-2{fill:#00aeef;}</style></defs><path class="cls-1" d="M143.88,285.56l4.83-5.38c4.08-4.52,18.84-18.05,21.07-22.12-2-4.06-60.26-61.87-65-66.59-4.87-4.89-17.55-18.87-22-22-3.95,2.21-50.59,50.95-54.83,55.23-9,9.15-16.91,18.1-21.24,33.34-8.35,29.4,2.44,61.2,30.55,74.42,20.56,9.66,46.3,6.27,64.53-6.62,11.46-8.1,38.35-38.26,42.05-40.25M35.18,320.21c9.59,2,15.55,7.13,32.47,5.13,34.18-4,54.44-38.45,69.13-49.21-4.14,10-30,36.22-39.51,42.62-14.16,9.53-31.15,13.39-48.38,8C42.47,324.72,40,322.65,35.18,320.21Z"/><path class="cls-1" d="M189.67,250.18c17,.65,35.27,0,52.44,0,16.74,0,34.51,1.48,50.16-2.37,42.89-10.57,66-59.16,34.12-95.54-22.89-26.09-53.33-23-83.45-23-17,0-37-1-53.55.05-.85,11-1.11,116.28.28,120.87m38.08-111c20.93-2.6,48.72-4.88,67.64,2.15,16.14,6,34.25,23.09,34.74,38.83-6.23-16-18.66-28.62-36.37-34.95-10.4-3.72-19.95-3.92-31.85-4.51l-26.41-.53C232.88,140.24,229.89,140.57,227.75,139.22Z"/><path class="cls-2" d="M143.93,150.78c-1.39,11.24-2.47,23.33-.75,34.6.91,5.94,5.06,23.48,11.66,26,.06-56.24,48.82-133.8,36.57-190-1.25-5.73-6-18.86-10.82-21.33-4.84,57.47-30.51,101.11-36.66,150.77"/><path class="cls-2" d="M104.93,58.41c-14.68-3.66-26.43-4.65-40.4-11.6C60,44.54,57.4,42.24,53.92,40.28c-1.62,21,18.36,34.28,35.59,39.42,15.1,4.51,27.8,4.7,44.05,12,4.53,2.05,9.25,5.87,12.08,6.92,1.59-21.85-22.19-35.65-40.71-40.25"/><path class="cls-2" d="M139.76,22.54c-19.63,7.58-7.16,40.6,12.07,34.64,19.45-6,7.06-42-12.07-34.64"/><path class="cls-1" d="M115.18,107.75c-9.45,3.86-3.52,16.14,4.92,12.71,7.77-3.16,3.42-16.12-4.92-12.71"/><path class="cls-1" d="M126.11,137.7c-9,4.87-1.71,15.91,6.13,12.06,7.62-3.74,1.93-16.41-6.13-12.06"/><path class="cls-1" d="M104.57,132.84c-2.31,1.57-5.17,3.87-2.72,8.8a7.18,7.18,0,0,0,9.86,2.58c7-4.23,1-16.87-7.14-11.38"/><path class="cls-1" d="M110.92,163.08c-.52,3.33-.29,7.33,4,7.15,3.77-.16,4.53-2.89,3.87-6.87-2.77-2.14-5.14-2.68-7.88-.28"/><path class="cls-3" d="M184.55,283.15V288c0,1.11,0,1.83.06,2.13a1.24,1.24,0,0,0,.23.79l.35.31,2,.73-8.31,0c-.09,0,.28-.16,1.11-.46s1.27-.53,1.33-.68a11.61,11.61,0,0,0,.18-2.86v-8.73c0-.61,0-1.12,0-1.53a4,4,0,0,0-.05-.88l-.2-.82-2.39-1.12h8.36L184.81,276q-.23.12-.24.66c0,.35,0,.78,0,1.27v4.35l6.75-5.54.7-.9-2.13-.9,7.66,0-2.9,1a4.3,4.3,0,0,0-1,.59l-1.4,1.05-5.75,4.37,8.93,8.76,2.86,1.28-7.7,0,1.71-.89Z"/><path class="cls-3" d="M204.88,284.3l-2.3,5.07c-.28.64,0,1.19.92,1.65a13.38,13.38,0,0,1,1.66,1h-7c.35-.24.85-.59,1.51-1.07a7.16,7.16,0,0,0,1.41-1.26,4.45,4.45,0,0,0,.71-1.22L208,274.86l7.59,15.19a3.31,3.31,0,0,0,1.23,1.32l.83.42a3.26,3.26,0,0,0,.37.19h-7.65a4.66,4.66,0,0,0,.8-.3c.42-.18.64-.42.67-.72a8.69,8.69,0,0,0-.71-2.4c-.51-1.33-1.06-2.74-1.65-4.26Zm4.3-.68L207.27,279l-2.08,4.63Z"/><path class="cls-3" d="M232.84,292l-3.47,0a6.5,6.5,0,0,0,1.37-.68,4.35,4.35,0,0,0,.83-1.48v-7.07h-7v7.07a4,4,0,0,0,.83,1.48,5.66,5.66,0,0,0,1.36.68l-3.47,0-3.45,0a6.1,6.1,0,0,0,1.36-.68,4.06,4.06,0,0,0,.82-1.48v-7.07h-.42a3.62,3.62,0,0,1-.85-.36,4.44,4.44,0,0,0-.85-.37l-1.81-.38H222v-4.37a7.16,7.16,0,0,0-.15-1.21c-.09-.3-.73-.69-1.91-1.18h6.66c-1.18.49-1.81.88-1.89,1.18a4.92,4.92,0,0,0-.16,1.21v4.37h7v-4.37a6,6,0,0,0-.17-1.21c-.09-.3-.72-.69-1.9-1.18h6.67c-1.19.49-1.82.88-1.89,1.18a4.84,4.84,0,0,0-.17,1.21V289.8a3.91,3.91,0,0,0,.82,1.48,5.71,5.71,0,0,0,1.38.68Z"/><path class="cls-3" d="M241.54,276.54l0,7.14c0,1.08,0,1.95,0,2.61s0,1.11,0,1.36a5.57,5.57,0,0,0,.25,1.33,2.19,2.19,0,0,0,1.35,1.38,7.32,7.32,0,0,0,2.77.47c1.77,0,3-.44,3.6-1.31a3.76,3.76,0,0,0,.58-1.4,13.79,13.79,0,0,0,.15-2.3v-2l0-7.46c0-.63-.23-1-.65-1.13A7.81,7.81,0,0,0,248,275h6.79c.15,0-.25.14-1.19.41a2,2,0,0,0-1.41,2.24v6.49c0,.33,0,.64,0,.91s0,.51,0,.71a10.45,10.45,0,0,1-.44,3.48,3.58,3.58,0,0,1-2,1.95,10.47,10.47,0,0,1-3.27.81,16.86,16.86,0,0,1-3.85-.12,6.94,6.94,0,0,1-3-.9,2.54,2.54,0,0,1-1.2-1.48,10.92,10.92,0,0,1-.3-3.06l0-9.85a1.15,1.15,0,0,0-.55-1.1,5.66,5.66,0,0,0-1.72-.48h8.29a5.54,5.54,0,0,1-1.2.2C242,275.29,241.54,275.75,241.54,276.54Z"/><path class="cls-3" d="M265.83,274.86h3.38a5.85,5.85,0,0,0-.6.37,2.87,2.87,0,0,0-.59.56,3.78,3.78,0,0,0-.47.88v13h5.86a7.62,7.62,0,0,0,1.71-1.21,29.37,29.37,0,0,0,2.86-4.24c-.59,2.12-1,3.49-1.23,4.1a22.46,22.46,0,0,0-.72,2.28c-.25.9-.47,1.36-.68,1.36H262.18l1.28-.65a3.55,3.55,0,0,0,1.23-1.06V276.55c-.16-.3-.32-.57-.47-.82a4.22,4.22,0,0,0-1.76-.87Z"/><path class="cls-3" d="M287.8,274.86c-2.17.29-3.31.59-3.43.9a4.4,4.4,0,0,0-.26.78,72.43,72.43,0,0,0-.44,12.94q.39,2.11,4,2.5h-10c2.29-.3,3.52-1.13,3.71-2.52a66.39,66.39,0,0,0-.55-12.92,7,7,0,0,0-.26-.78q-.19-.47-3.42-.9Z"/><path class="cls-3" d="M298.76,274.86l1.3,5.16c-.26-.56-.59-1.2-1-1.94a4.62,4.62,0,0,0-1.64-1.7H291v5.15h3.21a1.5,1.5,0,0,0,.61-.15,7.73,7.73,0,0,0,1.63-2.41,12.23,12.23,0,0,1-.11,1.58,10.44,10.44,0,0,0-.12,1.56,11.66,11.66,0,0,0,.12,1.68,13,13,0,0,1,.11,1.68,8,8,0,0,0-1.63-2.41,1.94,1.94,0,0,0-.61-.15H291v7.36a3.68,3.68,0,0,0,1.24,1.06l1.29.65h-7.78l1.27-.65a2.84,2.84,0,0,0,1-.69,3,3,0,0,0,.26-.37V276.55c-.16-.3-.32-.57-.47-.82a4.22,4.22,0,0,0-1.76-.87Z"/><path class="cls-3" d="M313.7,274.86,315,280c-.25-.56-.58-1.2-1-1.94a4.59,4.59,0,0,0-1.63-1.7h-6.44v5.15h3.21a1.47,1.47,0,0,0,.61-.15,8,8,0,0,0,1.62-2.41,10.71,10.71,0,0,1-.12,1.58,11.93,11.93,0,0,0-.11,1.56,13.29,13.29,0,0,0,.11,1.68,11.45,11.45,0,0,1,.12,1.68,8.34,8.34,0,0,0-1.62-2.41,1.88,1.88,0,0,0-.61-.15h-3.21v6.78h6a7.62,7.62,0,0,0,1.71-1.21,31.27,31.27,0,0,0,2.86-4.24c-.59,2.12-1,3.49-1.23,4.1s-.48,1.38-.73,2.28S314,292,313.82,292H300.67l1.27-.65a3.65,3.65,0,0,0,1.23-1.06V276.55l-.47-.82a4.22,4.22,0,0,0-1.76-.87Z"/><path class="cls-3" d="M337.83,276.29l.73,4.23c-.75-1.15-1.33-2-1.74-2.62a2.82,2.82,0,0,0-1.66-.83,10.79,10.79,0,0,0-2.62-.28,8.74,8.74,0,0,0-2.44.32c-.72.21-1.08.55-1.09,1a6.13,6.13,0,0,0,.07.75c.05.36.88.88,2.48,1.57a36.74,36.74,0,0,0,4.33,1.6,4.13,4.13,0,0,1,2.76,2.57,4.52,4.52,0,0,1,.23,3.4,6.71,6.71,0,0,1-1.67,2.39,6.53,6.53,0,0,1-3.44,1.35,11.88,11.88,0,0,1-3.37.16,12.61,12.61,0,0,1-2.07-.54,5.63,5.63,0,0,1-1.73-1l-.21-1.08c-.11-.56-.23-1.14-.34-1.75s-.25-1.39-.43-2.34c.27.5.48.95.65,1.34a6,6,0,0,0,1,1.47,5.34,5.34,0,0,0,2.07,1.45,5.78,5.78,0,0,0,2.46.46,7.91,7.91,0,0,0,2.54-.43,3.81,3.81,0,0,0,1.77-1.21,1.71,1.71,0,0,0,.14-1.87,3.87,3.87,0,0,0-2.16-1.78c-1.12-.46-2.28-.92-3.5-1.39a19.13,19.13,0,0,1-3.27-1.6,2.84,2.84,0,0,1-1.47-2.42,3.22,3.22,0,0,1,1.78-3.12,10.28,10.28,0,0,1,4.06-1.21,13.73,13.73,0,0,1,4.15.22C337.06,275.43,337.74,275.81,337.83,276.29Z"/><path class="cls-3" d="M340.54,283.56a8.47,8.47,0,0,1,2.45-6.34,9.2,9.2,0,0,1,6.77-2.44,8.21,8.21,0,0,1,2.23.31,18.25,18.25,0,0,0,2.34.49l.8.12.47,4.2c0,.23-.28-.18-1-1.23a7.24,7.24,0,0,0-1.64-2,5.79,5.79,0,0,0-5.35-.36,4.8,4.8,0,0,0-1.85,1.35,8.29,8.29,0,0,0-1.7,5.51c0,3.43.76,6,2.26,7.79a28.88,28.88,0,0,0,7.42,5.65,40.18,40.18,0,0,1-4.71-1.67,17.39,17.39,0,0,1-4.26-2.53,12.39,12.39,0,0,1-3.09-3.7A10.51,10.51,0,0,1,340.54,283.56Z"/><path class="cls-3" d="M362.91,274.86c-2.17.29-3.31.59-3.43.9a4.4,4.4,0,0,0-.26.78,72.43,72.43,0,0,0-.44,12.94q.39,2.11,4,2.5h-10c2.29-.3,3.52-1.13,3.71-2.52a66.39,66.39,0,0,0-.55-12.92,7,7,0,0,0-.26-.78q-.2-.47-3.42-.9Z"/><path class="cls-3" d="M373.83,274.86l1.28,5.16c-.25-.56-.58-1.2-1-1.94a4.52,4.52,0,0,0-1.63-1.7h-6.43v5.15h3.21a1.43,1.43,0,0,0,.6-.15,8,8,0,0,0,1.62-2.41,12.23,12.23,0,0,1-.11,1.58,10.44,10.44,0,0,0-.12,1.56,11.66,11.66,0,0,0,.12,1.68,13,13,0,0,1,.11,1.68,8.34,8.34,0,0,0-1.62-2.41,1.84,1.84,0,0,0-.6-.15h-3.21v6.78h6a7.19,7.19,0,0,0,1.71-1.21,30.29,30.29,0,0,0,2.86-4.24c-.58,2.12-1,3.49-1.22,4.1a22,22,0,0,0-.74,2.28c-.24.9-.47,1.36-.67,1.36H360.79l1.28-.65a3.62,3.62,0,0,0,1.22-1.06V276.55l-.47-.82a4.15,4.15,0,0,0-1.75-.87Z"/><path class="cls-3" d="M382.2,274.86l9.28,12.35V276.54a3.86,3.86,0,0,0-.86-1,5.71,5.71,0,0,0-1.16-.66h5.42l-.62.41a2.87,2.87,0,0,0-.59.54,3.3,3.3,0,0,0-.47.89V292h-2.57l-9.19-13.35V290a3.84,3.84,0,0,0,1.06,1.12,5.37,5.37,0,0,0,1.27.59l.84.28h-7.32l.78-.27a4.72,4.72,0,0,0,1.21-.61,2.34,2.34,0,0,0,.77-1.3V276.61c-.9-1.06-1.52-1.62-1.85-1.68l-.36-.07Z"/><path class="cls-3" d="M395.11,283.56a8.47,8.47,0,0,1,2.45-6.34,9.2,9.2,0,0,1,6.77-2.44,8.14,8.14,0,0,1,2.22.31,18.77,18.77,0,0,0,2.35.49l.8.12.47,4.2c0,.23-.29-.18-.95-1.23a7.24,7.24,0,0,0-1.64-2,5.47,5.47,0,0,0-3-.85,5.57,5.57,0,0,0-2.34.49,4.84,4.84,0,0,0-1.84,1.35,8.29,8.29,0,0,0-1.7,5.51q0,5.15,2.26,7.79a28.8,28.8,0,0,0,7.41,5.65,40.69,40.69,0,0,1-4.7-1.67,17.39,17.39,0,0,1-4.26-2.53,12.39,12.39,0,0,1-3.09-3.7A10.51,10.51,0,0,1,395.11,283.56Z"/><path class="cls-3" d="M421.37,274.86l1.29,5.16c-.25-.56-.59-1.2-1-1.94a4.59,4.59,0,0,0-1.63-1.7h-6.44v5.15h3.21a1.47,1.47,0,0,0,.61-.15A8,8,0,0,0,419,279a10.71,10.71,0,0,1-.12,1.58,11.93,11.93,0,0,0-.11,1.56,13.29,13.29,0,0,0,.11,1.68,11.45,11.45,0,0,1,.12,1.68,8.34,8.34,0,0,0-1.62-2.41,1.88,1.88,0,0,0-.61-.15h-3.21v6.78h6a7.62,7.62,0,0,0,1.71-1.21,32.31,32.31,0,0,0,2.86-4.24c-.59,2.12-1,3.49-1.23,4.1a22.24,22.24,0,0,0-.73,2.28c-.25.9-.47,1.36-.68,1.36H408.34l1.27-.65a3.65,3.65,0,0,0,1.23-1.06V276.55l-.47-.82a4.22,4.22,0,0,0-1.76-.87Z"/><path class="cls-3" d="M436.38,274.86h3.38a5.85,5.85,0,0,0-.6.37,2.87,2.87,0,0,0-.59.56,3.78,3.78,0,0,0-.47.88v13H444a7.62,7.62,0,0,0,1.71-1.21,29.37,29.37,0,0,0,2.86-4.24c-.59,2.12-1,3.49-1.23,4.1a22.46,22.46,0,0,0-.72,2.28c-.25.9-.47,1.36-.68,1.36H432.73l1.28-.65a3.55,3.55,0,0,0,1.23-1.06V276.55c-.16-.3-.32-.57-.47-.82a4.22,4.22,0,0,0-1.76-.87Z"/><path class="cls-3" d="M453.05,274.86h3.38a5.85,5.85,0,0,0-.6.37,2.93,2.93,0,0,0-.6.56,3.78,3.78,0,0,0-.46.88v13h5.85a7.19,7.19,0,0,0,1.71-1.21,29.06,29.06,0,0,0,2.87-4.24c-.59,2.12-1,3.49-1.23,4.1s-.48,1.38-.73,2.28-.47,1.36-.68,1.36H449.39l1.29-.65a3.74,3.74,0,0,0,1.23-1.06V276.55c-.17-.3-.32-.57-.47-.82a4.29,4.29,0,0,0-1.76-.87Z"/><path class="cls-3" d="M474.25,284.07c-.34,0-.75,0-1.24,0h-1v6.2a3.43,3.43,0,0,0,1.27,1.06l1.35.65h-8.15l1.35-.65a3.15,3.15,0,0,0,1-.69,2.58,2.58,0,0,0,.27-.37v-7.38h-.35a3,3,0,0,1-.7-.34,3,3,0,0,0-.71-.37l-1.48-.39h3.24v-4a2.27,2.27,0,0,0-1.39-2.44c-.93-.33-1.33-.49-1.2-.49h11.37a1.39,1.39,0,0,1,1,.43,3.6,3.6,0,0,1,.67.91,5.66,5.66,0,0,1,.47,2.32,11.42,11.42,0,0,1-.15,1.71,2.91,2.91,0,0,1-.53,1.42,7.58,7.58,0,0,1-2.08,1.77A7,7,0,0,1,474.25,284.07ZM472,281.79c.93,0,1.67,0,2.24-.06a5.83,5.83,0,0,0,1.28-.29,2.43,2.43,0,0,0,2-2.42,2.52,2.52,0,0,0-1.28-2.3,6,6,0,0,0-2.83-.5l-.75,0-.69,0Z"/><path class="cls-2" d="M456.66,316.63h-11.5V306h11.37v1.88h-8.77v2.3h5.12V312h-5.12v2.61h8.9Zm-24.22-8.7h-8.65v2.76h4.66v2h-4.66v4h-2.6V306h11.25Zm-26.16,8.7H403.7V306h2.58Zm-15.68,0H379.68V306h2.61v8.62h8.31Zm-33.34-8.7h-8.64v2.76h4.66v2h-4.66v4H346V306h11.25Zm-28.48,6.67V308h-8.54v6.62Zm2.58-.48a2.58,2.58,0,0,1-.6,2,3.48,3.48,0,0,1-2.15.5h-8.2a3.48,3.48,0,0,1-2.15-.49,2.57,2.57,0,0,1-.6-2v-5.58a2.56,2.56,0,0,1,.6-2,3.48,3.48,0,0,1,2.15-.49h8.2a3.48,3.48,0,0,1,2.15.49,2.56,2.56,0,0,1,.6,2Zm-37.07,2.51h-11.5V306h11.37v1.88h-8.77v2.3h5.11V312h-5.11v2.61h8.9Zm-28.36-6.69v-1.23c0-.57-.39-.85-1.18-.85h-5.89v2.93h5.89C265.54,310.79,265.93,310.51,265.93,309.94Zm3.51,6.69h-3.71l-4.44-4h-2.43v4h-2.55V306h9.54c1.66,0,2.48.69,2.48,2.05v2.51a1.72,1.72,0,0,1-1.32,1.9,13.92,13.92,0,0,1-2.61.13Zm-31.24-4.26L235.72,308l-2.38,4.41Zm5.29,4.26h-2.91l-1.33-2.33h-7l-1.33,2.33h-2.58l6.29-10.6h2.48ZM216,314.12a2.54,2.54,0,0,1-.61,2,3.54,3.54,0,0,1-2.17.5h-6.61a3.49,3.49,0,0,1-2.16-.5,2.58,2.58,0,0,1-.6-2v-5.58a2.58,2.58,0,0,1,.6-2,3.49,3.49,0,0,1,2.16-.5h6.61c1.32,0,2.14.28,2.45.83a6.58,6.58,0,0,1,.33,2.7l-2.61.38v-2h-7v6.62h7v-2.26l2.61.53Zm-23.13-12.91H468.68v19.7H192.85Z"/></svg>