<svg width="30" height="31" xmlns="http://www.w3.org/2000/svg" xmlns:xlink="http://www.w3.org/1999/xlink" overflow="hidden"><defs><clipPath id="clip0"><rect x="558" y="226" width="30" height="31"/></clipPath></defs><g clip-path="url(#clip0)" transform="translate(-558 -226)"><path d="M567.369 231.508C567.914 231.508 568.331 231.944 568.331 232.44L568.331 233.343C568.331 234.118 567.69 234.739 566.887 234.739 566.149 234.739 565.507 234.118 565.507 233.343L565.507 232.44C565.507 231.944 565.925 231.508 566.469 231.508ZM567.369 235.611 567.369 235.643C567.434 235.828 567.466 236.016 567.528 236.232L566.952 236.791 566.855 236.791 566.246 236.232C566.343 236.107 566.375 235.953 566.375 235.797L566.375 235.611ZM572.6 239.963 572.6 245.337 572.568 245.337 569.711 247.326 569.711 240.521C569.935 240.675 570.223 240.8 570.547 240.832L570.897 240.832C571.282 240.8 571.635 240.675 571.923 240.459L572.6 239.963ZM565.669 236.76 566.343 237.412C566.502 237.569 566.728 237.692 566.984 237.692 567.208 237.692 567.466 237.632 567.625 237.412L568.234 236.854C568.428 236.916 568.62 236.979 568.814 236.979 568.973 236.979 569.102 237.07 569.229 237.196L570.514 238.749C570.6 238.853 570.73 238.898 570.851 238.898 570.953 238.898 571.05 238.869 571.123 238.811L572.662 237.6C572.775 237.522 572.912 237.483 573.039 237.483 573.168 237.483 573.29 237.522 573.368 237.6 573.465 237.723 573.529 237.848 573.529 238.005 573.465 238.034 573.432 238.159 573.303 238.253L571.347 239.743C571.188 239.869 571.026 239.963 570.835 239.963L570.641 239.963C570.385 239.9 570.161 239.806 569.999 239.589L569.614 239.122C569.555 239.025 569.444 238.976 569.331 238.976 569.264 238.976 569.194 238.994 569.134 239.028 568.973 239.091 568.876 239.247 568.876 239.401L568.876 247.919 567.849 248.603 567.849 244.653C567.849 244.405 567.658 244.22 567.434 244.22 567.175 244.22 566.984 244.405 566.984 244.653L566.984 249.192 565.54 250.218 565.54 244.778C565.54 244.343 565.413 243.941 565.251 243.567L564.801 242.695C564.707 242.448 564.61 242.168 564.61 241.889L564.61 237.538C564.61 237.352 564.737 237.196 564.898 237.102L565.669 236.76ZM572.982 227.003C572.759 227.003 572.568 227.219 572.568 227.436L572.568 236.606C572.406 236.637 572.247 236.728 572.117 236.854L570.867 237.786 569.87 236.543C569.582 236.232 569.229 236.016 568.781 236.016 568.493 236.016 568.299 235.797 568.299 235.549L568.299 235.081C568.876 234.708 569.229 234.056 569.229 233.312L569.229 232.408C569.229 231.445 568.396 230.639 567.369 230.639L566.469 230.639C565.443 230.639 564.61 231.445 564.61 232.408L564.61 233.312C564.61 234.056 564.963 234.708 565.54 235.081L565.54 235.765 565.54 235.797 564.448 236.326C563.969 236.574 563.68 237.039 563.68 237.538L563.68 241.889C563.68 242.325 563.807 242.695 563.969 243.1L564.416 243.941C564.545 244.22 564.61 244.499 564.61 244.778L564.61 250.84 558.226 255.222C558.032 255.345 558 255.593 558.129 255.812 558.186 255.924 558.313 255.979 558.447 255.979 558.536 255.979 558.631 255.956 558.706 255.906L572.95 246.115 587.197 255.906C587.262 255.966 587.356 255.997 587.421 255.997 587.55 255.997 587.709 255.906 587.806 255.812 588 255.593 587.968 255.345 587.741 255.222L573.432 245.4 573.432 239.247 573.85 238.937C574.171 238.686 574.362 238.315 574.362 237.911 574.362 237.538 574.203 237.133 573.915 236.885 573.786 236.76 573.594 236.668 573.432 236.606L573.432 228.741 579.304 228.741 578.695 229.955C578.598 230.077 578.598 230.234 578.695 230.359L579.304 231.571 574.845 231.571C574.589 231.571 574.395 231.756 574.395 231.975 574.395 232.223 574.589 232.408 574.845 232.408L579.978 232.408C580.137 232.408 580.266 232.348 580.331 232.223 580.428 232.098 580.428 231.944 580.331 231.787L579.496 230.171 580.331 228.524C580.428 228.402 580.428 228.245 580.331 228.088 580.266 227.997 580.107 227.903 579.978 227.903L573.432 227.903 573.432 227.436C573.432 227.219 573.241 227.003 572.982 227.003Z" fill="#FFC000" fill-rule="evenodd"/><path d="M575.445 249C575.317 249 575.198 249.061 575.124 249.181 575.003 249.413 575.033 249.678 575.247 249.812L579.295 252.933C579.385 252.967 579.446 253 579.539 253 579.632 253 579.784 252.933 579.876 252.799 580 252.601 579.938 252.336 579.753 252.169L575.708 249.081C575.62 249.028 575.53 249 575.445 249Z" fill="#FFC000" fill-rule="evenodd"/><path d="M572.512 247C572.355 247 572.194 247.091 572.104 247.255 572.003 247.503 572.038 247.876 572.243 248.044L573.24 248.916C573.309 248.958 573.413 249 573.483 249 573.618 249 573.792 248.916 573.893 248.749 573.997 248.501 573.962 248.127 573.757 247.96L572.76 247.087C572.685 247.028 572.598 247 572.512 247Z" fill="#FFC000" fill-rule="evenodd"/></g></svg>