<svg width="24" height="31" xmlns="http://www.w3.org/2000/svg" xmlns:xlink="http://www.w3.org/1999/xlink" overflow="hidden"><defs><clipPath id="clip0"><rect x="388" y="226" width="24" height="31"/></clipPath></defs><g clip-path="url(#clip0)" transform="translate(-388 -226)"><path d="M399.819 229C397.754 229 395.703 229.847 394.164 231.518 391.253 234.582 391 239.473 393.538 242.832 393.633 242.966 393.725 243 393.851 243 393.946 243 394.038 242.933 394.132 242.899 394.319 242.734 394.319 242.5 394.196 242.301 391.942 239.241 392.16 234.881 394.758 232.15 396.147 230.66 397.991 229.906 399.842 229.906 401.418 229.906 402.999 230.451 404.311 231.552 404.39 231.624 404.484 231.658 404.577 231.658 404.698 231.658 404.816 231.599 404.905 231.485 405 231.253 404.968 230.987 404.811 230.853 403.343 229.615 401.576 229 399.819 229Z" fill="#FFC000" fill-rule="evenodd"/><path d="M399.951 227.859C405.54 227.859 410.099 232.338 410.099 237.895 410.099 240.277 409.587 242.723 408.494 245.041 407.661 246.917 406.471 248.789 404.931 250.537 402.811 252.983 400.626 254.57 399.951 255.109 399.277 254.634 397.092 253.044 394.975 250.569 393.432 248.821 392.245 246.946 391.409 245.105 390.316 242.755 389.804 240.341 389.804 237.895 389.804 232.399 394.33 227.859 399.951 227.859ZM399.984 227C393.947 227 389 231.86 389 237.863 389 240.405 389.545 242.945 390.67 245.391 391.571 247.359 392.79 249.299 394.362 251.076 397.03 254.189 399.63 255.904 399.76 255.936 399.822 255.968 399.919 256 399.984 256 400.081 256 400.146 255.968 400.24 255.936 400.337 255.84 402.97 254.125 405.605 251.076 407.178 249.267 408.429 247.359 409.298 245.391 410.423 242.945 411 240.405 411 237.863 411 231.86 406.053 227 399.984 227Z" fill="#FFC000" fill-rule="evenodd"/><path d="M398.82 235C398.383 235 397.903 235.028 397.382 235.093 397.174 235.115 397.003 235.226 397.003 235.403L397.003 235.712C397.003 235.866 397.208 235.998 397.451 235.998 397.726 235.998 397.932 235.866 397.932 235.712L397.932 235.646C398.264 235.616 398.571 235.603 398.852 235.603 399.41 235.603 399.862 235.653 400.206 235.712 400.825 235.822 401.17 235.955 401.17 235.955 401.239 235.978 401.343 235.998 401.413 235.998 401.549 235.998 401.722 235.955 401.826 235.866 401.997 235.735 401.893 235.557 401.688 235.447 401.604 235.429 400.573 235 398.82 235Z" fill="#FFC000" fill-rule="evenodd"/><path d="M402.972 232.88 402.972 235.03C402.972 235.418 402.873 235.776 402.705 236.104L402.539 236.43C402.505 236.46 402.505 236.558 402.505 236.624L402.505 237.567C402.505 238.349 402.204 239.066 401.634 239.618 401.032 240.14 400.295 240.433 399.491 240.433 397.886 240.334 396.646 239.033 396.646 237.439L396.646 236.624C396.646 236.558 396.646 236.525 396.612 236.43L396.446 236.104C396.244 235.776 396.176 235.418 396.176 235.03 396.176 233.857 397.183 232.88 398.386 232.88ZM400.998 240.985 400.998 241.606C400.998 241.734 400.998 241.833 401.032 241.964L399.525 243.069 398.018 241.964C398.052 241.833 398.052 241.702 398.052 241.606L398.052 240.985C398.487 241.149 398.923 241.28 399.39 241.28L399.525 241.28C400.028 241.28 400.529 241.182 400.998 240.985ZM397.517 242.711 399.123 243.884 399.123 245.057C397.717 244.991 396.345 244.534 395.139 243.722 395.206 243.624 395.341 243.558 395.442 243.525L397.183 242.842C397.315 242.809 397.45 242.743 397.517 242.711ZM401.566 242.648C401.667 242.743 401.802 242.776 401.901 242.809L404.043 243.591C402.84 244.502 401.468 244.991 399.994 245.057L399.994 243.851 401.566 242.648ZM398.42 232C396.713 232 395.307 233.334 395.307 235.03 395.307 235.516 395.409 236.071 395.642 236.525L395.743 236.755 395.743 237.439C395.743 238.642 396.311 239.716 397.183 240.466L397.183 241.639C397.183 241.833 397.048 242.027 396.848 242.093L395.074 242.743C394.638 242.907 394.236 243.233 394.067 243.689 394.003 243.851 394.034 244.08 394.202 244.209 395.743 245.415 397.649 246 399.525 246 401.735 246 403.911 245.185 405.584 243.558 408.696 240.498 409 235.746 406.287 232.391 406.194 232.284 406.082 232.235 405.966 232.235 405.871 232.235 405.775 232.268 405.685 232.325 405.449 232.489 405.449 232.716 405.584 232.946 408.027 235.907 407.76 240.173 405.016 242.842L404.847 243.006C404.746 242.973 404.614 242.907 404.546 242.907L402.269 242.093C402.069 241.997 401.934 241.833 401.934 241.639L401.934 240.531C402.036 240.466 402.171 240.367 402.235 240.302 403.006 239.585 403.408 238.675 403.408 237.633L403.408 236.818 403.543 236.591C403.742 236.134 403.877 235.648 403.877 235.125L403.877 232.457C403.877 232.197 403.675 232 403.408 232Z" fill="#FFC000" fill-rule="evenodd"/></g></svg>