<svg width="94" height="91" viewBox="0 0 94 91" fill="none" xmlns="http://www.w3.org/2000/svg">
<path d="M36.8443 73.6887C57.1929 73.6887 73.6887 57.1929 73.6887 36.8443C73.6887 16.4958 57.1929 0 36.8443 0C16.4958 0 0 16.4958 0 36.8443C0 57.1929 16.4958 73.6887 36.8443 73.6887Z" fill="#497BE3"/>
<path d="M82.4993 12.8155C79.408 12.8155 76.8926 10.3001 76.8926 7.2088C76.8926 4.11748 79.408 1.60205 82.4993 1.60205C85.5906 1.60205 88.1061 4.11748 88.1061 7.2088C88.1061 10.3001 85.5902 12.8155 82.4993 12.8155ZM82.4993 4.80591C81.1741 4.80591 80.0964 5.8836 80.0964 7.2088C80.0964 8.53399 81.1741 9.61169 82.4993 9.61169C83.8245 9.61169 84.9022 8.53399 84.9022 7.2088C84.9022 5.8836 83.8241 4.80591 82.4993 4.80591Z" fill="#4C241D"/>
<path d="M5.60675 86.504C2.51543 86.504 0 83.9886 0 80.8973C0 77.806 2.51543 75.2905 5.60675 75.2905C8.69807 75.2905 11.2135 77.806 11.2135 80.8973C11.2135 83.9886 8.69767 86.504 5.60675 86.504ZM5.60675 78.4944C4.28155 78.4944 3.20386 79.5721 3.20386 80.8973C3.20386 82.2225 4.28155 83.3002 5.60675 83.3002C6.93195 83.3002 8.00964 82.2225 8.00964 80.8973C8.00964 79.5721 6.93154 78.4944 5.60675 78.4944Z" fill="#4C241D"/>
<path d="M10.151 20.5638C9.7413 20.5638 9.33121 20.4072 9.01843 20.0945L3.13335 14.2094C2.5078 13.5838 2.5078 12.5698 3.13335 11.9443C3.7589 11.3187 4.77292 11.3187 5.39848 11.9443L11.2836 17.8293C11.9091 18.4549 11.9091 19.4689 11.2836 20.0945C10.9708 20.4076 10.5611 20.5638 10.151 20.5638Z" fill="#4C241D"/>
<path d="M4.26591 20.5638C3.85622 20.5638 3.44613 20.4072 3.13335 20.0945C2.5078 19.4689 2.5078 18.4549 3.13335 17.8293L9.01843 11.9443C9.64399 11.3187 10.658 11.3187 11.2836 11.9443C11.9091 12.5698 11.9091 13.5838 11.2836 14.2094L5.39848 20.0945C5.0857 20.4076 4.67561 20.5638 4.26591 20.5638Z" fill="#4C241D"/>
<path d="M92.1109 23.4396C93.1126 23.4396 93.9247 22.6275 93.9247 21.6258C93.9247 20.6241 93.1126 19.812 92.1109 19.812C91.1092 19.812 90.2971 20.6241 90.2971 21.6258C90.2971 22.6275 91.1092 23.4396 92.1109 23.4396Z" fill="#4C241D"/>
<path d="M7.20868 61.8859C8.21041 61.8859 9.02246 61.0738 9.02246 60.0721C9.02246 59.0704 8.21041 58.2583 7.20868 58.2583C6.20696 58.2583 5.3949 59.0704 5.3949 60.0721C5.3949 61.0738 6.20696 61.8859 7.20868 61.8859Z" fill="#4C241D"/>
<path d="M20.0241 7.42054C21.0258 7.42054 21.8379 6.60848 21.8379 5.60675C21.8379 4.60503 21.0258 3.79297 20.0241 3.79297C19.0224 3.79297 18.2103 4.60503 18.2103 5.60675C18.2103 6.60848 19.0224 7.42054 20.0241 7.42054Z" fill="#4C241D"/>
<path fill-rule="evenodd" clip-rule="evenodd" d="M22.873 62.3042L17.7462 32.4046C17.6702 31.9665 17.9653 31.5507 18.3988 31.4747L53.706 25.4215L61.7919 24.0893C62.2345 23.897 62.9541 24.1205 63.1238 25.1086L71.8578 68.7241L74.0437 81.4833C74.1197 81.917 73.8246 82.3372 73.391 82.4132L41.0607 87.9568L28.4558 90.1206C28.0222 90.1922 27.6021 89.8971 27.526 89.4634L22.873 62.3042Z" fill="white"/>
<path fill-rule="evenodd" clip-rule="evenodd" d="M32.7647 53.488V82.2342C32.7647 82.6947 33.1402 83.0747 33.6006 83.0747H46.943H66.6952H69.5335H81.1641C81.6244 83.0747 82 82.6947 82 82.2342V68.7285V31.4211V31.0321H73.5073C72.6893 31.0321 70.9907 31.1484 70.9907 29.2931L70.9727 21H33.6004C33.1401 21 32.7645 21.3755 32.7645 21.8361V29.0114V32.047V53.488H32.7647Z" fill="white"/>
<path fill-rule="evenodd" clip-rule="evenodd" d="M32.7648 29.0117L18.3988 31.475C17.9653 31.551 17.6702 31.9667 17.7462 32.4049L18.5955 37.3627L22.8732 62.3044L27.5262 89.4634C27.6022 89.8972 28.0224 90.1921 28.4559 90.1207L41.0608 87.9569L64.1118 84.0048L69.5337 83.0749H66.6954L32.7648 29.0117Z" fill="white"/>
<path fill-rule="evenodd" clip-rule="evenodd" d="M81.9998 68.7285V31.4211V31.0321V30.9025C81.9998 30.661 81.897 30.6208 81.526 30.2587L72.3585 21.5142C71.9249 21.1028 71.8534 21 71.5986 21H70.9727H33.6004C33.1401 21 32.7645 21.3755 32.7645 21.8361V82.2342C32.7645 82.6947 33.1401 83.0747 33.6004 83.0747H81.1639C81.6243 83.0747 81.9998 82.6947 81.9998 82.2342V68.7285Z" fill="white"/>
<path fill-rule="evenodd" clip-rule="evenodd" d="M32.7648 29.0117L29.399 29.5885V85.3238C29.399 85.7888 29.7746 86.1643 30.235 86.1643H43.5774H51.5158L64.1117 84.005L69.5336 83.0751H66.6953H63.2044H46.9431H33.6007C33.1403 83.0751 32.7648 82.6951 32.7648 82.2346C32.7648 64.495 32.7648 46.7511 32.7648 29.0117Z" fill="#E7E7E7"/>
<path fill-rule="evenodd" clip-rule="evenodd" d="M81.9998 68.7285V31.4211V31.0321C81.9998 30.5806 81.8523 30.5762 81.526 30.2587L72.3584 21.5142C71.9248 21.1028 71.8534 21 71.5985 21H70.9727H61.6709C73.0377 36.2181 73.6858 63.6498 65.2513 80.7723C64.8623 81.5681 64.4556 82.3326 64.031 83.0747H66.695H69.5333H81.1638C81.6242 83.0747 81.9998 82.6947 81.9998 82.2342V68.7285Z" fill="white"/>
<path fill-rule="evenodd" clip-rule="evenodd" d="M70.9908 29.2931C70.9908 31.1484 72.6893 31.0321 73.5074 31.0321H82.0001V30.9025C82.0001 30.661 81.8973 30.6208 81.5263 30.2587L72.3587 21.5142C71.9252 21.1028 71.8537 21 71.5988 21H70.973L70.9908 29.2931Z" fill="white"/>
<path fill-rule="evenodd" clip-rule="evenodd" d="M81.5263 30.2587L72.3587 21.5142C71.9252 21.1028 71.8537 21 71.5988 21H70.973L70.9908 29.293C70.9908 31.1482 72.6893 31.032 73.5074 31.032H82.0001V30.9023C82.0001 30.661 81.8973 30.6208 81.5263 30.2587Z" fill="#AED3FF"/>
<path d="M74.446 39.2822H40.7927C40.1427 39.2822 39.6157 38.7551 39.6157 38.1047C39.6157 37.4544 40.1427 36.9272 40.7927 36.9272H74.446C75.0961 36.9272 75.623 37.4544 75.623 38.1047C75.623 38.7551 75.0962 39.2822 74.446 39.2822Z" fill="#AED3FF"/>
<path d="M74.446 47.6464H40.7927C40.1427 47.6464 39.6157 47.1193 39.6157 46.469C39.6157 45.8186 40.1427 45.2915 40.7927 45.2915H74.446C75.0961 45.2915 75.623 45.8186 75.623 46.469C75.623 47.1193 75.0962 47.6464 74.446 47.6464Z" fill="#AED3FF"/>
<path d="M74.446 56.0112H40.7927C40.1427 56.0112 39.6157 55.4841 39.6157 54.8337C39.6157 54.1834 40.1427 53.6562 40.7927 53.6562H74.446C75.0961 53.6562 75.623 54.1834 75.623 54.8337C75.623 55.4841 75.0962 56.0112 74.446 56.0112Z" fill="#AED3FF"/>
<path d="M74.446 64.3759H40.7927C40.1427 64.3759 39.6157 63.8488 39.6157 63.1985C39.6157 62.5481 40.1427 62.021 40.7927 62.021H74.446C75.0961 62.021 75.623 62.5481 75.623 63.1985C75.623 63.8488 75.0962 64.3759 74.446 64.3759Z" fill="#AED3FF"/>
<path d="M74.446 72.7407H40.7927C40.1427 72.7407 39.6157 72.2136 39.6157 71.5632C39.6157 70.9129 40.1427 70.3857 40.7927 70.3857H74.446C75.0961 70.3857 75.623 70.9129 75.623 71.5632C75.623 72.2136 75.0962 72.7407 74.446 72.7407Z" fill="#AED3FF"/>
</svg>
