<svg width="94" height="91" viewBox="0 0 94 91" fill="none" xmlns="http://www.w3.org/2000/svg">
<path d="M36.8443 73.6887C57.1929 73.6887 73.6887 57.1929 73.6887 36.8443C73.6887 16.4958 57.1929 0 36.8443 0C16.4958 0 0 16.4958 0 36.8443C0 57.1929 16.4958 73.6887 36.8443 73.6887Z" fill="#7F79D9"/>
<path d="M82.4993 12.8155C79.408 12.8155 76.8926 10.3001 76.8926 7.2088C76.8926 4.11748 79.408 1.60205 82.4993 1.60205C85.5906 1.60205 88.1061 4.11748 88.1061 7.2088C88.1061 10.3001 85.5902 12.8155 82.4993 12.8155ZM82.4993 4.80591C81.1741 4.80591 80.0964 5.8836 80.0964 7.2088C80.0964 8.53399 81.1741 9.61169 82.4993 9.61169C83.8245 9.61169 84.9022 8.53399 84.9022 7.2088C84.9022 5.8836 83.8241 4.80591 82.4993 4.80591Z" fill="#4C241D"/>
<path d="M5.60675 86.504C2.51543 86.504 0 83.9886 0 80.8973C0 77.806 2.51543 75.2905 5.60675 75.2905C8.69807 75.2905 11.2135 77.806 11.2135 80.8973C11.2135 83.9886 8.69767 86.504 5.60675 86.504ZM5.60675 78.4944C4.28155 78.4944 3.20386 79.5721 3.20386 80.8973C3.20386 82.2225 4.28155 83.3002 5.60675 83.3002C6.93195 83.3002 8.00964 82.2225 8.00964 80.8973C8.00964 79.5721 6.93154 78.4944 5.60675 78.4944Z" fill="#4C241D"/>
<path d="M10.151 20.5638C9.7413 20.5638 9.33121 20.4072 9.01843 20.0945L3.13335 14.2094C2.5078 13.5838 2.5078 12.5698 3.13335 11.9443C3.7589 11.3187 4.77292 11.3187 5.39848 11.9443L11.2836 17.8293C11.9091 18.4549 11.9091 19.4689 11.2836 20.0945C10.9708 20.4076 10.5611 20.5638 10.151 20.5638Z" fill="#4C241D"/>
<path d="M4.26591 20.5638C3.85622 20.5638 3.44613 20.4072 3.13335 20.0945C2.5078 19.4689 2.5078 18.4549 3.13335 17.8293L9.01843 11.9443C9.64399 11.3187 10.658 11.3187 11.2836 11.9443C11.9091 12.5698 11.9091 13.5838 11.2836 14.2094L5.39848 20.0945C5.0857 20.4076 4.67561 20.5638 4.26591 20.5638Z" fill="#4C241D"/>
<path d="M92.1108 23.4401C93.1126 23.4401 93.9246 22.628 93.9246 21.6263C93.9246 20.6246 93.1126 19.8125 92.1108 19.8125C91.1091 19.8125 90.2971 20.6246 90.2971 21.6263C90.2971 22.628 91.1091 23.4401 92.1108 23.4401Z" fill="#4C241D"/>
<path d="M7.20868 61.8864C8.21041 61.8864 9.02246 61.0743 9.02246 60.0726C9.02246 59.0709 8.21041 58.2588 7.20868 58.2588C6.20696 58.2588 5.3949 59.0709 5.3949 60.0726C5.3949 61.0743 6.20696 61.8864 7.20868 61.8864Z" fill="#4C241D"/>
<path d="M20.0241 7.42054C21.0258 7.42054 21.8379 6.60848 21.8379 5.60675C21.8379 4.60503 21.0258 3.79297 20.0241 3.79297C19.0224 3.79297 18.2103 4.60503 18.2103 5.60675C18.2103 6.60848 19.0224 7.42054 20.0241 7.42054Z" fill="#4C241D"/>
<path d="M81.5469 23.1875H68.4219V91H81.5469C83.963 91 85.9219 89.0411 85.9219 86.625V27.5625C85.9219 25.1464 83.963 23.1875 81.5469 23.1875Z" fill="#C61C31"/>
<path d="M68.4219 88.8125H78.2656C78.2656 90.0211 77.2867 91 76.0781 91H68.4219V88.8125Z" fill="#B4172B"/>
<path d="M80.4531 25.375H78.2656C80.078 25.375 81.5469 26.8439 81.5469 28.6562V85.5312C81.5469 87.3436 80.078 88.8125 78.2656 88.8125H80.4531C82.2655 88.8125 83.7344 87.3436 83.7344 85.5312V28.6562C83.7344 26.8439 82.2655 25.375 80.4531 25.375Z" fill="#E2E7F0"/>
<path d="M78.2656 25.375H76.0781C77.8905 25.375 79.3594 26.8439 79.3594 28.6562V85.5312C79.3594 87.3436 77.8905 88.8125 76.0781 88.8125H78.2656C80.078 88.8125 81.5469 87.3436 81.5469 85.5312V28.6562C81.5469 26.8439 80.078 25.375 78.2656 25.375Z" fill="#E2E7F0"/>
<path d="M76.0781 25.375H73.8906C75.703 25.375 77.1719 26.8439 77.1719 28.6562V85.5312C77.1719 87.3436 75.703 88.8125 73.8906 88.8125H76.0781C77.8905 88.8125 79.3594 87.3436 79.3594 85.5312V28.6562C79.3594 26.8439 77.8905 25.375 76.0781 25.375Z" fill="#C9D5E3"/>
<path d="M77.1719 86.625C77.1719 89.0411 75.213 91 72.7969 91H29.0469C27.8383 91 26.8594 90.0211 26.8594 88.8125V25.375C26.8594 24.1664 27.8383 23.1875 29.0469 23.1875H72.7969C75.213 23.1875 77.1719 25.1464 77.1719 27.5625V86.625Z" fill="#DE333F"/>
<path d="M67.3281 21C66.1195 21 65.1406 21.9789 65.1406 23.1875H69.5156C69.5156 21.9789 68.5367 21 67.3281 21Z" fill="#F19920"/>
<path d="M67.3281 21H56.3906C55.182 21 54.2031 21.9789 54.2031 23.1875V38.5L59.6719 36.3125L65.1406 38.5V23.1875C65.1406 21.9789 66.1195 21 67.3281 21Z" fill="#F6B545"/>
<path d="M42.1719 66.9375H66.2344C66.8381 66.9375 67.3281 67.4275 67.3281 68.0312C67.3281 68.635 66.8381 69.125 66.2344 69.125H42.1719C41.5681 69.125 41.0781 68.635 41.0781 68.0312C41.0781 67.4275 41.5681 66.9375 42.1719 66.9375Z" fill="#9C091B"/>
<path d="M46.5469 71.3125H61.8594C62.4631 71.3125 62.9531 71.8025 62.9531 72.4062C62.9531 73.01 62.4631 73.5 61.8594 73.5H46.5469C45.9431 73.5 45.4531 73.01 45.4531 72.4062C45.4531 71.8025 45.9431 71.3125 46.5469 71.3125Z" fill="#9C091B"/>
<path d="M60.7656 61.4688V59.2812C60.7656 56.4703 57.5609 56 56.3906 54.9062H52.0156C50.8453 56 47.6406 56.4703 47.6406 59.2812V61.4688H60.7656Z" fill="#9C091B"/>
<path d="M54.2031 52.7188C56.0153 52.7188 57.4844 51.2497 57.4844 49.4375C57.4844 47.6253 56.0153 46.1562 54.2031 46.1562C52.3909 46.1562 50.9219 47.6253 50.9219 49.4375C50.9219 51.2497 52.3909 52.7188 54.2031 52.7188Z" fill="#9C091B"/>
<path d="M29.0469 23.1875H32.3281V91H29.0469C27.8383 91 26.8594 90.0211 26.8594 88.8125V25.375C26.8594 24.1664 27.8383 23.1875 29.0469 23.1875Z" fill="#C61C31"/>
<path d="M74.9844 29.75V86.625C74.9844 87.8336 74.0055 88.8125 72.7969 88.8125H38.8906C37.682 88.8125 36.7031 89.7914 36.7031 91H72.7969C75.213 91 77.1719 89.0411 77.1719 86.625V27.5625C75.9633 27.5625 74.9844 28.5414 74.9844 29.75Z" fill="#C61C31"/>
<path d="M34.5156 23.1875H32.3281V91H34.5156V23.1875Z" fill="#B4172B"/>
</svg>
