<svg width="94" height="94" viewBox="0 0 94 94" fill="none" xmlns="http://www.w3.org/2000/svg">
<path d="M35.9853 74.5243C55.8594 74.5243 71.9706 58.4131 71.9706 38.539C71.9706 18.6649 55.8594 2.55371 35.9853 2.55371C16.1112 2.55371 0 18.6649 0 38.539C0 58.4131 16.1112 74.5243 35.9853 74.5243Z" fill="#ABE6D8"/>
<path d="M42.7356 56.3291H86.6717V84.2934C86.6717 88.4514 76.8364 91.8221 64.7037 91.8221C52.5709 91.8221 42.7356 88.4514 42.7356 84.2934V56.3291Z" fill="#FFEC95"/>
<path d="M64.704 93.24C53.367 93.24 41.3186 90.105 41.3186 84.2934V56.3294C41.3186 55.546 41.9532 54.9121 42.7359 54.9121H86.672C87.4554 54.9121 88.0893 55.546 88.0893 56.3294V84.2934C88.0893 90.105 76.0409 93.24 64.704 93.24ZM44.1532 57.7467V84.2934C44.1532 86.8455 51.971 90.4054 64.704 90.4054C77.4362 90.4054 85.2547 86.8455 85.2547 84.2934V57.7467H44.1532Z" fill="#4C241D"/>
<path d="M64.9033 63.8586C76.926 63.8586 86.6723 60.4879 86.6723 56.3299C86.6723 52.172 76.926 48.8013 64.9033 48.8013C52.8807 48.8013 43.1344 52.172 43.1344 56.3299C43.1344 60.4879 52.8807 63.8586 64.9033 63.8586Z" fill="#FFCE56"/>
<path d="M64.9019 65.2757C53.6617 65.2757 41.7157 62.1407 41.7157 56.329C41.7157 50.5188 53.6617 47.3838 64.9019 47.3838C76.1421 47.3838 88.0882 50.5188 88.0882 56.329C88.0878 62.1407 76.1418 65.2757 64.9019 65.2757ZM64.9019 50.2184C52.293 50.2184 44.5503 53.7769 44.5503 56.329C44.5503 58.8812 52.293 62.4411 64.9019 62.4411C77.5109 62.4411 85.2536 58.8812 85.2536 56.329C85.2536 53.7769 77.5109 50.2184 64.9019 50.2184Z" fill="#4C241D"/>
<path d="M64.9019 74.3967C53.6617 74.3967 41.7157 71.2616 41.7157 65.45C41.7157 64.6666 42.3503 64.0327 43.133 64.0327C43.9157 64.0327 44.5503 64.6666 44.5503 65.45C44.5503 68.0022 52.293 71.5621 64.9019 71.5621C77.5109 71.5621 85.2536 68.0022 85.2536 65.45C85.2536 64.6666 85.8875 64.0327 86.6709 64.0327C87.4543 64.0327 88.0882 64.6666 88.0882 65.45C88.0878 71.2616 76.1418 74.3967 64.9019 74.3967Z" fill="#4C241D"/>
<path d="M64.9019 84.2917C53.6617 84.2917 41.7157 81.1566 41.7157 75.345C41.7157 74.5616 42.3503 73.9277 43.133 73.9277C43.9157 73.9277 44.5503 74.5616 44.5503 75.345C44.5503 77.8972 52.293 81.4571 64.9019 81.4571C77.5109 81.4571 85.2536 77.8972 85.2536 75.345C85.2536 74.5616 85.8875 73.9277 86.6709 73.9277C87.4543 73.9277 88.0882 74.5616 88.0882 75.345C88.0878 81.1566 76.1418 84.2917 64.9019 84.2917Z" fill="#4C241D"/>
<path d="M42.144 70.8704C56.3524 70.8704 67.8707 59.3522 67.8707 45.1437C67.8707 30.9352 56.3524 19.417 42.144 19.417C27.9355 19.417 16.4172 30.9352 16.4172 45.1437C16.4172 59.3522 27.9355 70.8704 42.144 70.8704Z" fill="#FFCE56"/>
<path d="M42.1444 72.2891C27.177 72.2891 15 60.1121 15 45.1447C15 30.1774 27.177 18 42.1444 18C57.1117 18 69.2888 30.177 69.2888 45.1444C69.2888 60.1117 57.1117 72.2891 42.1444 72.2891ZM42.1444 20.8346C28.7396 20.8346 17.8346 31.7396 17.8346 45.1444C17.8346 58.5492 28.7396 69.4542 42.1444 69.4542C55.5491 69.4542 66.4542 58.5492 66.4542 45.1444C66.4542 31.7396 55.5491 20.8346 42.1444 20.8346Z" fill="#4C241D"/>
<path d="M42.1445 64.3745C52.7651 64.3745 61.3747 55.7648 61.3747 45.1443C61.3747 34.5237 52.7651 25.9141 42.1445 25.9141C31.524 25.9141 22.9143 34.5237 22.9143 45.1443C22.9143 55.7648 31.524 64.3745 42.1445 64.3745Z" fill="#FFCE56"/>
<path d="M42.1449 65.7916C30.7595 65.7916 21.4974 56.5292 21.4974 45.1441C21.4974 33.759 30.7598 24.4966 42.1449 24.4966C53.5301 24.4966 62.7924 33.759 62.7924 45.1441C62.7924 56.5292 53.5304 65.7916 42.1449 65.7916ZM42.1449 27.3308C32.3227 27.3308 24.332 35.3212 24.332 45.1437C24.332 54.9663 32.3231 62.9567 42.1449 62.9567C51.9668 62.9567 59.9579 54.9663 59.9579 45.1437C59.9579 35.3212 51.9671 27.3308 42.1449 27.3308Z" fill="#4C241D"/>
<path d="M42.7354 54.5074C39.8094 54.5074 37.4294 52.1267 37.4294 49.2007V48.5931C37.4294 47.8097 38.064 47.1758 38.8467 47.1758C39.6294 47.1758 40.264 47.8097 40.264 48.5931V49.2007C40.264 50.5642 41.3727 51.6729 42.7354 51.6729C44.0982 51.6729 45.2069 50.5642 45.2069 49.2007C45.2069 48.2207 44.6375 47.3101 43.7548 46.881L39.9285 45.018C38.4102 44.2788 37.4294 42.7106 37.4294 41.0222C37.4294 38.6749 39.3389 36.7661 41.6856 36.7661H43.7853C46.132 36.7661 48.0414 38.6749 48.0414 41.0222C48.0414 41.8057 47.4069 42.4395 46.6242 42.4395C45.8414 42.4395 45.2069 41.8057 45.2069 41.0222C45.2069 40.2388 44.5694 39.6007 43.7853 39.6007H41.6856C40.9015 39.6007 40.264 40.2388 40.264 41.0222C40.264 41.6342 40.6191 42.2014 41.1686 42.4686L44.9957 44.3316C46.8463 45.2341 48.0414 47.1442 48.0414 49.2007C48.0414 52.1267 45.6615 54.5074 42.7354 54.5074Z" fill="#4C241D"/>
<path d="M42.8559 57.1001C42.0732 57.1001 41.4386 56.4662 41.4386 55.6828V35.5916C41.4386 34.8082 42.0732 34.1743 42.8559 34.1743C43.6386 34.1743 44.2732 34.8082 44.2732 35.5916V55.6828C44.2732 56.4659 43.6386 57.1001 42.8559 57.1001Z" fill="#4C241D"/>
<path d="M82.4993 11.8155C79.408 11.8155 76.8926 9.30012 76.8926 6.2088C76.8926 3.11748 79.408 0.602051 82.4993 0.602051C85.5906 0.602051 88.1061 3.11748 88.1061 6.2088C88.1061 9.30012 85.5902 11.8155 82.4993 11.8155ZM82.4993 3.80591C81.1741 3.80591 80.0964 4.8836 80.0964 6.2088C80.0964 7.53399 81.1741 8.61169 82.4993 8.61169C83.8245 8.61169 84.9022 7.53399 84.9022 6.2088C84.9022 4.8836 83.8241 3.80591 82.4993 3.80591Z" fill="#4C241D"/>
<path d="M5.60675 85.504C2.51543 85.504 0 82.9886 0 79.8973C0 76.806 2.51543 74.2905 5.60675 74.2905C8.69807 74.2905 11.2135 76.806 11.2135 79.8973C11.2135 82.9886 8.69767 85.504 5.60675 85.504ZM5.60675 77.4944C4.28155 77.4944 3.20386 78.5721 3.20386 79.8973C3.20386 81.2225 4.28155 82.3002 5.60675 82.3002C6.93195 82.3002 8.00964 81.2225 8.00964 79.8973C8.00964 78.5721 6.93154 77.4944 5.60675 77.4944Z" fill="#4C241D"/>
<path d="M10.151 19.5638C9.7413 19.5638 9.33121 19.4072 9.01843 19.0945L3.13335 13.2094C2.5078 12.5838 2.5078 11.5698 3.13335 10.9443C3.7589 10.3187 4.77292 10.3187 5.39848 10.9443L11.2836 16.8293C11.9091 17.4549 11.9091 18.4689 11.2836 19.0945C10.9708 19.4076 10.5611 19.5638 10.151 19.5638Z" fill="#4C241D"/>
<path d="M4.26591 19.5638C3.85622 19.5638 3.44613 19.4072 3.13335 19.0945C2.5078 18.4689 2.5078 17.4549 3.13335 16.8293L9.01843 10.9443C9.64399 10.3187 10.658 10.3187 11.2836 10.9443C11.9091 11.5698 11.9091 12.5838 11.2836 13.2094L5.39848 19.0945C5.0857 19.4076 4.67561 19.5638 4.26591 19.5638Z" fill="#4C241D"/>
<path d="M92.1109 22.4401C93.1126 22.4401 93.9247 21.628 93.9247 20.6263C93.9247 19.6246 93.1126 18.8125 92.1109 18.8125C91.1092 18.8125 90.2971 19.6246 90.2971 20.6263C90.2971 21.628 91.1092 22.4401 92.1109 22.4401Z" fill="#4C241D"/>
<path d="M7.20868 60.8864C8.21041 60.8864 9.02246 60.0743 9.02246 59.0726C9.02246 58.0709 8.21041 57.2588 7.20868 57.2588C6.20696 57.2588 5.3949 58.0709 5.3949 59.0726C5.3949 60.0743 6.20696 60.8864 7.20868 60.8864Z" fill="#4C241D"/>
<path d="M20.0241 6.42054C21.0258 6.42054 21.8379 5.60848 21.8379 4.60675C21.8379 3.60503 21.0258 2.79297 20.0241 2.79297C19.0224 2.79297 18.2103 3.60503 18.2103 4.60675C18.2103 5.60848 19.0224 6.42054 20.0241 6.42054Z" fill="#4C241D"/>
</svg>
