<svg width="438" height="376" xmlns="http://www.w3.org/2000/svg" xmlns:xlink="http://www.w3.org/1999/xlink" overflow="hidden"><defs><clipPath id="clip0"><rect x="194" y="660" width="438" height="376"/></clipPath><radialGradient cx="0" cy="3.99266e+06" r="4.93456e+06" gradientUnits="userSpaceOnUse" spreadMethod="pad" id="fill1" gradientTransform="matrix(-4.46096e-05 9.5038e-05 -9.5038e-05 -4.46096e-05 709.936 867.22)"><stop offset="0" stop-color="#FC90AF"/><stop offset="0.5" stop-color="#BC67F8"/><stop offset="1" stop-color="#774AFF"/></radialGradient><radialGradient cx="-0.0078125" cy="-0.0078125" r="220742" fx="0" fy="0" gradientUnits="userSpaceOnUse" spreadMethod="pad" id="fill2" gradientTransform="matrix(2.47775e-05 0.000102021 -0.000102021 2.47775e-05 272.21 747.694)"><stop offset="0" stop-color="#FC90AF"/><stop offset="0.5" stop-color="#CC66FF"/><stop offset="1" stop-color="#4472C4"/></radialGradient><radialGradient cx="0.015625" cy="0.015625" r="262988" fx="0" fy="0" gradientUnits="userSpaceOnUse" spreadMethod="pad" id="fill3" gradientTransform="matrix(6.23874e-05 -8.44396e-05 8.44396e-05 6.23874e-05 298.864 729.547)"><stop offset="0" stop-color="#FC90AF"/><stop offset="0.5" stop-color="#CC66FF"/><stop offset="1" stop-color="#4472C4"/></radialGradient><radialGradient cx="0" cy="1.42696e+06" r="1.52546e+06" fy="1.42696e+06" gradientUnits="userSpaceOnUse" spreadMethod="pad" id="fill4" gradientTransform="scale(0.000104987 0.000104987)"><stop offset="0" stop-color="#FC90AF"/><stop offset="0.5" stop-color="#CC66FF"/><stop offset="1" stop-color="#4472C4"/></radialGradient></defs><g clip-path="url(#clip0)" transform="translate(-194 -660)"><path d="M630.811 830.079 630.988 1035.41 350.442 1034.78 300.906 752.12 630.811 830.079Z" fill="url(#fill1)" fill-rule="evenodd"/><path d="M252.068 752.586 273.433 752.73 254.514 762.658Z" fill="url(#fill2)" fill-rule="evenodd"/><path d="M318.363 743.954 302.79 724.234 326.214 733.328Z" fill="url(#fill3)" fill-rule="evenodd"/><path d="M0 149.812 39.885 0 56.6166 2.91267e-05 35.1802 142.239 0 149.812Z" fill="url(#fill4)" fill-rule="evenodd" transform="matrix(-0.453646 -0.891182 -0.891182 0.453646 337.553 710.727)"/></g></svg>